<svg aria-hidden="true" style="position: absolute; width: 0; height: 0; overflow: hidden;" version="1.1" xmlns="http://www.w3.org/2000/svg" xmlns:xlink="http://www.w3.org/1999/xlink">
<defs>
<symbol id="icon-twitter" viewBox="0 0 32 32">
<path d="M31.207 6.391c-1.16 0.509-2.397 0.846-3.686 1.010 1.326-0.792 2.339-2.036 2.815-3.536-1.237 0.737-2.602 1.258-4.057 1.549-1.174-1.25-2.848-2.025-4.673-2.025-3.542 0-6.393 2.875-6.393 6.399 0 0.507 0.043 0.995 0.148 1.459-5.319-0.259-10.025-2.809-13.187-6.692-0.552 0.958-0.876 2.054-0.876 3.234 0 2.216 1.141 4.18 2.842 5.317-1.028-0.020-2.036-0.318-2.89-0.788 0 0.020 0 0.045 0 0.070 0 3.109 2.218 5.691 5.126 6.286-0.521 0.142-1.088 0.211-1.677 0.211-0.41 0-0.823-0.023-1.211-0.109 0.829 2.534 3.181 4.396 5.978 4.457-2.177 1.703-4.94 2.729-7.932 2.729-0.525 0-1.028-0.023-1.531-0.088 2.834 1.828 6.193 2.871 9.814 2.871 11.773 0 18.209-9.752 18.209-18.205 0-0.283-0.010-0.556-0.023-0.827 1.27-0.901 2.337-2.027 3.206-3.322z"></path>
</symbol>
<symbol id="icon-linkedin" viewBox="0 0 32 32">
<path d="M28.919 28.471v-9.026c0-4.436-0.955-7.825-6.13-7.825-2.495 0-4.159 1.355-4.837 2.649h-0.062v-2.249h-4.898v16.451h5.114v-8.164c0-2.156 0.401-4.22 3.050-4.22 2.618 0 2.649 2.434 2.649 4.344v8.010h5.114v0.031z"></path>
<path d="M4.674 12.020h5.114v16.451h-5.114v-16.451z"></path>
<path d="M7.231 3.826c-1.633 0-2.957 1.325-2.957 2.957s1.325 2.988 2.957 2.988c1.633 0 2.957-1.355 2.957-2.988s-1.325-2.957-2.957-2.957z"></path>
</symbol>
<symbol id="icon-vimeo" viewBox="0 0 30 32">
<path d="M30.271 7.988c0.227-1.273 0.222-2.582-0.564-3.572-1.097-1.388-3.431-1.439-5.031-1.194-1.301 0.199-5.702 2.141-7.2 6.789 2.653-0.202 4.044 0.191 3.788 3.112-0.107 1.222-0.724 2.561-1.413 3.845-0.796 1.48-2.288 4.385-4.245 2.291-1.763-1.885-1.63-5.49-2.033-7.891-0.224-1.347-0.462-3.026-0.903-4.411-0.38-1.191-1.252-2.628-2.319-2.939-1.145-0.337-2.562 0.189-3.393 0.679-2.648 1.556-4.667 3.771-6.957 5.597 0.373 0.799 0.576 1.317 1.245 1.413 1.577 0.232 3.080-1.47 4.128 0.301 0.638 1.082 0.837 2.268 1.245 3.434 0.546 1.553 0.967 3.245 1.413 5.031 0.755 3.025 1.684 7.546 4.299 8.654 1.334 0.567 3.34-0.191 4.355-0.793 2.75-1.628 4.893-3.987 6.728-6.388 4.194-5.682 6.508-12.119 6.858-13.958z"></path>
</symbol>
<symbol id="icon-behance" viewBox="0 0 31 32">
<path d="M12.677 15.237c0.64-0.322 1.123-0.68 1.454-1.067 0.589-0.697 0.88-1.622 0.88-2.768 0-1.115-0.291-2.069-0.873-2.868-0.971-1.302-2.614-1.968-4.937-2.003h-9.203v18.785h8.581c0.967 0 1.863-0.083 2.691-0.252 0.828-0.172 1.545-0.485 2.152-0.944 0.539-0.399 0.99-0.894 1.348-1.477 0.566-0.882 0.849-1.882 0.849-2.995 0-1.079-0.248-1.997-0.741-2.752-0.499-0.755-1.231-1.308-2.202-1.658zM3.796 9.794h4.145c0.911 0 1.662 0.098 2.252 0.293 0.682 0.283 1.023 0.859 1.023 1.737 0 0.788-0.26 1.339-0.774 1.649-0.518 0.31-1.19 0.466-2.015 0.466h-4.63v-4.145zM10.351 21.726c-0.458 0.221-1.104 0.331-1.93 0.331h-4.625v-5.010h4.688c0.817 0.006 1.452 0.114 1.907 0.316 0.809 0.366 1.212 1.036 1.212 2.017 0 1.156-0.416 1.934-1.252 2.346z"></path>
<path d="M27.853 7.407h-8.161v2.338h8.161v-2.338z"></path>
<path d="M30.688 16.636c-0.169-1.088-0.543-2.046-1.125-2.872-0.637-0.936-1.446-1.622-2.431-2.055-0.98-0.435-2.084-0.653-3.313-0.651-2.063 0-3.739 0.645-5.035 1.926-1.292 1.285-1.94 3.132-1.94 5.539 0 2.567 0.715 4.422 2.151 5.561 1.431 1.14 3.084 1.708 4.96 1.708 2.271 0 4.037-0.676 5.299-2.024 0.807-0.851 1.264-1.689 1.364-2.512h-3.76c-0.218 0.406-0.47 0.724-0.759 0.955-0.524 0.424-1.206 0.636-2.042 0.636-0.796 0-1.47-0.175-2.032-0.524-0.928-0.559-1.414-1.537-1.475-2.93h10.26c0.015-1.2-0.023-2.123-0.123-2.758zM20.644 16.996c0.135-0.903 0.462-1.62 0.982-2.15 0.52-0.528 1.256-0.793 2.198-0.796 0.869 0 1.595 0.249 2.186 0.747 0.584 0.503 0.913 1.233 0.98 2.198h-6.347z"></path>
</symbol>
<symbol id="icon-dribble" viewBox="0 0 31 32">
<path d="M7.36816 1.25957C8.13656 2.17715 10.0182 4.57055 11.523 7.66461C13.4045 7.13535 15.3802 6.1968 17.3195 4.64145L17.7878 4.26594C15.9532 1.99012 13.1441 0.53125 10.0001 0.53125C8.99711 0.53125 8.0284 0.680313 7.11426 0.956367L7.36816 1.25957Z"/>
<path d="M18.0525 5.55568C16.1844 7.05388 14.1673 8.12279 12.0232 8.75603C12.322 9.44853 12.5823 10.1361 12.8034 10.8164C14.7749 10.6487 17.0018 10.9248 19.4287 11.6389L19.9216 11.784C19.9732 11.3735 19.9999 10.9554 19.9999 10.5313C19.9999 8.58158 19.4385 6.76083 18.4697 5.22107L18.0525 5.55568Z"/>
<path d="M1.21581 7.18816C2.20952 7.56504 4.41175 8.25484 7.18839 8.25492C8.18331 8.25496 9.25206 8.16621 10.3653 7.94297C8.98413 5.17516 7.30831 3.01344 6.46964 2.01187L5.94859 1.38965C3.52378 2.46852 1.60491 4.48449 0.654053 6.97512L1.21581 7.18816Z"/>
<path d="M3.84875 17.9146C4.28926 16.6032 5.39289 14.1561 7.83512 12.5012C8.94785 11.7472 10.2228 11.2357 11.6339 10.9738C11.4114 10.3115 11.1582 9.66796 10.8851 9.04855C9.83433 9.27909 8.75527 9.40937 7.64992 9.43706C7.50191 9.44081 7.35488 9.44261 7.20965 9.44261C4.30398 9.44265 1.96566 8.72589 0.800195 8.28386L0.30082 8.09448C0.104727 8.87476 0 9.69093 0 10.5312C0 13.6673 1.45152 16.4703 3.71758 18.3051L3.84875 17.9146Z"/>
<path d="M19.0979 12.7631C16.7601 12.0752 14.7947 11.8607 13.1431 11.9698C13.2917 12.536 13.4121 13.0959 13.5036 13.6478C13.8563 15.7751 13.7842 17.8089 13.2893 19.6928L13.2076 20.0037C16.4067 18.9174 18.8829 16.2527 19.7054 12.9419L19.0979 12.7631Z"/>
<path d="M12.1561 19.395C12.8059 16.9218 12.6045 14.4231 11.9778 12.1069C7.37344 12.9037 5.59273 16.4032 4.95969 18.2878L4.71484 19.0166C6.24938 19.9759 8.06098 20.5313 10.0001 20.5313C10.6516 20.5313 11.2885 20.4679 11.9056 20.3484L12.1561 19.395Z"/>
</symbol>
</defs>
</svg>
