<svg width="49" height="49" viewBox="0 0 49 49" fill="none" xmlns="http://www.w3.org/2000/svg"><path fill-rule="evenodd" clip-rule="evenodd" d="M43.102 44.798L2 3.575 3.536 2l41.26 41.385V13.387h2.199v33.175h-.436v.435H13.384v-2.199h29.718zm.545 0h1.15V43.62l-1.15 1.178z" fill="#C5FD64"/><path d="M2 3.574l-.948-.925-.912.934.922.926L2 3.574zm41.102 41.224v1.325h3.19l-2.253-2.26-.938.935zM3.535 2l.937-.935-.947-.95-.938.96.948.925zm41.26 41.385l-.938.935 2.263 2.269v-3.204h-1.325zm0-29.998v-1.324h-1.324v1.324h1.324zm2.199 0h1.324v-1.324h-1.324v1.324zm0 33.175v1.325h1.324v-1.325h-1.324zm-.436 0v-1.324h-1.325v1.324h1.325zm0 .435v1.324h1.324v-1.324H46.56zm-33.175 0h-1.325v1.324h1.325v-1.324zm0-2.199v-1.324h-1.325V44.8h1.325zm30.263 0l-.948-.925-2.195 2.25h3.143v-1.325zm1.15 0v1.325h1.324v-1.325h-1.325zm0-1.178h1.324v-3.253l-2.273 2.329.948.925zM1.061 4.51l41.102 41.225 1.875-1.87-41.1-41.228-1.876 1.87zm1.526-3.434L1.052 2.649l1.896 1.85 1.535-1.574-1.895-1.85zM45.733 42.45L4.474 1.065l-1.876 1.87 41.26 41.385 1.876-1.87zm-2.262-29.062v29.998h2.648V13.387h-2.648zm3.523-1.324h-2.199v2.648h2.199v-2.648zm1.324 34.5V13.386H45.67v33.175h2.649zm-1.76 1.323h.436v-2.648h-.436v2.648zm-1.325-1.324v.435h2.65v-.435h-2.65zm1.325-.89H13.384v2.65h33.175v-2.65zm-31.85 1.325v-2.199h-2.65v2.199h2.65zm-1.325-.874h29.718v-2.649H13.384v2.649zm30.263 0h1.15v-2.649h-1.15v2.649zm-.175-2.502v1.177h2.648V43.62h-2.648zm1.122 2.102l1.15-1.178-1.896-1.85-1.15 1.178 1.896 1.85z" fill="#C5FD64"/></svg>