<svg aria-hidden="true" style="position: absolute; width: 0; height: 0; overflow: hidden;" version="1.1" xmlns="http://www.w3.org/2000/svg" xmlns:xlink="http://www.w3.org/1999/xlink">
<defs>
<symbol id="icon-arrow-black" viewBox="0 0 32 32">
<path d="M28.192 29.322l-26.961-27.042 1.024-1.049 27.067 27.148v-19.664h1.466v21.778h-0.297v0.295h-21.778v-1.466h19.48zM28.59 29.322h0.731v-0.749l-0.731 0.749z"></path>
<path d="M1.231 2.28l-0.44-0.43-0.424 0.434 0.429 0.43 0.436-0.434zM28.192 29.322v0.615h1.483l-1.047-1.050-0.436 0.434zM2.255 1.231l0.436-0.434-0.44-0.442-0.436 0.447 0.44 0.43zM29.321 28.379l-0.436 0.434 1.051 1.054v-1.489h-0.615zM29.321 8.715v-0.615h-0.615v0.615h0.615zM30.787 8.715h0.615v-0.615h-0.615v0.615zM30.787 30.493v0.615h0.615v-0.615h-0.615zM30.49 30.493v-0.615h-0.615v0.615h0.615zM30.49 30.788v0.615h0.615v-0.615h-0.615zM8.712 30.788h-0.615v0.615h0.615v-0.615zM8.712 29.322v-0.615h-0.615v0.615h0.615zM28.59 29.322l-0.44-0.43-1.020 1.045h1.46v-0.615zM29.321 29.322v0.615h0.615v-0.615h-0.615zM29.321 28.573h0.615v-1.512l-1.056 1.082 0.44 0.43zM0.795 2.714l26.961 27.042 0.872-0.869-26.961-27.042-0.872 0.869zM1.814 0.801l-1.024 1.049 0.881 0.86 1.024-1.049-0.881-0.86zM29.757 27.945l-27.067-27.148-0.872 0.869 27.067 27.148 0.872-0.869zM28.706 8.715v19.664h1.231v-19.664h-1.231zM30.787 8.099h-1.466v1.231h1.466v-1.231zM31.403 30.493v-21.778h-1.231v21.778h1.231zM30.49 31.108h0.297v-1.231h-0.297v1.231zM29.875 30.493v0.295h1.231v-0.295h-1.231zM30.49 30.173h-21.778v1.231h21.778v-1.231zM9.327 30.788v-1.466h-1.231v1.466h1.231zM8.712 29.937h19.48v-1.231h-19.48v1.231zM28.59 29.937h0.731v-1.231h-0.731v1.231zM28.706 28.573v0.749h1.231v-0.749h-1.231zM29.031 29.752l0.731-0.749-0.881-0.86-0.731 0.749 0.881 0.86z"></path>
</symbol>
<symbol id="icon-union" viewBox="0 0 32 32">
<path fill="#c5fd64" style="fill: var(--color1, #c5fd64)" d="M28.148 29.256l-26.842-26.922 1.003-1.028 26.946 27.027v-19.59h1.436v21.665h-0.285v0.284h-21.665v-1.436h19.408zM28.504 29.256h0.751v-0.769l-0.751 0.769z"></path>
<path fill="#c5fd64" style="fill: var(--color1, #c5fd64)" d="M1.306 2.334l-0.619-0.604-0.596 0.611 0.602 0.604 0.613-0.611zM28.148 29.256v0.865h2.084l-1.471-1.476-0.613 0.611zM2.309 1.306l0.612-0.611-0.619-0.621-0.612 0.628 0.619 0.604zM29.255 28.333l-0.613 0.611 1.477 1.482v-2.092h-0.865zM29.255 8.743v-0.865h-0.865v0.865h0.865zM30.69 8.743h0.865v-0.865h-0.865v0.865zM30.69 30.408v0.865h0.865v-0.865h-0.865zM30.406 30.408v-0.865h-0.865v0.865h0.865zM30.406 30.692v0.865h0.865v-0.865h-0.865zM8.74 30.692h-0.865v0.865h0.865v-0.865zM8.74 29.256v-0.865h-0.865v0.865h0.865zM28.504 29.256l-0.619-0.604-1.434 1.469h2.053v-0.865zM29.255 29.256v0.865h0.865v-0.865h-0.865zM29.255 28.487h0.865v-2.125l-1.484 1.521 0.619 0.604zM0.694 2.944l26.842 26.922 1.225-1.221-26.842-26.922-1.225 1.221zM1.69 0.702l-1.003 1.028 1.238 1.208 1.003-1.028-1.238-1.208zM29.867 27.722l-26.946-27.027-1.225 1.221 26.946 27.027 1.225-1.221zM28.39 8.743v19.59h1.73v-19.59h-1.73zM30.69 7.878h-1.436v1.73h1.436v-1.73zM31.555 30.408v-21.665h-1.73v21.665h1.73zM30.406 31.273h0.285v-1.73h-0.285v1.73zM29.541 30.408v0.284h1.73v-0.284h-1.73zM30.406 29.827h-21.665v1.73h21.665v-1.73zM9.605 30.692v-1.436h-1.73v1.436h1.73zM8.74 30.121h19.408v-1.73h-19.408v1.73zM28.504 30.121h0.751v-1.73h-0.751v1.73zM28.39 28.487v0.769h1.73v-0.769h-1.73zM29.123 29.86l0.751-0.769-1.238-1.208-0.751 0.769 1.238 1.208z"></path>
</symbol>
</defs>
</svg>
