<svg width="34" height="33" viewBox="0 0 34 33" fill="none" xmlns="http://www.w3.org/2000/svg">
<g clip-path="url(#clip0_1372_1162)">
<path d="M25.0508 2.75C28.084 2.75 30.5508 5.21675 30.5508 8.25V24.75C30.5508 27.7833 28.084 30.25 25.0508 30.25H8.55078C5.51753 30.25 3.05078 27.7833 3.05078 24.75V8.25C3.05078 5.21675 5.51753 2.75 8.55078 2.75H25.0508ZM25.0508 0H8.55078C3.99403 0 0.300781 3.69325 0.300781 8.25V24.75C0.300781 29.3067 3.99403 33 8.55078 33H25.0508C29.6075 33 33.3008 29.3067 33.3008 24.75V8.25C33.3008 3.69325 29.6075 0 25.0508 0Z" fill="#C5FD64"/>
<path d="M18.746 16.5L22.6345 12.6115C23.1722 12.0739 23.1722 11.2049 22.6345 10.6673C22.0969 10.1297 21.2279 10.1297 20.6903 10.6673L16.8018 14.5558L12.9119 10.6659C12.3743 10.1283 11.5053 10.1283 10.9677 10.6659C10.43 11.2035 10.43 12.0725 10.9677 12.6102L14.8575 16.5L10.969 20.3885C10.4314 20.9262 10.4314 21.7952 10.969 22.3328C11.2372 22.6009 11.5892 22.7357 11.9412 22.7357C12.2932 22.7357 12.6452 22.6009 12.9133 22.3328L16.8018 18.4443L20.6903 22.3328C20.9584 22.6009 21.3104 22.7357 21.6624 22.7357C22.0144 22.7357 22.3664 22.6009 22.6345 22.3328C23.1722 21.7952 23.1722 20.9262 22.6345 20.3885L18.746 16.5Z" fill="#C5FD64"/>
</g>
<defs>
<clipPath id="clip0_1372_1162">
<rect width="33" height="33" fill="white" transform="translate(0.302734)"/>
</clipPath>
</defs>
</svg>
