<svg width="107" height="95" viewBox="0 0 107 95" fill="none" xmlns="http://www.w3.org/2000/svg">
<g clip-path="url(#clip0_1116_285)">
<path d="M54.9391 63.8224V62.9665C54.9391 52.4725 54.9341 41.9785 54.9531 31.4845C54.9541 30.8856 54.7816 30.6104 54.2195 30.3939C47.8504 27.9366 41.4914 25.4499 35.1313 22.9683C31.1245 21.4053 27.1206 19.8372 23.1148 18.2721C22.9484 18.2074 22.7809 18.1446 22.5078 18.0394C23.3829 17.5417 24.1823 17.0854 24.9827 16.6342C29.6633 13.9928 34.3459 11.3533 39.0265 8.71187C43.6782 6.0866 48.3289 3.46132 52.9766 0.826942C53.3464 0.617527 53.6623 0.578072 54.0889 0.727799C58.8363 2.39503 63.5946 4.02988 68.349 5.67687C73.5419 7.47663 78.7318 9.28549 83.9297 11.0701C84.3902 11.2279 84.5328 11.4525 84.5318 11.934C84.5188 22.681 84.5188 33.4279 84.5298 44.1738C84.5298 44.5825 84.3922 44.8172 84.0633 45.0287C78.9671 48.3125 73.8778 51.6065 68.7856 54.8975C64.3502 57.7625 59.9138 60.6255 55.4783 63.4896C55.3408 63.5786 55.1993 63.6626 54.9391 63.8234V63.8224ZM33.3671 17.2594C34.7286 17.7936 35.9476 18.2752 37.1686 18.7516C44.4108 21.5782 51.6519 24.4069 58.9001 27.2193C59.3705 27.4024 59.546 27.626 59.545 28.1601C59.526 36.9536 59.532 45.747 59.532 54.5404V55.2839C59.7882 55.1433 59.9317 55.0755 60.0633 54.9895C60.9015 54.4463 61.7338 53.8939 62.573 53.3527C68.1716 49.741 73.7692 46.1263 79.3767 42.5288C79.7963 42.2597 79.9419 41.9562 79.9399 41.4625C79.9229 37.3693 79.9309 33.2751 79.9309 29.1819C79.9309 24.6335 79.9309 20.085 79.9309 15.5366C79.9309 14.6028 79.9269 14.6099 79.0638 14.3125C75.6251 13.1278 72.1884 11.9401 68.7517 10.7504C63.9505 9.0872 59.1513 7.41795 54.3451 5.76994C54.1308 5.69609 53.8168 5.72948 53.6155 5.83874C52.1393 6.64099 50.6791 7.4746 49.215 8.30012C44.7935 10.7939 40.373 13.2876 35.9526 15.7824C35.1313 16.2458 34.315 16.7172 33.3681 17.2584L33.3671 17.2594Z" fill="black"/>
<path d="M22.5099 22.6387C23.4289 22.9938 24.2612 23.3145 25.0924 23.6382C25.6496 23.8547 26.1998 24.0934 26.7639 24.2887C27.035 24.3818 27.1337 24.5264 27.1088 24.8036C27.0909 25.0039 27.1048 25.2073 27.1048 25.4096C27.1048 33.4787 27.1088 41.5467 27.0938 49.6158C27.0938 50.0741 27.2184 50.2814 27.648 50.4544C33.5815 52.844 39.506 55.2578 45.4325 57.6646C45.583 57.7253 45.7375 57.7759 45.9697 57.8609V31.7932C47.0901 32.2293 48.1257 32.6258 49.1563 33.0346C49.6327 33.2237 50.2806 33.3107 50.5218 33.6709C50.763 34.0321 50.6045 34.6765 50.6035 35.1965C50.5846 44.865 50.5636 54.5345 50.5427 64.203C50.5427 64.3527 50.5427 64.5035 50.5427 64.7442C50.3434 64.6734 50.1968 64.6269 50.0543 64.5692C41.018 60.8989 31.9818 57.2265 22.9425 53.5653C22.6126 53.4318 22.502 53.2719 22.502 52.9087C22.5129 43.0035 22.5099 33.0993 22.5099 23.1941C22.5099 23.0433 22.5099 22.8936 22.5099 22.6397V22.6387Z" fill="black"/>
<path d="M16.2266 72.379C16.4249 72.379 16.6193 72.379 16.8136 72.379C21.0597 72.379 25.3067 72.377 29.5527 72.379C31.5591 72.38 32.7681 73.6122 32.7691 75.6537C32.7711 79.1217 32.7721 82.5897 32.7691 86.0587C32.7671 87.9556 31.5193 89.2172 29.6444 89.2182C25.3486 89.2202 21.0527 89.2182 16.7558 89.2182C16.5924 89.2182 16.4299 89.2182 16.2266 89.2182V72.377V72.379ZM30.2763 80.8072C30.2763 79.1238 30.2763 77.4403 30.2763 75.7579C30.2763 75.0063 30.1836 74.9122 29.4501 74.9122C26.133 74.9122 22.8169 74.9122 19.4998 74.9122C18.7931 74.9122 18.6805 75.0215 18.6795 75.7225C18.6775 79.1055 18.6775 82.4886 18.6785 85.8726C18.6785 86.5716 18.8001 86.6971 19.4898 86.6981C22.8229 86.7001 26.1559 86.7001 29.4899 86.6981C30.1607 86.6981 30.2773 86.5797 30.2783 85.908C30.2803 84.2084 30.2783 82.5078 30.2783 80.8082L30.2763 80.8072Z" fill="black"/>
<path d="M95.8843 75.7402C95.8843 76.6558 95.8843 77.5299 95.8843 78.405C95.8843 80.8977 95.8843 83.3905 95.8843 85.8832C95.8843 86.5772 96.0039 86.6966 96.7026 86.6976C99.0259 86.6986 101.349 86.6986 103.673 86.6976C104.377 86.6976 104.489 86.5853 104.489 85.8812C104.49 82.6975 104.489 79.5148 104.489 76.331C104.489 76.1479 104.489 75.9658 104.489 75.7412H106.977C106.985 75.9122 106.999 76.0751 106.999 76.237C107 81.273 107.001 86.3091 106.999 91.3462C106.999 93.3007 105.71 94.627 103.795 94.6331C101.273 94.6402 98.7508 94.6351 96.2281 94.6331C96.0826 94.6331 95.9381 94.6149 95.7637 94.6038V92.0675C95.981 92.0675 96.1743 92.0675 96.3677 92.0675C98.8067 92.0675 101.247 92.0685 103.686 92.0675C104.395 92.0675 104.487 91.9704 104.488 91.246C104.488 90.5925 104.488 89.939 104.488 89.2197C104.274 89.2197 104.097 89.2197 103.921 89.2197C101.465 89.2197 99.009 89.2197 96.5531 89.2197C94.6493 89.2187 93.3945 87.9571 93.3935 86.039C93.3915 82.7713 93.3935 79.5036 93.3935 76.236C93.3935 76.0852 93.3935 75.9355 93.3935 75.7423H95.8843V75.7402Z" fill="black"/>
<path d="M65.5495 89.219V94.594H63.1016V75.6596H63.6448C66.914 75.6596 70.1833 75.6586 73.4525 75.6596C75.418 75.6606 76.66 76.9161 76.6629 78.902C76.6659 81.2774 76.6669 83.6518 76.6629 86.0272C76.66 87.9423 75.3941 89.217 73.5033 89.218C71.0474 89.219 68.5915 89.218 66.1346 89.219C65.9562 89.219 65.7788 89.219 65.5495 89.219ZM69.8454 78.1868C68.6513 78.1868 67.4572 78.1837 66.2632 78.1878C65.713 78.1898 65.5455 78.3496 65.5435 78.9061C65.5375 81.2632 65.5375 83.6194 65.5435 85.9766C65.5445 86.529 65.716 86.6949 66.2662 86.6959C68.6543 86.6999 71.0424 86.6999 73.4306 86.6959C74.0117 86.6959 74.1711 86.531 74.1721 85.9483C74.1751 83.6083 74.1751 81.2683 74.1721 78.9283C74.1721 78.3405 74.0196 78.1898 73.4276 78.1878C72.2335 78.1837 71.0395 78.1868 69.8454 78.1868Z" fill="black"/>
<path d="M80.8416 89.2199V94.5938H78.3887V75.6858C78.5641 75.6777 78.7385 75.6615 78.9129 75.6615C82.23 75.6595 85.5481 75.6575 88.8652 75.6615C90.6573 75.6635 91.954 76.9393 91.97 78.7603C91.9909 81.2186 91.9929 83.677 91.968 86.1343C91.9501 87.9543 90.6523 89.2158 88.8513 89.2189C86.3794 89.2229 83.9085 89.2199 81.4366 89.2199C81.2582 89.2199 81.0808 89.2199 80.8406 89.2199H80.8416ZM85.1484 78.1877C83.9544 78.1877 82.7603 78.1846 81.5662 78.1887C81.014 78.1907 80.8506 78.3525 80.8496 78.9059C80.8456 81.2631 80.8456 83.6193 80.8496 85.9765C80.8496 86.5248 81.02 86.6958 81.5682 86.6968C83.9564 86.7008 86.3455 86.6998 88.7336 86.6968C89.3157 86.6968 89.4762 86.5309 89.4772 85.9502C89.4802 83.6102 89.4802 81.2702 89.4772 78.9302C89.4772 78.3475 89.3207 78.1917 88.7326 78.1897C87.5386 78.1856 86.3445 78.1887 85.1504 78.1887L85.1484 78.1877Z" fill="black"/>
<path d="M53.8347 89.2193C52.5908 89.2193 51.3459 89.2244 50.102 89.2193C48.3398 89.2112 47.056 87.9234 47.048 86.1337C47.0371 83.6582 47.0351 81.1826 47.048 78.7081C47.057 76.9751 48.3418 75.6721 50.0442 75.664C52.5828 75.6529 55.1205 75.6519 57.6591 75.664C59.3356 75.6721 60.6314 76.9782 60.6403 78.6737C60.6543 81.1826 60.6533 83.6916 60.6403 86.2005C60.6324 87.8951 59.3336 89.2052 57.6671 89.2183C56.3893 89.2284 55.1125 89.2203 53.8347 89.2203V89.2193ZM53.8596 78.1881C52.6656 78.1881 51.4725 78.1851 50.2784 78.1891C49.6704 78.1911 49.5438 78.3186 49.5438 78.9287C49.5418 81.2676 49.5418 83.6066 49.5438 85.9456C49.5438 86.5546 49.6774 86.6962 50.2724 86.6972C52.6596 86.7013 55.0477 86.7013 57.4349 86.6972C57.991 86.6972 58.1465 86.5364 58.1475 85.979C58.1505 83.6228 58.1505 81.2676 58.1475 78.9115C58.1475 78.3469 57.997 78.1922 57.4419 78.1891C56.2478 78.1841 55.0547 78.1871 53.8606 78.1871L53.8596 78.1881Z" fill="black"/>
<path d="M13.651 81.2887C13.651 82.8385 13.6559 84.3874 13.65 85.9373C13.641 88.0041 12.43 89.2181 10.3857 89.2201C8.0125 89.2222 5.63931 89.2252 3.26711 89.2232C1.35939 89.2211 0.0616573 88.0314 0.0297622 86.088C-0.0250575 82.7708 0.0138146 79.4525 0.00783432 76.1342C0.00783432 75.7903 0.151362 75.6476 0.487257 75.6567C1.00157 75.6699 1.51687 75.682 2.03018 75.6567C2.45179 75.6355 2.56741 75.8105 2.56542 76.2192C2.55346 79.3685 2.55844 82.5189 2.55944 85.6682C2.55944 86.6495 2.60429 86.695 3.57211 86.696C5.81274 86.696 8.05237 86.696 10.293 86.694C11.0565 86.694 11.1512 86.5938 11.1512 85.8149C11.1512 82.6483 11.1621 79.4818 11.1412 76.3153C11.1382 75.8125 11.2698 75.6051 11.7831 75.6506C12.2117 75.6891 12.6463 75.682 13.0768 75.6557C13.5084 75.6294 13.6619 75.7933 13.6569 76.2364C13.639 77.9208 13.65 79.6052 13.65 81.2897H13.6519L13.651 81.2887Z" fill="black"/>
<path d="M35.2702 89.1916C35.2702 88.9873 35.2702 88.8062 35.2702 88.6261C35.2702 85.3938 35.2682 82.1616 35.2712 78.9293C35.2732 76.8948 36.4932 75.6616 38.4976 75.6606C40.7033 75.6596 42.91 75.6606 45.1158 75.6606C45.2952 75.6606 45.4736 75.6606 45.6879 75.6606V78.1877C45.5165 78.1877 45.343 78.1877 45.1686 78.1877C42.9958 78.1877 40.8229 78.1877 38.6501 78.1877C37.8507 78.1877 37.749 78.297 37.749 79.1296C37.75 82.2951 37.75 85.4596 37.751 88.6251C37.751 88.8052 37.751 88.9853 37.751 89.1916H35.2702Z" fill="black"/>
</g>
<defs>
<clipPath id="clip0_1116_285">
<rect width="107" height="94" fill="white" transform="translate(0 0.636719)"/>
</clipPath>
</defs>
</svg>
