<svg width="133" height="78" viewBox="0 0 133 78" fill="none" xmlns="http://www.w3.org/2000/svg">
<g clip-path="url(#clip0_1116_304)">
<path d="M86.6876 30.665C82.1364 30.665 78.4453 34.3432 78.4453 38.8922C78.4453 43.4411 82.1303 47.1254 86.6876 47.1254C91.245 47.1254 94.9361 43.4411 94.9361 38.8922C94.9361 34.3432 91.245 30.665 86.6876 30.665Z" fill="black"/>
<path d="M98.176 0.636719H34.3482L0 24.0271V54.0431L34.3482 77.4334H98.176L133 54.0491V24.021L98.176 0.636719ZM29.0404 20.3855C29.6993 20.3855 30.23 20.9153 30.23 21.573C30.23 22.2307 29.6993 22.7605 29.0404 22.7605C28.3815 22.7605 27.8507 22.2307 27.8507 21.573C27.8507 20.9153 28.3815 20.3855 29.0404 20.3855ZM24.7941 29.6418L15.9783 49.4027C15.7892 49.829 15.3621 50.103 14.8923 50.1091C14.4226 50.1091 13.9955 49.8412 13.8003 49.4088L4.88073 29.6479C4.61229 29.0511 4.87463 28.3447 5.47252 28.0706C5.62505 28.0037 5.77757 27.9671 5.93619 27.9671C6.39986 27.9549 6.84523 28.2229 7.05266 28.6735L14.8862 45.9925L22.61 28.6796C22.7808 28.2899 23.153 28.028 23.58 27.9793C24.001 27.9367 24.422 28.1133 24.6721 28.4604C24.9222 28.8075 24.9711 29.2581 24.7941 29.6418ZM127.772 45.2496L123.251 49.762C122.909 50.103 122.397 50.2066 121.951 50.0239C121.506 49.8412 121.213 49.4027 121.213 48.9216V32.4248L114.014 40.9381V48.9216C114.014 49.5793 113.477 50.1091 112.818 50.1091C112.159 50.1091 111.628 49.5793 111.628 48.9216V32.4248L104.503 40.8589V48.9216C104.503 49.5793 103.972 50.1091 103.313 50.1091C102.654 50.1091 102.123 49.5793 102.123 48.9216V43.6785L97.0473 49.6829C96.724 50.0665 96.1993 50.2127 95.7295 50.0361C95.2597 49.8656 94.9486 49.4149 94.9486 48.9156V45.5845C91.8554 49.3723 86.572 50.5659 82.1488 48.4771C77.7257 46.3823 75.3036 41.5471 76.2859 36.7606L70.3558 30.8475L64.383 36.8093V48.9216C64.383 49.5793 63.8522 50.1091 63.1933 50.1091C62.5344 50.1091 62.0036 49.5793 62.0036 48.9216V31.8523L57.2083 36.2125C58.4712 41.0416 56.1894 46.1021 51.7236 48.3553C47.2638 50.6146 41.834 49.4575 38.6798 45.5906V48.9216C38.6798 49.5793 38.1429 50.1091 37.484 50.1091C36.8251 50.1091 36.2944 49.5793 36.2944 48.9216V43.3801L29.9006 49.762C29.5589 50.103 29.0465 50.2066 28.6011 50.0239C28.1557 49.8412 27.8629 49.4027 27.8629 48.9216V29.1607C27.8629 28.503 28.3937 27.9732 29.0526 27.9732C29.7115 27.9732 30.2422 28.503 30.2422 29.1607V46.0412L36.2883 40.0064V21.5791C36.2883 20.9214 36.819 20.3916 37.4779 20.3916C38.1368 20.3916 38.6737 20.9214 38.6737 21.5791V32.1933C40.9128 29.4469 44.3781 28.0037 47.9105 28.3325C51.4429 28.6613 54.5727 30.7318 56.2627 33.8436L62.3819 28.2777C62.7296 27.961 63.236 27.8819 63.6692 28.0706C64.1023 28.2594 64.383 28.6857 64.383 29.1607V33.4417L69.5139 28.3203C69.9775 27.8575 70.734 27.8575 71.1977 28.3203L77.14 34.2456C78.7262 30.9876 81.8682 28.771 85.4739 28.3508C89.0795 27.9367 92.6485 29.3799 94.9425 32.1873V29.1546C94.9425 28.4969 95.4733 27.9671 96.1322 27.9671C96.7911 27.9671 97.3218 28.4969 97.3218 29.1546V45.6515L102.117 39.9759V29.1485C102.117 28.4908 102.648 27.961 103.307 27.961C103.966 27.961 104.497 28.4908 104.497 29.1485V37.1503L111.909 28.3812C112.232 27.9976 112.763 27.8575 113.233 28.0341C113.703 28.2046 114.014 28.6553 114.014 29.1546V37.2356L121.488 28.3812C121.811 27.9976 122.342 27.8575 122.811 28.0341C123.281 28.2046 123.592 28.6553 123.592 29.1546V46.0352L126.075 43.5567C126.539 43.0938 127.296 43.0938 127.759 43.5567C128.223 44.0195 128.223 44.7807 127.759 45.2435L127.772 45.2496Z" fill="black"/>
<path d="M46.9044 30.665C42.3532 30.665 38.6621 34.3432 38.6621 38.8922C38.6621 43.4411 42.3471 47.1254 46.9044 47.1254C51.4618 47.1254 55.1529 43.4411 55.1529 38.8922C55.1529 34.3432 51.4618 30.665 46.9044 30.665Z" fill="black"/>
</g>
<defs>
<clipPath id="clip0_1116_304">
<rect width="133" height="76.8028" fill="white" transform="translate(0 0.636719)"/>
</clipPath>
</defs>
</svg>
