<svg width="135" height="85" viewBox="0 0 135 85" fill="none" xmlns="http://www.w3.org/2000/svg">
<g clip-path="url(#clip0_1116_263)">
<path d="M14.235 84.5932C13.3647 84.4898 12.5667 84.1884 11.85 83.7012C11.0962 83.1877 10.5684 82.4709 10.2082 81.6473C10.0317 81.2424 9.86752 80.4258 9.82515 79.8703C9.78808 79.3813 9.7616 78.8801 9.83928 78.4034C9.93108 77.8409 10.1058 77.2924 10.3777 76.7719C10.8561 75.8606 11.5375 75.1578 12.4538 74.6952C13.0116 74.4148 13.6065 74.222 14.2385 74.1764C14.6428 74.1466 15.0471 74.0888 15.4513 74.0976C16.7012 74.1274 17.8646 74.4603 18.8549 75.2402C19.6846 75.8939 20.2107 76.7543 20.5002 77.7708C20.6856 78.4227 20.7615 79.0781 20.7174 79.7511C20.645 80.8481 20.3272 81.8576 19.6335 82.7321C18.8691 83.6959 17.8575 84.255 16.6677 84.5161C16.4364 84.5669 16.1945 84.5774 15.9598 84.6142C15.9156 84.6212 14.3197 84.6037 14.235 84.5949V84.5932ZM18.3483 79.3585C18.2988 79.0133 18.2847 78.6593 18.1965 78.3246C17.8646 77.0768 17.1267 76.2251 15.7903 75.9885C14.5687 75.7729 13.1882 76.2654 12.5473 77.6902C12.1695 78.5314 12.1113 79.4164 12.3055 80.3136C12.452 80.9971 12.7556 81.6052 13.2888 82.0784C13.9225 82.6409 14.6799 82.8425 15.5149 82.7864C16.4099 82.725 17.1284 82.3395 17.6545 81.614C18.1417 80.941 18.3183 80.1769 18.3483 79.3585Z" fill="black"/>
<path d="M128.642 84.6071C127.71 84.5195 126.882 84.1883 126.119 83.666C125.611 83.3173 125.23 82.8564 124.884 82.3499C124.493 81.7803 124.296 81.1389 124.163 80.487C124.059 79.977 124.036 79.4373 124.073 78.9168C124.137 78.0335 124.421 77.1976 124.841 76.416C124.944 76.2267 125.12 76.0007 125.235 75.8815C125.411 75.6992 125.711 75.396 125.978 75.1893C126.328 74.9194 126.702 74.6845 127.113 74.5251C128.029 74.1728 128.988 74.0326 129.966 74.0957C131.258 74.1798 132.446 74.5759 133.408 75.4626C134.236 76.225 134.731 77.1783 134.912 78.3017C135.004 78.8747 135.025 79.446 134.973 80.0086C134.867 81.1565 134.446 82.1887 133.634 83.0491C132.891 83.836 131.966 84.2706 130.933 84.516C130.746 84.5598 130.554 84.572 130.365 84.6088C130.321 84.6176 129.304 84.6667 128.642 84.6053V84.6071ZM126.481 79.3812C126.497 79.7019 126.538 80.0226 126.608 80.3345C126.808 81.2125 127.246 81.9381 128.047 82.4112C128.642 82.7635 129.288 82.8388 129.961 82.7687C130.741 82.6881 131.366 82.3341 131.864 81.7313C132.808 80.5904 132.851 78.5225 132.054 77.2695C130.979 75.5748 128.388 75.4767 127.194 77.0924C126.693 77.7707 126.439 78.5488 126.479 79.3812H126.481Z" fill="black"/>
<path d="M35.7074 84.5332C34.1857 84.1968 32.9958 83.4204 32.242 82.0377C31.6665 80.9827 31.5111 79.8506 31.64 78.6747C31.6859 78.2628 31.7265 77.837 31.8607 77.4497C32.0284 76.9678 32.2738 76.5104 32.5809 76.095C33.4389 74.9349 34.627 74.3583 36.0322 74.1813C36.4612 74.127 36.899 74.0902 37.3297 74.0989C38.509 74.1252 39.6035 74.467 40.5444 75.168C41.4748 75.8619 42.075 76.8048 42.3363 77.9386C42.4634 78.4907 42.5428 79.055 42.5093 79.6263C42.4298 80.9915 41.9885 82.2147 40.9946 83.1926C40.3644 83.813 39.5894 84.2055 38.735 84.4368C38.4578 84.5122 38.1753 84.6086 37.8876 84.6103C37.4869 84.6103 35.9122 84.5788 35.7056 84.5332H35.7074ZM34.0038 79.3564C34.0162 79.5649 34.0162 79.777 34.0444 79.9838C34.1698 80.9056 34.5475 81.6925 35.3155 82.2603C36.5036 83.1383 38.8727 83.1085 39.7836 81.0283C40.2708 79.9137 40.2567 78.7658 39.7589 77.6565C39.2981 76.6295 38.4684 76.0477 37.3386 75.9531C36.2211 75.8602 35.289 76.2475 34.6341 77.1763C34.1751 77.8265 34.0003 78.566 34.0056 79.3546L34.0038 79.3564Z" fill="black"/>
<path d="M82.0239 84.6084C81.5137 84.6347 81.0547 84.4331 80.5993 84.2596C80.1103 84.0739 79.7007 83.7795 79.3088 83.4272C78.7915 82.9628 78.5126 82.3845 78.3008 81.7553C78.2672 81.6572 78.246 81.5538 78.2266 81.4434C78.2001 81.3014 78.3096 81.17 78.4544 81.17H79.1852C79.4959 81.17 79.8066 81.177 80.1156 81.1665C80.2903 81.1612 80.3874 81.2121 80.4704 81.3821C80.9276 82.3091 81.7238 82.7139 82.73 82.7613C83.1502 82.7805 83.5703 82.7805 83.9852 82.6789C84.3489 82.5895 84.6878 82.423 84.9597 82.1935C85.5158 81.7238 85.3463 80.8581 84.6543 80.5987C84.1917 80.4252 82.6524 80.1168 82.0557 80.0116C81.7873 79.9643 81.519 79.9082 81.2542 79.8451C80.1526 79.5788 79.1552 79.2037 78.7297 78.1452C78.6856 78.0348 78.6415 77.9156 78.6327 77.7982C78.6009 77.3478 78.5373 76.9027 78.6697 76.4471C78.8674 75.7636 79.2346 75.2291 79.8472 74.8523C80.4686 74.472 81.1412 74.2512 81.8632 74.1811C82.2799 74.139 82.7 74.0882 83.1167 74.1005C84.1759 74.132 85.175 74.3809 86.0383 75.0311C86.6368 75.4814 87.0304 76.0773 87.2935 76.766C87.3623 76.9465 87.3217 76.9535 86.522 76.9535C86.0295 76.9535 85.6746 76.9343 85.2298 76.9343C85.1521 76.9343 85.0268 76.9115 84.9773 76.8361C84.6702 76.3665 84.2376 76.1229 83.6833 76.0212C83.0178 75.9003 82.1192 75.9003 81.5949 76.1176C81.1854 76.2876 80.8552 76.5329 80.7634 77.0201C80.7193 77.2515 80.7811 77.4127 80.917 77.5739C81.143 77.842 81.466 77.963 81.7838 78.0401C82.3876 78.1855 83.0054 78.2697 83.6145 78.3888C84.4283 78.5483 85.2421 78.7025 86.0012 79.0583C86.5944 79.3369 87.0993 79.7119 87.3553 80.3393C87.553 80.823 87.6077 81.3155 87.5124 81.8395C87.4329 82.2811 87.2917 82.6877 87.0463 83.0609C86.6474 83.6673 86.056 84.0266 85.3922 84.2702C84.9173 84.4436 84.4283 84.5996 83.9111 84.6189C83.8846 84.6189 82.0574 84.6119 82.0204 84.6136L82.0239 84.6084Z" fill="black"/>
<path d="M104.888 84.6054C104 84.5703 103.231 84.1935 102.5 83.6748C101.704 83.1105 101.409 82.2956 101.126 81.4474C101.066 81.2669 101.151 81.1722 101.359 81.1722C101.938 81.1687 102.517 81.181 103.095 81.1652C103.262 81.16 103.322 81.2441 103.37 81.3563C103.72 82.1677 104.394 82.5742 105.215 82.7302C105.674 82.8178 106.163 82.8283 106.634 82.7074C106.818 82.6601 107.019 82.6619 107.19 82.5883C107.637 82.3972 108.046 82.1659 108.161 81.6226C108.239 81.2494 108.121 80.9427 107.798 80.7306C107.425 80.4853 107.001 80.3854 106.578 80.3013C105.778 80.1435 104.959 80.0682 104.17 79.8684C103.622 79.73 103.065 79.5845 102.579 79.2305C102.028 78.8292 101.684 78.3613 101.525 77.6848C101.391 77.1223 101.495 76.6105 101.675 76.1321C101.9 75.5433 102.341 75.0929 102.918 74.7634C103.437 74.469 103.991 74.3078 104.562 74.1956C105.674 73.9766 106.781 74.0449 107.847 74.4357C109.044 74.8738 109.868 75.6887 110.267 76.954C109.549 76.954 108.859 76.9505 108.17 76.9575C108.022 76.9575 107.912 76.8944 107.861 76.7805C107.663 76.3494 107.263 76.1672 106.862 76.0568C106.143 75.8605 105.395 75.8587 104.676 76.0427C104.235 76.1566 103.845 76.4125 103.705 76.912C103.619 77.2222 103.684 77.5078 103.937 77.6866C104.281 77.9284 104.682 78.0423 105.086 78.1264C106.073 78.3332 107.072 78.4945 108.052 78.7328C108.74 78.901 109.388 79.1955 109.888 79.7352C110.241 80.1173 110.375 80.5501 110.43 81.0794C110.474 81.493 110.479 81.9171 110.34 82.3254C110.032 83.2227 109.4 83.8185 108.543 84.176C107.983 84.4091 107.406 84.6036 106.784 84.6141C106.758 84.6141 105.127 84.6141 104.894 84.6054H104.888Z" fill="black"/>
<path d="M93.2043 84.6052C92.3145 84.5194 91.5307 84.2127 90.8052 83.6694C90.3674 83.3417 90.0655 82.9264 89.8219 82.4865C89.603 82.0887 89.4405 81.6348 89.4405 81.1476C89.4388 79.0183 89.4229 76.8873 89.4141 74.758C89.4141 74.4882 89.4194 74.4847 89.693 74.4829C90.2579 74.4794 90.821 74.4794 91.386 74.4829C91.6561 74.4847 91.6631 74.4917 91.6649 74.7703C91.6684 75.6816 91.6649 76.5929 91.6649 77.5024C91.6649 78.2455 91.6472 78.9885 91.6684 79.7298C91.6861 80.3485 91.7196 80.9636 92.0162 81.5384C92.334 82.1553 92.8477 82.497 93.4885 82.6635C94.0622 82.8142 94.643 82.7914 95.2097 82.5986C96.1065 82.2955 96.712 81.7207 96.8868 80.7708C96.9486 80.4343 96.9804 80.0873 96.9839 79.7439C96.9963 78.6363 96.9857 77.5287 96.9892 76.4229C96.991 75.8481 97.0068 75.275 97.0086 74.702C97.0086 74.546 97.0563 74.4759 97.2257 74.4776C97.833 74.4847 98.4385 74.4847 99.0458 74.4776C99.2382 74.4741 99.2806 74.5565 99.2806 74.7283C99.2789 75.1191 99.2983 75.5116 99.2983 75.9042C99.3 77.4323 99.3018 78.9587 99.2983 80.4869C99.2983 81.2317 99.1129 81.9239 98.7404 82.5794C98.2638 83.4206 97.5294 83.9323 96.652 84.2635C96.1789 84.4423 95.6899 84.5947 95.1726 84.6123C95.1462 84.6123 93.2396 84.607 93.1972 84.6035L93.2043 84.6052Z" fill="black"/>
<path d="M0 74.4287C0.534902 74.4322 1.07157 74.4392 1.60647 74.4392C3.90672 74.4392 6.20698 74.4392 8.50723 74.4392C8.60609 74.4392 8.70495 74.4445 8.80381 74.4392C8.93092 74.4305 8.98035 74.483 8.97858 74.6075C8.97505 74.9019 8.97858 75.1963 8.97858 75.4907C8.97858 75.7956 8.97858 76.1023 8.97858 76.4476H8.63081C7.79756 76.4476 6.96608 76.4458 6.13283 76.4476C5.75858 76.4476 5.73033 76.4791 5.73033 76.8594C5.73033 79.1727 5.73033 81.486 5.73033 83.7975C5.73033 83.8956 5.72504 83.9938 5.73033 84.0919C5.74269 84.2426 5.67031 84.2847 5.53085 84.2847C4.79999 84.2812 4.0709 84.2847 3.30297 84.2847V83.8483C3.30297 81.549 3.30297 79.2498 3.30297 76.9523C3.30297 76.8541 3.31533 76.7525 3.29591 76.6596C3.28532 76.6123 3.22177 76.551 3.1741 76.5405C3.07877 76.5212 2.97815 76.5352 2.87929 76.5334C1.9207 76.5334 0.960352 76.5334 0.00176535 76.5334V74.4305L0 74.4287Z" fill="black"/>
<path d="M77.32 35.2321C77.1611 35.5669 77.0093 35.9068 76.8398 36.2381C75.9448 37.9958 75.0462 39.7518 74.1477 41.5078C73.4203 42.9308 72.6912 44.3538 71.9622 45.7751C71.226 47.2104 70.4881 48.6439 69.7519 50.0774C69.0476 51.4496 68.3414 52.8236 67.637 54.1958C66.9009 55.6293 66.163 57.0628 65.4268 58.4981C64.6977 59.9194 63.9704 61.3441 63.2413 62.7654C62.5616 64.0885 61.8767 65.4081 61.2041 66.7348C61.1035 66.9328 60.9958 67.0222 60.7592 67.0204C53.463 67.0134 46.1668 67.0152 38.8706 67.0152C38.83 67.0152 38.7877 67.0082 38.717 67.0011C39.3243 65.827 39.9281 64.6686 40.523 63.5049C40.952 62.6655 41.3615 61.8138 41.7923 60.9744C42.3289 59.9299 42.8815 58.8924 43.4217 57.8497C43.623 57.4606 43.8013 57.0611 44.0025 56.672C44.5656 55.5802 45.1394 54.4919 45.7025 53.4001C46.4422 51.9683 47.1784 50.5331 47.9128 49.0995C48.6983 47.5679 49.4786 46.0327 50.2642 44.5028C50.9827 43.106 51.71 41.7128 52.4268 40.3161C53.1506 38.9071 53.8638 37.4928 54.5928 36.0856C54.6864 35.9051 54.8259 35.7369 54.9777 35.6002C55.2513 35.3513 55.555 35.1358 55.8392 34.8974C56.0828 34.6941 56.3141 34.4768 56.5595 34.2735C56.8243 34.0545 57.0979 33.8477 57.3662 33.6321C57.571 33.4691 57.7758 33.3062 57.9735 33.1344C58.4113 32.7559 58.8421 32.3668 59.2834 31.99C59.8289 31.5239 60.3797 31.0665 60.9305 30.6073C61.4265 30.1938 61.9226 29.7819 62.424 29.3753C62.8723 29.0126 63.3313 28.6621 63.7762 28.2958C64.0428 28.0768 64.2705 27.8069 64.5512 27.6088C64.8619 27.388 65.1073 27.1059 65.388 26.857C65.9017 26.4014 66.1683 25.7985 66.3148 25.1589C66.5637 24.0723 66.396 23.0279 65.7216 22.1201C65.1461 21.3437 64.4206 20.7374 63.4178 20.5849C61.9932 20.3693 61.1741 20.4657 60.0284 21.391C59.0627 22.1709 58.1077 22.963 57.1526 23.7569C56.5294 24.2739 55.9204 24.8066 55.299 25.3254C54.7094 25.8161 54.1091 26.291 53.5178 26.7799C53.1188 27.1094 52.7322 27.4511 52.335 27.7806C51.6906 28.3151 51.041 28.8408 50.3984 29.3753C49.98 29.7241 49.5722 30.0869 49.1538 30.4356C48.7036 30.8106 48.2446 31.1716 47.7945 31.5467C47.3761 31.8954 46.9665 32.2564 46.5481 32.6052C46.0874 32.989 45.6178 33.3605 45.157 33.7443C44.7387 34.093 44.322 34.4453 43.9142 34.8063C43.7907 34.9149 43.6724 34.9693 43.5029 34.9693C40.7648 34.964 38.0286 34.9658 35.2305 34.9658C35.5818 34.3033 35.926 33.6794 36.2491 33.045C36.8758 31.8148 37.4848 30.5758 38.1133 29.3473C38.6588 28.2765 39.2237 27.2163 39.7745 26.1473C40.0004 25.7092 40.1999 25.2588 40.4259 24.8224C40.9643 23.7779 41.5151 22.7404 42.0571 21.6977C42.7244 20.4131 43.397 19.1303 44.0413 17.8335C44.172 17.5706 44.3008 17.4795 44.5974 17.4795C52.1761 17.4883 59.7547 17.4865 67.3334 17.4865H86.3251C86.1468 17.6582 86.0179 17.8002 85.8714 17.9229C85.3912 18.3259 84.9057 18.7255 84.4202 19.1216C83.9789 19.4826 83.5305 19.8366 83.0909 20.2029C82.6619 20.5604 82.2436 20.9319 81.8146 21.2894C81.3768 21.6557 80.9266 22.0079 80.4888 22.3724C80.0792 22.7107 79.6803 23.0611 79.2725 23.3994C78.6299 23.9339 77.9785 24.4596 77.3359 24.9941C76.9069 25.3516 76.4885 25.7232 76.0595 26.0807C75.6217 26.4469 75.1716 26.7992 74.7338 27.1655C74.3154 27.516 73.9076 27.8805 73.4892 28.2292C72.4865 29.0652 71.4802 29.8958 70.4775 30.7318C69.5171 31.5326 68.5639 32.3388 67.6035 33.1379C66.4825 34.072 65.3544 34.9991 64.2317 35.9331C63.4655 36.571 62.7046 37.2142 61.9385 37.8521C60.9569 38.6688 59.9719 39.4837 58.9903 40.3003C58.2136 40.947 57.4386 41.5972 56.6636 42.2456C55.878 42.9028 55.0942 43.5634 54.3033 44.2171C53.5125 44.8708 53.0552 45.6945 52.914 46.7127C52.7904 47.6082 52.9793 48.4266 53.433 49.1924C53.9909 50.1335 54.8241 50.7136 55.8869 50.9537C57.1826 51.2446 58.3354 50.9151 59.3452 50.0774C60.7398 48.9225 62.1309 47.7606 63.5202 46.6005C64.8354 45.5034 66.1436 44.3994 67.4605 43.3023C68.7651 42.2158 70.0768 41.1363 71.3831 40.0497C72.3329 39.2593 73.2773 38.4637 74.2253 37.6698C75.161 36.8865 76.0966 36.1014 77.0375 35.3198C77.1082 35.2619 77.2088 35.2409 77.2953 35.2041L77.3235 35.2269L77.32 35.2321Z" fill="black"/>
<path d="M77.459 34.977C77.8897 34.616 78.2746 34.297 78.6559 33.9711C78.8483 33.8081 79.0266 33.6293 79.219 33.4663C79.5244 33.2105 79.8352 32.9616 80.1441 32.7093C80.3365 32.5515 80.5325 32.4008 80.7214 32.2379C81.1609 31.8593 81.5881 31.4668 82.033 31.0952C82.4549 30.7447 82.8963 30.4188 83.3217 30.0718C83.5671 29.8702 83.7913 29.6442 84.0349 29.4409C84.3191 29.2026 84.6157 28.98 84.9052 28.7469C85.0977 28.5927 85.2901 28.4367 85.479 28.2737C86.0951 27.7427 86.7077 27.2047 87.3273 26.6772C87.841 26.2409 88.3636 25.815 88.8826 25.3839C89.391 24.9615 89.8977 24.5374 90.4096 24.1204C90.8351 23.7734 91.2729 23.4421 91.6983 23.0951C91.9437 22.8936 92.1697 22.6693 92.4133 22.4643C92.6975 22.2259 92.9941 22.0016 93.2818 21.7685C93.4849 21.6038 93.6879 21.4373 93.8838 21.2673C94.3322 20.8783 94.7718 20.4769 95.2273 20.0967C95.6386 19.7549 96.0729 19.4395 96.4877 19.1012C96.7331 18.9015 96.9573 18.6736 97.1992 18.4668C97.5558 18.1619 97.9123 17.8587 98.2813 17.5696C98.3572 17.51 98.4843 17.4925 98.5885 17.4907C99.2664 17.4837 99.9425 17.4872 100.62 17.4872C101.494 17.4872 102.37 17.4872 103.283 17.4872C103.226 17.6239 103.184 17.7448 103.127 17.857C102.783 18.5369 102.437 19.2134 102.091 19.8916C101.275 21.4864 100.458 23.0829 99.6424 24.6776C98.8815 26.162 98.1224 27.6463 97.3616 29.1289C96.5689 30.6746 95.778 32.2203 94.9836 33.7643C94.8071 34.106 94.5988 34.432 94.4364 34.779C94.3622 34.9367 94.2722 34.9875 94.1168 34.977C94.0604 34.9735 94.0039 34.977 93.9474 34.977H77.4625H77.459Z" fill="black"/>
<path d="M120.093 80.317H118.485C117.343 80.317 116.199 80.3187 115.057 80.317C114.716 80.317 114.76 80.345 114.76 80.6167C114.76 81.7382 114.76 82.8581 114.76 83.9797C114.76 84.2373 114.824 84.2899 114.472 84.2864C113.893 84.2811 113.316 84.2811 112.737 84.2864C112.386 84.2899 112.448 84.239 112.448 83.9797C112.448 83.8535 112.448 83.7273 112.448 83.6011V74.9824C112.448 74.9123 112.448 74.8422 112.448 74.7721C112.442 74.3883 112.46 74.4409 112.799 74.4409C113.336 74.4409 113.87 74.4409 114.407 74.4409C114.78 74.4409 114.762 74.4006 114.762 74.8124C114.762 75.8078 114.762 76.8033 114.762 77.7969C114.762 77.881 114.769 77.9652 114.762 78.0493C114.743 78.2298 114.811 78.2946 114.998 78.2894C115.507 78.2788 116.014 78.2859 116.522 78.2859C117.608 78.2859 118.695 78.2859 119.781 78.2859C120.093 78.2859 120.097 78.2823 120.097 77.9634C120.097 76.9399 120.097 75.9183 120.097 74.8948C120.097 74.8107 120.102 74.7266 120.097 74.6424C120.088 74.504 120.132 74.4392 120.286 74.4409C120.949 74.4462 121.611 74.4444 122.275 74.4409C122.402 74.4409 122.454 74.4952 122.446 74.6179C122.443 74.688 122.446 74.7581 122.446 74.8282C122.446 77.8547 122.446 80.883 122.446 83.9096C122.446 83.9657 122.441 84.0217 122.446 84.0778C122.462 84.2215 122.406 84.2758 122.258 84.2758C121.608 84.2706 120.96 84.2706 120.31 84.2758C120.148 84.2758 120.092 84.2303 120.093 84.0603C120.104 83.4294 120.097 82.7985 120.097 82.1676C120.097 81.5665 120.097 80.9654 120.097 80.3187L120.093 80.317Z" fill="black"/>
<path d="M62.7707 84.27H60.6841C60.5852 84.27 60.4652 84.2349 60.3928 84.277C60.2304 84.3734 60.1862 84.2279 60.1598 84.1613C59.9709 83.6916 59.8032 83.2132 59.6231 82.74C59.5896 82.6524 59.5172 82.5788 59.4907 82.4894C59.4519 82.3563 59.376 82.3265 59.2453 82.3317C58.9205 82.3422 58.5957 82.3352 58.2726 82.3352C57.2293 82.3352 56.1842 82.3422 55.1409 82.33C54.9255 82.3282 54.809 82.3931 54.7331 82.5911C54.5354 83.1011 54.3147 83.6023 54.1205 84.114C54.0764 84.2297 54.0322 84.2717 53.9175 84.27C53.1443 84.27 52.371 84.27 51.5625 84.27C51.7284 83.8704 51.8803 83.5059 52.0321 83.1431C52.2492 82.6226 52.4646 82.1021 52.6817 81.5817C52.8512 81.1751 53.0242 80.772 53.1884 80.3637C53.4161 79.8011 53.635 79.2333 53.8663 78.6708C54.0252 78.2852 54.2017 77.9049 54.3606 77.5194C54.7648 76.538 55.1656 75.5566 55.5557 74.57C55.5946 74.4718 55.6228 74.4368 55.7199 74.4385C56.6502 74.4403 57.5824 74.442 58.5127 74.4385C58.6451 74.4385 58.7175 74.4946 58.7651 74.612C59.2965 75.8913 59.8332 77.1672 60.3628 78.4465C60.7247 79.321 61.0742 80.2007 61.4361 81.0769C61.8704 82.1267 62.3135 83.1747 62.7725 84.2717L62.7707 84.27ZM58.6998 80.411C58.1985 79.1107 57.7095 77.8419 57.1957 76.5117C56.6591 77.8454 56.1489 79.1159 55.6281 80.411H58.6998Z" fill="black"/>
<path d="M49.0265 76.4469V84.2648C48.9082 84.2718 48.8023 84.2805 48.6946 84.2823C48.1438 84.2823 47.5948 84.2823 47.044 84.2823C46.5338 84.2823 46.608 84.3138 46.608 83.8652C46.608 81.594 46.608 79.3245 46.608 77.0533V76.5591C46.4968 76.5486 46.3909 76.5328 46.2849 76.5328C45.4093 76.531 44.5355 76.5328 43.6599 76.531C43.2927 76.531 43.2785 76.5135 43.275 76.1543C43.2715 75.6916 43.275 75.229 43.275 74.7663C43.2732 74.3702 43.2874 74.4403 43.6281 74.4403C44.419 74.4403 45.2081 74.4403 45.9989 74.4403C47.9602 74.4403 49.9216 74.4403 51.8829 74.4403C51.9817 74.4403 52.0806 74.4403 52.1794 74.4403C52.2889 74.4386 52.326 74.4982 52.326 74.5981C52.326 75.1589 52.3207 75.7197 52.3277 76.2804C52.3295 76.4522 52.2289 76.4487 52.1088 76.4487C51.318 76.4487 50.5288 76.4487 49.738 76.4487H49.0265V76.4469Z" fill="black"/>
<path d="M71.3152 76.5311H70.4714C69.7935 76.5311 69.1173 76.5311 68.4394 76.5311C68.0016 76.5311 67.9999 76.5294 67.9999 76.0825C67.9999 75.6058 68.0034 75.1291 67.9981 74.6524C67.9963 74.4947 68.0369 74.4124 68.2117 74.4369C68.2947 74.4474 68.3812 74.4386 68.4659 74.4386H76.5477C76.6324 74.4386 76.7172 74.4369 76.8019 74.4386C77.042 74.4457 77.0473 74.4474 77.0491 74.705C77.0526 75.2097 77.042 75.7144 77.0544 76.2174C77.0597 76.4102 76.9837 76.4505 76.8107 76.4487C75.9651 76.4417 75.1178 76.4452 74.2722 76.4452H73.7814V84.2385C73.6614 84.2508 73.5696 84.2666 73.476 84.2683C72.8263 84.2701 72.1785 84.2666 71.5288 84.2718C71.3682 84.2718 71.3046 84.228 71.3117 84.0563C71.3258 83.7198 71.3152 83.3833 71.3152 83.0468C71.3152 81.0297 71.3152 79.0109 71.3152 76.9938V76.5294V76.5311Z" fill="black"/>
<path d="M20.6348 74.4404H21.6075C22.0594 74.4404 22.5113 74.4491 22.9615 74.4369C23.1486 74.4316 23.2687 74.4859 23.3764 74.6419C23.7294 75.1554 24.0984 75.6583 24.4585 76.1666C24.9705 76.8886 25.4789 77.6124 25.9891 78.3344C26.0209 78.38 26.0632 78.4185 26.1197 78.4798C26.3121 78.2257 26.5046 77.9856 26.6829 77.735C27.4208 76.6906 28.1552 75.6426 28.886 74.5928C28.9443 74.5105 28.9778 74.4351 29.1014 74.4369C29.9435 74.4421 30.7855 74.4386 31.6788 74.4386C30.9744 75.4235 30.3018 76.3699 29.6257 77.3127C28.8737 78.3607 28.1199 79.4069 27.3608 80.4496C27.2407 80.6161 27.1878 80.7844 27.1895 80.9912C27.2001 81.9725 27.1948 82.9539 27.1948 83.9336C27.1948 84.2928 27.2389 84.2823 26.8647 84.2806C26.3704 84.2806 25.8779 84.2788 25.3836 84.2806C24.9616 84.2823 25.0111 84.2806 25.0111 83.9248C25.0111 82.9294 25.0058 81.934 25.0146 80.9403C25.0164 80.7055 24.9546 80.518 24.8151 80.3235C23.6059 78.6376 22.4107 76.9447 21.2067 75.2535C21.1026 75.1063 20.9737 74.9766 20.8678 74.8312C20.7901 74.7225 20.7301 74.6016 20.6348 74.4369V74.4404Z" fill="black"/>
<path d="M77.291 35.2094L77.3528 35.0762C77.3705 35.0902 77.4022 35.113 77.4005 35.1165C77.3758 35.1568 77.3475 35.1936 77.3193 35.2321L77.291 35.2094Z" fill="black"/>
<path d="M31.0033 55.588C33.6533 55.588 35.8015 53.4554 35.8015 50.8248C35.8015 48.1941 33.6533 46.0615 31.0033 46.0615C28.3533 46.0615 26.2051 48.1941 26.2051 50.8248C26.2051 53.4554 28.3533 55.588 31.0033 55.588Z" fill="black"/>
<path d="M105.093 10.1632C107.743 10.1632 109.891 8.03064 109.891 5.39997C109.891 2.7693 107.743 0.636719 105.093 0.636719C102.443 0.636719 100.295 2.7693 100.295 5.39997C100.295 8.03064 102.443 10.1632 105.093 10.1632Z" fill="black"/>
</g>
<defs>
<clipPath id="clip0_1116_263">
<rect width="135" height="84" fill="white" transform="translate(0 0.636719)"/>
</clipPath>
</defs>
</svg>
