<svg width="133" height="29" viewBox="0 0 133 29" fill="none" xmlns="http://www.w3.org/2000/svg">
<g clip-path="url(#clip0_1116_242)">
<path fill-rule="evenodd" clip-rule="evenodd" d="M18.8369 28.7145H27.0063V14.0342H18.8369V28.7145ZM123.149 28.7145H131.319V14.0342H123.149V28.7145Z" fill="black"/>
<path fill-rule="evenodd" clip-rule="evenodd" d="M127.675 0.637968H0V28.6488H14.139V11.0525L127.674 11.0552C130.567 11.1026 132.952 8.80908 132.999 5.93236C133.047 3.05565 130.739 0.685341 127.845 0.638512C127.789 0.637423 127.731 0.637423 127.674 0.638512L127.675 0.637968ZM111.991 7.50331H14.1401V4.18118L111.991 4.19043C112.911 4.17138 113.673 4.89777 113.692 5.81257C113.711 6.72737 112.98 7.48425 112.06 7.50331C112.037 7.50331 112.014 7.50331 111.991 7.50331Z" fill="black"/>
<path fill-rule="evenodd" clip-rule="evenodd" d="M52.6118 23.4452C54.2808 22.6937 55.3364 21.0226 55.3364 19.0835C55.3364 16.441 53.2456 14.0342 49.684 14.0342H32.874V28.7145H41.0435V23.9777H43.7149L46.176 28.7145H55.3402L52.6123 23.4452H52.6118ZM45.705 20.422H41.044V17.3144L45.705 17.3302C46.5639 17.3302 47.2601 18.0223 47.2601 18.8761C47.2601 19.7299 46.5639 20.422 45.705 20.422ZM60.4635 28.7145H78.4791V25.4349H68.6324V23.2747H78.4791V19.7353H68.6324V17.5752H78.4791V14.0347H60.4635V28.7151V28.7145ZM92.2171 14.0342H84.0472V28.7145H100.491V25.4349H92.2171V14.0342ZM111.471 14.0342H103.302V28.7145H119.745V25.4349H111.471V14.0342Z" fill="black"/>
</g>
<defs>
<clipPath id="clip0_1116_242">
<rect width="133" height="28.0778" fill="white" transform="translate(0 0.636719)"/>
</clipPath>
</defs>
</svg>
