<svg width="96" height="121" viewBox="0 0 96 121" fill="none" xmlns="http://www.w3.org/2000/svg">
<g clip-path="url(#clip0_1116_299)">
<path d="M0.0348437 50.073C0 49.5012 0 48.9424 0 48.3718C0 48.0026 0.0118019 47.6222 0.0118019 47.253C0.415314 36.7463 4.03962 27.3111 10.3379 19.1242C20.9017 5.95228 36.1947 -0.770412 53.2339 0.88353C64.1433 2.07376 73.7444 6.60677 81.7759 14.4842C90.6526 23.3961 95.5234 34.8543 95.964 47.253C96 47.8124 96 48.3836 96 48.9424C96 49.311 96 49.692 95.9882 50.073C95.5836 60.5678 91.9598 70.0024 85.6627 78.1894C75.0983 91.3613 59.8165 98.0846 42.7779 96.4424C31.8578 95.2522 22.2567 90.7186 14.2235 82.8299C5.34626 73.9181 0.486688 62.4598 0.0348437 50.073ZM95.048 50.073C95.6426 31.0946 84.342 12.9248 66.543 5.31017C60.9697 2.93028 54.9575 1.58585 48.4339 1.47836C46.735 1.52564 44.7859 1.58473 43.0865 1.7755C27.5675 3.28594 12.8096 13.5191 5.91725 27.7377C2.88697 33.6984 1.23583 40.196 0.92673 47.2519C0.368669 66.2308 11.6569 84.4 29.457 92.0034C35.0303 94.3828 41.0425 95.7395 47.5656 95.847C49.2662 95.7874 51.2129 95.7407 52.913 95.5493C68.4437 94.0383 83.1888 83.8057 90.0822 69.5742C93.1114 63.6123 94.7748 57.1164 95.0721 50.0724H95.048V50.073ZM85.4952 23.0398L83.0112 24.741L82.5357 24.5272C81.8113 23.6701 81.1706 22.4574 80.2664 21.7185H80.1354L78.8642 22.826L79.1261 23.1473C78.8839 23.0742 78.6377 23.0139 78.3882 22.9684C78.1769 22.9408 77.9695 22.889 77.77 22.8136L77.6762 22.6949L80.2658 20.3988C81.2875 21.4219 82.0254 22.5885 82.9156 23.6949C83.4265 23.481 83.9149 23.1 84.3661 22.7196C83.2129 20.8867 81.6927 19.0549 80.1349 17.5074L79.9455 17.5434C78.6254 18.7212 77.4969 20.0184 76.2009 21.1248C74.5267 19.5659 72.8868 17.9716 70.9974 16.7341L70.8305 16.5434C71.5083 15.5675 72.1489 14.5917 72.8503 13.6525C73.8484 14.4021 74.9291 15.2231 76.011 16.0318C76.3909 15.675 76.7595 15.1866 77.0574 14.7825V14.6277C75.5237 13.2473 73.8838 12.0576 72.1838 10.9754H71.9584C71.0429 12.415 70.0448 13.8191 69.2715 15.294L69.1293 15.4004C67.1933 14.2226 65.1965 13.0802 63.0935 12.2231C63.5223 11.1409 63.8781 10.0098 64.4136 8.95121C65.6849 9.46276 66.8724 10.1651 68.1323 10.6766L68.9163 9.20164C68.5966 8.82121 68.1082 8.65408 67.6811 8.41603C66.2429 7.71371 64.7699 7.05979 63.261 6.54768L63.1188 6.63096L61.3963 11.4853L61.2884 11.545C60.1593 11.1882 59.019 10.8196 57.8906 10.5219C56.8452 10.1882 55.7038 10.0812 54.5989 9.86738C54.7052 8.71316 55.0036 7.54713 55.1458 6.35747L55.2525 6.31019C56.5125 6.63153 57.8439 6.82174 59.0792 7.14307C59.2332 6.57188 59.4242 6.0125 59.5305 5.41766C57.5691 4.83352 55.5555 4.44297 53.5188 4.25107C53.3035 5.83354 53.126 7.43965 52.9006 9.0345C52.6741 8.73736 52.496 8.38058 52.3409 8.04686C52.3296 7.96076 52.306 7.87635 52.2695 7.797C52.4606 6.33383 52.5201 4.79863 52.7697 3.39455C53.0428 3.28706 53.1968 3.41875 53.4699 3.41875C55.9067 3.70632 58.3149 4.19592 60.6707 4.88192C60.351 5.95341 60.0177 7.03559 59.721 8.11889C58.9949 8.05924 58.2705 7.73847 57.5101 7.63155C56.9711 7.49311 56.4232 7.3935 55.8702 7.33385C55.6566 7.86903 55.6566 8.50044 55.5144 9.0829C55.9786 9.25003 56.4884 9.27367 56.9526 9.43968C58.248 9.76102 59.5305 10.0818 60.8017 10.487C61.4199 8.84485 61.8594 7.12 62.4776 5.4655C65.1156 6.25054 67.5754 7.41714 70.0229 8.71429L70.1066 8.79758C69.5598 9.78578 69.0001 10.8207 68.4549 11.8201C67.3017 11.2489 66.1727 10.5708 64.9599 10.1178C64.7705 10.142 64.7705 10.3559 64.6879 10.487L64.1411 11.7363C65.7085 12.5692 67.3259 13.2473 68.8343 14.2231C69.8549 12.7599 70.6995 11.1651 71.6617 9.71375C73.9906 11.0824 76.2004 12.7836 78.3281 14.5923L78.3039 14.7594L76.1655 17.163H75.9278C75.0561 16.3751 74.1479 15.6283 73.206 14.926L73.0391 14.8911L72.0174 16.271C73.3971 17.4376 74.8701 18.6745 76.2487 19.9717L80.0039 16.2474C82.071 18.2699 83.9362 20.5311 85.5761 22.8631L85.4946 23.0404L85.4952 23.0398ZM86.5529 26.3719L86.0291 26.6572C85.7796 26.4665 85.5182 26.2886 85.2687 26.0978C85.8397 25.7765 86.3978 25.4434 86.9553 25.0984C88.0759 26.8474 89.0425 28.691 89.8439 30.6078C89.7 30.417 89.5573 30.2392 89.3909 30.0962C88.988 29.4063 88.3574 28.7991 87.7994 28.1924C87.4661 27.5734 87.1216 26.9437 86.7175 26.3719H86.5529ZM9.72027 25.9662L12.3701 27.525C12.2155 27.7388 11.9772 27.9296 11.7991 28.144C10.706 27.5368 9.62473 26.9544 8.55525 26.3111C8.87503 25.6088 9.27966 24.9307 9.72027 24.2644C10.896 22.3724 12.2751 20.6115 13.7599 18.9098H13.8903C14.6507 19.6475 15.5661 20.3729 16.3147 21.0752C15.5661 22.2295 14.5444 23.3713 13.7599 24.5261L13.7841 24.6324L13.9858 24.7754C13.7318 24.9746 13.4929 25.1935 13.2732 25.4299C13.0209 25.2593 12.7713 25.0849 12.5246 24.9065V24.7754C13.3682 23.6015 14.2275 22.4394 15.1036 21.2897C14.8063 20.8614 14.3309 20.6115 13.8914 20.2424H13.6778C12.1683 22.0511 10.7425 23.9312 9.72083 25.9656L9.72027 25.9662ZM8.94752 43.8022C8.87446 44.316 8.81489 44.832 8.76881 45.3486C8.44791 45.4561 8.02023 45.3959 7.66393 45.3728L5.32322 45.159C5.29905 43.9451 5.58398 42.7436 5.7509 41.5303L5.84644 41.4943C5.98862 41.9817 6.1072 42.4943 6.34605 42.9462C6.28648 43.3987 6.23871 43.8506 6.2151 44.2906C6.77429 44.4212 7.34415 44.4814 7.93818 44.5045L8.03372 43.9097H8.22311C8.50804 44.0042 8.7334 43.9097 8.94752 43.8022ZM8.76881 30.1908C8.57829 30.1193 8.37654 30.0484 8.23435 29.9297C8.04384 29.8824 7.82972 29.7389 7.64032 29.798C7.27222 30.5245 6.92715 31.2623 6.60681 32.0107C6.08416 32.5223 5.58511 33.0338 5.14563 33.6056C5.76382 31.8683 6.46407 30.1671 7.31999 28.5256L7.45037 28.4777C8.15174 28.8711 8.90032 29.2155 9.63709 29.5841C9.3398 29.7738 9.05486 29.9769 8.76881 30.1908ZM50.5599 9.37891C49.1234 9.31138 47.6842 9.3035 46.2471 9.35527C46.1168 8.1414 46.0808 6.92754 46.0808 5.82116C47.4352 5.65402 48.6238 5.84536 49.9906 5.79696C50.0968 5.22632 50.18 4.60729 50.049 4.03553L49.9906 3.95224C48.1366 3.84588 46.0566 3.84588 44.1678 4.09462L44.0368 4.22574C44.1678 5.90276 44.3099 7.65237 44.5246 9.30631L44.3105 9.52016C42.0417 9.65128 39.9146 10.2214 37.8341 10.6507C37.43 9.54436 37.1928 8.41378 36.8601 7.30684L37.0265 7.1639C38.1791 6.95005 39.3436 6.712 40.4726 6.3901C40.4018 5.79527 40.2591 5.22464 40.1045 4.65287C38.1319 4.92637 36.3021 5.43848 34.4958 6.05695V6.38954C34.9713 8.00747 35.6007 9.56687 35.9688 11.2208C34.3885 11.7808 32.8559 12.3756 31.3576 13.0768C31.1688 12.9564 30.9328 12.9389 30.7276 13.0295C30.3595 13.3508 29.9791 13.6367 29.6469 13.9462C29.0169 12.9462 28.4819 11.8629 27.9722 10.8167C29.1479 10.1859 30.3725 9.67435 31.5482 9.11441C31.4768 8.51958 31.2042 7.90054 30.8237 7.4132C28.9102 8.22188 27.0213 9.07896 25.2392 10.2692C26.0828 11.8156 27.0455 13.2912 27.9727 14.8022C26.1665 16.0757 24.2771 17.2057 22.6254 18.6931L21.9251 19.3121C21.1524 18.5383 20.4156 17.6464 19.608 16.7538C20.202 16.0284 20.9866 15.4809 21.7116 14.886C22.1151 14.5411 22.6619 14.2439 23.03 13.8388C22.7333 13.3503 22.3888 12.9226 22.0089 12.4583C20.048 13.7313 18.3132 15.2186 16.5901 17.051C17.7186 18.2057 19.1809 19.6684 20.3088 20.7989L19.7985 21.3589C19.608 21.4303 19.4299 21.5012 19.2517 21.5603C18.7999 21.7624 18.3486 21.9655 17.9085 22.1794C18.1463 21.8929 18.3963 21.62 18.6453 21.3465L19.1208 20.7989C17.9085 19.4776 16.6491 18.4787 15.4015 17.051C17.4567 14.778 19.857 12.9935 22.1746 11.2439H22.3292L24.1354 13.886V14.1353C23.03 14.944 21.9015 15.7769 20.9034 16.6931V16.836C21.2597 17.3121 21.6037 17.6452 22.0083 18.0971C23.5768 16.8833 25.133 15.6221 26.7847 14.5388C25.8344 13.0515 24.943 11.5405 24.0281 10.0531C26.488 8.6023 28.9118 7.2455 31.4779 6.22184C31.9056 7.24493 32.358 8.32824 32.7143 9.41098L32.6901 9.51847C31.5021 10.03 30.2539 10.5185 29.1248 11.1842C29.2917 11.7554 29.6717 12.2191 29.933 12.7549C31.5886 11.9822 33.2684 11.2641 34.9713 10.6018C34.4604 8.9 33.8186 7.26969 33.3319 5.54428C35.8154 4.79469 38.346 4.05692 40.9363 3.68831C41.174 4.75924 41.2094 5.94947 41.5545 7.00857C40.8531 7.26969 40.0691 7.26969 39.3678 7.49592C38.8569 7.56739 38.3455 7.67432 37.8948 7.92362L38.2629 9.60176C39.0474 9.60176 39.7482 9.22077 40.5328 9.1977C41.5314 8.94727 42.5767 8.84091 43.5743 8.65014C43.5276 6.90109 43.2062 5.14022 43.0634 3.41481L43.123 3.30732C45.7132 3.11767 48.3512 2.98599 50.9409 3.19984C51.0471 4.28314 50.7515 5.4368 50.7987 6.4959C50.8583 6.65066 50.6678 6.62703 50.561 6.65066C49.4561 6.60339 48.0776 6.4959 47.0558 6.62646C46.9727 7.11494 46.9963 7.81613 47.0558 8.37551C48.3985 8.44698 49.6939 8.49425 50.9887 8.55447L50.9527 8.64957C50.8218 8.88987 50.6903 9.13917 50.5599 9.37722V9.37891ZM90.6644 43.7785L90.7583 44.3503C91.3529 44.3143 91.9711 44.267 92.5044 44.1004L92.4684 43.7313C92.6106 43.6598 92.7899 43.6362 92.9197 43.5416C92.9928 43.4465 93.0507 43.2794 93.1574 43.2557C93.2884 43.8978 93.3485 44.4927 93.3952 45.0763C92.2661 45.1601 91.0786 45.3498 89.9973 45.2676C89.9378 44.6367 89.8793 43.9941 89.7956 43.3638C89.8551 43.3514 89.9153 43.3278 89.9625 43.3165C90.1294 43.5298 90.3789 43.7076 90.6644 43.7791V43.7785ZM87.4082 48.181C87.3908 46.2541 87.2155 44.3317 86.8844 42.4341C87.1935 42.7312 87.515 43.0284 87.8466 43.1955C88.0377 44.5169 88.2034 45.8371 88.2152 47.253L88.3108 48.6565L88.417 48.728L93.3238 48.764C93.4075 48.8355 93.5615 48.7882 93.5857 48.9188C93.5615 52.0246 93.1344 54.9993 92.5988 57.8306L92.5162 57.9139C91.4343 57.6404 90.3053 57.4738 89.2229 57.2357C89.0093 56.9144 89.3538 56.6167 89.3066 56.2605C89.5472 55.1946 89.7102 54.113 89.7933 53.0235C89.2235 52.898 88.6429 52.8265 88.0596 52.8097C87.7145 54.8913 87.3936 56.9622 86.8468 58.9375C87.2514 59.2577 87.8685 59.2346 88.3912 59.4491C89.5562 59.7439 90.7128 60.0687 91.8609 60.4243L91.9205 60.5082C91.0292 63.3394 90.0552 66.1481 88.6884 68.7897L88.5463 68.8493C87.6066 68.3018 86.586 67.873 85.6351 67.3625C86.0622 66.0879 86.74 64.9348 87.1671 63.6371C86.6085 63.3872 86.0622 63.0895 85.4806 63.0181C84.7803 64.874 83.8289 66.6585 82.9139 68.4442C84.424 69.3367 85.9566 70.1105 87.4425 71.003C87.121 71.7042 86.7164 72.3835 86.2893 73.061C85.1007 74.9395 83.7227 76.7015 82.2373 78.4021H82.1064C81.346 77.6768 80.4305 76.9395 79.6819 76.2367C80.4305 75.0836 81.4533 73.953 82.2373 72.7864L82.2131 72.68L80.8705 71.7273C79.7308 73.1314 78.5776 74.6182 77.3637 75.975L76.8781 76.5107C78.0909 77.8326 79.3498 78.8315 80.5985 80.2587C78.5433 82.5322 76.143 84.3173 73.8248 86.0663H73.6708L71.864 83.4247V83.1738C72.9689 82.3656 74.0974 81.5328 75.096 80.6166V80.4855C74.7403 79.9981 74.3958 79.6762 73.9911 79.2125C72.4226 80.4258 70.8665 81.6999 69.2148 82.7708C70.1645 84.2576 71.0553 85.7686 71.9708 87.256C69.5109 88.7203 67.0876 90.0647 64.5322 91.0878C64.0922 90.0647 63.6409 88.982 63.2851 87.9099L63.3076 87.7917C64.4962 87.2802 65.7439 86.8035 66.8729 86.1254C66.706 85.5553 66.3396 85.1034 66.0659 84.5559C64.4074 85.3263 62.7276 86.0483 61.0276 86.7214C61.5385 88.422 62.1791 90.0416 62.6675 91.7665C60.1835 92.5279 57.6523 93.2533 55.062 93.6343C54.8243 92.5527 54.8001 91.3619 54.4438 90.3033C55.1441 90.0428 55.9286 90.0428 56.6289 89.8272C57.1397 89.7445 57.6506 89.6376 58.1148 89.3866L57.7349 87.722C56.9509 87.722 56.249 88.0911 55.4655 88.1271C54.4663 88.3652 53.421 88.4727 52.4229 88.6612C52.4695 90.4232 52.8028 92.1711 52.9338 93.8976L52.8742 94.004C50.2963 94.1937 47.6459 94.3377 45.0551 94.1104C44.9489 93.0394 45.2457 91.874 45.1973 90.8261C45.1378 90.6607 45.3283 90.6837 45.4351 90.6607C46.5411 90.7192 47.9185 90.8261 48.9402 90.6832C49.0228 90.1958 48.9998 89.493 48.9402 88.9347C47.1941 88.852 45.5182 88.7923 43.8429 88.6848C43.5456 90.3855 43.522 92.255 43.2247 93.932C42.9516 94.0383 42.7971 93.896 42.5245 93.896C40.0894 93.6061 37.6812 93.1205 35.3236 92.4435C35.6569 91.3619 35.9767 90.278 36.274 89.1964C36.9989 89.256 37.7239 89.5768 38.4837 89.6837C39.0204 89.8329 39.569 89.9325 40.1236 89.9814C40.3372 89.4457 40.3372 88.8267 40.4799 88.2329C40.0163 88.0658 39.5054 88.0416 39.0418 87.8756C37.7582 87.5554 36.4628 87.234 35.1916 86.8289C34.5745 88.471 34.1457 90.1958 33.5157 91.8498C30.8777 91.0647 28.4302 89.8981 25.9704 88.6134L25.8872 88.5295L27.5389 85.5069C28.6921 86.0675 29.8318 86.7439 31.044 87.2087C31.2228 87.1727 31.2228 86.9589 31.3059 86.8283L31.8528 85.5795C30.2842 84.7455 28.6685 84.0674 27.1595 83.1029C26.1378 84.5553 25.2943 86.1496 24.3316 87.6133C22.0145 86.2318 19.7929 84.5311 17.6658 82.7224L17.7017 82.5553L19.8289 80.1517H20.0666C20.9433 80.9374 21.8509 81.6881 22.7878 82.4011L22.9547 82.4253L23.9764 81.0437C22.5973 79.8906 21.1243 78.6402 19.7457 77.343L16.0028 81.0792C13.9234 79.0448 12.057 76.7837 10.4177 74.4651L10.5009 74.2738L13.163 72.4645C14.0302 73.3216 14.7074 74.7605 15.7297 75.5951H15.8601L17.1313 74.487C15.8601 72.9164 14.6478 71.3221 13.6733 69.6203L13.566 69.5489C12.057 70.4656 10.5245 71.2973 9.03913 72.2141C7.43351 69.7278 6.15553 67.044 5.23667 64.2297C5.45023 64.04 5.78349 64.04 5.97345 63.8735C6.74619 63.5758 7.58918 63.3141 8.39789 63.0642C8.88458 64.3372 9.36003 65.6343 10.0378 66.8493C10.656 66.8493 11.1427 66.3845 11.7125 66.1464C10.8679 64.2578 10.1182 62.3276 9.46681 60.3635C7.8033 60.852 6.12743 61.3394 4.45269 61.8751C3.43098 58.8762 2.89596 55.5092 2.59923 52.2362C3.72828 52.1647 4.91633 51.9751 5.99817 52.0454C6.15272 53.5328 6.26006 55.1029 6.63941 56.5312L6.72259 56.6387C7.34078 56.6145 7.91064 56.4479 8.44566 56.2931C8.18377 54.1985 7.80443 52.2475 7.78026 50.0702L7.68528 48.6661L7.57907 48.5828L2.67116 48.5592C2.59979 48.4759 2.43344 48.5231 2.40927 48.392C2.42164 46.3813 2.61103 44.4296 2.88472 42.5377C3.19382 42.5146 3.50292 42.4071 3.78785 42.3356C3.6451 43.1927 3.56192 44.0729 3.45458 44.9057C3.43098 45.8219 3.24103 46.7144 3.40738 47.6306C5.10629 47.7493 6.82936 47.7139 8.57605 47.7972L8.58785 49.1298C8.61201 51.831 8.95595 54.4844 9.52638 56.9943L9.41904 57.1018C8.29055 57.2566 7.1497 57.507 6.04482 57.7681C5.72392 56.2098 5.5098 54.5317 5.23667 52.9729C4.64264 52.9971 4.02445 53.0443 3.48999 53.2109C3.72771 55.8283 4.23857 58.2082 4.91633 60.6359C6.40169 60.4204 7.8033 59.8739 9.25325 59.5284C9.55054 59.5042 9.88325 59.1716 10.1682 59.422C10.715 61.9319 11.7957 64.2285 12.9248 66.4897L12.8652 66.6321L9.88268 68.1442L9.73994 68.1082C9.0987 66.8223 8.50467 65.4891 7.93368 64.1447L6.31739 64.739C6.59052 66.0361 7.25648 67.2264 7.82634 68.4397C8.28999 69.2725 8.71879 70.1645 9.28809 70.9496H9.44264L13.8981 68.4397L13.9701 68.4875C15.2171 70.6175 16.7267 72.6992 18.3188 74.6148L15.728 76.9108C14.7063 75.8877 13.969 74.7212 13.09 73.6148C12.5673 73.8286 12.0913 74.209 11.6282 74.59C12.7921 76.4235 14.3017 78.2676 15.8578 79.8023L16.0483 79.7798C17.3673 78.5895 18.5082 77.2924 19.7918 76.186C21.4665 77.7443 23.1182 79.3391 24.9959 80.5879L25.1622 80.7792C24.485 81.7427 23.8426 82.7179 23.1424 83.6589C22.0898 82.8682 21.0366 82.0792 19.9817 81.2913C19.6136 81.6369 19.2332 82.1242 18.9364 82.5283V82.6954C20.4695 84.0624 22.1207 85.2526 23.8202 86.3359H24.0337C24.9486 84.9076 25.9468 83.503 26.7313 82.0162L26.8617 81.9098C27.277 82.1597 27.6934 82.409 28.1211 82.6594C28.2397 82.8136 28.3706 82.9672 28.5246 83.0989C28.655 83.1586 28.691 83.3009 28.7854 83.4084C28.8096 83.4568 28.904 83.4568 28.904 83.5283C29.6295 84.0759 30.3539 84.6099 31.2211 84.8609C31.6847 85.0506 32.1956 85.0866 32.6592 85.1929L32.8486 85.2059C32.4445 86.2526 32.1 87.3472 31.5774 88.359C30.3061 87.8475 29.1299 87.1446 27.8581 86.633L27.0736 88.1209C27.3945 88.489 27.8811 88.655 28.3088 88.8936C29.747 89.5965 31.22 90.2504 32.7413 90.7631L32.8717 90.6792L34.5947 85.8255L34.7021 85.7658C35.8311 86.122 36.972 86.503 38.101 86.8007C39.1587 87.1226 40.2877 87.2301 41.3926 87.444C41.2853 88.6105 40.9885 89.7636 40.8458 90.9539L40.7385 91.0023C39.479 90.6804 38.1606 90.4907 36.9124 90.1683C36.7579 90.74 36.5673 91.2988 36.4606 91.8931C38.4219 92.4778 40.4361 92.8689 42.4739 93.0608C42.7116 91.2988 42.9016 89.5256 43.1753 87.7647C45.3024 87.9803 47.6195 88.0382 49.7472 87.9561C49.8894 89.1694 49.9142 90.3821 49.9142 91.4902C48.5592 91.6573 47.3829 91.466 46.0038 91.5262C45.8976 92.0856 45.8144 92.7035 45.9448 93.2747L46.0038 93.3574C47.8578 93.4638 49.9366 93.4638 51.8261 93.2263L51.957 93.0839C51.8261 91.4058 51.6968 89.6573 51.4703 88.0163L51.6968 87.7895C53.9532 87.6584 56.0821 87.0866 58.1597 86.6589C58.5644 87.7653 58.8128 88.8953 59.1348 90.0152L58.9679 90.1463C57.8147 90.3602 56.6502 90.5982 55.5212 90.9302C55.6049 91.5256 55.7347 92.085 55.9011 92.6562C57.8613 92.3827 59.6923 91.8712 61.4991 91.2521V90.9302C61.0237 89.3123 60.3926 87.7428 60.0261 86.1007C61.0596 85.7315 62.0814 85.3511 63.0795 84.9217C63.3172 84.8857 63.5661 84.839 63.8157 84.8277C64.2085 84.7917 64.576 84.5542 64.956 84.4462C65.5045 84.2042 66.0204 83.8924 66.4896 83.5187C67.0325 84.4996 67.5473 85.4957 68.034 86.5053C66.8465 87.1254 65.6337 87.6359 64.4462 88.1958C64.5288 88.7901 64.7913 89.4204 65.1706 89.8964C67.0842 89.0883 68.9731 88.2318 70.7557 87.041C69.9116 85.5053 68.9489 84.0185 68.034 82.5075C69.8408 81.2345 71.7184 80.1039 73.3696 78.6171L74.0698 77.9981C74.8538 78.782 75.5799 79.6745 76.3875 80.5558C75.794 81.2942 75.0089 81.8288 74.2845 82.4253C73.8799 82.7708 73.3449 83.0668 72.9644 83.472C73.2617 83.9594 73.6067 84.3994 73.9861 84.8525C75.9593 83.5902 77.6818 82.104 79.4049 80.2592C78.1707 79.0043 76.9315 77.755 75.6861 76.5113C77.3603 74.7031 79.1081 72.7037 80.5333 70.5978H80.7469C81.6382 71.2169 82.5886 71.7644 83.4804 72.4071V72.5495C82.6262 73.7149 81.7624 74.8731 80.8891 76.0239C81.1864 76.4646 81.6731 76.7026 82.1019 77.083H82.3154C83.8244 75.2738 85.2507 73.3824 86.2842 71.3592L81.8287 68.7419V68.492C83.1472 66.4205 84.0981 64.1723 84.9894 61.9348L85.0956 61.852C86.1421 62.2814 87.2464 62.6134 88.3288 63.0186C87.9241 64.3158 87.3071 65.5285 86.7602 66.7908C86.9856 67.147 87.4605 67.147 87.7583 67.3851C87.9494 67.4447 88.163 67.5764 88.3518 67.5274C89.3853 65.4706 90.2424 63.3394 90.8358 61.0664C89.16 60.5549 87.4605 60.0433 85.7975 59.5312C86.4624 57.0444 86.985 54.6409 87.2222 51.9757C87.5437 51.8682 87.9837 51.916 88.3288 51.9396L90.6695 52.1659C90.7054 53.5936 90.3008 54.9977 90.1586 56.4254C90.6695 56.615 91.2405 56.6634 91.7744 56.7822C92.2386 55.4017 92.3454 53.8311 92.5347 52.4033C92.5589 51.4872 92.75 50.5946 92.5943 49.6785C90.8948 49.5721 89.1605 49.5952 87.4138 49.5119L87.402 48.1815L87.4082 48.181ZM37.7503 84.1378C44.1312 85.9116 51.4866 85.9712 57.8551 84.2109C57.9265 84.2469 57.9973 84.2824 58.0816 84.3049C58.4492 84.3887 58.7706 84.6026 59.1618 84.6741C52.7927 86.6854 45.8655 86.9594 38.8665 85.3173C38.0943 85.1406 37.3294 84.9341 36.5735 84.6983C36.9782 84.5311 37.3693 84.3404 37.7498 84.1378H37.7503ZM11.1927 47.2524C10.6818 59.6511 16.7059 71.5146 26.5087 78.6413C26.5329 78.8085 26.5683 78.9632 26.6161 79.1062C26.6161 79.3318 26.6403 79.558 26.6875 79.7719C20.5319 75.4657 15.4824 69.29 12.9517 62.4474C11.4664 58.6162 10.5031 54.4405 10.3373 50.073H10.2542C10.2199 48.7831 10.2519 47.4927 10.3491 46.2063C10.6464 46.4083 10.9201 46.6109 11.2163 46.8011L11.1927 47.253V47.2524ZM84.7927 50.0724C84.895 47.7173 84.7635 45.3576 84.4015 43.0284C84.6865 43.0053 84.9602 42.8505 85.1973 42.6598C85.4485 44.1792 85.6037 45.7133 85.6615 47.2519H85.7441C85.9577 56.4259 82.9752 64.7907 77.6278 71.8702C74.9898 75.1415 71.9607 77.9142 68.6449 80.1157C68.6915 79.9615 68.7871 79.8192 68.836 79.6526C68.8584 79.3549 68.9782 79.0921 69.0495 78.8073C69.6357 78.3937 70.2145 77.9694 70.785 77.5344C79.3155 70.6215 84.2352 61.0062 84.8062 50.0724H84.7933H84.7927ZM40.6856 12.509C38.1426 12.9963 35.7064 13.7701 33.4966 14.805C33.3061 14.8883 33.1167 14.9834 32.9267 15.0673C32.784 14.9834 32.666 14.9001 32.5345 14.8292C32.4513 14.7696 32.3799 14.6744 32.3209 14.6272C32.2512 14.5934 32.1871 14.5495 32.1304 14.4966C35.4388 12.9231 38.9631 11.8522 42.5869 11.3193C42.0991 11.5804 41.6242 11.8427 41.1487 12.1404C41.0015 12.272 40.8464 12.3953 40.6851 12.509H40.6856ZM62.6332 47.0031C62.4315 47.0391 62.3 47.1703 62.2044 47.3008C62.1685 47.3605 62.1224 47.4314 62.0864 47.5029L62.015 47.6571C61.5508 48.1331 61.0889 48.5254 60.4813 48.5969C59.7794 48.4905 59.1612 48.1326 58.5796 47.6925C58.4537 47.6452 58.3306 47.5895 58.212 47.5259C58.0811 47.4539 57.9501 47.3706 57.8192 47.2997C56.7857 46.5732 55.3234 46.7403 54.1359 46.9187C53.5295 46.9187 52.9944 47.181 52.5314 47.5017C52.3712 47.5378 52.224 47.6154 52.1043 47.7274C51.9834 47.8242 51.8676 47.9277 51.7581 48.0369C51.7013 48.078 51.6496 48.1264 51.6041 48.1799C51.5557 48.2389 51.4844 48.3222 51.4619 48.4168L51.449 48.4764C51.449 48.5124 51.4372 48.5479 51.4372 48.5952C51.449 48.7257 51.5552 48.8214 51.7463 48.773L51.8289 48.7612L51.984 48.7015L52.1734 48.7972L52.1863 48.4995C52.1863 48.4877 52.2223 48.4635 52.2818 48.428C52.3403 48.392 52.4117 48.3566 52.4836 48.3205C52.8511 48.0583 53.1838 47.9047 53.5756 47.7854C53.9555 47.6537 54.3955 47.571 54.9552 47.4516C55.941 47.4877 56.5597 47.5828 57.2358 47.845C57.6871 48.0589 58.0316 48.2975 58.3177 48.5231L58.4846 48.6779L58.3407 48.6182C58.2379 48.5749 58.1305 48.5428 58.0209 48.5231C56.8806 48.1545 55.6673 47.9514 54.3961 48.0825C53.3384 48.2733 52.2931 48.7972 51.6046 49.5817C51.5917 49.6059 51.5805 49.6177 51.5451 49.7004C51.4934 49.764 51.4535 49.8366 51.427 49.9143C51.3984 50.0184 51.4113 50.1292 51.463 50.2238C51.4175 50.2418 51.3765 50.2705 51.3433 50.3071C51.2849 50.4033 51.2635 50.5175 51.2837 50.6284C51.2967 50.7117 51.3315 50.795 51.3433 50.8783C51.427 51.0927 51.5698 51.1636 51.7002 51.212C51.7468 51.2362 51.807 51.248 51.8654 51.2716C51.9334 51.2936 51.998 51.3251 52.0565 51.3667C52.7567 51.4855 53.3749 51.7235 54.0651 51.8783C55.3588 52.2711 56.857 52.1282 58.0097 51.5215C58.6627 51.248 59.3169 50.8552 59.9098 50.4269L60.0295 50.3082L60.1475 50.2249C60.1835 50.1776 60.1953 50.1653 60.2672 50.0944L60.3734 49.9154C60.3605 49.7967 60.3375 49.7134 60.2672 49.6419L60.1959 49.5822L60.0761 49.499L60.0048 49.4517L59.8497 49.356L59.7783 49.3087C60.1711 49.3206 60.6466 49.3087 60.836 49.2845C61.0979 49.154 61.3468 49.0938 61.5604 48.9987C61.7981 48.9036 62.0134 48.7606 62.1786 48.4753C62.2145 48.4511 62.2516 48.428 62.2741 48.4038L62.3455 48.3082C62.3938 48.2485 62.4292 48.2018 62.5236 48.1298C62.5714 48.0341 62.6433 47.939 62.7029 47.8445C62.7625 47.737 62.8327 47.6306 62.8698 47.5107C62.9524 47.3318 62.8569 47.1421 62.7029 47.0104L62.6321 47.0026L62.6332 47.0031ZM52.4617 50.656C52.3661 50.6318 52.2599 50.62 52.1644 50.5845C52.0216 50.5485 51.8986 50.459 51.8193 50.3347L51.8789 50.2756C51.9744 50.0735 52.152 49.9418 52.4015 49.7882L52.5213 49.6807C52.4791 49.8518 52.4673 50.0291 52.4853 50.2041C52.5078 50.3588 52.5437 50.5254 52.5791 50.6802L52.4611 50.656H52.4617ZM58.2362 50.6436C58.1895 50.6678 58.1423 50.6796 58.1064 50.7033L57.9513 50.7865C57.8979 50.8147 57.8417 50.8389 57.7843 50.858L57.6888 50.8817C56.7149 51.5249 55.3368 51.4292 54.1235 51.167C53.7189 51.1073 53.4233 50.7742 53.2322 50.3932C53.2097 50.3335 53.2097 50.2744 53.2204 50.1793C53.2204 50.0718 53.2445 49.9773 53.2563 49.8698C53.2681 49.679 53.2445 49.4539 52.9944 49.3346C54.3253 48.5378 56.2029 48.5732 57.5697 49.1799C57.641 49.2271 57.7118 49.275 57.7961 49.3104C57.8664 49.3465 57.9614 49.3819 58.0322 49.4168C58.1873 49.5001 58.2828 49.5716 58.3413 49.6554C58.3413 49.8574 58.389 50.0831 58.389 50.2851C58.3907 50.4883 58.3548 50.5963 58.2356 50.643L58.2362 50.6436ZM59.0803 50.1321C58.9966 50.1793 58.9381 50.1439 58.9134 50.0488C58.8774 49.8467 59.0803 50.0015 59.1753 49.9891C59.1758 50.0375 59.1045 50.0972 59.0803 50.1321ZM62.894 45.7302C62.6091 45.7662 62.3354 45.8253 62.0622 45.8726C61.7891 45.9198 61.5154 45.9558 61.2541 45.9198C60.8658 45.9018 60.4802 45.8461 60.1026 45.7533C59.9795 45.6863 59.8525 45.6266 59.7227 45.5743C59.5917 45.527 59.4608 45.491 59.3298 45.4432C59.0696 45.3717 58.8072 45.2884 58.5694 45.1342C57.9046 44.872 57.1909 44.7172 56.5142 44.4437C56.014 44.3722 55.5521 44.4077 55.0165 44.491C54.6967 44.6227 54.3387 44.7296 53.983 44.8365C53.6379 44.9553 53.2828 45.0976 52.9613 45.3481C52.9028 45.491 52.7719 45.5743 52.6415 45.6576L52.5353 45.729C52.4993 45.7533 52.4639 45.7763 52.4398 45.8005C52.3757 45.8574 52.3234 45.926 52.2858 46.0026C52.0351 46.2164 51.7974 46.4668 51.5372 46.6807C51.2865 46.9069 51.0022 47.0965 50.6689 47.1922C50.6105 47.2282 50.4908 47.2997 50.4554 47.4303C50.5391 47.5726 50.7049 47.5974 50.8353 47.585H51.0618C51.1331 47.585 51.1927 47.585 51.2871 47.5974C51.5737 47.5023 51.8109 47.3352 52.0244 47.1331C52.238 46.9311 52.4398 46.7173 52.6533 46.5141C53.0703 46.038 53.5688 45.6458 54.1977 45.4432C54.3994 45.4314 54.5664 45.3599 54.722 45.2766L54.9597 45.1579C55.0311 45.1218 55.1019 45.0982 55.1851 45.0627C55.3273 45.0988 55.4717 45.0988 55.6139 45.0988C55.7679 45.0869 55.923 45.0746 56.077 45.0746C56.3743 45.0627 56.6592 45.0869 56.9087 45.2535C57.4797 45.3599 57.9439 45.5872 58.5846 45.7538C58.7397 45.8602 58.9179 45.9316 59.0848 46.0037C59.2517 46.0751 59.4164 46.1342 59.5361 46.2057L59.6187 46.2181H59.7024C59.7266 46.2181 59.7491 46.2181 59.8334 46.2541C60.3319 46.325 60.8202 46.4212 61.294 46.4449C61.7582 46.4691 62.2202 46.4089 62.6962 46.1826C62.7799 46.2068 62.8271 46.1826 62.8631 46.1354L62.9345 46.0757L63.0058 45.98C63.0058 45.957 63.0188 45.921 63.0188 45.8973C63.0154 45.8365 63.0019 45.7774 62.8951 45.7302H62.894ZM43.2523 61.7209C43.4782 61.6742 43.7041 61.6145 43.9177 61.5538C44.1436 61.4952 44.3572 61.4598 44.5713 61.4474C44.809 61.3878 45.058 61.4114 45.2957 61.4834C45.5452 61.5431 45.7824 61.6506 46.0443 61.7344C46.1628 61.7102 46.2112 61.5431 46.1864 61.4249C46.1072 61.3202 46.006 61.2347 45.8897 61.1739C45.1883 60.484 43.9761 60.6624 43.1562 60.9601C43.0134 60.9719 42.8594 61.0315 42.7049 61.0557C42.5621 61.0782 42.443 61.0675 42.348 60.9359C42.1575 60.7817 42.1227 60.5082 42.1575 60.2347C42.0271 60.0917 41.8124 60.1396 41.6708 60.2707C41.5286 60.7226 41.7422 61.1278 41.9917 61.412C42.3609 61.7929 42.8122 61.8064 43.2517 61.7215L43.2523 61.7209ZM51.4152 67.4329C50.6908 67.6692 49.9063 67.909 49.0863 67.9427C48.6952 68.0384 48.3024 68.0266 47.8983 67.9669C47.506 67.9084 47.1143 67.8128 46.7344 67.7531C46.4455 67.7289 46.1555 67.7289 45.8672 67.7531C45.5941 67.7773 45.3204 67.8246 45.0473 67.8595C44.5005 67.9309 43.9666 67.9793 43.3838 67.8476C43.2174 67.8476 43.087 67.7762 42.9443 67.7053C42.8757 67.6608 42.8038 67.6208 42.7302 67.5854C42.6588 67.5612 42.5756 67.5257 42.4806 67.5257C42.3261 67.443 42.2311 67.6096 42.2199 67.6929C42.1727 67.7992 42.2075 67.8842 42.2559 67.9551C42.28 67.9793 42.3031 68.0148 42.3272 68.0491C42.3508 68.0733 42.3744 68.0975 42.3986 68.1465C43.159 68.7638 44.3358 68.8004 45.2507 68.5742C45.5829 68.443 45.9279 68.4318 46.2966 68.456C46.6529 68.4785 47.021 68.5275 47.3661 68.5275C48.0315 68.7295 48.7087 68.7058 49.3746 68.5989C50.0277 68.4926 50.6931 68.3012 51.3225 68.1341C51.4422 68.0874 51.5956 68.0502 51.7154 67.9917C51.8772 67.9326 51.989 67.7835 52.0003 67.6113C51.9278 67.4081 51.6187 67.2303 51.4158 67.4323L51.4152 67.4329ZM54.0066 65.4222C53.9352 65.3394 53.8644 65.255 53.7801 65.1723C53.6132 65.0052 53.4002 64.8628 53.0799 64.8628L53.0085 64.8853C52.7354 65.0648 52.8534 65.3028 52.9248 65.421L52.9725 65.4925C52.9843 65.5167 52.9843 65.5403 52.9725 65.5764C52.6039 65.7418 52.1885 65.8499 51.7839 65.9219C51.2613 66.0159 50.7504 65.9219 50.2277 65.7908L49.4438 65.5769C49.1706 65.5173 48.8969 65.4571 48.6109 65.4458C48.2787 65.4576 48.0051 65.5882 47.7673 65.7064C47.6611 65.766 47.5414 65.8262 47.4223 65.8735C47.3161 65.9196 47.2037 65.9517 47.089 65.9692C46.7681 65.8268 46.436 65.6838 46.0673 65.5887C45.6986 65.4936 45.2946 65.4576 44.8792 65.542C44.5342 65.5887 44.202 65.6844 43.8811 65.7677C43.572 65.8515 43.2747 65.9348 42.9898 65.959C42.6807 65.959 42.3716 66.0057 42.0749 65.995C41.8613 65.995 41.6596 65.959 41.4685 65.8037C41.4809 65.7677 41.4921 65.6973 41.4809 65.6366C41.4792 65.5403 41.4303 65.4514 41.3499 65.3985C41.1122 65.2922 40.9222 65.3518 40.7677 65.4717C40.6963 65.5184 40.6373 65.578 40.5772 65.6371L40.494 65.721L40.4226 65.7925L40.376 65.8521C40.3557 65.9095 40.3231 65.9624 40.2804 66.0063C40.2332 66.0659 40.1855 66.1127 40.1383 66.1616C40.032 66.2798 39.9123 66.4351 39.9713 66.7317C40.0545 66.8628 40.2209 67.0052 40.435 66.9816L40.5182 66.9455L40.7087 66.7559C40.7604 66.7024 40.8211 66.658 40.8874 66.6248C40.9824 66.6006 41.0891 66.6248 41.1965 66.6844C41.8737 67.0879 42.5509 67.0181 43.1927 66.8386C43.5018 66.7565 43.8109 66.6366 44.1189 66.5291C44.428 66.4351 44.7247 66.3507 45.0574 66.3153C45.3665 66.2325 45.6514 66.2911 45.9364 66.3991C46.2455 66.5055 46.5304 66.6715 46.8159 66.8026C47.1126 66.909 47.3745 66.8741 47.6117 66.7801C47.7302 66.7317 47.8376 66.672 47.9326 66.613C48.0281 66.5522 48.1197 66.4846 48.2057 66.4109C48.5024 66.1487 49.0251 66.2325 49.4646 66.3867C50.0951 66.8274 51.0691 66.9101 51.8424 66.7441C52.1397 66.6484 52.4712 66.5769 52.7921 66.506C53.1029 66.4346 53.4114 66.362 53.7183 66.2438L54.0285 66.4216C54.2292 66.5415 54.4315 66.4216 54.504 66.2545L54.5158 66.1481C54.4444 65.9697 54.3607 65.7677 54.1943 65.6247C54.1376 65.5645 54.0662 65.4931 54.006 65.4222H54.0066ZM46.0218 60.8531C46.1763 60.9246 46.3539 60.9843 46.5326 61.0315C46.7108 61.0782 46.8889 61.1154 47.0913 61.1514C47.4594 61.1154 47.8516 61.0315 48.2085 60.8419L48.2675 60.7462V60.5791C48.2675 60.5076 48.2433 60.4125 48.0888 60.318C47.8629 60.3061 47.6251 60.3303 47.3992 60.3303C47.1733 60.3422 46.9474 60.354 46.722 60.318C46.1038 60.2583 45.7239 59.8306 45.557 59.247C45.2962 58.4502 45.3901 57.7118 45.5694 56.9741C45.6525 56.5936 45.747 56.2245 45.8301 55.844C45.9015 55.4749 45.9611 55.0944 45.9847 54.6184C45.9611 54.1068 45.8785 53.5474 45.8419 52.9762C45.806 52.4169 45.806 51.858 45.9616 51.3223C45.9257 50.8816 45.9493 50.4652 45.9734 50.0606C45.9976 49.656 46.0094 49.2637 45.9616 48.8591C46.0313 48.7359 46.0443 48.5884 45.9976 48.4545C45.9852 48.3948 45.9616 48.3357 45.9504 48.2648C45.9262 48.2052 45.9262 48.1573 45.9262 48.0977L45.8903 48.0144C45.8307 47.9671 45.8071 47.9193 45.7829 47.8354L45.747 47.7758H45.6756C45.5924 47.7758 45.5334 47.7882 45.4851 47.8231L45.4019 47.8945L45.2001 47.9896L45.3311 48.0493L45.2951 48.1326C45.2479 48.9294 45.3665 49.6914 45.3187 50.3932C45.3069 50.8929 45.2001 51.3448 45.1524 51.7973C45.081 52.2615 45.0692 52.7258 45.2119 53.2132C45.2361 53.5227 45.2715 53.8322 45.2951 54.1406C45.3311 54.4383 45.3423 54.7478 45.3069 55.0449C45.2473 55.3421 45.1996 55.664 45.1288 55.9847C45.0692 56.2942 44.9978 56.6038 44.8787 56.9133C44.7123 57.9955 44.5938 59.1379 45.2119 60.1024C45.3789 60.4716 45.6756 60.7108 46.0207 60.8526L46.0218 60.8531ZM64.8424 14.8523L65.0206 15.0065C65.9956 15.7324 67.0533 16.2558 68.1824 16.7792C67.1028 16.0802 65.9878 15.437 64.8424 14.8523ZM51.4147 53.1777C51.4984 53.2374 51.6058 53.1777 51.6058 53.0713C51.522 52.9171 51.558 52.786 51.4995 52.6194C51.4282 52.4174 51.2377 52.2857 51.1904 52.0719C50.8218 51.454 50.6307 50.7759 50.4289 50.0966C50.3463 49.93 50.2154 49.7871 50.0378 49.7753C49.9816 49.8147 49.9361 49.8681 49.9069 49.93C49.931 50.4776 50.0738 51.0482 50.2868 51.5598C50.5852 52.1304 50.8229 52.8327 51.4158 53.1771L51.4147 53.1777ZM48.5165 61.318C48.5654 61.3512 48.6255 61.3641 48.6834 61.354C48.7896 61.3056 48.9194 61.2808 49.0863 61.2808H49.5393C49.9192 61.2583 50.3222 61.2583 50.7026 61.2094C51.0955 61.1508 51.4759 61.0422 51.7732 60.7935C52.2717 60.5436 52.2841 59.9375 52.2133 59.4372L52.0823 59.2583C51.8092 59.2346 51.6895 59.377 51.6423 59.5678C51.6153 59.6573 51.5951 59.749 51.5827 59.8413C51.5586 59.9246 51.5467 60.0084 51.5231 60.0675C51.0831 60.6747 50.2294 60.7108 49.5033 60.6618L48.5772 60.8886C48.5547 60.9128 48.5305 60.9246 48.5058 60.9482L48.4226 61.0068C48.3636 61.0664 48.3276 61.1379 48.4108 61.2578L48.517 61.3174L48.5165 61.318ZM46.8884 62.5662C46.7344 62.5887 46.758 62.7575 46.7097 62.8639C47.1497 63.1137 47.7797 63.363 48.2433 62.9579C48.3024 62.8397 48.4339 62.744 48.3979 62.5887C48.4103 62.4823 48.3265 62.4705 48.2433 62.4705C47.9101 62.6973 47.3037 62.6737 46.8884 62.5662ZM49.8237 63.8042C49.6568 63.7086 49.4904 63.6022 49.3128 63.5065C49.1335 63.4159 48.9408 63.3557 48.7418 63.3281C48.4339 63.2325 48.1832 63.3039 47.9466 63.4109C47.8337 63.4621 47.7224 63.5178 47.6133 63.578C47.5071 63.6264 47.4116 63.6737 47.3042 63.6979C46.7934 63.376 46.2825 63.4356 45.7953 63.614C45.5458 63.7097 45.3086 63.8161 45.0585 63.9359C44.827 64.0423 44.5887 64.134 44.3448 64.2094C44.2729 64.2522 44.1902 64.2724 44.1071 64.2679C44.0239 64.2679 43.9283 64.2454 43.8463 64.2319C43.6676 64.1959 43.4535 64.1734 43.3113 64.3631C43.2641 64.4227 43.2753 64.4829 43.2989 64.5302C43.2989 64.5544 43.3113 64.5769 43.3821 64.6613C43.8575 64.8633 44.3442 64.851 44.8202 64.6731C44.963 64.6371 45.0934 64.5775 45.2243 64.5189C45.3553 64.4593 45.4738 64.3991 45.5924 64.3394C45.8301 64.2325 46.0561 64.1385 46.3179 64.1498L46.3775 64.138C46.4607 64.125 46.5444 64.1498 46.6383 64.1965L46.7928 64.2561C46.8479 64.286 46.9092 64.3017 46.9715 64.3028C47.0075 64.3028 47.0547 64.3158 47.1019 64.327C47.1491 64.3389 47.2081 64.363 47.2565 64.3867C47.3638 64.4227 47.4942 64.4582 47.6488 64.4109C48.1354 64.0057 48.5991 64.1014 49.0863 64.291C49.337 64.3867 49.5865 64.5049 49.8478 64.6005C50.108 64.6844 50.3812 64.7429 50.6796 64.7204L50.7622 64.6726L50.8684 64.6607C50.9044 64.6607 50.9398 64.6607 50.9881 64.6478C51.0348 64.636 51.0707 64.6135 51.1061 64.5414C51.1303 64.4233 51.0943 64.2212 50.9168 64.1498C50.4891 64.1847 50.1569 64.0181 49.8242 63.8042H49.8237ZM93.634 41.1848C93.634 40.5539 93.4204 39.9113 93.3378 39.281C93.1586 39.0429 93.2181 38.7216 93.0872 38.4954C93.0405 37.8887 92.6247 37.4481 92.505 36.8774C92.1492 35.9849 91.7204 35.2117 91.2219 34.3428C91.1742 33.6889 91.1022 33.1289 90.9353 32.5341C90.8291 32.4277 90.8055 32.3433 90.7217 32.2364C90.6993 32.13 90.615 32.0349 90.5919 31.9038C90.5189 31.8447 90.5082 31.726 90.4368 31.6427C90.1749 31.1069 89.8304 30.4879 89.3904 30.0951C88.9633 29.3691 88.2855 28.7389 87.7162 28.1086C87.5853 28.0017 87.3475 27.8823 87.2762 27.7394C86.6338 27.0731 85.8256 26.5025 85.0653 25.9189C84.877 25.8412 84.7011 25.7371 84.5426 25.6094C84.1138 25.3241 83.6164 25.0506 83.1517 24.8007C82.1536 24.3848 81.2516 23.9205 80.2046 23.5396C79.6111 23.3257 79.0289 23.0753 78.3865 22.9678C77.8279 22.9205 77.3772 22.5874 76.8899 22.409C76.4386 22.2773 76.1284 21.9087 75.7609 21.6943C75.3922 21.3487 74.9527 21.1343 74.6077 20.8259C74.2879 20.6121 73.9546 20.4455 73.7163 20.1715C72.6469 19.3386 71.8162 17.97 70.5557 17.3036C69.7717 17.0774 68.9399 16.6728 68.1554 16.7803C67.0505 16.2569 65.9928 15.733 65.0178 15.0076C64.698 14.7105 64.3647 14.46 64.0084 14.1989C62.6417 12.8072 60.8837 11.8314 58.8746 11.8078C58.5548 11.8545 58.2323 11.9862 57.9232 11.9141C57.0566 10.4268 55.2733 10.272 53.8004 9.74864C53.0518 9.46276 52.6471 8.7368 52.338 8.0463C52.3156 7.84427 52.1841 7.68951 52.1711 7.45146C52.1014 7.29671 51.9458 7.18922 51.8036 7.11888C51.5883 7.02321 51.3635 7.15377 51.209 7.28545C51.055 7.73791 51.1151 8.23707 50.9488 8.65408C50.7706 8.96359 50.5919 9.32038 50.425 9.6057C50.0799 10.1291 49.4511 10.5455 48.952 10.6288C48.4653 10.3553 47.9191 10.272 47.3841 10.1527C47.1823 10.1167 46.9086 10.1527 46.7187 10.1054C45.5306 10.1527 44.306 10.3665 43.3798 10.9023C42.5959 11.3187 41.8827 11.6873 41.1465 12.1392C40.5283 12.7341 39.7325 12.9963 39.1143 13.5551C38.663 13.8174 38.3657 14.0549 37.9262 14.2929C36.8568 15.0543 35.4428 15.6249 34.076 15.4707C33.4938 15.554 32.9824 15.0779 32.5316 14.8286C32.4485 14.769 32.3771 14.6739 32.3181 14.6266C31.8786 14.4128 31.8314 13.8894 31.5695 13.5675C31.3554 13.46 31.4863 13.1747 31.3076 13.0318C31.1222 12.9485 30.9103 12.9485 30.7254 13.0318C29.965 13.6862 29.1687 14.2096 28.8006 15.1021C28.4684 15.899 28.0638 16.7201 28.2065 17.7077C27.8856 17.9812 27.4462 18.1354 27.1017 18.41C26.8639 18.6239 26.4958 18.8259 26.2345 19.1C25.9254 19.4449 25.5331 19.8023 25.3196 20.2182C25.3555 20.3245 25.2364 20.3245 25.201 20.3611C24.4052 20.3853 23.5009 20.3971 22.622 20.4917C21.4221 20.6464 20.3521 21.1816 19.2478 21.5626C18.1777 22.0269 17.1206 22.5384 16.1579 23.1574C15.6943 23.3713 15.2666 23.7523 14.8743 24.0494C14.3517 24.5379 13.7093 24.9065 13.2468 25.4653C12.9017 25.7979 12.5696 26.1316 12.3437 26.5717C12.4622 26.893 12.0818 27.2138 12.4027 27.4637C12.1891 27.8092 11.7137 28.0945 11.5709 28.5233C10.0856 29.1412 8.84974 30.1047 7.59031 31.0934C6.41405 32.188 5.2732 33.2347 4.46505 34.6275C4.28634 34.7227 4.38188 34.9371 4.20316 34.9843C4.16832 35.0918 4.06098 35.1509 4.0014 35.2466C3.74064 35.8656 3.37141 36.4132 3.16965 37.0671C3.0151 37.2579 3.00274 37.5077 2.90776 37.721C2.87179 37.8285 2.82459 37.9591 2.80155 38.0778L2.70657 38.5894C2.65936 38.7081 2.74254 38.8629 2.59923 38.9349C2.53966 39.0773 2.44468 39.2804 2.55202 39.4222C2.48065 39.8027 2.65824 40.0643 2.80155 40.3384C2.78974 40.5888 2.53966 40.7554 2.44524 40.9693C2.27833 41.1713 2.13614 41.4335 1.96979 41.6356C1.86245 41.98 2.18335 42.2664 2.38511 42.4803C2.90776 42.6474 3.44278 42.4212 3.94183 42.2906C4.63084 42.1358 5.20126 41.7549 5.8543 41.505C6.05606 42.2664 6.24658 43.1229 6.94738 43.6474C7.31549 43.8613 7.79094 43.9209 8.21862 43.9085C8.6581 44.0633 8.96719 43.742 9.30046 43.6232C9.34766 43.6232 9.37183 43.6592 9.36003 43.7065C9.26449 44.5748 9.60955 45.3604 10.0726 46.0149C10.6071 46.3605 11.023 46.7173 11.5928 47.038C11.5456 47.4781 11.6524 47.8951 11.7243 48.2643C11.8665 48.4781 11.8665 48.7876 12.0211 49.0015C12.5319 50.0848 13.5548 50.6914 14.5411 51.2508C15.2896 51.5131 15.9196 51.6076 16.7396 51.3696C16.7868 51.3223 16.8941 51.2863 16.9531 51.3099C17.1077 51.8817 17.3094 52.4163 17.5713 52.9397C17.7259 53.1186 17.8445 53.3083 17.9512 53.463C18.0698 53.8085 18.3677 54.046 18.5694 54.3319C18.8785 54.7602 19.4012 54.9144 19.6749 55.391C19.9008 56.0573 20.4594 56.6522 21.1366 56.8784C21.208 57.0089 21.4457 56.9499 21.4098 57.1395C21.1838 57.3894 21.1838 57.7585 21.0057 58.0557C21.0287 58.6387 20.9692 59.3883 21.2429 59.9235C21.2311 60.1255 21.3738 60.2212 21.4098 60.4226C21.4221 60.4356 21.457 60.4823 21.5047 60.4823C21.5997 60.9471 21.9914 61.161 22.2893 61.435C22.4079 61.9111 22.7647 62.2803 23.121 62.6016C23.3588 62.7569 23.6679 62.8515 23.941 62.9579C23.941 63.1002 23.941 63.2313 23.9882 63.3512C24.0714 63.7564 24.1776 64.1481 24.3091 64.5285C24.3563 64.8262 24.5468 65.1115 24.7014 65.3254C24.7963 65.6124 25.0346 65.8262 25.1414 66.0868C24.9745 66.349 24.8559 66.6585 24.725 66.932C24.4873 67.7064 24.4631 68.3721 24.6654 69.1577C24.7126 69.2641 24.7126 69.3958 24.82 69.4915C25.129 70.384 25.9608 71.0497 26.8049 71.4544C27.0185 71.7509 27.1371 72.0604 27.1612 72.4296C27.2916 73.061 27.078 73.6665 26.9707 74.2738C26.9465 74.594 26.8993 74.9992 26.8044 75.2968C26.792 75.3683 26.8162 75.428 26.7684 75.4752C26.7566 75.9513 26.6498 76.3323 26.5908 76.7842C26.5784 76.9395 26.6026 77.011 26.5436 77.1061C26.5436 77.7477 26.389 78.4972 26.615 79.1045C26.5919 79.7584 26.8769 80.3532 27.0078 80.9604C27.4714 81.6751 27.8626 82.4833 28.5286 83.1619C28.6589 83.1619 28.6949 83.3043 28.7893 83.4118C28.8135 83.4602 28.9079 83.4602 28.9079 83.5317C29.6334 84.0792 30.3579 84.6133 31.225 84.8643C31.6887 85.0539 32.1995 85.0899 32.6632 85.1963C33.5067 85.2441 34.5402 85.3027 35.3366 85.0781C37.7486 84.5666 39.4835 82.8524 41.6691 81.8417C42.3829 81.6149 43.0601 81.2463 43.88 81.2812C44.0576 81.4365 44.0818 81.7685 44.2723 81.853C44.51 82.3763 45.0209 82.7207 45.5317 82.9239C45.924 83.091 46.4225 83.091 46.9103 83.1377C47.4925 83.1507 48.1225 83.0438 48.6216 82.7326C48.9307 82.674 48.9773 82.3763 49.2504 82.2221C49.7748 82.6138 50.475 82.6982 51.1522 82.6982C51.4372 82.8282 51.7811 82.8524 52.1144 82.8164C52.791 82.5896 53.3019 82.091 53.6481 81.472C53.7779 81.2452 53.9083 81.508 54.0156 81.5789C54.1111 81.6611 54.2662 81.6853 54.3005 81.7928C54.9069 82.3521 55.4779 82.8873 56.1675 83.3634L57.0588 83.8868C57.4275 83.9464 57.7366 84.1963 58.0805 84.3026C58.543 84.4107 58.9229 84.7078 59.4591 84.7078C59.5057 84.7078 59.5546 84.7917 59.6013 84.7208C59.8862 84.7793 60.1959 84.8148 60.4808 84.9217C60.9079 84.8992 61.3367 85.0286 61.7638 85.0055C61.9774 84.9937 62.1685 84.9695 62.3702 85.028C62.8569 84.9937 63.3217 84.8626 63.819 84.8271C64.2119 84.7911 64.5794 84.5536 64.9593 84.4456C65.8276 84.0539 66.683 83.4821 67.2658 82.7207C67.6811 82.5784 67.6457 82.091 67.9306 81.853C68.0615 81.3769 68.2875 80.8895 68.573 80.4725C68.5252 80.4241 68.5848 80.3769 68.6196 80.3662C68.6078 80.0927 68.7635 79.8901 68.8348 79.6515C68.8708 79.2581 69.0602 78.9126 69.095 78.5209C69.3457 77.5327 69.4165 76.2952 69.4041 75.392C69.5463 74.9159 69.4401 74.6063 69.4997 74.119C69.453 73.868 69.453 73.6542 69.4176 73.3919C69.3693 73.0953 69.4401 72.8218 69.5115 72.5348C69.6177 72.2495 69.7621 72.0115 69.8684 71.7267C69.8684 71.5596 70.0353 71.4645 70.0353 71.2861C70.4028 70.7852 70.6175 70.2028 70.985 69.7503C71.021 69.5483 71.1402 69.3941 71.1761 69.2028C71.3301 68.8932 71.4611 68.5967 71.5094 68.2393C71.556 68.133 71.4965 67.9658 71.5678 67.8476C71.5453 67.3715 71.6038 66.8127 71.5094 66.3479C71.4965 65.8487 71.2475 65.4683 71.2228 64.9928C71.556 64.6236 71.6516 64.1475 71.8174 63.6956C71.8292 63.3023 71.9713 62.9342 71.9112 62.5408C72.0421 62.3028 72.2445 62.2313 72.3282 61.9578C72.4822 61.3163 72.6373 60.5301 72.458 59.8396C72.4822 59.5785 72.2928 59.3753 72.3282 59.1255C72.5642 59.1379 72.802 59.2206 73.0644 59.256C73.7068 59.2324 74.3711 59.4232 75.0016 59.1846C75.2866 58.9583 75.5951 59.2802 75.9396 59.256C76.2847 59.1609 76.5331 59.4232 76.9135 59.3275C77.1153 59.2684 77.1046 59.054 77.1513 58.8644C76.6528 58.6021 76.6044 58.1029 76.3088 57.6978C75.9756 57.0557 76.4982 56.3899 76.569 55.7225C76.569 55.6392 76.6752 55.6037 76.6528 55.4963C76.9377 55.0202 77.0681 54.4613 77.2816 53.9734C77.3058 53.866 77.4238 53.759 77.4126 53.6521C77.6261 53.3308 77.7576 52.9616 77.888 52.593C78.042 52.2362 78.1016 51.7843 78.2078 51.4151C78.3854 50.8203 78.3629 50.2846 78.314 49.6306C78.3022 49.0831 78.1246 48.5715 77.9341 48.1078C77.8521 48.0358 77.8279 47.9058 77.8032 47.8219C77.8762 47.9052 78.0409 47.7387 78.16 47.8219C79.0626 47.7977 79.6937 47.1084 80.2029 46.406C80.1804 46.3351 80.2512 46.3109 80.2866 46.2637C80.3226 46.0374 80.5002 45.8467 80.5485 45.5974C80.4176 45.1697 80.9284 45.0385 81.1296 44.7763C81.4511 44.0509 81.7242 43.2653 81.618 42.3728C81.6764 42.182 81.8782 42.1707 82.0226 42.016C82.0811 41.98 82.1878 41.9445 82.2587 42.0042C82.3424 41.9569 82.4604 42.0633 82.5678 42.0993C83.0432 42.5275 83.4591 43.3131 84.2436 43.0267C84.7438 43.0627 85.2187 42.6941 85.5278 42.3255C85.5396 42.1235 85.788 42.0756 85.788 41.873C85.8122 41.7425 85.824 41.5759 85.9549 41.4926C86.0858 41.6114 86.2415 41.8021 86.3477 41.9569C86.8929 42.3852 87.4172 43.0515 88.0236 43.2777C88.2838 43.4915 88.7002 43.384 89.0093 43.5275C89.3308 43.4212 89.6517 43.4212 89.9608 43.3137C90.1519 43.5517 90.461 43.7538 90.7808 43.801C90.9589 43.8843 91.1961 43.9198 91.363 43.9918C91.6962 44.0036 91.9812 43.8613 92.3251 43.8371C92.4673 43.6581 92.7404 43.6581 92.9186 43.5399C92.9916 43.4448 93.0495 43.2777 93.1563 43.254C93.2873 43.397 93.4778 43.5517 93.7161 43.5517C93.8582 43.6941 93.9656 43.4803 94.0718 43.4454C93.9785 42.6857 93.6228 42.0075 93.634 41.1865V41.1848ZM76.3689 23.396C77.1175 23.6937 78.7468 23.4321 80.1489 24.1575C81.4202 24.8114 82.7032 25.1091 83.88 25.978C84.5567 26.4783 85.2693 26.978 85.9588 27.4653C86.4815 28.0129 87.2542 28.7147 87.8606 29.1435C88.4788 29.7034 88.7986 30.4761 89.3814 31.0118C89.4876 31.3804 89.8568 31.6067 89.8922 32C90.0704 32.0951 89.9878 32.3096 90.1541 32.4159C90.3435 32.7361 90.4739 33.094 90.4739 33.475C88.0736 31.4761 86.1735 28.9769 83.2371 27.6561C78.3056 24.6454 68.0273 26.2042 65.5781 22.5395V22.3848C68.0756 23.9672 70.4382 23.467 73.2915 23.3375C73.8141 23.3735 74.2896 23.4208 74.7521 23.3375C75.1213 23.1822 75.9885 23.2537 76.3689 23.396ZM75.2882 22.4917C73.8619 22.6825 65.568 23.3009 65.7231 20.9329C67.6232 20.4213 69.5615 20.0167 71.5453 20.2305C72.2108 20.0763 74.9443 21.9329 75.2882 22.4917ZM71.8196 19.2795C71.1666 19.5175 70.3691 19.3155 69.6795 19.3858C68.6927 19.481 67.7193 19.7787 66.7459 19.8383C66.484 19.8625 64.7609 20.2666 64.6907 20.3859C64.6424 20.4692 64.9402 21.1945 64.9627 21.3966C64.4642 22.0038 62.7063 22.7292 61.9094 22.6346C60.9472 22.7179 60.0795 22.1462 59.1292 22.194C57.169 22.2897 55.8505 23.3719 54.151 23.6932C54.8288 22.6583 56.1 21.5632 57.0515 20.7781C61.126 17.423 61.4834 20.2778 65.7253 18.4342C68.2195 17.3391 69.847 17.1371 71.8202 19.2795H71.8196ZM79.8044 33.9382C79.6375 34.0929 79.3756 34.0811 79.198 34.2359C78.9603 33.5335 78.4843 33.605 78.0931 33.1537C78.6518 33.1177 80.2557 33.3315 80.6115 33.7845C80.3271 33.7722 80.0888 33.95 79.8044 33.9387V33.9382ZM83.4984 37.627C81.2403 37.627 80.3979 39.6136 78.5439 40.2917C78.4955 38.9 77.3193 37.7452 78.5905 35.8302C78.8412 35.4734 79.2211 35.1757 79.6122 34.9731C81.8951 33.7592 82.8572 35.8302 83.4979 37.627H83.4984ZM75.5372 32.0107C75.5254 32.0107 75.395 31.9635 75.395 31.9989C74.7768 31.7485 73.1841 31.7609 72.5434 31.9393C68.859 32.9393 65.6146 30.5476 63.2981 27.9533C62.9783 27.5847 62.5843 27.4659 62.2764 27.1564C63.465 26.8351 64.6648 26.2993 65.9119 26.229C67.2202 26.1575 68.6213 26.669 69.9167 26.8469C71.2593 27.0258 72.5665 26.9544 73.9102 27.0489C74.9437 27.1204 76.5954 27.489 77.4154 28.1198C77.7953 28.4175 78.3534 28.6916 78.6759 29.0484C79.4122 29.8694 79.923 30.7856 80.8851 31.4046C79.542 32.82 77.2243 32.4277 75.5372 32.0113V32.0107ZM65.0453 30.8801C65.4741 31.2611 65.9968 31.4868 66.4717 31.8205C67.6704 32.4626 71.3548 33.4626 72.5553 32.7356C72.5553 32.784 72.6266 32.7125 72.639 32.6889C74.6346 32.094 77.4036 32.9151 78.3893 34.8065C77.4396 35.7227 76.5713 39.8398 77.938 40.5421C75.7643 42.1961 75.1106 37.9247 72.222 38.2933C71.8544 37.8291 70.237 36.5319 69.6323 36.7109C69.3232 36.806 69.0973 37.2461 68.8006 37.389C68.0986 37.7345 65.8164 37.5556 65.2117 37.0322C64.9852 36.8414 65.092 36.3659 65.0565 36.0918C64.9498 35.3653 63.5358 31.13 63.18 30.4761C62.6203 29.453 61.8847 28.7867 61.2429 27.8345C62.5023 28.1198 64.0348 29.964 65.0453 30.8801ZM65.8894 40.0542C65.3893 39.9591 65.1279 39.4836 64.7008 39.2804C64.725 38.9349 64.9503 38.2928 65.0695 37.9596C66.5076 38.6743 68.8006 38.7683 70.001 37.5668C70.2612 37.6619 71.3796 38.5308 71.5684 38.7565C71.5566 38.9703 71.8061 39.0778 71.855 39.2799C72.009 39.3986 72.0326 39.6254 72.1866 39.7441C72.2945 40.0655 72.3535 40.4223 72.3535 40.7672L72.258 40.8736C71.7713 40.3384 71.4751 39.7796 70.8794 39.2911C70.6417 39.1003 70.3685 39.0176 70.2505 38.6963L69.8706 38.5657C69.5615 38.6963 69.5733 39.0531 69.3952 39.2793C69.6188 40.2917 66.5897 40.649 65.8889 40.0536L65.8894 40.0542ZM65.8894 66.5527C66.0209 66.5651 66.1524 66.5269 66.257 66.4464C66.8392 65.8988 67.1011 65.1605 67.6367 64.6371C67.8261 64.7924 67.5636 64.8994 67.5411 65.0665C67.4574 65.4227 67.2214 65.6962 67.1011 66.0299C66.8993 66.4458 66.5661 66.815 66.4587 67.3029C65.8057 68.1836 65.0206 69.0514 64.3917 69.8606C64.1298 70.1825 63.8449 70.5145 63.5959 70.8612C63.5128 70.9557 63.4414 71.0593 63.3824 71.1707C63.2155 71.3604 63.0491 71.5027 62.9069 71.7048C62.8586 71.8826 62.9536 71.9918 63.0491 72.1207C63.1913 72.1691 63.3464 72.1803 63.5246 72.1449C64.4867 71.0503 65.3426 69.837 66.2693 68.7064C66.6251 68.5044 66.756 68.0508 66.9937 67.7655C67.254 67.3023 67.6828 66.8729 67.8963 66.3254C68.0031 66.3614 67.9919 66.5167 67.98 66.6231C67.907 66.9208 67.7294 67.0508 67.6232 67.313C67.3501 67.7891 66.9808 68.254 66.697 68.7295C66.2457 69.3952 65.6753 69.8584 65.3078 70.5483C64.7969 71.1797 64.3816 71.8106 63.8573 72.2968C63.4543 72.7262 63.0856 73.2732 62.6574 73.6187C62.0167 74.3199 61.3266 75.1055 60.6145 75.6531C60.3881 75.9029 60.0795 76.069 59.866 76.2963C59.4973 76.7837 58.9263 77.0217 58.511 77.4736C58.2148 77.58 57.9777 77.3312 57.691 77.2597C57.5258 77.1174 57.2044 77.1056 57.1926 76.8191C57.7152 76.4139 58.2974 75.962 58.7847 75.5219C59.2135 75.0346 59.8182 74.5 60.247 73.9524C60.2588 73.7971 60.4488 73.6547 60.3538 73.4763C60.2582 73.3565 60.1402 73.2383 59.9969 73.3452C59.4034 73.8686 58.7628 74.6424 58.1564 75.1657C57.9428 75.2969 57.7765 75.4994 57.5741 75.5951C57.5623 75.7133 57.396 75.7375 57.3246 75.796C57.0515 76.0695 56.7182 76.2969 56.4091 76.5231C56.0894 76.6295 55.6954 76.415 55.411 76.2963C55.1604 76.2248 54.7805 76.1652 54.6507 75.9626C55.3869 75.522 55.9095 74.9277 56.5642 74.4285C57.3713 73.868 57.9175 72.9288 58.7026 72.3452C60.0812 70.9287 61.1254 69.5725 62.2904 68.0485C63.1233 66.8127 63.8724 65.7289 64.5834 64.4317C64.6429 64.2775 64.7031 64.0862 64.8452 63.9444C64.9166 63.7423 65.0234 63.5639 65.0717 63.3253C65.2257 63.0631 65.2735 62.7778 65.4629 62.5161C65.5449 62.3861 65.5691 62.1959 65.7602 62.148C65.9142 62.2544 65.9383 62.3737 66.0918 62.5161C66.425 62.9336 66.8532 63.2786 67.1134 63.7423C67.0668 64.0158 66.8532 64.2539 66.7335 64.5167C66.3626 65.1036 66.0176 65.7069 65.7 66.3248C65.7467 66.412 65.795 66.5077 65.89 66.5544L65.8894 66.5527ZM65.6983 75.4887C65.7225 76.3695 65.4848 77.2378 65.3184 78.1078C65.2128 78.199 65.1594 78.3369 65.1763 78.4759C65.1633 78.5715 65.0925 78.6554 65.0565 78.7494C64.9144 79.1545 64.6412 79.535 64.2141 79.6543C63.5364 79.7257 62.7518 79.7257 62.1696 79.4629C61.8723 79.3808 61.6346 79.2131 61.3856 79.1664C60.7674 78.809 59.9368 78.3813 59.3658 77.9998C59.8058 77.5822 60.2453 77.3098 60.6263 76.8917C61.7796 76.0121 62.7535 74.8573 63.7392 73.8584C64.3923 73.0728 65.07 72.3941 65.6753 71.5624C65.9484 71.1707 66.3531 70.7532 66.5666 70.348C66.5442 70.6102 66.366 70.6817 66.3531 70.9434C66.2109 71.3125 66.0681 71.693 65.9844 72.0739C65.913 72.5973 65.795 73.1916 65.795 73.7403C65.6747 74.2996 65.7945 74.9069 65.6989 75.4882L65.6983 75.4887ZM35.0179 76.0003C35.1966 76.3222 35.3978 76.5957 35.7193 76.8574C36.2892 77.4179 36.8601 78.0003 37.4542 78.4753C37.4542 78.6064 37.2878 78.6773 37.181 78.7263C36.8719 78.7263 36.6224 78.4753 36.3611 78.3447C35.9216 77.8928 35.3989 77.7854 35.0539 77.2631C34.828 77.0133 34.602 76.7983 34.3885 76.6092C34.3885 76.491 34.3413 76.5495 34.2811 76.455C34.1272 76.2158 33.8658 76.0374 33.6399 75.7994C33.4263 75.5855 33.2353 75.276 32.9987 75.0622C33.011 74.9558 32.8801 74.9198 32.8683 74.8241C32.6075 74.4786 32.3215 74.3008 32.1197 73.9316C31.8466 73.6694 31.6797 73.3019 31.4301 73.0149C31.2514 72.599 30.9305 72.2067 30.7288 71.8016C30.6816 71.6462 30.586 71.5393 30.5624 71.3857C30.4202 71.29 30.4674 71.0987 30.3247 70.9923C30.2533 70.6006 29.9324 70.2911 29.838 69.8617C29.6981 69.5455 29.5947 69.2146 29.5289 68.8752C29.4339 68.5179 29.2558 68.1009 29.1726 67.8161C29.2681 67.5893 29.4345 67.4002 29.5531 67.2089H29.6717C29.838 67.8746 30.2061 68.4222 30.3607 69.0531C30.6939 69.7543 30.9907 70.4684 31.3228 71.1471C31.5133 71.2067 31.5847 71.563 31.8337 71.4566C31.9882 71.4099 32.0596 71.2546 32.1068 71.0993C32.0596 70.8269 31.9764 70.5652 31.846 70.3497C31.7988 70.0294 31.5965 69.7554 31.4655 69.4701C31.4655 69.3029 31.275 69.268 31.2992 69.1009C31.252 68.887 31.0974 68.6603 31.0615 68.411C30.9069 68.0418 30.7406 67.5657 30.5748 67.1977C30.5388 66.8881 30.4202 66.6146 30.3843 66.3051C30.8237 65.936 31.275 65.4841 31.6903 65.1385C31.8207 65.3169 31.7735 65.5792 31.9522 65.7446C32.2372 67.0772 32.9857 68.1965 33.5326 69.3986C34.5194 70.9096 35.5647 72.4921 36.9191 73.8134C37.6677 74.6688 38.4753 75.4899 39.3908 76.1798C39.7359 76.455 40.1512 76.7156 40.4715 76.9784C40.4839 77.0251 40.4715 77.0847 40.4243 77.0847C40.0202 77.2868 39.5926 77.5366 39.1772 77.7386C39.13 77.7386 39.0699 77.7505 39.0817 77.7983C38.9631 77.7387 38.9755 77.9638 38.8558 77.9047C38.7136 78.011 38.5107 77.9047 38.3449 77.8332C37.8105 77.4995 37.4778 77.1303 36.9551 76.6784C36.7871 76.4882 36.5859 76.3306 36.3611 76.2136C36.1947 76.0352 35.9688 75.917 35.8143 75.7859C35.6007 75.7144 35.3978 75.6435 35.173 75.6548C35.0544 75.7386 34.9831 75.8568 35.0185 76.0003H35.0179ZM30.3837 74.6913C30.3713 74.1438 30.264 73.6919 30.3241 73.1207L30.3837 73.0385C31.0019 73.8714 31.56 74.7634 32.3203 75.5844C32.6654 76.0138 33.0341 76.5012 33.4966 76.8574C34.1378 77.607 34.8757 78.3931 35.7665 78.9407C35.9092 79.0949 36.0998 79.1787 36.2301 79.2862C36.0166 79.5839 35.6603 79.6914 35.3506 79.8096C35.2444 79.952 35.0415 79.9891 34.8875 80.0595C34.198 80.3104 33.6753 80.7027 32.9739 80.8805L32.7952 81.0116C32.2726 81.2255 31.583 81.2497 31.0963 80.9649C30.9541 80.9165 30.9654 80.7865 30.8355 80.7736C30.7524 80.7021 30.6686 80.6194 30.5748 80.5479C30.1701 79.7027 30.2657 78.7505 30.2775 77.7392C30.3719 76.7977 30.2292 75.6446 30.3837 74.6919V74.6913ZM27.5434 67.5634C27.6266 67.2669 27.7339 66.9934 27.7693 66.6957C27.9952 66.255 28.066 65.923 28.3875 65.5184C28.4184 65.4436 28.4679 65.3783 28.5302 65.3271C29.2906 64.2679 30.1701 63.3884 31.3228 62.6737L31.4301 62.7333V63.4705C31.4071 63.6016 31.3666 63.7294 31.3116 63.8509V63.9348C31.252 63.9815 31.193 64.053 31.2053 64.1486C30.445 65.1481 29.2215 65.7666 28.5555 66.8859C28.3296 67.1116 28.1751 67.4453 28.1037 67.7655C27.9615 67.8853 28.0677 68.1346 27.9261 68.2303C27.9143 68.3367 27.8901 68.42 27.8901 68.564C27.7952 68.6001 27.8429 68.658 27.7715 68.7064C27.3664 68.564 27.6282 67.9686 27.5439 67.5634H27.5434ZM39.9966 75.4302C38.9159 74.585 38.0128 73.5501 37.0619 72.5866C36.0756 71.3137 35.1011 70.1949 34.3407 68.8263C33.9007 67.851 33.4494 67.1374 33.0931 66.1622C32.9981 65.793 32.8672 65.4239 32.7132 65.0676C32.5114 64.4722 32.2377 63.8307 32.4524 63.1514C32.4642 62.8661 32.4524 62.5909 32.4046 62.3304C32.4878 62.152 32.2743 62.0681 32.3215 61.843L32.4046 61.9145L32.417 61.9016C32.4642 61.95 32.4294 62.0569 32.4766 62.1525C32.5569 62.2212 32.6047 62.3202 32.6081 62.426C32.893 63.3056 33.5112 64.044 33.8675 64.9123C34.2356 65.6619 34.6875 66.3276 35.1741 66.9956C35.3411 67.1853 35.4709 67.4233 35.6608 67.5899C35.934 67.6259 35.9941 67.9461 36.1953 68.0908C37.2884 69.2922 38.5838 70.0424 39.8202 71.0176C40.2827 71.5185 40.8896 71.8629 41.269 72.3863C41.8512 72.8624 42.2677 73.4454 42.8971 73.8731C44.061 75.11 45.9156 74.7538 47.5189 74.8725C48.8733 74.814 50.1693 74.563 51.3332 74.0396C51.8558 74.0154 52.2245 73.7059 52.6758 73.5039C53.1158 73.1477 53.4958 72.7667 53.8048 72.2906L53.9358 72.2439C54.4944 71.7791 55.0053 71.173 55.5043 70.6839C56.1602 70.1285 56.802 69.5573 57.4292 68.9703C57.9985 68.6608 58.4031 68.1026 58.8426 67.6614C59.6142 67.0316 60.1734 66.0907 60.8157 65.3175C61.0889 64.8768 61.4446 64.4368 61.6717 63.9489C61.897 63.6287 61.9678 63.1762 62.2882 63.0096C62.4433 63.1036 62.3477 63.3191 62.5034 63.4373C62.6096 63.5684 62.6096 63.8065 62.7883 63.9021C62.8721 64.116 62.908 64.354 63.0502 64.5319C63.0862 64.8296 63.4549 65.1509 63.0862 65.3771C62.504 66.4002 61.7419 67.2916 61.0906 68.268C60.6505 68.8274 60.1869 69.3159 59.7238 69.8859C58.9932 70.7757 58.1985 71.6114 57.346 72.3851C56.6322 73.3486 55.6476 74.0273 54.7439 74.8247C54.459 75.0267 54.2702 75.2406 53.9122 75.3841C53.6273 75.5394 53.3772 75.8247 53.0096 75.8731C51.7968 75.9671 50.538 76.2648 49.4561 76.908C49.0875 76.8242 48.8138 76.6812 48.458 76.5861C47.8398 76.4561 47.1986 76.4437 46.6877 76.7414C46.4259 76.7414 46.2601 76.4792 46.0347 76.3959C45.321 76.1224 44.5257 75.9665 43.7884 76.1224C43.254 76.1809 42.6717 76.2766 42.1609 76.4561C41.84 76.6103 41.591 76.2766 41.2819 76.2648C40.8048 76.0245 40.4485 75.7043 39.9961 75.4302H39.9966ZM64.8677 62.0439C64.7963 61.9955 64.8548 62.0664 64.8082 62.1025C64.7126 62.2696 64.6064 62.4362 64.5704 62.65C64.4282 62.937 64.3102 63.2105 64.1658 63.4711C64.1298 63.6489 63.9404 63.7581 63.8567 63.9359C63.6549 63.7575 63.4537 63.5786 63.4167 63.3287C63.2818 63.0389 63.1941 62.7294 63.1564 62.412C62.9547 62.0664 63.2278 61.6748 63.0609 61.3056C63.216 60.9004 63.3475 60.4845 63.5611 60.0799C63.6437 59.8661 63.6909 59.6038 63.8573 59.4496L63.8702 59.5211C63.9528 59.5447 63.9528 59.6635 64.0242 59.7349C64.2619 60.3298 64.7019 60.8537 65.0577 61.3883C65.0571 61.6264 64.8908 61.8064 64.8683 62.0445L64.8677 62.0439ZM64.1186 52.9999C64.0826 53.7737 63.8921 54.6656 63.7853 55.4873C63.6791 55.9864 63.5836 56.4507 63.4296 56.9504C63.334 57.6404 63.0497 58.2718 62.9294 58.9612L62.6563 60.0203C62.5607 60.2223 62.4545 60.4485 62.3961 60.6747C62.241 60.9713 62.0746 61.3647 61.8959 61.65C61.8599 61.7811 61.7779 61.888 61.7177 61.9955C61.4446 62.4964 60.9804 62.9483 60.8511 63.5195C60.8028 63.6135 60.7202 63.6849 60.7073 63.78C60.6011 63.8515 60.5651 63.9584 60.4819 64.0654C60.4577 64.1734 60.3397 64.3034 60.2802 64.3872C59.4962 65.4103 58.8667 66.4453 57.8445 67.2669C57.618 67.5522 57.3218 67.8144 57.0959 68.0508C56.9537 68.1482 56.8464 68.2303 56.7402 68.2663C56.1096 68.9203 55.42 69.3969 54.7428 70.0401C53.8515 70.7532 52.9731 71.6941 52.0823 72.4555C51.4759 72.9789 50.7515 73.3593 49.9198 73.5022C48.2203 74.0267 46.4253 73.9198 44.6904 73.8241C43.8828 73.7178 43.3478 73.1454 42.801 72.6226C42.4683 72.2293 41.9574 71.8258 41.6247 71.3604C41.1493 70.8612 40.4243 70.3851 39.9494 69.8961C39.7477 69.7813 39.5532 69.6541 39.3672 69.5156C39.1413 69.2658 38.8676 69.1352 38.6068 68.9214C37.6565 68.2314 36.8719 67.4706 36.0868 66.5775C35.8019 66.4818 35.7547 66.1971 35.5524 66.0057C35.4692 65.7677 35.2433 65.6366 35.1843 65.3518C35.078 65.138 34.8875 64.887 34.7802 64.6371C34.7684 64.5189 34.674 64.47 34.6256 64.3518C34.3407 63.8042 34.0434 63.1616 33.7225 62.5898C33.4966 62.1981 33.4494 61.7462 33.2347 61.341C33.1043 60.9719 32.9026 60.6263 32.7952 60.2589C32.6289 59.9021 32.4743 59.5323 32.3557 59.1643C31.9286 57.6179 31.4054 56.023 31.2509 54.3572C31.1677 54.2858 31.2632 54.1192 31.1559 54.0235C31.0609 53.2267 30.9654 52.6082 30.9423 51.8462C30.8237 51.037 30.8592 49.93 30.9064 49.1332C31.5246 48.9069 32.154 48.6216 32.6064 48.0622C32.8672 47.8957 33.0341 47.6222 33.319 47.4314C33.4977 47.3717 33.6871 47.3481 33.8776 47.325C33.831 47.5749 33.6169 47.7893 33.4977 48.015C33.2128 48.5625 32.7132 49.0381 32.725 49.7286C32.8677 49.9306 33.0105 50.0854 33.2594 50.109C33.5685 50.1563 33.8186 50.1923 34.1395 50.145C34.0209 50.2165 34.0923 50.324 34.0923 50.4185C34.2469 50.5733 34.4604 50.4782 34.6509 50.4782C34.6268 50.562 34.615 50.692 34.6509 50.7759C35.6844 52.0015 37.0984 52.6088 38.7743 52.6088C38.8575 52.7275 39.0238 52.6206 39.1424 52.6206C39.2256 52.5733 39.2969 52.5964 39.3919 52.5964C40.7115 52.3353 42.0063 51.8226 43.3012 51.4185C43.5743 51.2165 44.0379 51.073 43.9435 50.6571C43.4327 49.8957 42.5891 49.5383 41.8995 49.0623C41.4241 48.9075 40.9009 48.6818 40.4142 48.6216C39.5229 48.4792 38.3944 48.5383 37.4547 48.8006C36.5162 49.1461 35.6608 49.6216 34.7813 49.9424C34.7099 49.9548 34.615 50.0021 34.5554 49.9897C34.5194 49.9182 34.6504 49.8709 34.7099 49.8349C35.3753 49.383 35.3512 49.3948 35.9935 48.9424C36.0525 48.9064 36.9197 48.3594 37.0152 48.3352C37.8122 47.9424 38.2747 47.728 39.4273 47.8354C39.7836 47.9784 40.1529 48.0375 40.4732 48.2041C40.5637 48.2187 40.6553 48.1821 40.7109 48.1089C40.7351 47.7398 40.5923 47.6081 40.2956 47.3594C39.737 47.217 39.3335 47.0498 38.5495 47.0971C38.0268 47.2046 37.5036 47.2519 37.0164 47.5141C36.7191 47.6092 36.4695 47.7522 36.2436 47.9187C35.7682 48.1568 35.685 48.3712 35.2219 48.585C35.0314 48.7758 34.5442 49.0735 34.3548 49.2513C34.1052 49.3346 33.7366 49.5012 33.5112 49.4652C33.4988 49.239 33.7248 49.1315 33.772 48.8934C33.8315 48.8225 33.9389 48.7871 33.8906 48.6436C34.0811 48.4168 34.307 48.1438 34.4486 47.8822C34.9005 47.4894 35.1854 47.1444 35.8154 46.823C36.7657 46.4184 37.7992 46.4544 38.5489 46.4302C40.2366 46.585 41.2347 46.823 42.339 46.7758C43.0994 46.6334 43.9076 46.585 44.5134 46.0735C44.6196 45.9671 44.6089 45.8 44.6679 45.6694C44.5257 45.4904 44.3712 45.4904 44.2043 45.5861C43.1938 46.0853 42.8375 45.9665 41.9704 46.0262C41.1144 46.0622 40.485 45.9671 39.8561 45.9429C38.9766 45.8365 38.2994 45.5625 37.4204 45.7167C37.1473 45.6694 36.5173 46.0025 36.2796 45.9305C36.2914 45.0031 37.0754 44.2051 37.5986 43.3964C38.1336 43.0036 38.7035 42.5872 39.3453 42.3373C39.7381 42.0278 40.2726 41.837 40.5215 41.3739C40.902 41.088 41.151 40.6485 41.4365 40.2675C41.5314 40.0531 41.5314 39.8505 41.5314 39.5888L41.5674 39.4825C42.2328 39.0773 42.8392 38.6378 43.481 38.1971C43.5293 38.1375 43.6715 38.0424 43.6828 37.9591C43.9924 37.7092 44.3723 37.4115 44.5859 37.0784C44.7764 36.8645 44.8714 37.138 45.0495 37.1971C45.1445 37.4351 45.4176 37.4593 45.6205 37.5539C45.9763 37.6968 46.3685 37.7435 46.7372 37.851C47.8769 37.9107 49.1493 38.0418 50.3025 38.0891H50.398C51.1343 38.1842 51.9542 38.1966 52.7028 38.3513C53.8318 38.5652 54.9609 38.6484 56.0894 39.0052C56.9919 39.2433 57.8832 39.5286 58.7628 39.8736C59.1427 40.0643 59.617 40.2782 59.9261 40.5759C60.6421 41.0312 61.3036 41.5663 61.8993 42.1707C62.0302 42.3615 62.1724 42.5275 62.3039 42.7301C62.613 43.0515 62.8041 43.3964 63.0283 43.7296C63.1705 44.0031 63.4195 44.2535 63.4571 44.5748C63.6347 44.706 63.4796 44.9676 63.6577 45.1106C63.6353 45.2772 63.8247 45.3014 63.9196 45.3841L64.1692 45.4201C64.2051 46.3126 64.3484 47.3121 64.3243 48.2643C64.4552 49.7274 64.2287 51.131 64.1692 52.6071C64.1203 52.7275 64.1203 52.9171 64.1203 53.0004L64.1186 52.9999ZM30.6686 46.7887C30.8704 46.0628 32.2613 43.1955 33.0341 43.1117C33.2004 43.0886 33.1172 43.3621 33.0931 43.433C32.961 43.8455 32.8576 44.267 32.784 44.6941C32.689 45.2417 32.689 45.7774 32.7722 46.3239C32.8672 46.9435 31.8809 47.4426 31.8331 47.7167C31.6313 47.8478 30.9541 48.3476 30.9069 47.8957L30.8473 47.7285C30.9547 47.3481 30.5383 47.2181 30.6686 46.7893V46.7887ZM29.7537 52.239C29.7065 52.2272 29.7768 52.0719 29.7065 52.0252C29.5795 51.6352 29.4289 51.2542 29.2547 50.8828C29.1243 50.8952 29.1833 50.7156 29.0771 50.6689C29.0647 50.4669 29.2198 50.3712 29.2906 50.2047C29.362 50.2165 29.3738 50.145 29.4328 50.1332L29.5401 50.0972C29.5401 50.1444 29.5278 50.2035 29.552 50.2401C29.5879 50.2159 29.5879 50.1928 29.6233 50.1444C29.5401 50.1444 29.5874 50.0972 29.5874 50.0612C29.5874 50.0493 29.5756 50.0493 29.5874 50.0375V50.0612C29.6177 50.0735 29.6497 50.0814 29.6823 50.0854C29.6941 50.145 29.7537 50.1095 29.802 50.145C29.956 50.2407 29.8369 50.5142 29.9324 50.6807C29.8965 51.347 29.9555 51.8473 30.0156 52.4771C30.0988 52.6082 30.0398 52.8941 30.0752 53.0843C30.0752 53.1918 29.9566 53.1558 29.9088 53.1439C29.7071 52.8929 29.897 52.4759 29.7543 52.2385L29.7537 52.239ZM29.5401 47.8366C29.1838 48.0031 29.0405 48.4787 28.6011 48.4787C25.1673 48.5029 27.1629 45.1117 28.8028 45.2304C29.2192 45.2665 29.7183 45.4201 30.1224 45.3368L30.1937 45.4674C29.8723 46.0273 29.7295 47.6098 29.5401 47.836V47.8366ZM30.1932 40.0672C29.7537 40.698 29.3974 41.3165 29.0169 41.9822C29.0169 41.9591 28.9214 41.9822 28.9096 41.9822C28.9214 41.756 28.8382 41.4347 28.9928 41.2332C29.4918 37.2821 35.2427 37.3777 38.1426 37.2472C38.9626 37.2112 39.9017 36.9619 40.6856 37.08C41.7787 37.223 42.6582 36.6754 43.6681 36.461C43.6209 36.7587 43.3349 36.9484 43.1685 37.1746L43.0376 37.2821C42.8594 37.3896 42.3604 37.7345 42.2772 37.8527C38.6529 41.613 32.8306 36.246 30.1926 40.0666L30.1932 40.0672ZM40.3411 40.1386C39.6398 41.2692 38.5821 41.5905 37.5609 42.2923C36.4437 41.9828 35.2556 46.4331 33.7697 46.338L33.6393 46.2063C33.3775 43.9333 34.6498 40.5781 37.2159 40.1735C38.2618 40.0069 39.1767 40.3755 40.2816 39.9715L40.3406 40.1381L40.3411 40.1386ZM30.6686 37.5922C28.4111 39.1273 24.1096 41.2214 21.7565 38.6743C23.5386 38.4481 24.2164 38.5196 25.7967 37.4847C27.8997 36.0918 31.1795 32.9865 33.9962 34.3552L34.0794 34.4148C34.9943 34.4981 36.8006 35.6878 37.6919 36.1763C36.1829 36.9495 33.1049 35.927 30.6692 37.5922H30.6686ZM29.5278 44.3267C29.2305 44.1246 29.575 43.1601 29.6823 42.8747C30.7996 39.9 31.7027 39.7216 34.6256 39.6141V39.6502C34.9347 39.6383 35.232 39.7334 35.517 39.7925C35.4214 39.9473 35.1961 40.0424 35.0292 40.1262C34.6015 40.3525 34.4351 40.8049 34.0429 41.0548C32.6643 41.9231 31.9286 43.0301 30.8232 44.1488C30.3831 43.9817 29.9319 44.6007 29.5272 44.3267H29.5278ZM35.1241 50.4658C35.291 50.4309 35.504 50.2637 35.6108 50.4185V50.8468C35.5636 50.8349 35.4922 50.8349 35.4681 50.7753C35.3321 50.6982 35.2146 50.593 35.1241 50.4658ZM41.2915 50.598C41.3156 50.8237 41.3038 51.0139 41.2083 51.1805C41.1487 51.2638 41.1251 51.311 41.1128 51.3347C40.9464 51.526 40.78 51.5969 40.5783 51.6442C40.3647 51.7038 40.1388 51.7505 39.9601 51.7989C39.0806 52.1315 37.8447 51.9064 36.9894 51.62C36.8708 51.5609 36.7517 51.5136 36.6331 51.4534C36.5651 51.4236 36.5044 51.3791 36.4555 51.3229C36.4999 51.2171 36.5083 51.1 36.4797 50.9891C36.4325 50.8226 36.4083 50.656 36.36 50.4888C36.36 50.4174 36.3723 50.3583 36.3959 50.2868C36.4201 50.2153 36.4555 50.1444 36.4791 50.0848C37.2395 49.6571 38.0712 49.2761 38.998 49.2288C39.4256 49.2086 39.8533 49.2485 40.2698 49.3476C40.6379 49.4309 41.006 49.5496 41.3628 49.6571C41.2875 49.7077 41.2325 49.7837 41.2083 49.8709C41.2207 50.1214 41.2679 50.3712 41.2915 50.598ZM41.9451 50.2519C41.9451 50.1568 41.9091 50.0139 41.8501 49.8957C42.271 50.1382 42.6622 50.4298 43.0151 50.764C42.9915 50.7865 42.9628 50.8029 42.9319 50.8113C42.8971 50.8355 42.8611 50.8473 42.8133 50.871C42.7774 50.8828 42.7302 50.907 42.6824 50.9306C42.5796 50.9768 42.4717 51.0128 42.3615 51.037L42.0766 51.1084C42.0406 50.9779 42.0524 50.8473 42.0524 50.728C42.0518 50.5716 42.0406 50.4056 41.9451 50.2508V50.2519ZM53.5418 34.9742C56.6311 36.4616 59.9109 35.4976 62.2752 38.3778C63.1194 39.4009 63.7376 40.7931 63.642 42.173L63.678 42.375L63.6898 42.577L63.583 42.7082C63.0721 42.3514 62.7512 41.7796 62.2876 41.3519C59.1753 38.4841 55.8247 37.8651 51.7019 37.3417C50.8218 37.2354 45.5104 37.0682 45.4036 36.2595C45.3912 36.1999 46.7231 33.6894 46.8766 33.273C46.9721 33.0468 47.1025 32.8447 47.1385 32.6067C47.2216 32.3202 47.3644 32.0715 47.388 31.7732L47.5661 31.3456C48.7312 31.9162 50.0018 34.5105 52.8186 34.1773C52.8534 34.5932 53.3406 34.6641 53.5424 34.9736L53.5418 34.9742ZM53.2687 32.9286C57.2971 33.2021 57.8917 31.5718 62.2646 33.4992C63.0491 33.8448 63.9269 34.5814 64.1298 35.4503C64.3316 36.2714 64.4985 38.3181 63.8449 38.9602C63.5476 38.3412 62.8468 37.6631 62.4067 37.1161C60.5291 34.6653 53.6733 35.748 53.2687 32.9286ZM61.4446 29.3579C61.7295 29.6556 62.0628 29.9297 62.2764 30.2983C62.5028 30.6792 63.3582 32.6067 63.2278 32.9753C61.2193 32.1542 59.5788 31.2623 57.31 31.7142C54.8271 32.2015 51.1202 32.6067 49.9316 29.6916C49.6466 28.9893 49.1116 26.4794 49.0757 26.3955C49.0998 25.9431 49.0875 25.4794 49.1712 25.0269C49.4561 25.3606 49.6343 25.7883 50.0378 26.0027C50.5245 26.5143 51.1775 26.9195 51.8446 27.0973C54.7675 27.9302 58.4391 25.8362 60.8034 28.5256C61.0293 28.7867 61.2074 29.0962 61.4452 29.3573L61.4446 29.3579ZM49.5505 23.8969C49.5623 23.7179 49.337 23.5874 49.4084 23.4208C49.9417 22.243 50.62 21.3983 50.9527 20.0887C51.5709 17.6019 51.1196 17.3999 50.9527 15.1393C52.1756 14.5793 54.6124 17.0785 54.7423 18.2564C54.636 18.97 54.5416 19.6841 54.5169 20.3977C54.4573 22.5514 51.7727 26.3111 49.55 23.8958L49.5505 23.8969ZM64.5693 15.7465C65.2223 16.2468 65.9361 16.5676 66.5891 17.0437L66.4711 17.1388C64.7357 17.9002 62.4894 18.9356 60.5533 18.1742C58.9016 18.4956 57.8557 18.8282 56.6553 20.0893C56.2152 20.423 55.8837 20.8749 55.3723 21.0893C55.6684 19.221 55.5616 17.1742 56.2147 15.3779C58.2131 9.99963 61.6582 13.5692 64.5693 15.7465ZM51.4748 9.83305C51.5928 9.63102 51.6524 9.40479 51.7839 9.21402C51.975 9.28549 52.093 9.52353 52.224 9.67829C53.6374 11.1657 56.0023 10.5112 57.0004 12.272C56.9886 12.2844 56.9177 12.4032 56.9537 12.415C56.1579 13.0222 55.5274 14.0216 55.3605 15.0093L54.9451 16.0808C54.7557 16.128 54.6602 15.962 54.5422 15.8427C53.8285 15.1168 52.2245 14.2361 51.1904 14.1415C50.6903 14.0942 50.1687 14.2366 49.6686 14.0942C46.4607 13.1528 50.9038 10.7374 51.4748 9.83305ZM48.0882 11.3322L48.1242 11.4155C47.8741 12.1178 47.6133 12.1651 47.6133 13.0576C47.6133 13.9502 49.0268 15.4015 49.9063 15.1517C51.0466 16.6981 49.8124 20.6611 49.015 22.1957C48.4451 22.862 47.1143 22.5412 46.627 21.9346C46.5439 21.7325 46.3652 21.5778 46.2589 21.3746C45.879 20.4708 45.2603 19.9711 44.3223 19.7089C43.6693 19.4117 43.0151 19.7922 42.5633 18.9351C42.2182 18.3279 41.9923 17.6025 41.5416 17.0313C40.6868 15.9367 38.2027 15.8889 38.0128 15.3182C41.5292 13.1038 43.6558 10.6294 48.0882 11.3317V11.3322ZM37.584 16.6869C37.643 16.5445 37.7745 16.6154 37.8807 16.6632C38.4747 16.9013 39.0098 16.9727 39.6398 17.1275C41.1729 17.4843 41.4342 19.3048 42.6223 20.4585C42.9786 20.804 43.5608 20.6723 44.0008 20.7196L43.9059 20.9576C42.9314 21.6476 41.1723 22.1242 40.5193 20.6239C40.068 19.6121 38.0718 20.0645 37.6677 18.0538C37.5958 17.7094 37.4418 17.0307 37.584 16.6857V16.6869ZM36.6455 16.0802L36.6573 16.5676C36.6573 16.6739 36.5499 16.7105 36.5033 16.7696C36.4077 16.7223 36.2532 16.6385 36.1228 16.5788C35.98 16.5315 35.862 16.4477 35.7665 16.3999C36.0284 16.2693 36.3487 16.1978 36.6455 16.0797V16.0802ZM28.9461 18.804C29.3384 18.6143 29.3142 17.9953 29.0765 17.71C29.1125 17.2457 29.0883 16.8765 29.1715 16.4128L29.1838 16.3177C29.5047 15.2704 30.051 14.9378 30.8355 14.307C31.1087 14.5681 31.1806 14.9615 31.4768 15.2113C32.4873 16.056 33.6039 16.3059 34.6138 16.9958C34.8757 17.2102 36.3009 17.8045 36.646 17.8765C36.7646 18.423 36.8247 19.042 37.1805 19.4939C38.0836 20.5648 38.4523 20.6245 39.5931 21.1478C40.3771 22.6116 42.2665 23.2661 43.6799 22.2902C43.8705 22.1585 44.773 21.4219 44.845 21.3977C45.1305 21.7072 45.7599 21.7787 45.7245 22.3021C46.3534 23.4917 47.3279 23.8373 48.6109 23.6937C48.6429 23.8418 48.6266 23.9959 48.5642 24.1338C48.5524 24.3482 48.4929 24.539 48.4457 24.741C48.041 26.633 48.7778 30.0838 50.1328 31.5234C50.9044 32.3444 51.5462 32.4986 52.5926 32.8194C52.4864 33.0214 52.7106 33.2955 52.4971 33.4024C49.8951 33.0338 48.5642 30.8565 48.2782 30.785C47.9927 30.4873 47.7196 30.1542 47.8027 29.7259C48.195 26.1209 43.1208 25.6212 41.3381 28.0478C41.088 28.3933 39.5791 27.8098 39.1396 27.655C38.7591 26.8694 36.8225 26.0725 36.0391 25.6443C36.1222 22.6813 31.8915 18.3864 28.8972 20.4089C28.7786 20.6824 28.3274 21.0629 28.1486 21.409C28.1486 21.409 26.7465 20.6594 26.3424 20.5879L26.2351 20.4089C27.1736 19.5175 27.8154 19.3037 28.945 18.8034L28.9461 18.804ZM37.4896 28.704C38.3927 28.5374 39.3902 28.6809 40.2344 29.0501C40.6384 29.2166 40.8756 30.0135 41.3752 29.4901C41.5539 29.2994 41.6961 29.0731 41.8507 28.8593C42.611 27.8362 45.0237 26.9909 46.0572 27.9431C46.1999 28.0742 46.6164 28.4665 46.545 28.6927C46.5326 28.7287 46.4854 28.7287 46.4495 28.7287L46.4135 28.7878C46.0572 28.6815 45.6767 28.812 45.3204 28.9077C41.2684 30.0141 43.1579 34.8211 36.3015 32.1081C35.9334 31.9651 34.3767 31.251 34.1508 31.0372C35.2433 30.1795 36.0514 28.9775 37.4896 28.704ZM34.0906 29.8346C33.0099 30.4767 29.8009 28.668 28.4341 28.4305C28.8854 27.6933 30.5135 26.7765 31.3812 26.8716C32.5575 27.0033 34.7437 26.1704 35.6232 26.5745C36.3234 26.8829 37.0018 27.2166 37.643 27.6454C34.8988 28.431 35.6355 28.9184 34.0906 29.8351V29.8346ZM28.1492 23.7061L27.9115 23.7658C26.9724 23.5638 26.0929 23.1467 25.1431 23.0398C22.7895 22.7776 20.0452 23.0758 17.8467 23.956C16.8008 24.3719 15.8145 25.0382 14.7687 25.467C15.6611 23.3735 26.8296 18.5068 28.1492 23.7067V23.7061ZM24.8823 23.9205C25.5826 23.9796 27.9357 24.8249 28.1492 24.8125L28.1852 25.0264C25.6185 29.4524 20.3785 28.3573 16.0652 28.1204C15.0789 28.0731 14.1162 28.1086 13.1305 28.1086C16.5637 25.0264 20.1767 23.5272 24.8823 23.9205ZM3.44559 39.3873C3.44559 37.5786 4.75279 35.7109 5.7509 34.3068C7.09406 32.4384 9.89786 30.2015 12.0368 29.3568C16.6469 27.5363 25.0959 32.5453 28.791 25.5852C28.7668 24.9431 29.2187 24.2762 29.0765 23.5384C28.981 22.9554 28.637 22.5266 28.5415 22.0162C29.1945 21.9565 29.2192 21.0522 29.9324 20.9571C32.6418 20.5643 34.4357 23.2058 35.1483 25.4788C34.1148 25.4788 33.1285 25.9313 32.1186 25.9549C30.2882 25.9909 28.6134 26.3359 27.4484 27.9898C27.2939 28.0613 26.4739 29.0489 26.4379 29.2155C26.153 29.4175 26.5093 29.9302 26.8656 29.8576C27.5906 29.7271 28.0537 29.3703 28.8382 29.5599C29.9914 29.8222 30.989 30.5357 32.1416 30.8216C32.1416 31.1069 32.272 31.5352 32.5693 31.6663C33.2229 31.9398 33.9956 31.9758 34.6487 32.3686C36.4549 33.4638 39.9843 34.8797 41.7905 33.237C42.4436 32.6421 46.0561 28.2993 46.9715 30.3337L46.8653 30.7265C46.1634 33.6185 43.7873 36.4385 40.4721 35.9979C36.3015 35.4627 34.579 31.5003 29.4328 33.7964C26.4031 35.165 25.0363 38.2348 21.2457 37.5201C20.6157 37.4138 19.8671 37.1746 19.4034 36.7114C20.3307 34.1768 21.2457 32.1542 23.8117 30.9043C24.394 30.6308 25.3561 30.1306 26.0215 30.2257C26.176 30.1306 26.176 29.8801 26.1401 29.7254L25.8433 29.4643C24.607 29.5594 24.1433 30.0118 23.1222 30.2611C22.6945 30.7136 21.8627 30.7845 21.3159 31.1537C21.1732 31.2611 20.211 31.7125 20.0565 31.7125C18.3098 31.7125 17.3471 30.6303 14.9828 31.0934C14.2814 31.2358 13.3311 31.3788 12.7129 31.7474C11.1326 32.699 9.57583 33.4846 8.04271 34.5437C6.5568 35.5561 3.69287 39.2444 3.44391 39.3873H3.44559ZM8.25796 42.8027C7.85388 42.8387 7.31886 42.8742 7.11711 42.469C6.78497 42.0284 6.749 41.3975 6.70179 40.8511C7.01089 40.6839 7.11711 40.339 7.40316 40.1364C7.58188 39.9816 7.69989 39.7672 7.83028 39.5657C8.05676 39.4228 8.0326 39.1729 8.25796 39.066C7.94886 39.8038 7.92469 40.5894 7.92469 41.3502C7.94942 41.8742 8.15061 42.2912 8.25796 42.8027ZM9.11387 41.613C8.59122 38.2697 11.1101 38.8409 11.5973 38.3766C12.0374 38.8043 12.1914 39.3761 12.7505 39.7683C11.2174 38.9124 9.63765 41.1966 10.7543 41.5056C11.3484 41.6721 11.5389 40.4706 12.2273 40.8516C13.1423 41.3626 11.7047 43.0762 10.5756 42.9693C9.94563 42.9102 9.22122 42.2557 9.11387 41.613ZM11.1815 37.1746C10.4924 37.3417 9.76748 37.5083 9.25662 38.0198C9.16164 37.9726 9.16164 38.1262 9.14928 38.0795C9.42241 37.6276 9.83885 37.2348 10.1952 36.8538C10.5161 36.663 10.7774 36.3063 11.0865 36.0682L11.0983 36.08C11.0859 36.4486 11.0859 36.8054 11.1815 37.174V37.1746ZM10.266 44.0999C12.7376 44.3852 14.1274 41.9698 12.868 39.8995C13.8071 40.4228 15.5892 41.066 15.8387 42.1724C16.884 46.8371 10.3255 47.289 10.2654 44.0999H10.266ZM16.4687 50.3228C14.853 50.7871 12.3094 49.0375 12.6072 47.2648C16.3855 47.8957 18.1918 42.0891 15.637 40.2213C14.722 39.555 13.4626 39.3288 12.75 38.3885C10.1597 34.9849 14.8294 34.3192 14.9125 34.0215C14.9597 33.8549 14.8766 33.5099 14.7462 33.4024C13.82 32.6179 9.70734 35.878 8.92392 36.5556C8.82894 36.8533 8.48444 36.9726 8.3771 37.2579C6.93895 38.5072 5.83407 41.2202 3.54113 41.3159C5.25241 37.627 12.6426 31.2617 16.9205 31.9989C18.0254 32.1897 19.3326 32.7485 20.4257 32.7243V32.843C19.998 33.3428 18.679 35.9844 18.7026 36.6146C17.8478 37.3051 19.8199 38.1256 20.224 38.2804C20.3785 38.6738 20.759 38.8752 21.0091 39.1847C18.6436 39.685 18.062 36.0913 16.7671 37.4599C16.2445 38.0193 16.458 38.4233 16.2917 39.0896C16.2085 39.6727 16.7784 40.5055 17.0521 40.9698C17.7647 41.6007 18.0384 42.5281 18.561 43.2901C18.6082 44.8967 19.5473 44.8365 18.5852 47.5141C18.502 47.7522 18.3233 47.9784 18.3233 48.2395C17.8355 48.9064 17.3134 50.0848 16.4693 50.3228H16.4687ZM20.3661 54.714C19.4872 53.8581 17.5264 52.0488 17.9187 50.5733C18.0372 50.1686 18.905 49.3121 19.1539 48.5743C19.7479 46.8489 20.1874 45.5636 19.6176 43.7318C19.0595 41.9715 17.7883 40.7931 17.2173 39.1397C17.3477 38.8426 17.2533 38.4858 17.4674 38.2236L17.5736 38.093C18.0968 38.6287 18.2148 39.2709 18.928 39.7109C19.7125 40.1983 21.1501 40.568 21.9341 39.9017C23.61 40.8899 26.6757 41.1156 28.3746 40.0688H28.4459C28.1368 41.7819 27.8991 42.3891 28.4218 44.1505C25.9029 44.8405 24.9043 48.7556 27.1623 49.4573C27.3641 49.8259 27.8519 49.7184 28.1841 49.8377C28.2082 50.0516 27.8519 50.5164 27.7446 50.6948C27.0792 51.8254 27.1382 54.2407 25.2246 54.288C23.7634 54.324 24.0849 50.5282 22.1241 51.2424C19.9143 52.0392 21.7087 54.7281 23.597 54.8829C23.7988 54.9071 23.9775 54.8356 24.1793 54.8592C24.2265 55.9065 23.0868 56.7985 22.1235 56.2036C20.936 56.2492 20.9708 55.3094 20.3656 54.7146L20.3661 54.714ZM23.2542 53.7855C23.2059 53.8575 23.0873 53.8327 23.0278 53.8097C22.5641 53.5486 22.3033 53.0719 22.1016 52.5727C22.1612 52.3105 22.3393 52.2036 22.5534 52.0488C22.9699 52.1321 22.8743 52.6678 23.0289 52.9762C23.0761 53.2497 23.1475 53.5238 23.2548 53.7855H23.2542ZM22.6119 59.3298C22.568 59.4367 22.5163 59.5402 22.4573 59.6393C22.4101 59.7344 22.386 59.8182 22.3028 59.8413C22.291 59.8064 22.1241 59.6871 22.1241 59.5442C21.8981 58.9493 21.9701 58.1165 22.291 57.4862C22.3028 57.364 22.3573 57.2504 22.445 57.1648C22.9682 57.0939 23.61 57.2481 24.1208 57.0225C24.5131 56.7962 24.7621 56.4631 24.9649 56.0343C24.9767 55.9155 25.0599 55.8677 25.0953 55.7607C25.1785 55.7489 25.1903 55.642 25.2257 55.5587C25.2381 55.4045 25.1667 55.1901 25.2976 55.1186C25.9147 55.0354 26.5807 54.9763 27.0089 54.5238C27.6979 53.9166 28.1138 53.0246 28.3875 52.1799C28.4825 52.0966 28.4948 51.9419 28.542 51.8108C28.578 51.7393 28.6376 51.8704 28.6376 51.7747C28.6606 51.9886 28.7916 52.0961 28.8152 52.3105C28.8624 52.9768 28.7792 53.4647 28.5179 53.9762C28.1846 54.5238 27.5085 54.9403 27.1281 55.4991C26.8549 55.8086 26.4509 55.9633 26.1418 56.1778C25.4876 56.7051 24.8183 57.2127 24.1338 57.7006C23.6223 58.2245 23.0519 58.7602 22.6119 59.3303V59.3298ZM24.4299 60.8177C24.2872 61.0782 24.2759 61.412 24.1208 61.6506C24.0978 61.7569 24.0736 61.9004 24.0146 61.9601C23.8601 62.0068 23.6813 61.9134 23.5628 61.8419C23.4914 61.6995 23.42 61.6866 23.3964 61.4964C23.207 61.1559 23.1317 60.7637 23.1823 60.3776C23.4914 59.4733 24.2523 58.9741 24.8823 58.3196C25.5472 57.8199 26.2491 57.2965 26.878 56.7732C27.1629 56.6899 27.2933 56.4518 27.5552 56.3207C28.1144 55.8091 28.5173 55.3809 29.0405 54.8091C29.2541 54.5711 29.4204 54.2497 29.5514 53.9881C29.9437 53.9644 30.0504 54.3094 30.2168 54.548C30.4427 55.1186 30.5135 55.7968 30.1926 56.3325C30.1454 56.404 30.0381 56.4276 30.0499 56.5109C29.5154 57.1648 28.6365 57.3562 27.8873 57.772C27.2461 58.0343 26.5565 58.3196 26.117 58.8193C25.4528 59.426 24.6446 59.8903 24.4305 60.8188L24.4299 60.8177ZM25.1313 64.3276C25.0841 64.1734 25.0599 64.0074 24.9649 63.887C24.929 63.4238 24.7744 62.9832 24.8818 62.5425C24.9166 62.1734 25.1189 61.8886 25.1425 61.5318C25.1785 61.4958 25.2252 61.4958 25.2252 61.448C25.3207 61.318 25.3325 61.1159 25.4269 60.9719C26.0923 60.0563 27.0314 59.1395 28.1127 58.6882C28.7539 58.4502 29.2653 58.1052 29.8948 57.8553C29.9661 57.6882 30.1921 57.7124 30.2629 57.5818C30.4646 57.4389 30.536 57.225 30.7383 57.1176C30.8215 57.189 30.8569 57.3438 30.9401 57.4743C31.0356 58.0816 31.2492 58.6522 31.4268 59.2358C31.5099 59.6286 31.7359 60.0208 31.5695 60.4496C31.5335 60.8064 31.4863 61.1885 31.2486 61.4378C31.0469 61.7834 30.785 61.9612 30.4169 62.1278C30.4287 62.2341 30.2623 62.2234 30.2151 62.3056C28.8658 63.2133 27.7597 64.439 26.9949 65.8757V65.9821C26.9589 66.0418 26.8999 66.1374 26.8645 66.2089C26.7431 66.5071 26.6554 66.8184 26.6026 67.1363C26.5554 67.1481 26.5554 67.2078 26.5071 67.2078C26.5312 67.2545 26.4357 67.2196 26.4953 67.2905C26.3165 67.1363 26.3283 66.8988 26.2457 66.6366C26.1142 66.2449 26.2929 65.5657 25.7461 65.376C25.4528 65.0862 25.2403 64.7249 25.1296 64.3276H25.1313ZM43.7401 78.2851C43.1933 78.3318 42.6942 78.6306 42.207 78.8326C41.8029 79.0932 41.2808 79.2131 40.8643 79.4866C40.2344 79.7004 39.6881 80.1163 39.1778 80.4618C38.7142 80.6532 38.3219 80.9627 37.8228 81.1051C37.847 81.1518 37.7633 81.1518 37.7279 81.1518C37.2766 81.3538 36.9203 81.6166 36.4566 81.7708C36.3026 81.8935 36.1245 81.9824 35.934 82.0331C35.7671 82.0573 35.6131 82.1394 35.4344 82.1754C35.3034 82.2469 35.1011 82.1636 34.9825 82.2593C34.5071 82.2953 34.0794 82.4849 33.6281 82.5913C33.5095 82.6397 33.3426 82.7708 33.4145 82.925C33.4263 82.961 33.4741 82.9847 33.5095 82.961C33.7826 83.1878 34.1626 83.248 34.543 83.1878C35.1972 83.0815 35.9694 82.9858 36.5038 82.687C37.3597 82.2233 38.2387 81.8434 39.1177 81.4247C39.2722 81.4022 39.4268 81.2109 39.5931 81.2109C39.6993 81.1045 39.8662 81.0567 39.9972 80.9132C40.8649 80.2834 41.9934 79.9137 42.9443 79.3791C43.1702 79.3673 43.3484 79.1771 43.5855 79.212C43.6215 79.2834 43.4782 79.3301 43.5383 79.4387C43.4321 79.6396 43.3248 79.8783 43.4197 80.0448V80.3667C42.9089 80.5091 42.4211 80.7702 41.9102 80.8541C41.4106 81.0561 40.9121 81.3172 40.4372 81.5688C40.39 81.687 40.1641 81.687 40.1051 81.7944C39.3324 82.1518 38.7619 82.6397 38.0257 83.0089C37.9785 83.1512 37.8122 83.1029 37.7526 83.1873C37.4795 83.3296 37.1468 83.5677 36.8731 83.6279C36.4454 83.8885 36.0655 83.9841 35.5788 84.1513C34.4256 84.4715 33.2021 84.4833 31.9781 84.2469C31.4914 84.1985 30.9918 83.8778 30.4927 83.6864C29.8987 83.1991 29.0788 82.925 28.746 82.1636C28.5443 81.9852 28.401 81.6999 28.1638 81.5693C28.1515 81.4382 28.0323 81.4022 28.0211 81.3071C27.594 80.8777 27.5816 80.1523 27.4029 79.5822C27.427 78.8675 27.1179 78.1073 27.3315 77.4168C27.3675 77.0116 27.3911 76.5242 27.5102 76.1196C27.6406 75.5484 27.712 74.9536 27.807 74.3948C27.8901 74.3706 27.8188 74.2394 27.8665 74.1792C27.8665 73.9187 27.9969 73.7031 27.9739 73.442C28.057 73.3221 28.057 73.191 28.0688 73.0368C28.1048 73.025 28.152 73.0126 28.152 72.9772C28.2948 73.097 28.4971 73.3576 28.746 73.2991C28.9 73.2394 29.0192 73.0368 29.0192 72.8584C29.0068 72.8224 28.9478 72.7628 29.0192 72.7521C28.9596 72.6682 29.0068 72.4898 28.9118 72.4651C28.7933 71.5613 27.7479 71.0143 26.951 70.5489C26.0839 70.1454 25.3943 69.3958 25.4297 68.3125C25.4297 68.147 25.4421 67.9321 25.4893 67.7424C25.5011 67.7891 25.5843 67.7295 25.5843 67.8139C25.6674 68.1476 25.9642 68.6107 26.2969 68.9315C26.5576 69.0986 26.6891 69.3609 26.9982 69.4431C27.5333 69.895 28.2818 70.0385 28.6381 70.7053C28.9231 71.0745 29.1136 71.4549 29.2794 71.8826C29.4109 72.4302 29.4216 72.9175 29.4811 73.4426C29.5171 73.9659 29.5997 74.5602 29.4811 75.1314C29.4811 75.2625 29.4929 75.3813 29.4688 75.5231C29.2912 75.5962 29.4929 75.7611 29.4811 75.8923C29.4452 76.1899 29.4688 76.5591 29.4098 76.8557C29.5283 77.8681 29.1479 78.9626 29.5401 79.9025C29.516 80.1523 29.7419 80.2829 29.6823 80.5682C29.8369 80.8417 29.8959 81.1636 30.1932 81.3538C30.2528 81.4602 30.2528 81.6273 30.4191 81.5919C30.5613 81.6875 30.5967 81.8541 30.7872 81.8541C31.2037 81.9008 31.6195 82.0679 32.0472 82.0561C33.5803 81.7826 34.9111 80.9013 36.3246 80.3183C37.3463 79.6886 38.3685 79.0454 39.4498 78.5698C40.2939 78.0105 41.2679 77.7488 42.1946 77.3211C42.6813 77.1298 43.1927 77.083 43.6917 76.9159C44.2144 76.9519 44.8444 76.7606 45.3435 77.047C45.6525 77.1067 45.9133 77.2727 46.2348 77.3791C46.2106 77.7364 46.3061 78.1534 46.341 78.4624C45.4148 78.6301 44.6662 78.0718 43.7401 78.2857V78.2851ZM45.475 81.7832C45.249 81.6633 45.0237 81.4737 44.8933 81.2474C44.5595 80.8935 44.3583 80.4354 44.3223 79.9503C44.9877 79.4269 45.938 79.4984 46.7822 79.5941C46.9727 79.8439 46.9957 80.1771 47.2458 80.3797C47.2818 80.4753 47.388 80.5693 47.4476 80.6532C47.7083 81.0336 48.0416 81.3318 48.3861 81.6639C47.5414 82.1749 46.3174 82.1518 45.4744 81.7826L45.475 81.7832ZM52.818 80.8771C52.7 81.0083 52.6398 81.1642 52.5926 81.3302C52.3307 81.6267 51.9744 81.8293 51.5574 81.8063C50.2744 81.7691 49.1453 81.199 48.3024 80.2705C47.8393 79.8411 47.5538 79.3667 47.3638 78.7466C47.2452 78.3903 46.9834 77.9384 47.2334 77.5935C47.7201 77.4736 48.2197 77.4871 48.6598 77.7116C48.7778 77.6756 48.766 77.8073 48.8851 77.7831C49.718 78.1523 50.1935 79.2232 51.0359 79.6273C51.1073 79.7229 51.191 79.7826 51.2978 79.8411C51.8086 80.1034 52.3431 80.3769 52.8899 80.5795C52.9383 80.6515 52.8079 80.7697 52.8186 80.8766L52.818 80.8771ZM69.3946 70.4419C68.9793 70.9777 68.836 71.5607 68.5864 72.1679C68.5398 72.6423 68.2667 73.083 68.4566 73.5951C68.5628 74.7617 68.3729 75.7966 68.3611 77.011C68.2655 77.8546 68.0278 78.6289 67.8502 79.4145C67.5883 80.0088 67.4574 80.6515 67.0185 81.1636C66.8274 81.8423 66.3165 82.3167 65.7832 82.7815C65.4618 83.0438 65.0695 83.1974 64.7615 83.4473C63.8932 83.8524 62.8125 84.1012 61.7666 83.9346C60.8753 83.9824 60.0329 83.674 59.0932 83.5666C58.393 83.2931 57.6202 82.9948 56.9548 82.674C56.5148 82.3645 55.9809 82.055 55.6476 81.6746C55.0053 81.1737 54.4944 80.4241 53.6986 80.1146C53.0804 79.6385 52.5696 79.235 51.857 78.997C51.7508 78.9373 51.6901 78.8298 51.6305 78.8056C51.6547 78.7235 51.8216 78.7938 51.952 78.7938C52.1537 78.674 52.3791 78.9002 52.6297 78.8523C52.6882 78.9604 52.7477 78.8895 52.8191 78.9362C53.3418 79.0904 53.7812 79.2817 54.2573 79.5434C54.3635 79.5901 54.459 79.7933 54.6141 79.804C54.8277 80.1135 55.1727 80.3155 55.5279 80.5069C55.8966 80.8271 56.2658 81.0544 56.6693 81.3037C57.0492 81.6239 57.5607 81.8867 57.9524 82.1608C58.2497 82.2205 58.4391 82.4585 58.7605 82.5063C59.9947 83.0072 61.3502 83.4231 62.7878 83.3274C63.1806 83.3634 63.6077 83.3741 63.9764 83.185C64.2726 82.8513 64.7963 82.7314 64.7963 82.2441C64.4749 81.9835 64.1782 82.4112 63.8213 82.3037C62.8119 82.4816 61.8138 82.3752 60.8742 82.1495C60.483 82.1366 60.1256 81.9475 59.7339 81.8518C59.4006 81.6847 58.9966 81.5896 58.629 81.3757C57.9968 81.0488 57.3926 80.6706 56.8222 80.2452C56.3951 79.9357 55.9427 79.6858 55.5622 79.3526C55.2065 79.0673 54.8378 78.7336 54.4332 78.58C53.6728 78.1624 52.7933 77.8529 51.8907 77.8889C51.4394 77.8889 51.0112 77.8529 50.6436 78.056C50.4767 77.9733 50.2986 77.8422 50.2148 77.6998C50.2148 77.7116 50.1789 77.6402 50.2148 77.6041C50.6077 77.45 50.9988 77.2704 51.4276 77.2237C51.7834 77.0099 52.2594 77.0217 52.6393 76.9142C53.6261 76.7943 54.4809 77.1162 55.3841 77.3419C56.3951 77.7353 57.4039 78.199 58.3548 78.652C59.8868 79.3177 61.1822 80.4123 62.9058 80.6976C62.8929 80.746 62.9283 80.7691 62.9524 80.7815C63.0834 80.7815 63.1902 80.7815 63.2969 80.7933C63.488 80.8051 63.6302 80.9115 63.7971 80.7933C63.9511 80.84 64.1647 80.7336 64.3198 80.6869C64.6395 80.6155 65.056 80.6155 65.2336 80.2711C65.4129 79.7837 65.7574 79.3785 65.9822 78.9143C66.1131 78.7246 66.0181 78.3909 66.244 78.2131C66.5891 77.0583 66.6127 75.7499 66.7195 74.5011C66.6369 74.2856 66.6835 74.0121 66.7195 73.7515C66.7791 73.478 66.7437 73.2158 66.7437 72.9305C66.8375 72.7166 66.8735 72.4898 66.9331 72.2765C67.0393 71.4915 67.4557 70.8257 67.789 70.1336C68.0385 69.5635 68.1689 68.9445 68.36 68.3614C68.3718 68.2303 68.3718 68.1347 68.5252 68.0502C68.7163 67.7779 68.9298 67.4087 69.2389 67.2888C69.6677 66.8853 70.0364 66.5758 70.4388 66.1954C70.4747 66.3017 70.5225 66.4559 70.5225 66.5634C70.7867 68.0497 70.1314 69.2996 69.3952 70.4414L69.3946 70.4419ZM70.4174 64.5291C70.1797 64.8386 69.9774 65.2438 69.7397 65.5415C69.4778 65.7424 69.2046 65.9573 68.9551 66.183C68.8955 66.0873 68.9793 65.9934 68.9309 65.8375C68.8843 65.457 68.7416 65.0879 68.6578 64.6956C68.3729 63.6962 67.5777 62.9353 66.9353 62.1722C66.0687 61.2566 65.1999 60.2926 64.6901 59.1266C64.4395 58.6865 64.3333 58.175 64.2613 57.6156C64.4991 56.5565 64.748 55.4974 64.9037 54.391C64.9621 53.9267 65.1054 53.4512 65.0706 52.9869C65.0577 52.9627 65.1532 52.9273 65.0706 52.9155C65.1172 52.9155 65.1532 52.8682 65.1172 52.8198L65.1532 52.8671V52.9734C65.1774 53.3302 65.2842 53.6043 65.3308 53.9132C65.4617 54.2458 65.3668 54.4962 65.5803 54.8052C65.5933 55.0787 65.7354 55.3055 65.8068 55.5666C66.0204 56.1738 66.5312 56.7214 66.9825 57.2087C67.2798 57.5301 67.5771 57.875 67.934 58.1131C68.5404 58.8143 69.3007 59.4935 69.9189 60.2667C70.3343 60.731 70.6327 61.2662 70.8451 61.8492C71.2374 62.7187 71.0705 63.8847 70.4174 64.5279V64.5291ZM70.4174 51.8924C70.3697 52.0708 70.5472 52.4157 70.2505 52.4157C69.4064 52.4157 68.4791 51.6189 67.8025 51.1546C67.3394 51.4168 66.8403 52.8682 66.8763 53.4034C66.8763 53.8558 66.6509 54.355 66.6981 54.8553C66.6515 54.8789 66.6757 54.9504 66.6268 54.974C65.5803 53.5339 66.7819 50.024 65.7242 48.6672C66.4244 47.168 66.6757 47.6914 67.2562 47.0014C69.1097 47.0014 70.1207 47.8698 70.9873 49.3932C70.6782 49.7269 70.6074 50.2384 70.1915 50.4641C70.0954 50.9047 70.2022 51.4996 70.4174 51.8924ZM71.5689 61.1143C71.5465 61.0901 71.4869 61.0901 71.4509 61.0771C71.0952 60.0304 69.2046 58.1986 68.3729 57.3415C68.3262 56.9138 67.4349 55.3905 67.744 55.0686C69.2046 56.7467 72.1399 58.4361 71.5689 61.1143ZM71.5465 57.6629C71.0115 56.4496 69.0507 55.6049 68.1352 53.7483C68.1593 53.4506 68.0171 53.2841 68.1352 52.9869C68.2414 52.7134 67.8733 52.7258 68.0042 52.4754C68.5988 52.5941 69.0507 53.1062 69.6559 53.2604C70.1201 53.391 70.5714 53.3077 71.0469 53.3792C71.6291 52.9987 71.2486 52.3324 71.4155 51.844C73.5539 52.2368 73.1268 55.1749 73.4584 56.6628C73.6253 57.4124 74.053 57.8052 74.2913 58.4355C73.4702 58.6263 71.9016 58.4828 71.5459 57.6617L71.5465 57.6629ZM77.3805 50.9407C77.131 52.2852 76.3352 53.3319 76.0851 54.5694C75.907 55.8305 74.8021 56.8064 75.4917 58.1626C74.2671 58.0197 74.2918 54.6167 74.1249 53.7483C74.0187 53.2008 73.84 52.701 73.5067 52.2491C73.2572 51.9036 72.4136 51.2733 71.9977 51.1304C71.6527 50.9998 71.3554 51.0471 71.1064 50.8209C71.2733 50.3926 71.6049 50.0471 71.8067 49.6312C72.5311 48.1196 71.248 47.6554 73.1976 46.4539C75.5372 45.7403 77.8667 48.5603 77.38 50.9407H77.3805ZM72.9239 45.5749C72.5671 45.8602 72.2349 45.8484 71.9618 46.2648C71.8067 46.491 71.6403 46.7763 71.4509 46.9547C71.4869 47.0735 71.415 47.181 71.3087 47.217L71.1778 47.4308L71.0356 47.6919C70.8445 47.6689 70.5956 47.4421 70.4646 47.3115C70.0847 46.6576 67.7086 45.9429 67.0067 46.11C66.5796 46.2175 65.7596 47.0504 65.3909 47.3239L65.26 47.2766L65.224 47.0628L65.2122 47.1703C65.0813 45.742 64.9149 42.2084 64.5232 40.9822C64.6171 40.8871 64.7008 40.7441 64.7008 40.6018C64.9385 40.6609 65.1054 40.8877 65.3656 40.8753C66.7453 41.7436 69.1456 41.3277 70.0482 39.9349C70.2258 39.9822 70.4753 40.0778 70.559 40.2686C71.1879 40.6732 71.4616 41.4341 71.8061 42.0773C71.7477 42.3626 71.9972 42.577 71.973 42.8511L72.2349 43.0773C72.7216 42.9226 72.7576 42.3159 73.0908 41.9822C73.3162 40.8882 73.2207 40.2934 72.8643 39.2337C73.5067 39.1864 74.7779 40.1381 74.7538 40.8044C74.7071 41.9817 75.8952 45.2546 77.1316 45.5163C77.2496 45.6711 77.4873 45.5996 77.5705 45.7898C77.8807 45.9328 78.2483 45.8855 78.5815 45.9919C78.8434 45.8731 79.1525 46.0161 79.4133 45.8613C77.6542 48.6317 75.2185 44.4797 72.9245 45.5743L72.9239 45.5749ZM84.1526 42.1122C83.5119 42.3142 83.1904 41.0649 82.407 40.9698C81.9917 40.9225 81.1341 41.3035 80.9925 41.7076C80.7671 42.3615 81.0167 43.5405 80.5654 44.0993C79.139 45.8365 76.8585 45.325 76.1099 43.2659C75.8233 42.4803 75.5501 42.3024 75.5389 41.3975C77.1434 41.6952 77.4407 42.0526 79.0457 41.124C80.3529 40.3626 82.538 37.8398 84.1425 38.828C84.4044 38.792 85.0462 40.1488 85.176 40.3986C84.9973 41.0537 85.3305 41.9811 84.1531 42.1122H84.1526ZM91.6153 43.1229C90.3081 42.9558 90.724 42.5163 89.2268 42.6586L88.9548 42.6947C87.0176 42.6232 83.9992 36.7339 83.191 35.1391C82.5262 33.8301 80.6485 33.2347 80.186 32.7232C80.4822 32.6044 82.1221 31.3546 82.0513 31.1525C80.1619 30.058 80.2096 29.2842 78.831 28.2014C81.5045 28.6775 84.4398 32.8419 85.7228 35.174C86.2466 36.1025 87.4582 37.3755 87.814 38.268C88.5626 38.8156 89.169 39.6957 89.8945 40.3266C90.6785 40.9096 91.4389 41.5405 92.1992 42.1353C92.6977 42.5405 92.0913 43.1831 91.6159 43.1235L91.6153 43.1229ZM92.7444 41.5405C92.5426 41.4932 91.1882 40.2793 90.9864 40.0531C90.8313 39.8741 90.5352 39.9343 90.4155 39.7076C90.2261 39.6479 90.0957 39.4813 89.917 39.3862C89.7501 39.1127 89.4286 38.9816 89.2864 38.6726C88.2411 38.0418 88.0034 36.757 87.1239 36.1025C87.0643 35.9602 86.019 34.2578 85.9122 34.1391C85.8526 33.7935 85.3895 33.7108 85.4367 33.318C85.0681 33.0203 85.1035 32.3428 84.5701 32.2116C82.9656 30.0343 81.4797 28.4164 78.8063 27.6426C78.0701 27.4282 77.5233 27.274 76.7989 26.9521C75.3366 26.476 74.1255 26.2858 72.6036 26.2616C70.2516 26.2143 67.5428 25.4287 65.6405 25.5717C64.3333 25.6673 60.9236 26.9999 60.46 26.9634C60.0801 27.1654 59.7952 26.7855 59.4619 26.6539C57.786 26.0348 51.0365 27.1896 50.5857 25.2734C50.919 25.44 51.3343 25.404 51.6906 25.3933C53.9729 25.346 56.1236 23.4889 58.4509 23.037C60.4724 22.656 61.5885 24.548 64.5822 22.6915C71.6291 29.1283 78.9013 22.1557 89.133 33.1267C91.2955 35.4227 92.6134 37.9456 92.8287 41.1583L92.7438 41.5393L92.7444 41.5405ZM59.6951 104.804L62.0757 108.918C62.4343 109.517 62.7878 110.091 63.0924 110.702L58.8089 111.653L58.8313 111.507L59.2466 108.271L59.6951 104.804V104.804ZM70.6169 116.733C69.7582 115.282 68.9326 113.85 68.0761 112.399L66.1856 109.223L63.6881 104.964L61.8492 101.891L61.2159 100.813L61.0934 100.642L58.5335 101.211L58.529 101.324C58.3441 102.781 58.1502 104.211 57.9653 105.668L57.3291 110.591L56.802 114.728C56.5957 116.473 56.3535 118.195 56.1197 119.947L57.7624 119.582C57.8861 118.734 58.003 117.859 58.0839 117.075L58.5391 113.634L58.5835 113.455L64.0006 112.253C65.0442 114.031 66.0007 115.801 67.0584 117.519L70.6164 116.733H70.6169ZM34.9213 102.176C36.0919 102.503 37.5137 102.602 38.1196 103.79C38.377 104.275 38.5079 104.815 38.5248 105.358C38.5366 105.796 38.4939 106.234 38.3966 106.661C38.2454 107.194 38.0336 107.626 37.8419 108.092C37.3699 108.92 36.5016 109.742 35.4793 109.875C34.7127 110.011 33.9569 109.724 33.1431 109.566L34.8667 102.164L34.9207 102.176H34.9213ZM37.6795 111.401C38.4326 111.205 39.1699 110.951 39.7904 110.469C41.3095 109.4 42.0058 107.349 41.8625 105.501C41.5978 102.945 39.184 101.737 36.8978 101.212L31.705 100.02L27.739 117.34L31.1823 118.132L32.848 110.859L34.3272 111.198L34.3205 111.225L35.3725 116.032L36.0784 119.257L39.5217 120.046C38.9305 117.188 38.2522 114.34 37.6542 111.509C37.6548 111.509 37.62 111.415 37.6795 111.401V111.401ZM21.9808 104.387L24.5142 98.7407L29.7503 101.097L30.4517 99.5348L22.019 95.7401L14.7434 111.949L23.1025 115.711L23.8039 114.147L18.6425 111.825L21.2788 105.951L25.3578 107.788L26.0586 106.224L21.9813 104.387L21.9808 104.387ZM6.34773 106.741C8.19276 105.313 10.2103 103.736 12.0936 102.302L15.3734 99.7306L20.7809 95.5251L20.9551 95.3771L19.5889 94.3917L15.9444 97.2815L12.1335 100.356L8.36867 103.363C8.34675 103.347 8.32146 103.43 8.30741 103.353L9.81524 99.6046C10.606 97.6546 11.3815 95.726 12.1942 93.7924L13.675 90.1261L10.742 88.0095C10.4278 88.8739 10.0648 89.803 9.7169 90.7108L8.53952 93.8127L8.26976 94.4694L6.39269 99.3479L4.84721 103.481C4.62522 104.051 4.4156 104.626 4.21834 105.206L6.34549 106.741L6.34773 106.741ZM71.352 96.4925C70.1589 97.0103 68.9933 97.7013 68.1374 98.6366C67.1831 99.622 66.6301 101.085 66.6667 102.493C66.6768 104.755 67.6344 106.996 68.7522 109.063C69.8307 110.993 71.0811 112.712 72.9661 113.671C74.7645 114.581 76.7871 114.353 78.581 113.433C79.8449 112.755 81.0852 111.964 81.8029 110.759C82.556 109.442 82.4677 107.872 81.7517 106.532L79.737 107.564C80.2776 108.683 80.4361 109.843 79.891 110.961C79.6859 111.407 79.2447 111.758 78.8035 112.047C78.409 112.248 78.0032 112.425 77.5733 112.49C75.7109 112.791 74.4368 111.209 73.4505 109.883C72.1619 107.967 71.08 105.79 70.2202 103.622C69.7391 102.253 69.2946 100.899 69.5284 99.4751C69.6688 98.7199 70.1831 98.2078 70.858 97.8313C71.2761 97.6175 71.6825 97.5651 72.0781 97.5471C72.6457 97.5668 73.1414 97.8718 73.5269 98.201C74.1749 98.8009 74.6757 99.5382 75.0904 100.349L77.8925 98.9152C77.1754 97.4509 75.966 96.2382 74.3109 96.0316C74.0389 95.9832 73.7686 95.999 73.5208 96.0018C73.0268 96.0063 72.5839 96.1082 72.1287 96.25L71.3531 96.492L71.352 96.4925ZM53.6407 104.326C52.8674 103.606 51.9295 102.942 50.9909 102.556C50.2738 102.251 49.4449 102.224 48.6446 102.224C47.8168 102.251 47.044 102.418 46.3258 102.749C44.6977 103.385 43.5664 105.044 43.3731 106.811C43.1522 108.581 43.4276 110.459 44.7253 111.621C46.1331 112.946 48.2029 112.809 49.8029 113.694C50.8516 114.192 51.6518 115.213 51.5979 116.374C51.6249 116.845 51.5142 117.286 51.3753 117.701C51.0988 118.364 50.4655 118.806 49.858 119.055C49.7203 119.109 49.5545 119.109 49.4438 119.164C48.9751 119.247 48.4226 119.247 47.9539 119.109C46.5461 118.75 45.4699 117.423 44.836 116.179L42.7937 118.169C43.7598 119.385 45.1945 120.188 46.6855 120.436C47.3475 120.573 48.1753 120.657 48.9762 120.63C51.073 120.601 53.1164 119.469 53.8875 117.506C54.6063 115.876 54.6608 113.582 53.7779 112.007C52.9489 110.596 51.3765 109.934 49.8872 109.547C48.3406 109.077 46.2151 108.662 45.8571 106.783C45.802 106.203 45.8296 105.567 46.0504 105.069C46.4646 104.102 47.4301 103.771 48.4237 103.743C49.9704 103.633 50.9909 105.097 51.708 106.23L53.6402 104.324L53.6407 104.326ZM87.7342 95.4306L88.7475 96.8099L85.1428 99.4616L88.9498 104.651L93.5087 101.297L94.5225 102.678L87.1379 108.111L76.6314 93.7879L84.084 88.3067L85.0956 89.6871L80.4693 93.0912L84.129 98.0806L87.7325 95.4306H87.7342Z" fill="black"/>
</g>
<defs>
<clipPath id="clip0_1116_299">
<rect width="96" height="120" fill="white" transform="translate(0 0.636719)"/>
</clipPath>
</defs>
</svg>
