<?xml version="1.0" encoding="utf-8"?>
<!-- Generator: Adobe Illustrator 26.3.1, SVG Export Plug-In . SVG Version: 6.00 Build 0)  -->
<svg version="1.1"
	 id="svg2985" xmlns:rdf="http://www.w3.org/1999/02/22-rdf-syntax-ns#" xmlns:dc="http://purl.org/dc/elements/1.1/" xmlns:sodipodi="http://sodipodi.sourceforge.net/DTD/sodipodi-0.dtd" xmlns:svg="http://www.w3.org/2000/svg" xmlns:cc="http://creativecommons.org/ns#" xmlns:inkscape="http://www.inkscape.org/namespaces/inkscape"
	 xmlns="http://www.w3.org/2000/svg" xmlns:xlink="http://www.w3.org/1999/xlink" x="0px" y="0px" viewBox="0 0 1391 363.9"
	 style="enable-background:new 0 0 1391 363.9;" xml:space="preserve">
<g>
	<path d="M790.2,1.6c0,39.1,0,77.5,0,116.6c1.7-0.8,3.3-1.4,4.8-2.1c25.8-12.4,52.7-16.7,80.2-7.3c29.4,10.1,47.3,32.1,58.3,60.3
		c8.8,22.6,10.5,46.1,8.4,70c-1.9,21.6-7,42.2-17.7,61.1c-18.3,32.5-46.6,51.1-82.6,58.6c-22.2,4.6-44.6,4.2-67,1.3
		c-16.9-2.2-33.7-5.5-50.6-8.1c-4.5-0.7-5.8-2.5-5.8-7.1c0.8-62.8,1.6-125.7,2-188.5c0.2-25.9-0.4-51.9-1.1-77.8
		c-0.2-8.7-1.3-17.6-3.4-26.1c-3.3-13.6-10.5-19.4-24.5-20.9c-4.7-0.5-7.4-2.1-6.1-7c0.4-1.6,2.1-3.9,3.6-4.2
		c30.6-5.9,61.3-11.5,91.9-17.2C783.7,2.7,786.8,2.2,790.2,1.6z M789.6,212.6C789.6,212.6,789.6,212.6,789.6,212.6
		c0,22.6-0.2,45.2,0,67.8c0.2,18.9,0.6,37.9,1.2,56.8c0.1,2.1,1.5,5.7,2.8,6c14.9,2.9,29.1,2.2,41.1-8.8
		c9.5-8.8,15.7-19.6,20.4-31.5c11.1-28.1,14.1-57.6,12.8-87.5c-0.8-18.3-4-36.2-11.8-53c-5.1-10.8-11.6-20.6-22.2-26.8
		c-13.8-8.2-28.1-6.2-42.2-1.1c-1.1,0.4-2,2.8-2,4.3C789.6,163.4,789.6,188,789.6,212.6z"/>
	<path d="M131.1,32.7c-0.3,1.9-0.8,3.6-0.8,5.4c-0.8,32.7-1.6,65.5-2.3,98.2c-0.2,10.8-0.3,21.6-0.7,32.4c-0.1,4.3,1.6,5.4,5.7,5.1
		c10.3-0.8,20.6-1.8,30.9-1.6c18.2,0.3,29.3-9,35.8-24.9c2.6-6.2,4.3-12.9,5.8-19.5c0.7-2.9,1.6-4,4.5-3.8c3.1,0.2,6.2,0,9.7,0
		c0,39.2,0,77.8,0,116.5c-0.7,0.2-1.1,0.5-1.6,0.5c-11.1,0.6-11.1,0.6-13.9-10c-2.5-9.5-5.8-18.7-12.3-26.4
		c-6.2-7.4-14.1-11.2-23.9-11.6c-11.8-0.4-23.6-1.1-35.4-1.9c-4.3-0.3-5.6,1.3-5.4,5.4c1,26.7,1.9,53.5,2.6,80.2
		c0.4,14,1.6,27.8,6.2,41.1c4.5,13.1,13.4,20.5,27.4,21.7c4.9,0.4,9.8,1.7,14.7,2.6c6.6,1.1,3.1,6.2,3.7,9.6
		c0.7,3.5-2.3,3.3-4.6,3.3c-56.8,0-113.6,0-170.4,0c-2.2,0-5.3,0.7-4.9-3.1c0.5-3.6-2.8-8.8,3.8-10.1c5.2-1,10.4-2.2,15.6-3
		c11.4-1.8,18.3-8.7,22.4-19c4.9-12.2,6.5-25.1,6.8-38c0.9-52.4,2-104.7,1.8-157.1c-0.1-22.5-2.8-45-4.7-67.5
		c-0.4-4.8-2.3-9.7-4.1-14.2c-5.1-12.5-15.1-18.4-28.2-19.6c-3.5-0.3-7-0.5-10.4-1.2c-1.2-0.2-2.7-1.8-2.9-3c-0.4-2.6-0.5-5.4,0-7.9
		c0.2-1.3,1.8-2.7,3.1-3.2c1.3-0.6,2.9-0.2,4.4-0.2c88.4,0,176.9,0,265.3,0c6.9,0,7.1,0,7.2,6.9c0.4,21.3,0.7,42.6,1.1,63.9
		c0.1,7.5,0.4,14.9,0.8,22.4c0.2,3.1-1.1,4.4-3.9,5.2c-11.4,3.6-11.3,3.7-15.5-7.5c-5.7-15.3-12.5-30.1-23.3-42.6
		c-12.9-15-29.1-23.5-49.1-23.8c-19.1-0.3-38.3-0.1-57.5-0.2C133.7,32.4,132.6,32.6,131.1,32.7z"/>
	<path d="M249.5,238c-0.1-36.3,6.8-64.4,24.6-89.2c19.7-27.5,46.8-42.6,80.2-46.8c21.5-2.7,42.8-1.8,63.5,5.4
		c31.1,10.8,52.9,31.9,64.2,62.6c16.7,45.4,16.5,90.6-7.2,133.7c-18.9,34.5-49.5,52.7-88.3,57.3c-20.9,2.5-41.5,1.3-61.5-5.5
		c-33.1-11.3-54.5-34.5-66.3-67C251.9,270.2,249.3,251.3,249.5,238z M418.9,226.1c-1-9.9-2.1-27.7-4.6-45.2
		c-2.5-17.1-7.4-33.7-17.6-48.1c-12.7-18-33.8-21.4-49.1-7.8c-7.6,6.7-11.6,15.7-14.6,25.1c-5.3,16.4-7.2,33.3-8.2,50.4
		c-1.7,29.4-1.7,58.7,4.2,87.8c3.1,15.5,7.8,30.5,17.2,43.6c13,18,36.4,19.1,51.1,2.6c6.8-7.6,10.5-16.8,13.2-26.5
		C417.4,283.7,418,258.8,418.9,226.1z"/>
	<path d="M1175.6,308.7c7.2,6.5,7.4,6.8,1.5,13.6c-17.2,20-39.3,32.1-64.9,37.2c-28.7,5.7-56.7,3-82.9-10.5
		c-33.8-17.3-53.8-45.5-61.5-82c-8.3-39.2-3.9-77.1,17.3-111.8c19-31.1,47.2-48.8,83.5-53.2c22.3-2.7,44.2-1.5,64.6,9.2
		c22.8,12,36.3,31.5,44.3,55.4c5.2,15.4,6.8,31.4,8,47.4c0.3,4.6-1.5,5.5-5.7,5.5c-45.3-0.1-90.6-0.1-135.9-0.1
		c-7.3,0-7.4,0-7.2,7.1c0.9,25.1,5.1,49.2,20.8,69.9c13.8,18.2,32.4,27.2,55,29.4c22.4,2.1,42.9-2.3,61.1-16
		C1174.1,309.3,1174.9,309,1175.6,308.7z M1112.1,199.8c0-5.6,0.3-10.6-0.1-15.6c-0.5-7.4-1-14.9-2.1-22.3
		c-2-12.1-4.4-24.2-11.5-34.6c-7.7-11.5-21.2-14.6-31.9-5.8c-6.1,5-11.3,11.8-15.1,18.7c-9.8,17.9-12.8,37.8-14.5,57.9
		c-0.3,3.5,1.7,3.8,4.3,3.7c20.5-0.5,40.9-0.9,61.4-1.4C1105.6,200.4,1108.5,200.1,1112.1,199.8z"/>
	<path d="M1212,271.9c4.3,9.4,8,18.6,12.6,27.4c6.8,13.1,15.3,25.2,28.7,32.4c17.7,9.7,36,12,53.8,0.4c17.8-11.5,24.6-43.4,1-59.4
		c-10.7-7.3-23-12.4-35.1-17.5c-13.8-5.8-27.9-10.7-40.1-19.7c-20.4-15-27.7-35.8-26.1-60.2c2.1-31.6,23.3-57.6,54.5-68.2
		c20.5-6.9,41.4-7.1,62.6-5.3c15.6,1.3,30.8,4.5,45.6,9.7c4.2,1.5,5.9,3.4,5.9,8.1c0,16.5,0.6,32.9,0.9,49.4
		c0.2,9.8,0.1,9.8-10.2,12.1c-1.4-3.6-2.7-7.3-4.1-10.9c-5.5-14-11.8-27.6-23-38c-12-11.2-26.4-16-42.7-12.7
		c-14.1,2.8-23.8,14.6-25.9,28.8c-2.3,15.6,3.5,27.2,15.9,36.1c13.8,9.9,29.4,16.1,44.8,22.6c15.7,6.6,30.9,13.9,42.8,26.7
		c10.2,11,14.7,24.2,15.4,38.9c1,21.5-3.9,41.2-18.3,57.8c-13.8,15.9-31.7,24.4-51.8,28.7c-20.2,4.3-40.6,3.6-61,1.3
		c-17.4-2-34.4-5.3-50.9-11.3c-2.9-1-4.2-2.4-4.2-5.7c-0.2-19.8-0.7-39.6-1-59.3C1201.8,274.1,1201.9,274.1,1212,271.9z"/>
	<path d="M675,173.9c-6.4-2.8-12.2-6.1-18.4-8.1c-15.8-5.2-31.6-5.5-47.1,1.6c-6.5,3-10.2,7-10.1,15.2c0.3,28.1-0.8,56.2-0.4,84.3
		c0.3,17.7,1.8,35.5,3.9,53.1c1.7,14.6,9.7,20.8,24.6,21.7c4.8,0.3,9.6,0.8,15.2,1.3c0,3.4,0.2,6.6-0.1,9.8c-0.1,0.9-1.4,2-2.4,2.4
		c-1.2,0.4-2.6,0.2-4,0.2c-44.8,0-89.6,0-134.4,0c-6.1,0-9.5-6-6.4-11.3c0.4-0.7,1.5-1.2,2.4-1.3c3.1-0.7,6.2-1.3,9.3-1.7
		c9.7-1.3,16.2-6.9,18.2-16c2.3-10.8,3.6-21.9,3.9-32.9c0.8-29.9,1.1-59.8,1-89.8c-0.1-14.6-0.9-29.2-2.8-43.7
		c-2.5-19.1-8.2-24-27.2-26c-3.3-0.4-5.1-1.2-5.2-5c-0.1-3.8,1.1-5.6,5-6.4c32.7-6.5,65.3-13.2,97.9-19.7c0.8-0.2,1.6,0,2.5,0
		c0,18.2,0,36.1,0,54.1c0.3,0.1,0.5,0.3,0.8,0.4c1.5-2.8,3-5.7,4.5-8.5c9.4-17.3,21.5-32,39.6-40.8c16-7.7,32.4-8.9,49.2-2.3
		c4.3,1.7,5.8,3.5,3.8,8.4c-7.4,18.8-14.4,37.8-21.5,56.7C676.3,170.8,675.7,172.3,675,173.9z"/>
</g>
</svg>
