<?xml version="1.0" encoding="utf-8"?>
<!-- Generator: Adobe Illustrator 26.3.1, SVG Export Plug-In . SVG Version: 6.00 Build 0)  -->
<svg version="1.1" id="Layer_2_00000118389381655526516310000010751087969415875473_"
	 xmlns="http://www.w3.org/2000/svg" xmlns:xlink="http://www.w3.org/1999/xlink" x="0px" y="0px" viewBox="0 0 1137.6 428.1"
	 style="enable-background:new 0 0 1137.6 428.1;" xml:space="preserve">
<g id="Layer_1-2">
	<g>
		<path d="M428.3,5.7h20.1v78.7h44.9v17.8h-65V5.7z"/>
		<path d="M530.9,103.7c-20.4,0-34.4-15.1-34.4-36.6s14-36.8,34.4-36.8s34.4,15.1,34.4,36.8S551.3,103.7,530.9,103.7z M530.9,46.8
			c-9.7,0-15.1,8.5-15.1,20.3s5.3,20.1,15.1,20.1S546,78.7,546,67.1S540.6,46.8,530.9,46.8z"/>
		<path d="M584.8,128.1l10.2-25.6l-26.9-70.6h20.6l16.2,46.7l16-46.7h19.6L603.9,128L584.8,128.1L584.8,128.1z"/>
		<path d="M677.9,103.7c-20.4,0-34.4-15.1-34.4-36.6s14-36.8,34.4-36.8s34.4,15.1,34.4,36.8S698.3,103.7,677.9,103.7z M677.9,46.8
			c-9.7,0-15.1,8.5-15.1,20.3s5.3,20.1,15.1,20.1S693,78.7,693,67.1S687.7,46.8,677.9,46.8z"/>
		<path d="M744.2,102.1h-19.5V0h19.5V102.1z"/>
		<path d="M799.8,58.3c0-6.8-5.8-11-15.7-11c-7.1,0-13.7,2-19.2,5.7V36.1c5-3.1,14.1-5.8,23.4-5.8c19.3,0,30.2,9.9,30.2,27v44.8
			h-18.7v-3.8c-2.4,2.4-9.3,5-17,5c-14.1,0-25.9-8.2-25.9-22.8c0-13.3,11.8-22.5,27.2-22.5c6.1,0,12.9,2,15.7,4.1V58.3L799.8,58.3z
			 M799.8,77.9c-1.7-3.8-6.9-6.1-12.4-6.1c-6.1,0-12.4,2.7-12.4,8.6s6.3,8.6,12.4,8.6c5.5,0,10.7-2.4,12.4-6.1V77.9L799.8,77.9z"/>
		<path d="M475.7,214.3l-27.8-41.5v62.2h-19.6v-96.5H447l29.2,45.6l29.1-45.6h18.4v96.5h-19.8v-62.2l-27.5,41.5L475.7,214.3
			L475.7,214.3z"/>
		<path d="M579.9,191.2c0-6.8-5.8-11-15.7-11c-7.1,0-13.7,2-19.2,5.7v-16.8c5-3.1,14.1-5.8,23.4-5.8c19.3,0,30.2,9.9,30.2,27v44.8
			h-18.7v-3.8c-2.4,2.4-9.3,5-17,5c-14.1,0-25.9-8.2-25.9-22.8c0-13.4,11.8-22.5,27.2-22.5c6.1,0,12.9,2,15.7,4.1V191.2L579.9,191.2
			z M579.9,210.9c-1.7-3.8-6.9-6.1-12.4-6.1c-6.1,0-12.4,2.7-12.4,8.6s6.3,8.6,12.4,8.6c5.5,0,10.7-2.4,12.4-6.1V210.9L579.9,210.9z
			"/>
		<path d="M657.3,184c-2.7-1.6-6.1-2.4-9.7-2.4c-6.6,0-11.9,3.5-13.3,9.9v43.5h-19.5v-70.2h19.5v6.9c3-5,8.8-8.5,15.7-8.5
			c3.3,0,6.3,0.6,7.4,1.3L657.3,184L657.3,184z"/>
		<path d="M677,261l10.2-25.6l-26.9-70.6h20.6l16.2,46.7l16-46.7h19.6L696.2,261L677,261L677,261z"/>
		<path d="M820.6,163.3c14.5,0,23.1,10.1,23.1,25.9v45.9h-19.5v-41.8c0-7.5-3.3-12.6-10.1-12.6c-5,0-9.6,3.1-10.8,9.1v45.2h-19.6
			v-41.8c0-7.5-3.1-12.6-9.9-12.6c-5,0-9.7,3.1-11,9.1v45.2h-19.5v-70.2h19.5v5.8c3.5-4.4,9.9-7.4,17.8-7.4c8.3,0,14.9,3.8,18.8,9
			C803.9,167.2,810.7,163.3,820.6,163.3L820.6,163.3z"/>
		<path d="M889.8,236.6c-20.4,0-34.4-15.1-34.4-36.6s14-36.8,34.4-36.8s34.4,15.1,34.4,36.8S910.3,236.6,889.8,236.6z M889.8,179.8
			c-9.7,0-15.1,8.5-15.1,20.3s5.3,20.1,15.1,20.1s15.1-8.5,15.1-20.1S899.6,179.8,889.8,179.8z"/>
		<path d="M998.9,235.1h-19.5v-6.4c-3.9,4.4-10.7,8-18.8,8c-15.7,0-24.7-10.4-24.7-25.9v-45.9h19.5v41.9c0,7.4,3.6,12.4,11.3,12.4
			c6,0,11.2-3.6,12.6-9.7v-44.6h19.6L998.9,235.1L998.9,235.1z"/>
		<path d="M1015.7,164.8h19.5v6.4c3.8-4.4,10.7-8,18.8-8c15.9,0,24.8,10.4,24.8,25.9v45.9h-19.5v-41.8c0-7.4-3.8-12.4-11.5-12.4
			c-6,0-11.2,3.6-12.7,9.7v44.5h-19.5L1015.7,164.8L1015.7,164.8z"/>
		<path d="M1122.7,235.1h-19.5v-54.5h-13.3v-15.7h13.3v-19h19.5v19h14.9v15.7h-14.9V235.1z"/>
		<g>
			<path d="M426.9,329.2v-57.7H447v55.6c0,16.5,7.2,24.4,20,24.4s20-7.9,20-24.4v-55.6H507v57.7c0,26.6-15.9,40.4-40.1,40.4
				S426.9,355.8,426.9,329.2"/>
			<path d="M523.3,297.8h19.5v6.4c3.8-4.4,10.7-8,18.9-8c15.9,0,24.8,10.4,24.8,25.9V368H567v-41.8c0-7.4-3.8-12.4-11.5-12.4
				c-6,0-11.2,3.6-12.7,9.7V368h-19.5L523.3,297.8L523.3,297.8z"/>
			<path d="M612,288.7c-6.3,0-11.6-4.6-11.6-11.2s5.3-11.2,11.6-11.2s11.5,4.7,11.5,11.2S618.1,288.7,612,288.7 M621.7,368h-19.5
				v-70.2h19.5V368z"/>
			<polygon points="656.3,368 629.7,297.8 650.2,297.8 666.4,344.5 682.2,297.8 701.9,297.8 675.2,368 			"/>
			<path d="M722.6,337.4c1.6,11.5,9.9,16.2,20.3,16.2c7.7,0,13.2-1.7,20.1-6.1v16c-5.8,4.2-13.7,6.1-23.1,6.1
				c-21.4,0-36-13.8-36-36.1s13.8-37.2,33-37.2c20.4,0,31,14.1,31,34.9v6.3L722.6,337.4L722.6,337.4z M723.2,324.6h26.6
				c-0.5-7.5-4.7-12.9-12.4-12.9C731,311.8,725.5,315.8,723.2,324.6"/>
			<path d="M823.2,317c-2.7-1.6-6.1-2.4-9.7-2.4c-6.6,0-11.9,3.5-13.4,9.9V368h-19.5v-70.2h19.5v6.9c3-5,8.8-8.5,15.7-8.5
				c3.3,0,6.3,0.6,7.4,1.3L823.2,317L823.2,317z"/>
			<path d="M829.8,344.5c6.8,6.1,16.5,9.7,24.2,9.7c5.8,0,10.4-1.7,10.4-6c0-3.9-3.1-5.3-8-6.9l-6.8-1.9c-12.3-3.3-20-9.1-20-21.2
				c0-13.7,11.8-22,27.5-22c9,0,16.2,2.2,22.5,6.3v17.8c-6.3-5-13.5-8.6-21.5-8.6c-5.3,0-9.4,2-9.4,6s2.7,5,7.5,6.6l7.9,2.4
				c13.4,3.8,19.5,10.1,19.5,21.4c0,14.1-12.4,21.7-28.9,21.7c-9.3,0-18.9-2.5-24.8-7.1L829.8,344.5L829.8,344.5z"/>
			<path d="M905.2,288.7c-6.3,0-11.6-4.6-11.6-11.2s5.3-11.2,11.6-11.2s11.5,4.7,11.5,11.2S911.3,288.7,905.2,288.7 M915,368h-19.5
				v-70.2H915V368z"/>
			<polygon points="959.6,368 940.1,368 940.1,313.5 926.8,313.5 926.8,297.8 940.1,297.8 940.1,278.8 959.6,278.8 959.6,297.8 
				974.5,297.8 974.5,313.5 959.6,313.5 			"/>
			<polygon points="996.5,394 1006.7,368.3 979.9,297.8 1000.5,297.8 1016.6,344.5 1032.7,297.8 1052.3,297.8 1015.7,394 			"/>
		</g>
	</g>
	<g>
		<path d="M238,82.6c6.6,0,12.8,2.6,17.5,7.2l0.3,0.3l0.3-0.3c4.7-4.7,10.9-7.2,17.5-7.2c2.5,0,4.9,0.4,7.1,1l2.6-15.8L270,76.3
			l-5.2-15.5l-8.5,13.6l-9.8-13.6l-3.2,15.5l-13.5-8.4l3.4,15.2C234.8,82.7,236.4,82.6,238,82.6L238,82.6z"/>
		<path d="M261.6,95.3l-5.8,5.6l-5.8-5.6c-3.3-3.3-7.7-5-12.1-5c-2.6,0-5.1,0.6-7.4,1.7l41,41l14.2-13.5c6.7-6.7,6.7-17.5,0-24.2
			c-3.3-3.3-7.7-5-12.1-5S265,92,261.6,95.3z"/>
		<path d="M146.5,110.8l-3.2-1c-1.9-0.6-3.2-1.2-3.2-2.9c0-1.6,1.6-2.7,4.1-2.7c2.8,0,5.7,1.1,8.5,3.2V101c-2.6-1.6-5.5-2.4-8.9-2.4
			c-6.5,0-10.9,3.5-10.9,8.7c0,4.3,2.4,6.9,7.9,8.4l2.7,0.8c1.9,0.6,3.4,1.3,3.4,3.1c0,1.7-1.6,2.7-4.5,2.7c-3.1,0-6.9-1.4-9.6-3.7
			v6.7c2.3,1.7,6,2.7,9.8,2.7c7.1,0,11.5-3.3,11.5-8.5C154.3,114.8,152,112.3,146.5,110.8L146.5,110.8z"/>
		<path d="M255.9,147.9l7.2-6.9l-40.7-40.7c-2.8,6.3-1.7,13.9,3.5,19.1L255.9,147.9z"/>
		<rect x="64.5" y="98.9" width="7.9" height="28.5"/>
		<path d="M195.5,5.8H0v186c0,31.1,7.6,62.4,22.1,90.4c14.4,27.9,35.7,52.8,61.6,72l98.7,73.9l98.7-73.9
			c25.9-19.2,47.2-44.1,61.6-72c14.5-28,22.1-59.3,22.1-90.4V5.8H195.5z M352.7,191.8c0,29.1-7.1,58.3-20.7,84.5
			c-13.5,26.1-33.5,49.5-57.7,67.5l-91.8,68.7l-91.8-68.7c-24.3-18-44.2-41.3-57.7-67.5c-13.5-26.2-20.7-55.4-20.7-84.5V18.2h340.5
			V191.8z"/>
		<polygon points="117.6,108.6 107.8,108.6 107.8,80.1 117.5,80.1 117.5,72.4 107.8,72.4 107.8,60.3 100,60.3 100,72.4 90.3,72.4 
			90.3,80.1 100,80.1 100,108.6 90.2,108.6 90.2,90 82.4,90 82.4,136.3 90.2,136.3 90.2,116.4 100,116.4 100,149.1 107.8,149.1 
			107.8,116.4 117.6,116.4 117.6,136.3 125.4,136.3 125.4,90 117.6,90 		"/>
		<path d="M175.2,35.9H29.9v155.9c0,26.3,6.5,52.7,18.7,76.4c12.3,23.7,30.4,45,52.5,61.4l81.3,60.9l81.3-60.9
			c22.1-16.4,40.3-37.6,52.5-61.4c12.2-23.7,18.7-50.1,18.7-76.4V35.9H175.2z M41.8,164.2V47.8h135v116.4H41.8z M266.4,265.4
			c-5.5,1.4-4.8,4.9-11.1,6.2c-8.5,1.8-11.1-4-15.6-0.2c-3.4,2.8-5.6,3.4-6.9,3.4c6.3,3.1,12.2,6.2,17.3,9.2
			c12.9,7.4,21.5,13.9,21.5,13.9s-20.4-1.1-46.7-8c19.1,19.4,30.2,36.5,30.2,36.5s-9.9-4.2-22.8-11.7c-5.2-3-10.9-6.5-16.8-10.5
			c0.6,1.2,1.1,3.4,0.4,7.4c-1,5.7,5.2,5.1,7.9,13.4c2,6.1-1.4,7.2,0.1,12.7c1,3.6,4.1,2.3,6,9.2c0,0-1.5-2.1-5.4-3.3
			c-4.4-1.3-7.5-4.3-9-11.5c-1.3-6-7.4-4.1-11.9-10.4c-3.3-4.6-3.4-7.5-4.4-9.5c0.5,7.1,0.8,15.3,0.8,21.1c0,14.9-1.2,25.6-1.2,25.6
			s-9.3-18.2-16.5-44.4c-7.2,26.2-16.5,44.4-16.5,44.4s-1.3-10.7-1.2-25.6c0-5.8,0.3-14,0.8-21.1c-1,2-1.1,4.9-4.4,9.5
			c-4.5,6.2-10.6,4.4-11.9,10.4c-1.5,7.3-4.7,10.3-9,11.5c-3.9,1.1-5.4,3.3-5.4,3.3c1.8-6.9,5-5.6,6-9.2c1.5-5.5-1.9-6.6,0.1-12.7
			c2.7-8.3,8.9-7.6,7.9-13.4c-0.7-4-0.2-6.2,0.4-7.4c-5.9,4-11.6,7.5-16.8,10.5c-12.9,7.5-22.8,11.7-22.8,11.7s11.2-17.2,30.2-36.5
			c-26.3,6.9-46.7,8-46.7,8s8.6-6.5,21.5-13.9c5.1-3,10.9-6.1,17.3-9.2c-1.3,0-3.5-0.5-6.9-3.4c-4.5-3.7-7,2-15.6,0.2
			c-6.3-1.3-5.6-4.8-11.1-6.2c-3.6-1-4.1,2.4-11,0.6c0,0,2.6-0.2,5.5-3.1c3.3-3.2,7.4-4.4,14.5-2.1c5.8,1.9,7.2-4.4,14.9-5.1
			c6-0.6,8.5,0.9,10.8,0.9l0,0c-3.2-1.6-23.1-11.6-40.1-23.9c0,0,22.9,1.5,46.7,7.9c-19.1-19.3-30.2-36.5-30.2-36.5
			s9.9,4.2,22.8,11.7c5.3,3.1,11.2,6.7,17.3,10.8c-1.2-1.8-3.6-3.4-5.9-8.4c-3.2-7,1.5-11.4-3-15.5c-5.5-5-6.6-9.2-5.4-13.6
			c1-4-0.1-6.3-0.1-6.3c5.1,5.1,2.4,7.1,5,9.8c4,4,6.6,1.7,10.9,6.4c5.8,6.5,2.1,11.6,7.6,13.6c5.2,1.9,6.4,4,6.7,5
			c-0.6-7.3-0.6-14.3-0.6-20.5c0-14.9,1.2-25.6,1.2-25.6s9.3,18.2,16.5,44.4c7.2-26.2,16.5-44.4,16.5-44.4s1.3,10.7,1.2,25.6
			c0,6.1,0,13.1-0.6,20.5c0.3-1.1,1.5-3.1,6.7-5c5.5-2,1.8-7.1,7.6-13.6c4.3-4.8,6.9-2.4,10.9-6.4c2.6-2.6-0.1-4.7,5-9.8
			c0,0-1.1,2.4-0.1,6.3c1.1,4.4,0.1,8.6-5.4,13.6c-4.5,4.1,0.1,8.5-3,15.5c-2.3,5.1-4.7,6.7-5.9,8.4c6.1-4.1,11.9-7.8,17.3-10.8
			c12.9-7.5,22.8-11.7,22.8-11.7s-11.2,17.2-30.2,36.5c23.9-6.4,46.7-7.9,46.7-7.9c-17.1,12.3-36.9,22.3-40.1,23.8l0,0
			c2.3,0,4.8-1.5,10.8-0.9c7.6,0.8,9.1,7,14.9,5.1c7.1-2.3,11.2-1,14.5,2.1c2.9,2.8,5.5,3.1,5.5,3.1
			C270.5,267.8,270.1,264.5,266.4,265.4L266.4,265.4z M323.4,164.2h-135V47.8h135L323.4,164.2L323.4,164.2z"/>
	</g>
	<path d="M193.8,298.4l-3.9,9.2l-7.4-2.5l-7.4,2.5l-3.9-9.2l11.4-3.9L193.8,298.4z M219.1,259.2l-13.1,18.9l-1.1,8.6l-7.4,8.1
		l-15-5.2l-15,5.2l-7.4-8.1l-1.1-8.6l-13.1-18.9c1-19.4,17.5-32.5,17.5-32.5l19.2,6.2l19.2-6.2C201.7,226.7,218.2,239.8,219.1,259.2
		 M193.6,276.7h-22.2l11.1,10.6L193.6,276.7z M159.5,249.1c0,0-2.6,10.8,10.1,12.2l-1-8.5L159.5,249.1L159.5,249.1z M196.5,252.8
		l-1,8.5c12.7-1.4,10.1-12.2,10.1-12.2L196.5,252.8L196.5,252.8z"/>
</g>
</svg>
