<svg width="3958" height="217" viewBox="0 0 3958 217" fill="none" xmlns="http://www.w3.org/2000/svg">
<path d="M1650.74 125.691L1669.38 2.16531H1707.4V176.145H1681.56V51.3766L1662.67 176.145H1636.82L1616.44 53.1164V176.145H1592.58V2.16531H1630.6L1650.74 125.691ZM1741.71 75.4851H1779.24V100.339H1741.71V151.29H1788.93V176.145H1714.37V2.16531H1788.93V27.0195H1741.71V75.4851ZM1817.3 50.1339V176.145H1792.7V2.16531H1827L1855.08 106.304V2.16531H1879.44V176.145H1851.35L1817.3 50.1339ZM1912.19 2.16531V136.378C1912.19 142.674 1913.43 147.065 1915.92 149.551C1918.57 152.036 1922.05 153.279 1926.35 153.279C1930.66 153.279 1934.06 152.036 1936.54 149.551C1939.2 147.065 1940.52 142.674 1940.52 136.378V2.16531H1966.37V134.638C1966.37 148.722 1962.89 159.575 1955.93 167.197C1949.14 174.653 1939.03 178.381 1925.61 178.381C1912.19 178.381 1902 174.653 1895.04 167.197C1888.24 159.575 1884.85 148.722 1884.85 134.638V2.16531H1912.19Z" fill="#C5FD64"/>
<circle cx="1491.22" cy="88.5" r="79.0033" stroke="#C5FD64" stroke-width="14.9933"/>
<path d="M1527.55 100.522C1527.55 107.543 1524.35 113.922 1519.03 117.436C1514.56 120.3 1509.65 121.37 1501.14 121.37H1454.31L1458.55 108.712H1496.45C1501.46 108.712 1503.16 108.498 1504.97 107.757C1507.63 106.588 1509.45 103.395 1509.45 99.9957C1509.45 96.9093 1508.06 94.2509 1505.82 92.868C1503.91 91.8063 1501.46 91.3783 1496.56 91.3783H1464.36L1468.42 79.2549H1494.43C1502.74 79.2549 1506.36 76.8105 1506.36 71.2879C1506.36 68.5225 1504.97 65.8639 1502.85 64.5884C1501.03 63.5184 1498.9 63.0987 1494.54 63.0987H1473.83L1478.07 50.4401H1501.99C1509.23 50.4401 1514.02 51.609 1517.64 54.3743C1521.69 57.5678 1524.25 62.9915 1524.25 68.7282C1524.25 75.8558 1520.95 80.6376 1513.7 84.152C1518.29 85.4278 1520.2 86.2755 1522.23 87.9793C1525.63 90.6376 1527.55 95.2056 1527.55 100.522Z" fill="#C5FD64"/>
<path d="M535.657 2.16531C549.906 2.16531 560.179 5.4792 566.476 12.107C572.938 18.7348 576.169 28.7593 576.169 42.1805V48.3941C576.169 57.3416 574.761 64.715 571.944 70.5143C569.127 76.3136 564.653 80.6217 558.522 83.4385C565.979 86.2553 571.198 90.8947 574.181 97.3568C577.329 103.653 578.903 111.441 578.903 120.72V134.887C578.903 148.308 575.423 158.581 568.464 165.706C561.505 172.665 551.149 176.145 537.396 176.145H494.399V2.16531H535.657ZM521.738 97.8539V151.29H537.396C542.036 151.29 545.515 150.048 547.835 147.562C550.321 145.077 551.563 140.603 551.563 134.141V118.98C551.563 110.861 550.155 105.31 547.338 102.328C544.687 99.3451 540.213 97.8539 533.917 97.8539H521.738ZM521.738 27.0195V72.9997H532.426C537.562 72.9997 541.539 71.6742 544.356 69.023C547.338 66.3719 548.829 61.5668 548.829 54.6076V44.9145C548.829 38.6181 547.669 34.0615 545.35 31.2447C543.196 28.4279 539.716 27.0195 534.911 27.0195H521.738ZM645.077 176.145C644.746 174.985 644.414 173.908 644.083 172.913C643.752 171.919 643.42 170.677 643.089 169.185C642.923 167.694 642.757 165.789 642.592 163.469C642.592 161.149 642.592 158.25 642.592 154.77V127.43C642.592 119.311 641.183 113.595 638.367 110.281C635.55 106.967 630.993 105.31 624.697 105.31H615.252V176.145H587.913V2.16531H629.17C643.42 2.16531 653.693 5.4792 659.99 12.107C666.452 18.7348 669.683 28.7593 669.683 42.1805V55.8503C669.683 73.7453 663.718 85.5096 651.788 91.1433C658.747 93.9601 663.469 98.5995 665.955 105.062C668.606 111.358 669.931 119.063 669.931 128.176V155.018C669.931 159.327 670.097 163.138 670.428 166.451C670.76 169.6 671.588 172.831 672.914 176.145H645.077ZM615.252 27.0195V80.456H625.939C631.076 80.456 635.053 79.1304 637.869 76.4793C640.852 73.8282 642.343 69.023 642.343 62.0639V44.9145C642.343 38.6181 641.183 34.0615 638.864 31.2447C636.71 28.4279 633.23 27.0195 628.425 27.0195H615.252ZM768.936 176.145H741.348L736.626 144.58H703.073L698.35 176.145H673.248L701.084 2.16531H741.1L768.936 176.145ZM706.552 120.968H732.898L719.725 32.9845L706.552 120.968ZM798.569 50.1339V176.145H773.963V2.16531H808.262L836.347 106.304V2.16531H860.705V176.145H832.619L798.569 50.1339ZM872.823 2.16531H916.069C929.822 2.16531 940.012 5.81059 946.64 13.1012C953.433 20.3917 956.83 31.079 956.83 45.163V133.147C956.83 147.231 953.433 157.918 946.64 165.209C940.012 172.499 929.822 176.145 916.069 176.145H872.823V2.16531ZM900.162 27.0195V151.29H915.572C919.88 151.29 923.277 150.048 925.762 147.562C928.248 145.077 929.49 140.686 929.49 134.39V43.9203C929.49 37.6239 928.248 33.233 925.762 30.7476C923.277 28.2622 919.88 27.0195 915.572 27.0195H900.162ZM1007.84 144.083L1028.71 2.16531H1053.82L1026.98 176.145H986.214L959.372 2.16531H986.96L1007.84 144.083ZM1086.46 75.4851H1123.99V100.339H1086.46V151.29H1133.68V176.145H1059.12V2.16531H1133.68V27.0195H1086.46V75.4851ZM1200.33 176.145C1200 174.985 1199.67 173.908 1199.34 172.913C1199.01 171.919 1198.68 170.677 1198.35 169.185C1198.18 167.694 1198.02 165.789 1197.85 163.469C1197.85 161.149 1197.85 158.25 1197.85 154.77V127.43C1197.85 119.311 1196.44 113.595 1193.62 110.281C1190.81 106.967 1186.25 105.31 1179.95 105.31H1170.51V176.145H1143.17V2.16531H1184.43C1198.68 2.16531 1208.95 5.4792 1215.25 12.107C1221.71 18.7348 1224.94 28.7593 1224.94 42.1805V55.8503C1224.94 73.7453 1218.98 85.5096 1207.05 91.1433C1214 93.9601 1218.73 98.5995 1221.21 105.062C1223.86 111.358 1225.19 119.063 1225.19 128.176V155.018C1225.19 159.327 1225.35 163.138 1225.69 166.451C1226.02 169.6 1226.85 172.831 1228.17 176.145H1200.33ZM1170.51 27.0195V80.456H1181.2C1186.33 80.456 1190.31 79.1304 1193.13 76.4793C1196.11 73.8282 1197.6 69.023 1197.6 62.0639V44.9145C1197.6 38.6181 1196.44 34.0615 1194.12 31.2447C1191.97 28.4279 1188.49 27.0195 1183.68 27.0195H1170.51ZM1232.23 43.9203C1232.23 29.8363 1235.55 19.0661 1242.18 11.6099C1248.97 3.98795 1259.08 0.176983 1272.5 0.176983C1285.92 0.176983 1295.94 3.98795 1302.57 11.6099C1309.36 19.0661 1312.76 29.8363 1312.76 43.9203V49.3882H1286.91V42.1805C1286.91 35.8841 1285.67 31.4932 1283.18 29.0078C1280.87 26.3567 1277.55 25.0311 1273.24 25.0311C1268.94 25.0311 1265.54 26.3567 1263.05 29.0078C1260.73 31.4932 1259.57 35.8841 1259.57 42.1805C1259.57 48.1455 1260.9 53.4478 1263.55 58.0872C1266.2 62.561 1269.51 66.869 1273.49 71.0114C1277.47 74.988 1281.69 79.0476 1286.17 83.1899C1290.81 87.1666 1295.11 91.5575 1299.09 96.3626C1303.07 101.168 1306.38 106.636 1309.03 112.766C1311.68 118.897 1313.01 126.105 1313.01 134.39C1313.01 148.474 1309.53 159.327 1302.57 166.948C1295.78 174.405 1285.67 178.133 1272.25 178.133C1258.83 178.133 1248.64 174.405 1241.68 166.948C1234.88 159.327 1231.49 148.474 1231.49 134.39V123.702H1257.34V136.129C1257.34 142.426 1258.58 146.817 1261.06 149.302C1263.72 151.787 1267.2 153.03 1271.5 153.03C1275.81 153.03 1279.21 151.787 1281.69 149.302C1284.34 146.817 1285.67 142.426 1285.67 136.129C1285.67 130.164 1284.34 124.945 1281.69 120.471C1279.04 115.832 1275.73 111.524 1271.75 107.547C1267.78 103.405 1263.47 99.3451 1258.83 95.3685C1254.35 91.2261 1250.13 86.7524 1246.15 81.9472C1242.18 77.1421 1238.86 71.6742 1236.21 65.5435C1233.56 59.4128 1232.23 52.205 1232.23 43.9203ZM1348.56 75.4851H1386.09V100.339H1348.56V151.29H1395.78V176.145H1321.22V2.16531H1395.78V27.0195H1348.56V75.4851Z" fill="#C5FD64"/>
<rect y="2.38672" width="478.141" height="173.922" fill="#C5FD64"/>
<mask id="mask0_1501_54" style="mask-type:alpha" maskUnits="userSpaceOnUse" x="0" y="2" width="479" height="175">
<rect y="2.38672" width="478.141" height="173.922" fill="white"/>
</mask>
<g mask="url(#mask0_1501_54)">
<rect x="28.6992" y="2.38672" width="1.148" height="173.922" fill="black"/>
<rect x="34.4404" y="2.38672" width="9.75799" height="173.922" fill="black"/>
<rect x="45.9199" y="2.38672" width="1.148" height="173.922" fill="black"/>
<rect x="54.5293" y="2.38672" width="1.148" height="173.922" fill="black"/>
<rect x="56.8252" y="2.38672" width="1.148" height="173.922" fill="black"/>
<rect x="59.1211" y="2.38672" width="4.018" height="173.922" fill="black"/>
<rect x="68.3066" y="2.38672" width="1.148" height="173.922" fill="black"/>
<rect x="102.172" y="2.38672" width="1.148" height="173.922" fill="black"/>
<rect x="143.5" y="2.38672" width="18.942" height="173.922" fill="black"/>
<rect x="166.46" y="2.38672" width="6.88799" height="173.922" fill="black"/>
<rect x="183.68" y="2.38672" width="3.444" height="173.922" fill="black"/>
<rect x="189.419" y="2.38672" width="3.444" height="173.922" fill="black"/>
<rect x="229.6" y="2.38672" width="3.444" height="173.922" fill="black"/>
<rect x="242.229" y="2.38672" width="15.498" height="173.922" fill="black"/>
<rect x="456.903" y="2.38672" width="15.498" height="173.922" fill="black"/>
<rect x="105.043" y="2.38672" width="3.444" height="173.922" fill="black"/>
<rect x="116.521" y="2.38672" width="9.75799" height="173.922" fill="black"/>
<rect x="234.191" y="2.38672" width="4.018" height="173.922" fill="black"/>
</g>
<path d="M3632.46 125.691L3651.1 2.16531H3689.13V176.145H3663.28V51.3766L3644.39 176.145H3618.54L3598.16 53.1164V176.145H3574.3V2.16531H3612.33L3632.46 125.691ZM3723.43 75.4851H3760.96V100.339H3723.43V151.29H3770.65V176.145H3696.09V2.16531H3770.65V27.0195H3723.43V75.4851ZM3799.03 50.1339V176.145H3774.42V2.16531H3808.72L3836.81 106.304V2.16531H3861.16V176.145H3833.08L3799.03 50.1339ZM3893.91 2.16531V136.378C3893.91 142.674 3895.15 147.065 3897.64 149.551C3900.29 152.036 3903.77 153.279 3908.08 153.279C3912.38 153.279 3915.78 152.036 3918.27 149.551C3920.92 147.065 3922.24 142.674 3922.24 136.378V2.16531H3948.09V134.638C3948.09 148.722 3944.61 159.575 3937.65 167.197C3930.86 174.653 3920.75 178.381 3907.33 178.381C3893.91 178.381 3883.72 174.653 3876.76 167.197C3869.97 159.575 3866.57 148.722 3866.57 134.638V2.16531H3893.91Z" fill="#C5FD64"/>
<circle cx="3470.22" cy="88.5" r="79.0033" stroke="#C5FD64" stroke-width="14.9933"/>
<path d="M3506.55 100.522C3506.55 107.543 3503.35 113.922 3498.03 117.436C3493.56 120.3 3488.65 121.37 3480.14 121.37H3433.31L3437.55 108.712H3475.45C3480.46 108.712 3482.16 108.498 3483.97 107.757C3486.63 106.588 3488.45 103.395 3488.45 99.9957C3488.45 96.9093 3487.06 94.2509 3484.82 92.868C3482.91 91.8063 3480.46 91.3783 3475.56 91.3783H3443.36L3447.42 79.2549H3473.43C3481.74 79.2549 3485.36 76.8105 3485.36 71.2879C3485.36 68.5225 3483.97 65.8639 3481.85 64.5884C3480.03 63.5184 3477.9 63.0987 3473.54 63.0987H3452.83L3457.07 50.4401H3480.99C3488.23 50.4401 3493.02 51.609 3496.64 54.3743C3500.69 57.5678 3503.25 62.9915 3503.25 68.7282C3503.25 75.8558 3499.95 80.6376 3492.7 84.152C3497.29 85.4278 3499.2 86.2755 3501.23 87.9793C3504.63 90.6376 3506.55 95.2056 3506.55 100.522Z" fill="#C5FD64"/>
<path d="M2517.38 2.16531C2531.63 2.16531 2541.9 5.4792 2548.2 12.107C2554.66 18.7348 2557.89 28.7593 2557.89 42.1805V48.3941C2557.89 57.3416 2556.48 64.715 2553.66 70.5143C2550.85 76.3136 2546.37 80.6217 2540.24 83.4385C2547.7 86.2553 2552.92 90.8947 2555.9 97.3568C2559.05 103.653 2560.62 111.441 2560.62 120.72V134.887C2560.62 148.308 2557.14 158.581 2550.18 165.706C2543.23 172.665 2532.87 176.145 2519.12 176.145H2476.12V2.16531H2517.38ZM2503.46 97.8539V151.29H2519.12C2523.76 151.29 2527.24 150.048 2529.56 147.562C2532.04 145.077 2533.28 140.603 2533.28 134.141V118.98C2533.28 110.861 2531.88 105.31 2529.06 102.328C2526.41 99.3451 2521.93 97.8539 2515.64 97.8539H2503.46ZM2503.46 27.0195V72.9997H2514.15C2519.28 72.9997 2523.26 71.6742 2526.08 69.023C2529.06 66.3719 2530.55 61.5668 2530.55 54.6076V44.9145C2530.55 38.6181 2529.39 34.0615 2527.07 31.2447C2524.92 28.4279 2521.44 27.0195 2516.63 27.0195H2503.46ZM2626.8 176.145C2626.47 174.985 2626.14 173.908 2625.8 172.913C2625.47 171.919 2625.14 170.677 2624.81 169.185C2624.64 167.694 2624.48 165.789 2624.31 163.469C2624.31 161.149 2624.31 158.25 2624.31 154.77V127.43C2624.31 119.311 2622.9 113.595 2620.09 110.281C2617.27 106.967 2612.71 105.31 2606.42 105.31H2596.97V176.145H2569.63V2.16531H2610.89C2625.14 2.16531 2635.41 5.4792 2641.71 12.107C2648.17 18.7348 2651.4 28.7593 2651.4 42.1805V55.8503C2651.4 73.7453 2645.44 85.5096 2633.51 91.1433C2640.47 93.9601 2645.19 98.5995 2647.68 105.062C2650.33 111.358 2651.65 119.063 2651.65 128.176V155.018C2651.65 159.327 2651.82 163.138 2652.15 166.451C2652.48 169.6 2653.31 172.831 2654.63 176.145H2626.8ZM2596.97 27.0195V80.456H2607.66C2612.8 80.456 2616.77 79.1304 2619.59 76.4793C2622.57 73.8282 2624.06 69.023 2624.06 62.0639V44.9145C2624.06 38.6181 2622.9 34.0615 2620.58 31.2447C2618.43 28.4279 2614.95 27.0195 2610.15 27.0195H2596.97ZM2750.66 176.145H2723.07L2718.35 144.58H2684.79L2680.07 176.145H2654.97L2682.81 2.16531H2722.82L2750.66 176.145ZM2688.27 120.968H2714.62L2701.45 32.9845L2688.27 120.968ZM2780.29 50.1339V176.145H2755.68V2.16531H2789.98L2818.07 106.304V2.16531H2842.43V176.145H2814.34L2780.29 50.1339ZM2854.54 2.16531H2897.79C2911.54 2.16531 2921.73 5.81059 2928.36 13.1012C2935.15 20.3917 2938.55 31.079 2938.55 45.163V133.147C2938.55 147.231 2935.15 157.918 2928.36 165.209C2921.73 172.499 2911.54 176.145 2897.79 176.145H2854.54V2.16531ZM2881.88 27.0195V151.29H2897.29C2901.6 151.29 2905 150.048 2907.48 147.562C2909.97 145.077 2911.21 140.686 2911.21 134.39V43.9203C2911.21 37.6239 2909.97 33.233 2907.48 30.7476C2905 28.2622 2901.6 27.0195 2897.29 27.0195H2881.88ZM2989.56 144.083L3010.44 2.16531H3035.54L3008.7 176.145H2967.93L2941.09 2.16531H2968.68L2989.56 144.083ZM3068.18 75.4851H3105.71V100.339H3068.18V151.29H3115.41V176.145H3040.84V2.16531H3115.41V27.0195H3068.18V75.4851ZM3182.06 176.145C3181.72 174.985 3181.39 173.908 3181.06 172.913C3180.73 171.919 3180.4 170.677 3180.07 169.185C3179.9 167.694 3179.74 165.789 3179.57 163.469C3179.57 161.149 3179.57 158.25 3179.57 154.77V127.43C3179.57 119.311 3178.16 113.595 3175.34 110.281C3172.53 106.967 3167.97 105.31 3161.68 105.31H3152.23V176.145H3124.89V2.16531H3166.15C3180.4 2.16531 3190.67 5.4792 3196.97 12.107C3203.43 18.7348 3206.66 28.7593 3206.66 42.1805V55.8503C3206.66 73.7453 3200.7 85.5096 3188.77 91.1433C3195.73 93.9601 3200.45 98.5995 3202.93 105.062C3205.58 111.358 3206.91 119.063 3206.91 128.176V155.018C3206.91 159.327 3207.08 163.138 3207.41 166.451C3207.74 169.6 3208.57 172.831 3209.89 176.145H3182.06ZM3152.23 27.0195V80.456H3162.92C3168.05 80.456 3172.03 79.1304 3174.85 76.4793C3177.83 73.8282 3179.32 69.023 3179.32 62.0639V44.9145C3179.32 38.6181 3178.16 34.0615 3175.84 31.2447C3173.69 28.4279 3170.21 27.0195 3165.4 27.0195H3152.23ZM3213.95 43.9203C3213.95 29.8363 3217.27 19.0661 3223.9 11.6099C3230.69 3.98795 3240.8 0.176983 3254.22 0.176983C3267.64 0.176983 3277.66 3.98795 3284.29 11.6099C3291.09 19.0661 3294.48 29.8363 3294.48 43.9203V49.3882H3268.63V42.1805C3268.63 35.8841 3267.39 31.4932 3264.91 29.0078C3262.59 26.3567 3259.27 25.0311 3254.96 25.0311C3250.66 25.0311 3247.26 26.3567 3244.77 29.0078C3242.45 31.4932 3241.29 35.8841 3241.29 42.1805C3241.29 48.1455 3242.62 53.4478 3245.27 58.0872C3247.92 62.561 3251.24 66.869 3255.21 71.0114C3259.19 74.988 3263.41 79.0476 3267.89 83.1899C3272.53 87.1666 3276.84 91.5575 3280.81 96.3626C3284.79 101.168 3288.1 106.636 3290.75 112.766C3293.4 118.897 3294.73 126.105 3294.73 134.39C3294.73 148.474 3291.25 159.327 3284.29 166.948C3277.5 174.405 3267.39 178.133 3253.97 178.133C3240.55 178.133 3230.36 174.405 3223.4 166.948C3216.61 159.327 3213.21 148.474 3213.21 134.39V123.702H3239.06V136.129C3239.06 142.426 3240.3 146.817 3242.79 149.302C3245.44 151.787 3248.92 153.03 3253.22 153.03C3257.53 153.03 3260.93 151.787 3263.41 149.302C3266.07 146.817 3267.39 142.426 3267.39 136.129C3267.39 130.164 3266.07 124.945 3263.41 120.471C3260.76 115.832 3257.45 111.524 3253.47 107.547C3249.5 103.405 3245.19 99.3451 3240.55 95.3685C3236.07 91.2261 3231.85 86.7524 3227.87 81.9472C3223.9 77.1421 3220.58 71.6742 3217.93 65.5435C3215.28 59.4128 3213.95 52.205 3213.95 43.9203ZM3330.28 75.4851H3367.81V100.339H3330.28V151.29H3377.5V176.145H3302.94V2.16531H3377.5V27.0195H3330.28V75.4851Z" fill="#C5FD64"/>
<rect x="1981.72" y="2.38672" width="478.141" height="173.922" fill="#C5FD64"/>
<mask id="mask1_1501_54" style="mask-type:alpha" maskUnits="userSpaceOnUse" x="1981" y="2" width="479" height="175">
<rect x="1981.72" y="2.38672" width="478.141" height="173.922" fill="white"/>
</mask>
<g mask="url(#mask1_1501_54)">
<rect x="2010.42" y="2.38672" width="1.148" height="173.922" fill="black"/>
<rect x="2016.16" y="2.38672" width="9.75799" height="173.922" fill="black"/>
<rect x="2027.64" y="2.38672" width="1.148" height="173.922" fill="black"/>
<rect x="2036.25" y="2.38672" width="1.148" height="173.922" fill="black"/>
<rect x="2038.55" y="2.38672" width="1.148" height="173.922" fill="black"/>
<rect x="2040.84" y="2.38672" width="4.018" height="173.922" fill="black"/>
<rect x="2050.03" y="2.38672" width="1.148" height="173.922" fill="black"/>
<rect x="2083.89" y="2.38672" width="1.148" height="173.922" fill="black"/>
<rect x="2125.22" y="2.38672" width="18.942" height="173.922" fill="black"/>
<rect x="2148.18" y="2.38672" width="6.88799" height="173.922" fill="black"/>
<rect x="2165.4" y="2.38672" width="3.444" height="173.922" fill="black"/>
<rect x="2171.14" y="2.38672" width="3.444" height="173.922" fill="black"/>
<rect x="2211.32" y="2.38672" width="3.444" height="173.922" fill="black"/>
<rect x="2223.95" y="2.38672" width="15.498" height="173.922" fill="black"/>
<rect x="2438.62" y="2.38672" width="15.498" height="173.922" fill="black"/>
<rect x="2086.76" y="2.38672" width="3.444" height="173.922" fill="black"/>
<rect x="2098.24" y="2.38672" width="9.75799" height="173.922" fill="black"/>
<rect x="2215.91" y="2.38672" width="4.018" height="173.922" fill="black"/>
</g>
</svg>
