<?xml version="1.0" encoding="UTF-8"?><svg id="Layer_2" xmlns="http://www.w3.org/2000/svg" viewBox="0 0 1973.18 312.99"><g id="Layer_1-2"><g><path d="M326.97,312.99c-87.15,0-174.3,0-261.46,0C28.06,312.99,.03,285.04,.02,247.67,0,186.85,0,126.02,.01,65.2,.02,28.13,28.1,.01,65.13,0,239.93,0,414.74,0,589.54,0c36.34,0,64.72,27.35,64.97,63.81,.42,61.65,.38,123.31,.01,184.97-.22,36.96-28.52,64.2-65.6,64.2-87.32,0-174.64,0-261.96,0ZM402.83,48.33h-19.01v35.82h-95.41v63.86h77.34v17.24h-77.87v81.88h-35.46v17.49h54.05v-80.63c2.22,0,4.02,0,5.81,0,22.49,0,44.98-.08,67.47,.07,3.78,.03,5.27-.79,5.2-4.93-.24-15.16-.08-30.32-.11-45.48,0-1.43-.26-2.86-.44-4.75h-77.79v-26.36h6.19c20.99,0,41.98,0,62.97,0,7.66,0,15.33,.1,22.98-.2,1.39-.05,3.89-1.78,3.91-2.76,.24-16.96,.17-33.92,.17-51.23ZM186.19,186.15V65.91h35.53v-17.54h-53.94v95.77c-36.13-33.24-71.58-65.85-107.68-99.05V228.74h18.02V86.69c36.16,33.28,71.53,65.83,108.07,99.46Zm35.58,81.81V84.32h-17.84V226.45c-36.22-33.3-71.64-65.86-108.14-99.43v120.11H60.05v17.61h54.18v-95.75c36.11,33.24,71.51,65.81,107.54,98.97ZM594.87,48.42h-126.45v17.73h107.77v17.89h-53.51V228.6h18.52V102.28h53.66V48.42Zm-108.59,53.89v162.37h54.34v-17.89h-35.77V83.75h-54.16V48.27h-18.39v54.04h53.99Zm-216.07-36.47h96.06v-17.44h-114.01V228.7h17.94V65.84Z"/><path d="M1385.06,145.2V56.28h61.63v199.75h-5.26c-17.16,0-34.33-.11-51.49,.09-3.56,.04-5.67-1-7.71-3.97-18.65-27.19-37.48-54.26-56.26-81.36-1.21-1.74-2.44-3.46-4.58-6.48v91.39h-62.11v-5.21c0-62.82,.05-125.63-.1-188.45-.01-4.51,1.11-5.99,5.76-5.93,17.33,.2,34.66,.1,51.98-.15,3.26-.05,5.11,1.04,6.91,3.63,18.83,27.06,37.78,54.05,56.7,81.06,1.14,1.63,2.3,3.25,3.45,4.87l1.08-.32Z"/><path d="M1743.37,256.03c-20.16,0-39.98,.07-59.8-.15-1.47-.02-3.29-1.89-4.31-3.35-19.14-27.46-38.18-54.99-57.25-82.5-1.02-1.47-2.1-2.9-3.93-5.43v91.09h-61.69V56.21c1.91,0,3.98,0,6.04,0,17-.05,33.99-.01,50.99-.23,3.2-.04,5.08,.89,6.92,3.54,19.01,27.35,38.18,54.59,57.31,81.86,.94,1.33,1.95,2.61,3.82,5.11V56.31h61.9v199.72Z"/><path d="M1904.6,181.56h-33.3v-39.21h101.07c5.51,50.68-16.77,95.84-68.33,115.27-49.98,18.84-106.84-4.17-131.53-51.84-20.13-38.85-18.38-100.44,35.4-138.15,41.4-29.03,101.27-23.35,135.39,13.39-15.16,13.89-30.33,27.78-45.78,41.93-10.85-10.95-24.22-12.68-38.42-10.31-12.71,2.12-22.31,9.34-29.22,20.02-13.6,21.02-6.6,49.95,15,62.77,20.2,12,49.2,5.5,59.73-13.87Z"/><path d="M772.23,199.6h81.53v56.09h-143.7V56.32h143.29v54.62h-81.23v18.35h79.65v50.35h-79.55v19.96Z"/><path d="M1093.85,255.64V56.41h143.53v54.38h-81.31v18.5h79.69v50.3h-79.54v19.77h81.43v56.29h-143.8Z"/><path d="M1082.75,56.27c-4.78,12.7-9.16,24.33-13.53,35.97-19.87,52.93-39.77,105.84-59.5,158.82-1.45,3.9-3.34,5.12-7.47,5.07-20.15-.23-40.31-.17-60.47-.03-3.08,.02-4.66-.72-5.8-3.8-23.86-64.04-47.85-128.02-71.8-192.03-.4-1.06-.66-2.17-1.11-3.65,.89-.14,1.48-.32,2.07-.32,20.16-.02,40.31,.1,60.47-.14,3.92-.05,4.23,2.48,5.12,4.84,13.1,34.86,26.17,69.74,39.25,104.61,.74,1.98,1.54,3.94,2.65,6.77,4.31-11.35,8.32-21.89,12.32-32.45,9.94-26.28,19.97-52.53,29.7-78.89,1.42-3.85,3.24-4.92,7.18-4.88,18.32,.22,36.65,.1,54.97,.1,1.63,0,3.26,0,5.95,0Z"/><path d="M1532.44,255.81h-61.44V56.3h61.44V255.81Z"/></g></g></svg>