<?xml version="1.0" encoding="utf-8"?>
<!-- Generator: Adobe Illustrator 26.3.1, SVG Export Plug-In . SVG Version: 6.00 Build 0)  -->
<svg version="1.1" id="Layer_2_00000111904628140418453900000016206349109721711796_"
	 xmlns="http://www.w3.org/2000/svg" xmlns:xlink="http://www.w3.org/1999/xlink" x="0px" y="0px" viewBox="0 0 144.5 34.1"
	 style="enable-background:new 0 0 144.5 34.1;" xml:space="preserve">
<g id="Layer_1-2">
	<g>
		<g>
			<path d="M16.4,33.3c-0.2,0.5-0.4,0.9-0.9,0.9s-0.6-0.3-0.9-0.9L3.2,5.5C2,2.6,0,3.8,0,2.8c0-0.3,0.2-0.5,0.6-0.5
				c2.4,0,4.8,0.1,7.3,0.1s4.7-0.1,7-0.1c0.7,0,1,0.1,1,0.5c0,0.9-2.8,0.4-2.8,2.6c0,0.9,0.7,2.7,6.4,17.1h0.1
				C23.5,12.3,25,9.2,25,7.1c0-4.6-3.9-3.2-3.9-4.3c0-0.4,0.2-0.5,0.8-0.5c1.6,0,3.5,0.1,4.7,0.1c2.1,0,3.5-0.1,5.1-0.1
				c0.4,0,0.7,0.1,0.7,0.4c0,1.2-3.3-0.2-6,6.2L16.4,33.3L16.4,33.3z M37.4,15.2c0-1.5-0.5-1.9-1.4-1.9c-1.5,0-2.6,0.8-2.6,2.2
				c0,1.1,0.2,2.2,0.2,3.3c0,2.1-1.4,3.5-3.9,3.5s-3.5-1.1-3.5-2.8c0-3.7,6.7-7.3,12.7-7.3c5,0,6.8,2.1,6.8,5.8v12.3
				c0,0.5,0.3,0.9,0.8,0.9c1.2,0,1.4-1.6,2.1-1.6c0.2,0,0.4,0.2,0.4,0.4c0,0.5-1.6,3.8-6.5,3.8c-3,0-4.3-1.1-4.8-2.9
				c-2.5,2-4.6,2.9-6.9,2.9c-3.8,0-5.4-2.2-5.4-4.2c0-3.6,2.6-4.7,12-8C37.4,21.6,37.4,15.2,37.4,15.2z M37.4,22.6
				c-2.8,1.1-3.7,2.5-3.7,4.5c0,3,0.7,3.8,1.9,3.8c0.8,0,1.4-0.5,1.8-1V22.6z M99.5,12.2c5.9,0,9.1,3.9,9.1,6.9
				c0,2.6-1.6,3.8-3.6,3.8c-1.9,0-3.5-1.3-3.5-3.8c0-1.5,0.3-3,0.3-3.9c0-1.5-0.9-2.2-2.3-2.2c-2.2,0-3.9,2.9-3.9,6.4
				c0,6.1,3.7,9.3,7.1,9.3c4.7,0,4.4-3,5.4-3c0.3,0,0.4,0.2,0.4,0.5c0,1.2-2.8,7.5-10.2,7.5c-4.9,0-10.2-3.6-10.2-10.3
				S93.8,12.2,99.5,12.2C99.5,12.2,99.5,12.2,99.5,12.2z M119.9,30.7c0,2.2,2.7,1.4,2.7,2.3c0,0.2-0.1,0.5-0.5,0.5
				c-1.7,0-3.7-0.1-6-0.1s-4.3,0.1-6,0.1c-0.4,0-0.5-0.2-0.5-0.5c0-1,2.7-0.1,2.7-2.3V5.4c0-2.3-2.8-1.7-2.8-2.6
				c0-1,2.8,0.1,10.6-2.8L119.9,30.7L119.9,30.7z M121.4,22.2c4.1-3.5,5.1-4.4,5.1-6c0-3.2-2.7-2.3-2.7-3.3c0-0.3,0.2-0.4,0.6-0.4
				c0.9,0,2.8,0.1,4.6,0.1c2.2,0,3.8-0.1,4.8-0.1c0.6,0,0.7,0.2,0.7,0.5c0,0.9-3.2-0.1-7.6,4.9l7.3,12.8c1.3,2.3,3,1.2,3,2.3
				c0,0.4-0.2,0.5-1.1,0.5c-1.8,0-3.6-0.1-5.8-0.1c-1.9,0-3.7,0.1-5.6,0.1c-0.5,0-0.7-0.1-0.7-0.5c0-0.7,1.6-0.3,1.6-1.6
				c0-0.7-0.5-1.5-0.9-2.3L121.4,22.2L121.4,22.2L121.4,22.2z M86,9.5c0.1,0.3,0.5,0.2,0.5-0.1l-0.1-6.9c0,0,0,0,0-0.1
				c0,0-0.1-0.1-0.1-0.1c-5.6,0-11.2,0.1-17.1,0.1c-3.3,0-6-0.1-7.7-0.1c-0.5,0-0.7,0.1-0.7,0.5c0,1.5,3.8-0.3,3.8,2.9v3.5
				c0,0.3,0.3,0.5,0.6,0.4c0.8-0.3,1.7-0.5,2.6-0.5c2.1,0,3.9,0.9,5.3,2.3c0.3,0.3,0.7,0.1,0.7-0.3V3.8c0-0.2,0.2-0.4,0.4-0.4
				c2.1,0.1,5.1,0.4,6.8,1.3c1.7,0.8,2.7,1.3,3.6,2.5C85.4,8,85.7,8.8,86,9.5L86,9.5L86,9.5z M63.7,33.5c-0.4,0-0.5-0.2-0.5-0.5
				c0-1,2.3-0.1,2.3-2.3V17.8c0-2-1.1-2.7-2.2-2.7c-1.2,0-2.5,0.9-3.4,1.8v13.8c0,2.2,2.3,1.4,2.3,2.3c0,0.2-0.1,0.5-0.5,0.5
				c-1.4,0-3.3-0.1-5.7-0.1s-4.3,0.1-6,0.1c-0.4,0-0.5-0.2-0.5-0.5c0-1,2.7-0.1,2.7-2.3V17.6c0-3.1-3-2.6-3-3.4
				c0-0.7,2.9,0.1,10.8-1.9v3.2c3.2-2.5,5-3.2,7.6-3.2c4.6,0,5.8,2.8,5.8,6.8v11.6c0,1.2,0.8,1.5,1.4,1.7c1.9,0.1,4.4-0.5,5.9-1.3
				c1.7-0.8,2.7-1.3,3.6-2.5c0.7-0.9,1.1-1.7,1.3-2.4c0.1-0.3,0.5-0.2,0.5,0.1l0,7c0,0,0,0,0,0.1c0,0-0.1,0.1-0.1,0.1L63.7,33.5
				L63.7,33.5z"/>
			<path d="M80.7,22.3c0.1,0.6,0.1,1.1,0.5,1.1c0.2,0,0.4-0.1,0.4-0.5V11.5c0-0.4-0.2-0.4-0.4-0.4c-0.4,0-0.4,0.5-0.5,1.1
				c-0.3,2.1-2.3,3.9-5.1,4.3c-0.1,0-0.2,0.1-0.1,0.2c0,0.3,0.1,0.5,0.1,0.7c0,0.1,0.1,0.1,0.1,0.1C78.4,18,80.3,19.8,80.7,22.3
				L80.7,22.3z"/>
		</g>
		<path d="M137.3,5.8c0-2,1.6-3.6,3.6-3.6s3.6,1.6,3.6,3.6s-1.6,3.6-3.6,3.6S137.3,7.8,137.3,5.8z M137.9,5.8c0,1.7,1.4,3,3,3
			s3-1.3,3-3s-1.4-3-3-3S137.9,4.2,137.9,5.8L137.9,5.8z M142.5,7.9h-0.7l-1-1.8h-0.7v1.8h-0.6v-4h1.7c0.7,0,1.4,0.2,1.4,1.1
			c0,0.8-0.5,1.1-1.1,1.1L142.5,7.9L142.5,7.9L142.5,7.9z M140.1,4.5v1h0.6c0.5,0,1.3,0.1,1.3-0.4c0-0.5-0.4-0.5-0.9-0.5L140.1,4.5
			L140.1,4.5z"/>
	</g>
</g>
</svg>
