<svg width="833" height="303" viewBox="0 0 833 303" fill="none" xmlns="http://www.w3.org/2000/svg">
<rect width="833" height="303" fill="white"/>
<mask id="mask0_465_436" style="mask-type:alpha" maskUnits="userSpaceOnUse" x="0" y="0" width="833" height="303">
<rect width="833" height="303" fill="white"/>
</mask>
<g mask="url(#mask0_465_436)">
<rect x="50" width="2" height="303" fill="black"/>
<rect x="60" width="17" height="303" fill="black"/>
<rect x="80" width="2" height="303" fill="black"/>
<rect x="95" width="2" height="303" fill="black"/>
<rect x="99" width="2" height="303" fill="black"/>
<rect x="103" width="7" height="303" fill="black"/>
<rect x="119" width="2" height="303" fill="black"/>
<rect x="178" width="2" height="303" fill="black"/>
<rect x="250" width="33" height="303" fill="black"/>
<rect x="290" width="12" height="303" fill="black"/>
<rect x="320" width="6" height="303" fill="black"/>
<rect x="330" width="6" height="303" fill="black"/>
<rect x="400" width="6" height="303" fill="black"/>
<rect x="422" width="27" height="303" fill="black"/>
<rect x="796" width="27" height="303" fill="black"/>
<rect x="183" width="6" height="303" fill="black"/>
<rect x="203" width="17" height="303" fill="black"/>
<rect x="408" width="7" height="303" fill="black"/>
</g>
</svg>
