<svg width="178" height="178" viewBox="0 0 178 178" fill="none" xmlns="http://www.w3.org/2000/svg"><g clip-path="url(#clip0_601_42)" stroke="#000" stroke-width="5" stroke-miterlimit="10"><path d="M144.449 144.45a79.506 79.506 0 01-1.772 1.718 78.102 78.102 0 01-48.846 21.096c-20.882 1.281-42.18-5.755-58.51-21.096a78.851 78.851 0 01-3.489-3.489c-15.35-16.33-22.387-37.628-21.096-58.51a78.092 78.092 0 0121.096-48.843 78.947 78.947 0 011.716-1.773 78.42 78.42 0 01112.618 1.772 78.419 78.419 0 01-1.717 109.125z"/><path d="M98.799 98.796c30.624-30.624 51.064-59.837 45.652-65.248-5.411-5.411-34.623 15.028-65.248 45.653-30.624 30.624-51.064 59.837-45.653 65.248 5.411 5.411 34.624-15.028 65.249-45.653z"/><path d="M98.799 98.796c30.624-30.624 51.064-59.837 45.652-65.248-5.411-5.411-34.623 15.028-65.248 45.653-30.624 30.624-51.064 59.837-45.653 65.248 5.411 5.411 34.624-15.028 65.249-45.653z"/><path d="M118.072 118.071c30.625-30.624 42.435-68.466 26.379-84.522-16.055-16.055-53.897-4.245-84.522 26.38-30.624 30.624-42.434 68.466-26.379 84.521 16.056 16.056 53.898 4.246 84.522-26.379z"/><path d="M131.531 131.531c30.625-30.625 36.409-74.493 12.92-97.982-23.489-23.489-67.356-17.704-97.98 12.92-30.625 30.625-36.41 74.492-12.92 97.981 23.488 23.489 67.356 17.705 97.98-12.919z"/><path d="M33.55 144.449a77.22 77.22 0 01-1.716-1.772 78.096 78.096 0 01-21.096-48.846C9.455 72.949 16.49 51.65 31.834 35.32a78.814 78.814 0 013.489-3.489c16.33-15.35 37.627-22.387 58.51-21.096a78.106 78.106 0 0148.844 21.098c.599.56 1.189 1.132 1.772 1.716a78.424 78.424 0 01.001 110.9A78.426 78.426 0 0189 167.417a78.424 78.424 0 01-55.45-22.969z"/><path d="M144.451 144.451c5.412-5.412-15.028-34.624-45.652-65.249C68.174 48.578 38.96 28.138 33.55 33.55c-5.41 5.41 15.029 34.623 45.653 65.248 30.625 30.624 59.837 51.064 65.248 45.653z"/><path d="M144.451 144.451c5.412-5.412-15.028-34.624-45.652-65.249C68.174 48.578 38.96 28.138 33.55 33.55c-5.41 5.41 15.029 34.623 45.653 65.248 30.625 30.624 59.837 51.064 65.248 45.653z"/><path d="M144.451 144.451c16.056-16.056 4.246-53.898-26.379-84.522-30.624-30.625-68.466-42.435-84.522-26.38-16.055 16.056-4.245 53.898 26.38 84.522 30.624 30.625 68.466 42.435 84.521 26.38z"/><path d="M144.451 144.451c23.489-23.489 17.705-67.357-12.92-97.982-30.624-30.624-74.492-36.409-97.98-12.92-23.49 23.49-17.705 67.357 12.92 97.982 30.623 30.624 74.491 36.409 97.98 12.92z"/></g><defs><clipPath id="clip0_601_42"><path fill="#fff" d="M0 0h178v178H0z"/></clipPath></defs></svg>