<svg width="120" height="26" viewBox="0 0 120 26" fill="none" xmlns="http://www.w3.org/2000/svg"><g clip-path="url(#clip0_1116_235)" fill-rule="evenodd" clip-rule="evenodd" fill="#000"><path d="M16.707 6.658H8.373V.637H0v24.987h16.707c2.2 0 3.99-1.777 3.99-3.962V10.625c0-2.185-1.79-3.967-3.99-3.967zM8.353 20.085h3.978v-7.89H8.353v7.89zM116.015 6.663h-12.683a3.975 3.975 0 00-3.978 3.968v11.031a3.978 3.978 0 003.978 3.967h12.683c2.195 0 3.985-1.782 3.985-3.967v-11.03c0-2.192-1.79-3.969-3.985-3.969zm-8.327 13.422h3.971v-7.89h-3.971v7.89zm-50.222 0H53.49v-7.89h3.977l.02 2.847 8.307-.008v-4.41a3.969 3.969 0 00-3.977-3.961H49.133a3.969 3.969 0 00-3.978 3.961v11.038a3.969 3.969 0 003.978 3.962h12.683a3.97 3.97 0 003.977-3.962v-4.423h-8.306l-.02 2.845zm9.846 5.539h8.36V6.664h-8.36v18.96zm-32.036 0h8.347V6.658h-8.347v18.966zM34.07 6.658h-3.488V.65h-8.38v21.033c0 2.184 1.783 3.954 3.977 3.954h7.89V20.25h-3.487v-8.33h3.487V6.658zm51.427 18.966V12.196h3.978v13.427h8.328V10.625a3.97 3.97 0 00-3.978-3.962H77.17v18.96h8.326z"/></g><defs><clipPath id="clip0_1116_235"><path fill="#fff" transform="translate(0 .637)" d="M0 0h120v25H0z"/></clipPath></defs></svg>