<svg width="111" height="84" viewBox="0 0 111 84" fill="none" xmlns="http://www.w3.org/2000/svg">
<g clip-path="url(#clip0_465_750)">
<path d="M109.424 31.2478C109.28 31.9031 109.541 32.4913 110.049 33.0925C111.342 34.628 111.299 37.0544 110.025 38.8882C107.501 42.5257 104.235 45.3544 100.372 47.5105C97.4637 49.1346 94.6688 50.9036 92.5584 53.5354C92.1704 54.0177 91.8739 54.0372 91.4095 53.6933C88.5231 51.548 85.6344 49.4027 82.7262 47.2877C82.1681 46.8812 82.3338 46.5546 82.6411 46.1329C83.6571 44.7359 84.6032 43.2978 84.9521 41.5677C85.2486 40.1036 85.1221 38.6331 84.9717 37.169C84.7907 35.4108 84.7711 33.6483 84.8845 31.8944C85.0763 28.949 87.263 27.3033 90.1211 28.0494C91.512 28.4127 92.2838 28.1099 93.0664 26.9313C94.3723 24.9612 95.846 23.0992 97.3045 21.2351C98.0327 20.3052 98.8415 19.2541 100.235 19.598C101.741 19.97 102.609 21.0707 102.79 22.5975C102.864 23.2268 103.112 23.4214 103.71 23.5317C105.519 23.8669 106.411 24.9158 106.529 26.7821C106.563 27.3487 106.753 27.699 107.313 27.9218C108.909 28.5576 109.443 29.4096 109.424 31.2522V31.2478Z" fill="black"/>
<path d="M94.0062 72.309C94.0062 69.0024 94.028 65.6958 93.991 62.3892C93.9822 61.5977 94.2177 61.3317 95.0396 61.3361C99.7486 61.3707 104.46 61.3707 109.169 61.3361C109.993 61.3296 110.211 61.5999 110.213 62.3892C110.22 65.1335 110.248 65.1314 107.514 65.1335C104.833 65.1335 102.151 65.1638 99.4717 65.1184C98.5648 65.1033 98.2334 65.4169 98.2923 66.3014C98.3468 67.1253 98.3468 67.9557 98.2923 68.7797C98.2291 69.7117 98.591 70.0513 99.5415 70.0383C102.404 69.995 105.266 70.0642 108.127 70.0015C109.145 69.9799 109.415 70.3151 109.393 71.2904C109.337 73.6109 109.382 73.613 107.03 73.613C104.53 73.613 102.031 73.6368 99.5306 73.6001C98.652 73.5871 98.2661 73.8855 98.2945 74.7808C98.3337 76.0373 98.3359 77.2981 98.2945 78.5546C98.2661 79.4044 98.628 79.6877 99.4565 79.6791C102.753 79.6531 106.051 79.6942 109.348 79.6531C110.231 79.6423 110.566 79.8975 110.542 80.8058C110.464 83.6496 110.887 83.2971 108.083 83.3079C103.88 83.3252 99.6788 83.3144 95.4756 83.3122C94.0149 83.3122 94.0106 83.3058 94.0106 81.9022C94.0106 78.7038 94.0106 75.5053 94.0106 72.3068L94.0062 72.309Z" fill="black"/>
<path d="M73.8248 72.2421C73.9469 73.6867 73.8641 74.9973 74.2914 76.3056C75.0108 78.5006 76.8094 79.9734 79.1748 80.0253C81.5032 80.0772 83.3083 78.7948 83.9994 76.4894C84.2457 75.6677 84.6796 75.4514 85.4339 75.6871C86.1926 75.9228 86.936 76.2018 87.699 76.4224C88.3182 76.6019 88.4729 76.9393 88.2942 77.5469C87.4178 80.514 84.9543 83.2345 81.283 83.5178C79.3797 83.6649 77.4591 83.8076 75.606 83.0918C72.4296 81.8678 70.5634 79.5344 69.6521 76.3381C69.142 74.5453 69.0984 72.7071 69.2793 70.9013C69.6805 66.9049 71.3896 62.9106 76.2731 61.5417C79.8572 60.5361 83.2996 60.8561 86.2035 63.4945C87.0951 64.3033 87.6402 65.3478 88.0849 66.4572C88.3792 67.1882 88.1459 67.5774 87.4265 67.6834C86.8161 67.7742 86.2383 67.9343 85.6475 68.1008C84.7668 68.3495 84.0539 68.4771 83.4958 67.2336C82.5976 65.2354 80.7314 64.5498 78.5426 64.7747C76.768 64.9585 74.9694 66.5178 74.3393 68.2392C73.8401 69.5994 73.9317 70.9922 73.8248 72.2443V72.2421Z" fill="black"/>
<path d="M77.0951 20.6774C76.7986 20.7076 76.6831 20.5757 76.5523 20.4481C74.3591 18.3223 72.1594 16.2051 69.964 14.0793C69.4996 13.6295 69.4473 13.1667 69.9313 12.678C70.8687 11.7351 71.7888 10.7749 72.7284 9.83632C73.3214 9.24377 73.8555 9.73684 74.4071 9.95526C74.8736 10.1412 75.4143 10.7597 75.8001 10.364C76.1686 9.98338 75.5429 9.47517 75.2747 9.08807C74.7144 8.27494 74.7079 7.64346 75.5145 6.94711C76.3822 6.19669 77.1736 5.34463 77.9192 4.46879C78.5732 3.70323 79.2338 3.53671 80.0601 4.12926C80.3893 4.36498 80.8384 4.65261 81.1283 4.38012C81.4488 4.08168 81.0433 3.67728 80.8994 3.32262C80.6596 2.74088 80.0906 2.22402 80.8013 1.51037C81.9175 0.387988 82.1726 0.327436 83.3389 1.44982C85.3316 3.36587 87.3067 5.29922 89.2972 7.21743C89.6438 7.55047 89.8662 7.80782 89.4105 8.26845C85.4929 12.2303 81.5949 16.2116 77.6881 20.1821C77.4897 20.3832 77.2543 20.5454 77.0951 20.6774Z" fill="black"/>
<path d="M0.477596 72.2633C0.477596 68.9567 0.495037 65.6501 0.464515 62.3414C0.457975 61.6147 0.649824 61.3336 1.43248 61.3379C5.77961 61.3704 10.1289 61.3639 14.4782 61.3423C15.1584 61.3379 15.4266 61.5239 15.4506 62.2462C15.5465 65.1333 15.5705 65.1311 12.6818 65.1311C10.4341 65.1311 8.18862 65.1614 5.94312 65.116C5.05363 65.0987 4.69392 65.3928 4.7506 66.2924C4.80946 67.2223 4.8051 68.1631 4.7506 69.0951C4.69392 70.0618 5.16482 70.3602 6.0543 70.3538C8.33687 70.3343 10.6216 70.3819 12.902 70.3343C13.8024 70.3148 14.0902 70.6241 14.0858 71.5129C14.0749 73.9869 14.1098 73.9891 11.6506 73.9891C9.72996 73.9891 7.80929 74.0172 5.88861 73.9783C5.03837 73.9609 4.73534 74.2724 4.74842 75.1114C4.78548 77.447 4.7288 79.7848 4.77676 82.1204C4.7942 82.9876 4.54785 83.392 3.62131 83.3228C2.89969 83.2687 2.17154 83.2838 1.44774 83.3184C0.684706 83.3552 0.457975 83.0243 0.464515 82.2912C0.495037 78.9479 0.477596 75.6045 0.477596 72.2633Z" fill="black"/>
<path d="M92.4169 10.7377C92.0223 13.2873 91.6517 15.8414 91.2179 18.3824C91.1067 19.0268 91.231 19.4507 91.7258 19.8854C92.5303 20.5947 93.2367 21.4165 94.0411 22.1258C94.464 22.4978 94.4902 22.807 94.1959 23.2266C93.7272 23.897 93.2737 24.5782 92.8006 25.2443C92.4823 25.6898 92.1837 25.7114 91.7912 25.2594C90.9715 24.3144 90.0886 23.4277 89.2558 22.4935C88.9135 22.1107 88.5538 21.9269 88.0262 22.0177C85.6412 22.4329 83.254 22.8308 80.8646 23.2287C80.3043 23.3217 79.7331 23.538 79.1772 23.205C77.9803 22.4891 77.9258 21.9225 78.9744 20.8564C82.6675 17.1021 86.3628 13.3501 90.0711 9.61095C90.3894 9.29089 90.6772 8.55993 91.1917 8.89946C91.8 9.29954 92.5892 9.75584 92.4126 10.7355L92.4169 10.7377Z" fill="black"/>
<path d="M45.9413 38.3004C47.4957 36.4752 49.2834 35.6902 51.4308 35.8869C54.1624 36.14 56.1115 37.4786 56.2074 40.4197C56.3273 44.081 56.2684 47.7487 56.2989 51.4143C56.3033 51.9658 56.0569 52.1539 55.5228 52.2015C53.7439 52.3615 53.6414 52.2837 53.6414 50.4822C53.6414 47.9671 53.6109 45.4499 53.6567 42.9348C53.6741 41.9833 53.5019 41.0772 53.2708 40.1775C52.9852 39.0681 51.7055 38.2723 50.3058 38.2766C47.9557 38.2853 46.3816 39.6823 46.3097 42.0222C46.2181 45.0022 46.1963 47.9888 46.2748 50.9688C46.3075 52.1928 45.6753 52.2188 44.8011 52.2036C43.9683 52.1885 43.2794 52.2685 43.3033 51.0013C43.384 46.4728 43.3666 41.9422 43.3099 37.4159C43.2968 36.4081 43.6631 36.2113 44.5634 36.2395C45.3919 36.2654 46.1266 36.207 45.8955 37.3856C45.8562 37.5867 45.9151 37.8095 45.9456 38.2961L45.9413 38.3004Z" fill="black"/>
<path d="M64.3808 30.8936C64.3808 32.3749 64.4179 33.8455 64.3655 35.3096C64.3372 36.0643 64.5835 36.3779 65.3444 36.2697C65.521 36.2438 65.7085 36.2806 65.8872 36.2633C66.6328 36.1897 67.0907 36.2957 67.0601 37.2624C67.0318 38.1404 66.8073 38.454 65.8872 38.4258C64.2064 38.3718 64.3895 38.2182 64.383 39.905C64.3743 42.5629 64.3764 45.2228 64.383 47.8807C64.3873 49.4053 64.7601 49.8356 66.2557 49.84C67.531 49.8421 67.119 50.8391 67.2869 51.4597C67.4635 52.115 67.0078 52.3659 66.4214 52.394C65.4534 52.4372 64.5072 52.5216 63.548 52.1215C62.4165 51.65 61.8388 50.9039 61.7407 49.7124C61.4682 46.449 61.6535 43.1792 61.6251 39.9137C61.6164 38.9232 61.5532 38.2334 60.243 38.3783C59.2292 38.4907 59.6827 37.6062 59.5998 37.1283C59.5104 36.6244 59.5867 36.1573 60.3018 36.2719C61.4028 36.4492 61.7341 35.9086 61.6121 34.9224C61.6077 34.8878 61.6164 34.8489 61.6121 34.8143C61.2175 32.6928 62.1462 31.4234 64.383 30.8936H64.3808Z" fill="black"/>
<path d="M35.8888 44.2517C35.8888 41.9161 35.915 39.5805 35.8735 37.2449C35.8605 36.5226 36.0261 36.2198 36.8241 36.2501C38.8843 36.3301 38.6205 36.0036 38.627 38.0234C38.6423 42.3356 38.6379 46.6478 38.6226 50.96C38.6226 51.3558 38.845 51.944 38.3044 52.0975C37.5806 52.303 36.7848 52.3441 36.0697 52.0435C35.734 51.9029 35.8975 51.4574 35.8953 51.1503C35.8844 48.8515 35.8888 46.5505 35.8888 44.2495V44.2517Z" fill="black"/>
<path d="M38.6313 31.8859C38.5288 32.2752 38.8907 33.0169 38.3762 33.1726C37.6829 33.3824 36.8785 33.2613 36.1242 33.2224C35.8691 33.2094 35.8974 32.898 35.8931 32.6904C35.8865 32.2946 35.9323 31.8946 35.88 31.5075C35.7427 30.4997 36.0915 30.091 37.175 30.1537C38.6269 30.238 38.6313 30.171 38.6313 31.8859Z" fill="black"/>
<path d="M13.6213 40.8828C12.6969 37.8011 10.3533 35.9607 7.4952 35.8569C5.55055 35.7856 4.05281 36.5857 2.76873 38.0065C2.51584 36.8042 1.73754 36.2303 0.433841 36.2851C0.289954 36.2916 0.143887 36.2916 0 36.2938V58.3002C0.0719434 58.2916 0.143887 58.2765 0.21583 58.2786C2.04566 58.3262 2.96058 57.4388 2.96058 55.6165V50.9323C3.24836 51.0924 3.34864 51.1291 3.42276 51.1918C6.72126 54.04 11.2733 52.1455 12.867 49.1114C14.2557 46.4687 14.4715 43.7114 13.6235 40.8785L13.6213 40.8828ZM10.4013 48.2031C9.71018 49.6845 8.30838 50.4955 6.59263 50.37C4.89869 50.2468 3.74542 49.3017 3.07831 47.7468C2.61176 46.6612 2.5311 45.528 2.55508 44.5981C2.51802 42.3144 2.81887 40.3616 4.53462 38.9429C6.49889 37.3167 9.28942 37.8227 10.3947 40.0999C11.6854 42.7642 11.6374 45.5518 10.4013 48.2031Z" fill="black"/>
<path d="M64.9016 81.5757C63.2578 79.0736 62.0566 76.2406 59.5582 74.3484C58.6229 73.639 59.556 73.5244 59.9724 73.4098C63.1008 72.5448 64.7534 69.8632 64.241 66.6106C63.8159 63.9074 62.449 61.9049 58.588 61.5783C54.8252 61.2582 51.0623 61.4312 47.3016 61.3426C46.4906 61.3231 46.3511 61.667 46.3576 62.3655C46.3838 65.6699 46.3685 68.9765 46.3685 72.2831C46.3685 74.9777 46.3685 77.6723 46.3685 80.3668C46.3685 83.3707 46.3685 83.3404 49.4163 83.3339C50.3341 83.3317 50.7004 83.0895 50.6721 82.112C50.6067 79.8154 50.659 77.5144 50.6481 75.2134C50.6459 74.649 50.7702 74.104 51.4177 74.1494C52.8391 74.251 54.3237 74.2143 55.4007 75.4491C56.7764 77.0256 57.9405 78.7471 59.0197 80.5247C60.7114 83.308 60.6962 83.3166 63.8988 83.3166C65.8914 83.3166 65.996 83.2474 64.8972 81.5757H64.9016ZM57.7857 70.5055C55.6558 71.1456 53.48 70.726 51.3239 70.7888C50.8465 70.8017 50.6633 70.4081 50.6612 69.9626C50.659 68.6002 50.6655 67.2378 50.659 65.8754C50.6568 65.3044 50.9925 65.1379 51.4961 65.1401C52.4728 65.1444 53.4473 65.1401 54.424 65.1401V65.1617C55.3288 65.1617 56.2313 65.1379 57.1361 65.1682C58.3918 65.2093 59.5298 66.176 59.6584 67.2637C59.8699 69.0587 59.29 70.0535 57.7857 70.5055Z" fill="black"/>
<path d="M40.6263 68.3001C39.8589 65.4001 38.1344 63.2267 35.3417 62.0221C33.1093 61.0598 30.7788 60.8608 28.3436 61.2522C26.4578 61.555 24.7769 62.1605 23.386 63.4559C21.2626 65.4368 20.142 67.8697 20.0265 70.7806C19.9175 73.5249 19.8521 76.2606 21.2822 78.7411C23.3381 82.3072 26.5297 83.808 30.5063 83.6025C36.0197 83.8837 39.1831 80.8496 40.4366 77.2272C41.4417 74.3229 41.4155 71.2888 40.6263 68.3023V68.3001ZM34.1034 78.8319C31.35 80.9901 27.0879 80.2505 25.516 77.1364C23.8373 73.8125 23.8024 70.3416 25.8539 67.102C27.1445 65.0649 29.2396 64.4918 31.5331 64.801C33.5649 65.0757 35.0605 66.2348 35.8802 68.1076C36.4579 69.4246 36.6869 70.8433 36.7544 72.396C36.5408 74.7381 36.2378 77.158 34.1056 78.8319H34.1034Z" fill="black"/>
<path d="M31.6441 51.667C30.7154 49.4871 31.2691 47.1883 31.0729 45.1079C31.0729 43.3324 31.134 41.7105 31.0555 40.0972C30.9792 38.5358 30.2925 37.2534 28.7642 36.6241C25.8254 35.4152 22.891 35.5601 20.059 36.9312C18.8251 37.5302 17.9989 38.5812 17.7525 39.9912C17.7176 40.1924 17.5192 40.4129 17.7329 40.5881C18.3062 41.0617 19.0257 40.9579 19.7015 41.0444C20.264 41.1158 20.373 40.7135 20.4972 40.3524C20.7676 39.5782 21.2101 38.8991 21.947 38.5661C23.6061 37.8178 25.3131 37.8178 26.97 38.5942C27.914 39.0375 28.677 40.5686 28.4176 41.5959C28.1734 42.5625 27.212 42.3939 26.4838 42.5863C24.5239 43.1075 22.455 42.9843 20.5103 43.6157C18.6572 44.2169 17.105 46.0075 17.0679 47.8566C17.0331 49.5477 17.8637 51.334 19.9261 52.0931C22.6425 53.09 25.1605 52.6294 27.5085 51.0247C28.5179 50.3349 28.5375 50.3284 28.871 51.481C28.9844 51.8703 29.1305 52.1558 29.5665 52.1687C30.2467 52.1882 30.9399 52.3288 31.5983 52.0498C31.6594 52.0239 31.6877 51.7752 31.6419 51.667H31.6441ZM22.9281 50.4949C21.269 50.4041 20.0961 49.4785 20.0045 48.1896C19.9064 46.7861 20.857 45.7026 22.5771 45.428C24.3473 45.1447 26.1219 44.963 27.8529 44.4267C28.7598 44.1477 28.2802 45.0647 28.4437 45.3609C28.3718 48.6243 26.1415 50.6701 22.9281 50.4906V50.4949Z" fill="black"/>
</g>
<defs>
<clipPath id="clip0_465_750">
<rect width="111" height="83" fill="white" transform="translate(0 0.636719)"/>
</clipPath>
</defs>
</svg>
