<svg width="79" height="61" viewBox="0 0 79 61" fill="none" xmlns="http://www.w3.org/2000/svg">
<g clip-path="url(#clip0_465_688)">
<path d="M20.5033 31.193C15.2977 29.1359 10.2051 29.3479 5.1582 31.8447C5.19193 31.3638 5.21177 30.9319 5.25541 30.504C5.66012 26.537 6.67387 22.7349 8.42165 19.1329C9.92541 16.0375 11.9033 13.2737 14.3078 10.7965C16.2936 8.75116 18.4223 6.88052 20.8386 5.34749C24.479 3.03323 28.4288 1.52769 32.7219 0.942742C40.8974 -0.172186 48.3011 1.75931 54.9312 6.58019C59.5913 9.96816 63.067 14.3258 65.4952 19.5098C65.5428 19.6099 65.6004 19.7061 65.6321 19.8101C65.7095 20.0634 65.8722 20.1321 66.132 20.1301C67.5763 20.1183 69.0186 20.1065 70.4628 20.134C71.0441 20.1458 71.6432 20.1831 72.2007 20.3323C74.4166 20.9231 76.0791 22.9645 76.2477 25.2297C76.2596 25.3867 76.2676 25.5438 76.2676 25.7008C76.2676 28.2585 76.2676 30.8181 76.2676 33.3758C76.2676 33.4818 76.2537 33.5897 76.2398 33.7919C74.5813 32.4925 72.8276 31.4874 70.8893 30.8083C68.9412 30.1252 66.9335 29.7876 64.8723 29.7974C62.8111 29.8072 60.8054 30.1625 58.8652 30.8652C56.9269 31.5699 55.1693 32.5808 53.5147 33.9371C53.4988 33.7252 53.483 33.5819 53.477 33.4366C53.2905 29.2026 51.878 25.4299 49.0848 22.199C46.7835 19.5373 43.9525 17.6627 40.4768 16.8835C35.779 15.8294 31.4602 16.7559 27.6174 19.6197C24.9254 21.6258 22.8125 24.1226 21.5687 27.2711C21.1044 28.445 20.7791 29.6541 20.5688 30.8946C20.5529 30.983 20.5311 31.0713 20.5053 31.191L20.5033 31.193Z" fill="black"/>
<path d="M13.7663 60.6364C7.39416 60.6011 1.95244 56.5065 0.462559 50.6119C-0.682126 46.0815 0.295915 41.9928 3.54349 38.5283C5.5571 36.3789 7.98733 34.8891 10.9314 34.3532C15.4645 33.5268 19.4501 34.6751 22.8186 37.7902C24.8918 39.708 26.2309 42.0674 26.7586 44.8351C27.5541 48.9984 26.5225 52.7161 23.7689 55.9353C21.5152 58.5695 18.6129 60.0947 15.1471 60.5403C14.6293 60.607 14.1036 60.6149 13.7683 60.6364H13.7663ZM13.552 53.4424C16.8829 53.4503 19.6901 50.6983 19.7119 47.4045C19.7337 44.0911 16.9405 41.2999 13.5937 41.2665C10.3759 41.2371 7.3148 43.9282 7.3267 47.3142C7.34059 50.6786 10.118 53.4326 13.5501 53.4424H13.552Z" fill="black"/>
<path d="M64.7097 60.6306C59.3969 60.556 54.4809 57.2623 52.4177 52.2294C50.5568 47.6873 51.3087 41.826 55.572 37.9258C57.4904 36.1709 59.6389 34.8617 62.2219 34.3886C67.7172 33.3816 72.2384 35.0854 75.7002 39.3999C77.8071 42.0263 78.7217 45.0962 78.3963 48.4312C77.9241 53.256 75.4245 56.8148 71.1433 59.1349C69.2309 60.1713 67.1518 60.6287 64.7077 60.6287L64.7097 60.6306ZM71.1473 47.4144C71.1949 44.1383 68.4135 41.3294 65.0906 41.2666C61.9104 41.2058 58.7779 43.8361 58.7621 47.3025C58.7462 50.6218 61.5038 53.3836 64.9319 53.4405C68.2647 53.4975 71.1017 50.7474 71.1493 47.4144H71.1473Z" fill="black"/>
</g>
<defs>
<clipPath id="clip0_465_688">
<rect width="78.4615" height="60" fill="white" transform="translate(0 0.636719)"/>
</clipPath>
</defs>
</svg>
