<svg width="101" height="51" viewBox="0 0 101 51" fill="none" xmlns="http://www.w3.org/2000/svg"><g clip-path="url(#clip0_1116_212)" fill="#000"><path d="M101 .637v50c-.171-.09-.36-.157-.511-.272-4.3-3.289-8.96-5.994-13.867-8.288-11.939-5.58-24.489-8.422-37.724-8.217-4.721.074-9.396.55-14.022 1.47C22.3 37.834 10.77 42.718.383 50.19c-.1.071-.213.126-.382.224V.666h.824c33.173 0 66.346 0 99.518-.002.22 0 .438-.017.657-.027zm-18.964 6.64v24.686c0 .32-.06.637.365.803 1.37.533 2.726 1.1 4.09 1.647.088.035.201.005.388.005V23.596c1.796.156 2.87 1.314 2.883 3.108.022 2.805 0 5.612.02 8.417 0 .248.09.635.261.72 1.43.712 2.89 1.368 4.343 2.037.023.01.072-.035.156-.078v-.687c0-3.328-.03-6.656.012-9.983.025-2.016-.329-3.848-2.087-5.21 1.564-1.013 1.932-2.463 1.874-4.158-.071-2.107-.015-4.219-.017-6.329C94.32 9 92.61 7.297 90.136 7.28c-1.63-.012-3.26-.003-4.888-.003h-3.211zM36.09 28.634c1.5-.191 2.89-.402 4.287-.528.53-.048.653-.23.65-.718-.02-2.589-.01-5.178-.008-7.768 0-.175.025-.35.05-.704l3.317 6.585 3.233-6.415.124.047v.713c0 2.329.015 4.657-.01 6.984-.007.544.17.725.716.703a77.08 77.08 0 013.63-.063c.458.003.563-.19.55-.589-.02-.63-.005-1.262-.005-1.893V8.15c0-.582-.303-.872-.908-.873-1.212 0-2.424.027-3.634-.012-.517-.018-.73.183-.891.635-.656 1.843-1.343 3.675-2.025 5.51-.236.637-.488 1.269-.774 2.009-.113-.289-.18-.449-.239-.611-.822-2.268-1.668-4.528-2.449-6.81-.2-.587-.482-.758-1.084-.735a45.724 45.724 0 01-3.7-.001c-.662-.028-.85.151-.847.825.027 6.57.016 13.141.016 19.712v.836zm-17.53-4.516c-1.444 0-2.807.025-4.167-.013-.555-.016-.656.199-.65.683.022 1.85.018 3.699.004 5.548-.007.939-.568 1.487-1.467 1.482-.766-.003-1.346-.598-1.347-1.47-.01-5.83-.01-11.662 0-17.492.002-1.004.58-1.62 1.426-1.616.852.006 1.389.628 1.392 1.633.004 1.632.018 3.263-.01 4.895-.008.498.168.638.649.627a80.366 80.366 0 013.568 0c.486.012.652-.137.645-.63a267.71 267.71 0 01-.01-5.287c.009-1.745-.597-3.232-1.898-4.42-1.45-1.324-3.211-1.586-5.101-1.457-3.096.213-5.412 2.595-5.417 5.658-.012 6.114-.002 12.228-.004 18.341 0 1.902.81 3.417 2.327 4.532 2.059 1.513 4.289 1.515 6.554.5 2.258-1.012 3.453-2.77 3.5-5.225.038-2.062.007-4.126.007-6.29h-.001zm14.892 4.86c.018-.169.038-.274.038-.38 0-5.502.005-11.004-.022-16.506-.003-.55-.143-1.125-.332-1.648-.918-2.548-3.24-3.925-6.328-3.796-3.353.14-5.761 2.602-5.763 5.908-.003 6.133-.001 12.265.001 18.397 0 .246.031.493.052.803 1.358-.379 2.61-.78 3.89-1.065.733-.163.915-.504.891-1.203-.053-1.579-.017-3.16-.017-4.768h2.848v5.105l4.742-.846v-.001zm41.154-17.275c.28-.014.517-.034.755-.035 1.212-.003 2.424-.033 3.634.012.6.022.755-.185.733-.746a40.555 40.555 0 01-.002-3c.018-.514-.15-.672-.675-.668-2.951.022-5.902.025-8.853-.002-.553-.005-.658.2-.658.685.012 6.874.013 13.748-.002 20.622-.002.48.151.675.622.79 3.112.756 6.218 1.543 9.326 2.314.136.034.283.02.49.032 0-1.465.016-2.876-.024-4.285-.004-.15-.318-.38-.52-.42-1.442-.289-2.894-.53-4.337-.814-.192-.038-.5-.232-.503-.36-.036-1.472-.023-2.944-.023-4.507h4.6v-4.537h-4.563v-5.081zm-14.428 10.6c1.045 0 1.99.002 2.933 0 2.573-.007 4.326-1.72 4.335-4.244.007-2.175.006-4.35 0-6.525-.007-2.531-1.753-4.25-4.323-4.256-2.356-.005-4.713.023-7.069-.016-.66-.01-.795.213-.793.82.02 6.242.012 12.485.014 18.727 0 .233.023.465.037.732 1.422.085 2.784.138 4.14.26.603.055.752-.134.739-.707-.037-1.561-.013-3.124-.013-4.79z"/><path d="M86.658 18.883v-7.515c.863 0 1.694-.031 2.52.01.616.03.775.504.782 1.02.015.998.006 1.997.006 2.996 0 .782.014 1.564-.005 2.345-.021.822-.3 1.112-1.11 1.139-.735.024-1.471.005-2.193.005zm-60.829 1.225c0-2.448-.02-4.813.01-7.178.012-1.03.613-1.599 1.522-1.57.819.026 1.321.628 1.324 1.616.006 2.192.003 4.383 0 6.576 0 .17-.019.34-.032.556h-2.825zM59.955 11.4c.8 0 1.566-.029 2.328.01.594.028.902.381.9.987a969.103 969.103 0 000 4.822c.001.6-.301.965-.896.997-.762.04-1.529.01-2.331.01V11.4z"/></g><defs><clipPath id="clip0_1116_212"><path fill="#fff" transform="translate(0 .637)" d="M0 0h101v50H0z"/></clipPath></defs></svg>