<svg width="82" height="52" viewBox="0 0 82 52" fill="none" xmlns="http://www.w3.org/2000/svg">
<g clip-path="url(#clip0_465_696)">
<path d="M35.7664 37.2126C35.7664 39.8715 34.7517 41.3809 29.718 41.3809C29.0564 41.3809 28.4813 41.3401 27.9084 41.2585V6.09362C27.9084 3.42512 28.7899 0.636719 33.868 0.636719C34.5319 0.636719 35.1492 0.696674 35.7664 0.8407V37.2126ZM24.993 31.8877C24.993 36.8311 21.8578 40.4474 15.4985 41.1553C10.8622 41.6665 4.14992 41.0689 0.972538 40.697C0.839302 40.1618 0.750517 39.4971 0.750517 38.962C0.750517 34.6425 3.00199 33.6443 5.16692 33.6443C7.37399 33.6443 10.8622 34.057 13.4691 34.057C16.2934 34.057 17.1771 33.0684 17.1771 32.1181C17.1771 30.8751 16.0292 30.3591 13.8221 29.9296L7.72703 28.7274C2.69334 27.7315 0 24.1584 0 20.3572C0 15.7211 3.17964 11.8504 9.45008 11.1473C14.1751 10.6122 19.9593 11.2097 23.139 11.6056C23.2699 12.1624 23.3144 12.7023 23.3144 13.259C23.3144 17.5832 21.1073 18.5167 18.9423 18.5167C17.3548 18.5167 14.7924 18.2047 11.8792 18.2047C8.91941 18.2047 7.68263 19.047 7.68263 20.0621C7.68263 21.1396 8.87499 21.5715 10.6869 21.9195L16.5155 23.0162C22.4329 24.132 24.993 27.6091 24.993 31.8877ZM56.8737 50.8235C57.5376 51.1811 58.861 51.5891 60.5841 51.6346C63.4972 51.6923 65.087 50.5596 66.2794 47.8503L82 11.8912C81.3826 11.5409 79.9239 11.1425 78.7315 11.1281C76.7442 11.0826 74.0064 11.4953 72.2856 15.7331L67.2076 28.0578L57.2268 11.3921C56.5651 11.1881 55.0197 10.9025 53.8717 10.9025C50.339 10.9025 48.3518 12.2248 46.3201 14.4972L36.6502 25.3966L44.4216 37.9829C45.8805 40.2842 47.7789 41.4577 50.8253 41.4577C52.857 41.4577 54.5334 40.9825 55.3283 40.5889L45.967 26.071L52.5905 18.8167L63.4972 36.4135" fill="black"/>
</g>
<defs>
<clipPath id="clip0_465_696">
<rect width="82" height="51" fill="white" transform="translate(0 0.636719)"/>
</clipPath>
</defs>
</svg>
