<svg width="121" height="117" viewBox="0 0 121 117" fill="none" xmlns="http://www.w3.org/2000/svg"><g clip-path="url(#clip0_1116_193)" fill="#000"><path d="M48.047 65.351V.637h25.886V65.35H48.047zM57.7 8.066h-6.364v6.058H57.7V8.066zm6.63 6.063h6.34V8.073h-6.34v6.058-.002zm-12.97 6.444v6.101h6.307v-6.1H51.36zm13-.025v6.104h6.312v-6.104H64.36zM51.307 51.7h6.38v-6.094h-6.38V51.7zm13.054-6.15v6.16h6.31v-6.16h-6.31zm0-12.476v6.083h6.33v-6.083h-6.33zm-13.007.007v6.07h6.315v-6.07h-6.315zM17.318 97.685h-3.32v-9.196l-.255-.08-3.29 5.401c-.916 1.507-2.704 1.5-3.62-.015-1.08-1.787-2.166-3.57-3.496-5.326v9.216H0V80.328c1.85-.515 2.173-.391 3.117 1.174 1.793 2.978 3.588 5.955 5.48 9.09.271-.379.489-.65.67-.942 1.632-2.686 3.262-5.372 4.882-8.062 1.009-1.676 1.001-1.681 3.172-1.316v17.413h-.003zM41.322 80.24c1.412-.339 2.438-.038 3.39 1.156 2.431 3.044 5.01 5.97 7.531 8.94.263.308.54.604 1.012 1.124V80.227h3.377V97.63c-1.387.321-2.428.137-3.402-1.087-2.45-3.085-5.058-6.038-7.607-9.042-.258-.303-.536-.588-1.009-1.106v11.281H41.32V80.242l.003-.003zM29.249 98.005c-5.155-.02-9.059-3.938-9.049-9.082.01-5.127 3.944-9.037 9.101-9.047 5.128-.01 9.109 3.93 9.131 9.037.023 5.165-3.963 9.115-9.183 9.092zm5.768-9.009c.018-3.413-2.443-6.055-5.666-6.088-3.194-.033-5.73 2.595-5.786 5.997-.055 3.342 2.494 6.058 5.694 6.071 3.252.013 5.74-2.57 5.756-5.98h.002zm71.148-8.752c2.491 0 4.947-.156 7.376.046 2.354.194 3.756 1.741 4.159 4.026.35 1.994-.616 3.978-2.479 5.079-.178.106-.361.2-.668.368 2.113 2.618 4.193 5.193 6.449 7.985-1.43 0-2.619.053-3.796-.036-.328-.025-.683-.414-.928-.717-1.715-2.112-5.649-7.227-5.649-7.227l-1.169-.01v7.919h-3.292V80.242l-.003.002zm3.345 6.702h1.139c.664 0 1.33.013 1.993-.012 1.099-.038 1.665-.654 1.735-1.734.07-1.104-.523-1.901-1.617-1.995-1.054-.09-2.123-.02-3.25-.02v3.761zm-13.77 2.896v4.813h7.185v3.014H92.39V80.222h10.285v2.898h-6.88v3.677h5.135v3.045h-5.193.003zm-20.473-7.361l-2.008 2.128c-3.703-2.335-6.728-2.153-8.831.493-1.883 2.37-1.675 6.085.456 8.188 2.466 2.431 5.82 2.219 9.223-.644.696.621 1.407 1.255 2.109 1.884-1.59 2.7-5.729 4.069-9.592 3.203-3.72-.833-6.435-3.978-6.828-7.914-.383-3.839 1.65-7.479 5.06-9.052 3.535-1.63 7.98-.934 10.408 1.714h.003zm14.198 12.223v2.94H78.86V80.23h3.285v14.477h7.321v-.002zm-35.497 13.855v7.793H51.72v-11.945c.974-.321 1.647-.068 2.296.722 1.877 2.292 3.833 4.518 5.971 7.017v-7.807H62.2v11.997c-.961.301-1.632.008-2.273-.774-1.87-2.282-3.82-4.499-5.961-7l.002-.003zm-15.21-2.754l-1.387 1.519c-2.51-1.562-4.27-1.557-5.842-.012-1.48 1.451-1.682 3.859-.465 5.53 1.212 1.666 3.557 2.181 5.383 1.209 1.367-.727.45-1.943.818-3.082h-3.167v-2.047c.276-.023.516-.06.756-.06 1.493-.006 2.985-.003 4.622-.003 0 1.759.085 3.431-.052 5.086-.043.503-.619 1.061-1.084 1.411-2.637 1.992-6.79 1.555-8.879-.878-2.113-2.464-1.978-6.323.303-8.6 2.346-2.343 6.232-2.421 8.994-.073zm31.777-1.469h2.1c0 1.55-.007 3.087.003 4.622.008 1.05-.037 2.108.078 3.148.172 1.585 1.382 2.529 2.954 2.436 1.522-.091 2.594-1.104 2.634-2.653.058-2.27.02-4.542.028-6.811 0-.204.027-.409.05-.704h2.098c0 2.895.203 5.793-.065 8.648-.21 2.239-2.399 3.617-4.905 3.617-2.516 0-4.705-1.365-4.912-3.597-.268-2.855-.066-5.758-.066-8.704l.003-.002zm-21.251.008v1.946h-4.76v2.555h3.478v2.069h-3.493v3.406h4.935v2.032h-7.24v-12.006h7.08v-.002zm32.906 10.339c.548-.49 1.014-.904 1.401-1.247.942.378 1.788.833 2.695 1.05.873.207 1.702-.101 1.995-1.07.285-.94-.268-1.518-1.054-1.891-.829-.394-1.685-.725-2.504-1.134-1.267-.633-2.015-1.645-1.913-3.114.1-1.457.962-2.411 2.279-2.881 1.805-.646 3.502-.351 5.145.833l-.929 1.386c-1.147-.131-2.113-.356-3.06-.298-.39.026-.994.624-1.044 1.02-.047.376.416.964.81 1.217.693.447 1.511.691 2.26 1.057 1.958.962 2.737 2.426 2.286 4.236-.41 1.656-2.253 2.916-4.149 2.777-1.537-.114-2.914-.651-4.216-1.939l-.002-.002zm-16.938-10.357h2.133v12.013h-2.133v-12.013z"/></g><defs><clipPath id="clip0_1116_193"><path fill="#fff" transform="translate(0 .637)" d="M0 0h121v116H0z"/></clipPath></defs></svg>