<svg width="182" height="182" viewBox="0 0 182 182" fill="none" xmlns="http://www.w3.org/2000/svg">
<circle cx="91" cy="91" r="83.265" stroke="#4F06C6" stroke-width="15.47"/>
<path d="M100.26 88.2325C108.568 88.7072 115.255 90.5668 120.319 93.8111C125.463 97.0555 128.035 102.001 128.035 108.648C128.035 116.007 124.988 121.586 118.895 125.384C112.881 129.103 105.245 130.963 95.9867 130.963H57.0545V47.8759H95.0371C103.979 47.8759 111.259 49.5377 116.877 52.8611C122.495 56.1846 125.305 61.5259 125.305 68.8851C125.305 80.7546 116.956 87.2038 100.26 88.2325ZM76.5206 62.9503V81.5855H93.0193C97.3715 81.5855 100.576 80.7546 102.634 79.0929C104.77 77.352 105.838 75.0572 105.838 72.2085C105.838 66.0364 101.605 62.9503 93.138 62.9503H76.5206ZM94.325 115.889C103.821 115.889 108.568 112.565 108.568 105.918C108.568 99.192 104.098 95.829 95.1558 95.829H76.5206V115.889H94.325Z" fill="#4F06C6"/>
</svg>
