<svg width="91" height="99" viewBox="0 0 91 99" fill="none" xmlns="http://www.w3.org/2000/svg"><g clip-path="url(#clip0_465_1042)"><path d="M84.197 99h-7.03c.077-.033.151-.072.231-.1 1.037-.352 1.677-1.226 1.684-2.326.008-1.055.01-2.112 0-3.166-.012-1.357-1.043-2.389-2.391-2.396-.94-.005-1.878-.007-2.82 0-1.305.01-2.344 1.019-2.366 2.327a108.722 108.722 0 000 3.34c.015.995.636 1.834 1.57 2.183.122.046.242.093.36.14h-6.509c-.014-.516-.029-1.033-.047-1.607h-.488c-.97 0-1.94.013-2.908-.005-.971-.018-1.599-.63-1.644-1.598a21.625 21.625 0 010-1.606 1.57 1.57 0 01.555-1.182c.322-.282.702-.387 1.122-.385.97.002 1.938 0 2.907 0 .152 0 .304-.016.442-.024v-1.58h-.38c-1.028 0-2.054-.005-3.081 0a3.173 3.173 0 00-3.166 3.136c-.01.55-.006 1.1 0 1.65.012 1.45.91 2.65 2.296 3.081.106.033.21.08.314.122h-9.114c.061-.031.12-.071.186-.093 1.093-.376 1.713-1.237 1.715-2.395.002-1.028.006-2.055 0-3.083-.009-1.375-1.05-2.412-2.42-2.419-.898-.004-1.795.036-2.691-.01a2.426 2.426 0 00-2.491 2.45c-.004 1.028-.011 2.056.002 3.084.012 1.147.622 1.98 1.698 2.368.064.023.122.063.181.096h-9.201v-6.376h2.68V91.05c-.772-.088-6.682-.054-6.98.037v1.546h2.695v.565c0 1.764 0 3.528.002 5.292 0 .172.027.342.041.514h-9.288c.078-.033.152-.073.231-.1 1.039-.353 1.676-1.227 1.683-2.327.007-1.054.009-2.11 0-3.166-.013-1.357-1.046-2.386-2.394-2.395-.939-.006-1.878-.007-2.818 0-1.307.009-2.345 1.02-2.367 2.326a108.097 108.097 0 000 3.34c.015.994.637 1.837 1.57 2.184.122.045.241.092.36.14h-6.683c-.041-.122-.072-.249-.128-.362-.273-.574-.554-1.146-.83-1.717l-.359-.748.248-.148c.717-.434 1.133-1.062 1.201-1.9a5.667 5.667 0 000-.91c-.117-1.442-1.398-2.258-2.453-2.21-.88.038-1.762.008-2.645.007a2.24 2.24 0 00-1.44.513c-.613.493-.915 1.137-.912 1.925.004 1.764 0 3.528.002 5.293 0 .086.016.171.024.258H1.65l.027-2.667h.52c.982 0 1.964.013 2.947-.003 1.358-.024 2.36-1.048 2.38-2.41.002-.174.004-.347 0-.521-.025-1.352-1.058-2.381-2.404-2.388-.881-.006-1.762-.004-2.645 0-1.051.005-1.925.624-2.29 1.61-.05.134-.123.257-.185.385V83.2c.054.085.123.163.16.255.338.822.958 1.183 1.834 1.182 2.661-.008 5.32 0 7.982-.006.302 0 .61-.01.908-.063 3.923-.693 5.715-5.122 3.434-8.308-.1-.14-.208-.273-.32-.423.054-.076.1-.149.152-.216a5.226 5.226 0 001.16-3.025c.179-2.89-2.126-5.492-5.014-5.545-2.833-.05-5.668-.018-8.501-.013-.74 0-1.247.393-1.582 1.034-.065.124-.14.245-.211.367v-7.816c.202-.002.405-.007.608-.007h89.033c.144 0 .29.009.434-.004.098-.009.19-.049.286-.076v36.908c-.172-.014-.344-.042-.514-.042-1.344-.003-2.687-.001-4.03-.001h-.517v-3.204c0-1.05.004-2.1-.001-3.154h-1.614v.488c0 2.124.013 4.25-.01 6.374-.005.48.131.838.524 1.102L84.197 99zM52.464 67.028h-3.442c-2.343 0-4.687-.035-7.03.012-3.65.074-6.385 4.136-4.391 7.796.991 1.822 2.602 2.745 4.693 2.756 1.735.009 3.472 0 5.207.001.159 0 .318 0 .476.015.72.076 1.206.477 1.452 1.138.254.686.105 1.31-.41 1.836-.378.387-.85.514-1.38.514-3.284-.005-6.568-.002-9.852-.002h-.52v3.51c.16.01.289.02.417.02 3.342 0 6.683.004 10.025-.002.331 0 .667-.014.993-.072 3.061-.536 5.006-3.617 4.183-6.615-.617-2.247-2.65-3.843-4.98-3.871-1.808-.022-3.617-.006-5.425-.006-.13 0-.26.006-.39-.005-.849-.073-1.497-.702-1.607-1.56-.1-.769.367-1.56 1.114-1.816.266-.09.567-.116.852-.116 3.168-.007 6.336-.006 9.504-.006.169 0 .337-.012.509-.018v-3.511l.002.002zm19.776 8.798h-.005c0-1.245.028-2.49-.006-3.733-.076-2.766-2.34-5.015-5.11-5.056a210.909 210.909 0 00-6.462 0c-2.768.04-5.054 2.29-5.107 5.056-.047 2.445-.014 4.889-.01 7.333 0 .273.023.55.063.82.31 2.127 2.31 4.382 5.181 4.382 2.068 0 4.136-.002 6.204 0 2.994.003 5.29-2.548 5.257-5.2-.014-1.201-.001-2.4-.001-3.602h-.004zm-37.753.016h-.007c0-1.26.034-2.518-.007-3.776-.093-2.755-2.343-4.986-5.091-5.03a199.856 199.856 0 00-6.506 0c-2.794.044-5.077 2.38-5.091 5.168-.013 2.415 0 4.832-.004 7.247 0 .525.089 1.035.244 1.535.512 1.648 2.269 3.658 5.073 3.643 2.025-.01 4.05 0 6.074-.005.33 0 .665-.027.991-.083 2.312-.395 4.34-2.524 4.326-5.14-.007-1.187 0-2.372 0-3.559h-.002zM78.234 84.6V73.713c.194.096.306.22.414.349 2.77 3.246 5.54 6.493 8.312 9.739.112.132.226.266.354.38.93.823 2.412.45 2.812-.719a2.65 2.65 0 00.117-.852c.008-5.035.006-10.072.004-15.107 0-.14-.01-.282-.018-.45h-3.513v7.264c0 .608.003 1.216 0 1.824-.004.597.016 1.195-.017 1.877-.155-.166-.246-.256-.327-.352l-5.301-6.202c-1.071-1.254-2.137-2.513-3.217-3.76-.557-.644-1.297-.836-2.035-.557-.56.212-1.118.821-1.115 1.746.016 5.093.007 10.188.01 15.28 0 .14.014.28.02.431h3.5V84.6z" fill="#EDEFF2"/><path d="M90.36 60.529c-.097.027-.19.067-.287.076-.143.013-.29.004-.434.004H.606c-.203 0-.405.003-.608.007V0h90.361v60.529zM6.344 54.33h77.702c.09-.494.072-47.697-.017-48.026H6.345V54.33zM0 68.431c.07-.123.146-.242.212-.367.334-.64.839-1.031 1.58-1.033 2.834-.006 5.669-.038 8.502.013 2.888.052 5.193 2.654 5.014 5.545a5.226 5.226 0 01-1.16 3.025c-.053.067-.1.137-.152.215.114.15.22.284.32.424 2.283 3.187.49 7.616-3.434 8.307a5.43 5.43 0 01-.908.064c-2.661.005-5.32-.002-7.982.005-.876.002-1.496-.36-1.835-1.181-.038-.093-.105-.17-.159-.255V68.429l.002.002zm3.61 5.63h3.803c.868 0 1.737.013 2.604-.003 1.199-.022 2.013-1.098 1.702-2.23-.205-.748-.878-1.26-1.722-1.266-2.025-.01-4.051-.003-6.076 0-.097 0-.193.024-.313.04v3.461-.002zm-.003 7.035h3.814c.869 0 1.735.012 2.604-.004 1.197-.022 2.011-1.107 1.693-2.236-.217-.764-.894-1.257-1.77-1.261-1.995-.007-3.99-.004-5.986 0-.11 0-.22.023-.351.038v3.463h-.004zM12.152 99c-.009-.086-.023-.171-.023-.258 0-1.764.002-3.528-.002-5.292-.002-.79.3-1.433.912-1.925a2.229 2.229 0 011.44-.514c.881.002 1.764.03 2.645-.007 1.055-.046 2.336.769 2.453 2.21.026.303.026.609 0 .91-.069.838-.485 1.466-1.201 1.9l-.248.149c.125.258.24.504.358.747.277.572.558 1.143.83 1.717.055.116.086.24.13.362h-1.738c-.436-.889-.87-1.779-1.304-2.667h-1.332c-.44.002-.879.007-1.355.013v2.652h-1.563l-.002.004zm1.585-4.262c1.062 0 2.059-.024 3.054.007.769.024 1.252-.192 1.189-1.214-.038-.611-.295-.904-.909-.912-.794-.009-1.588-.003-2.384-.001-.087 0-.174 0-.259.012-.369.05-.66.308-.685.673-.031.458-.008.918-.008 1.433l.002.002zM49.91 99c-.06-.032-.117-.074-.18-.096-1.077-.387-1.687-1.22-1.7-2.368-.012-1.028-.005-2.055-.001-3.083a2.426 2.426 0 012.491-2.451c.894.045 1.793.005 2.69.01 1.372.008 2.412 1.044 2.421 2.42.007 1.027.004 2.055 0 3.082-.004 1.158-.622 2.02-1.715 2.396-.065.021-.125.061-.186.092h-3.82V99zm4.106-4.002c0-.492.005-.984 0-1.476-.01-.615-.288-.896-.91-.903-.855-.009-1.707-.009-2.56 0-.612.007-.896.297-.902.914-.007.984-.007 1.968 0 2.95.004.596.286.894.869.903.88.015 1.764.015 2.647 0 .566-.009.843-.302.854-.87.009-.507.002-1.013.002-1.52v.002zM26.127 99l-.36-.14c-.936-.347-1.556-1.19-1.57-2.183a108.09 108.09 0 010-3.34c.021-1.308 1.06-2.317 2.366-2.326.939-.008 1.878-.006 2.819 0 1.348.009 2.379 1.038 2.393 2.395.011 1.055.008 2.111 0 3.166-.007 1.1-.646 1.974-1.682 2.327-.08.027-.154.065-.232.1H26.13l-.002.001zm-.34-4.005c0 .506-.007 1.013.002 1.52.01.542.29.859.816.87.91.02 1.821.018 2.733 0 .516-.01.822-.299.832-.813a74.989 74.989 0 000-3.124c-.01-.536-.32-.82-.859-.827a99.799 99.799 0 00-2.647 0c-.58.007-.866.311-.875.897-.008.492 0 .984 0 1.477h-.002zM73.432 99l-.36-.14c-.935-.347-1.556-1.188-1.57-2.183a103.3 103.3 0 010-3.34c.022-1.306 1.06-2.317 2.366-2.326.94-.008 1.878-.006 2.82 0 1.347.009 2.378 1.038 2.39 2.395.012 1.055.008 2.111 0 3.166-.006 1.098-.645 1.972-1.684 2.327-.08.027-.153.065-.231.1H73.43l.002.001zm-.34-4.005c0 .506-.007 1.013.002 1.52.01.558.299.862.86.873.897.015 1.792.016 2.69 0 .515-.009.821-.298.832-.81a74.989 74.989 0 000-3.125c-.011-.535-.32-.82-.86-.829a99.806 99.806 0 00-2.646 0c-.581.008-.867.31-.876.898-.007.492 0 .984 0 1.476l-.002-.004zM0 93.008c.062-.129.136-.254.185-.386.367-.987 1.239-1.606 2.29-1.61.881-.003 1.762-.005 2.645 0 1.346.007 2.38 1.037 2.405 2.388.003.174.003.348 0 .521-.02 1.363-1.023 2.387-2.381 2.41-.983.017-1.965.004-2.948.004h-.519l-.027 2.667H0v-5.994zm1.675 1.706c.176.009.317.022.458.022h2.558c.13 0 .26.005.391-.002.523-.031.816-.333.829-.86.003-.159.007-.318 0-.477-.024-.44-.29-.755-.728-.766a56.487 56.487 0 00-2.773 0 .72.72 0 00-.722.68c-.034.457-.007.916-.007 1.403h-.006zM62.843 99c-.105-.04-.208-.087-.315-.121-1.386-.43-2.283-1.632-2.296-3.082-.005-.55-.007-1.1 0-1.65a3.173 3.173 0 013.166-3.137c1.028-.005 2.054 0 3.081 0h.38v1.581c-.139.008-.289.024-.441.024-.97.002-1.938.004-2.907 0-.42 0-.8.101-1.122.385a1.573 1.573 0 00-.556 1.182 21.571 21.571 0 000 1.606c.046.968.674 1.58 1.645 1.598.97.018 1.938.005 2.907.005h.489c.016.574.03 1.091.047 1.607h-4.08l.002.002zm-23.695 0c-.015-.172-.042-.342-.042-.514-.003-1.764-.002-3.528-.002-5.292v-.564H36.41v-1.547c.298-.09 6.21-.125 6.981-.036v1.576h-2.68v6.375h-1.564l.002.002zm45.049 0c-.393-.264-.528-.622-.523-1.102.022-2.123.009-4.25.009-6.373v-.489h1.614c.005 1.053.002 2.104.002 3.154v3.204h.515l4.031.001c.172 0 .344.028.514.042V99h-6.162z" fill="#000"/><path d="M13.714 99v-2.653c.476-.005.915-.01 1.355-.012.43-.002.863 0 1.331 0l1.305 2.667h-3.993l.002-.002z" fill="#EDEFF2"/><path d="M52.463 67.028v3.512c-.172.007-.34.018-.508.018-3.168 0-6.336-.002-9.504.005a2.7 2.7 0 00-.852.116c-.747.257-1.214 1.047-1.115 1.816.11.86.758 1.49 1.607 1.56.128.01.26.005.39.005 1.808 0 3.617-.016 5.425.006 2.33.029 4.364 1.624 4.98 3.871.824 2.996-1.121 6.08-4.182 6.615a6.07 6.07 0 01-.994.072c-3.341.006-6.683.004-10.025.002-.128 0-.256-.013-.416-.02v-3.51h.52c3.283 0 6.567-.002 9.85.002.53 0 1.001-.126 1.381-.514.516-.526.664-1.152.41-1.836-.243-.662-.732-1.062-1.452-1.138-.157-.016-.318-.014-.476-.014-1.735 0-3.472.007-5.207-.002-2.093-.011-3.701-.934-4.693-2.756-1.993-3.66.742-7.721 4.391-7.796 2.343-.047 4.686-.012 7.03-.012h3.442l-.002-.002zm19.775 8.798c0 1.2-.013 2.4.002 3.602.032 2.652-2.263 5.203-5.258 5.2-2.068-.002-4.136 0-6.203 0-2.872 0-4.87-2.255-5.182-4.382a5.664 5.664 0 01-.063-.82c-.004-2.444-.035-4.89.01-7.333.053-2.764 2.34-5.017 5.108-5.057 2.155-.03 4.31-.032 6.462 0 2.77.042 5.034 2.29 5.11 5.057.034 1.243.005 2.488.005 3.733h.009zm-3.519.027c0-1.115-.027-2.227.007-3.34.037-1.156-.797-2.028-1.975-1.958-.418.026-.838.004-1.258.004-1.532 0-3.064.005-4.597-.002-.713-.004-1.255.286-1.621.897-.192.323-.228.68-.226 1.046v6.638c0 .13.002.26.018.39.118.916.805 1.557 1.73 1.562 2.051.013 4.105.008 6.158 0 .623-.001 1.111-.278 1.467-.787.236-.334.297-.714.297-1.112v-3.342.004zm-34.234-.009c0 1.187-.005 2.372 0 3.559.015 2.616-2.014 4.745-4.326 5.14a6.08 6.08 0 01-.991.083c-2.025.007-4.05-.006-6.074.005-2.804.016-4.56-1.993-5.073-3.644a5.142 5.142 0 01-.244-1.534c.002-2.415-.009-4.832.004-7.247.014-2.788 2.3-5.122 5.09-5.168 2.168-.034 4.34-.034 6.507 0 2.748.046 5 2.275 5.09 5.03.042 1.258.008 2.517.008 3.776h.009zm-3.524.014c0-1.156.007-2.314-.002-3.47-.007-1.08-.715-1.814-1.784-1.823-2.037-.015-4.076-.006-6.115-.004-.355 0-.686.083-.982.29-.53.367-.782.882-.784 1.514a1606.38 1606.38 0 000 6.942c0 .365.085.716.308 1.022.374.517.88.769 1.521.767 1.967-.004 3.932-.027 5.898.01 1.044.019 1.987-.734 1.947-1.953-.036-1.098-.007-2.198-.007-3.296v.001zm47.271 8.744h-3.5c-.008-.152-.02-.291-.02-.43 0-5.093.006-10.188-.01-15.281-.004-.925.554-1.532 1.115-1.746.738-.278 1.476-.089 2.035.557 1.078 1.247 2.144 2.506 3.217 3.76 1.767 2.068 3.533 4.136 5.3 6.202.084.097.174.186.328.353.035-.682.013-1.281.016-1.878.004-.608 0-1.216 0-1.824v-7.264h3.514c.007.166.018.308.018.45 0 5.035.002 10.072-.004 15.107 0 .286-.025.587-.117.853-.4 1.168-1.882 1.54-2.812.718a3.714 3.714 0 01-.354-.38c-2.772-3.246-5.542-6.492-8.312-9.74a1.237 1.237 0 00-.414-.348v10.891z" fill="#000"/><path d="M6.345 54.33V6.305H84.03c.09.329.109 47.531.017 48.025H6.345zm6.283-6.25c.546-.051 1.062-.1 1.578-.145 1.543-.136 3.068-.366 4.553-.836 3-.952 5.553-2.627 7.813-4.782 2.654-2.531 4.355-5.592 5.075-9.194.244-1.22.454-2.446.738-3.655.34-1.447.913-2.802 1.778-4.024.405-.573.885-1.069 1.498-1.424.382-.218.787-.367 1.229-.394.94-.056 1.64.378 2.176 1.113.516.705.894 1.487 1.209 2.297.35.903.702 1.806 1.045 2.712.997 2.622 1.96 5.258 3.109 7.82.452 1.008.987 1.965 1.671 2.833 1.115 1.415 2.51 2.428 4.25 2.933 1.54.447 3.105.494 4.684.275 2.633-.364 4.758-1.549 6.22-3.818.076-.117.167-.226.272-.367l.25.333c.301.405.584.829.911 1.214 2.553 3.02 5.752 5.07 9.5 6.276 1.412.454 2.86.72 4.352.673.428-.014.862-.038 1.275-.172v-5.874c-.13-.013-.23-.024-.33-.031-1.025-.076-2.042-.215-3.03-.508-3.8-1.13-6.609-3.429-8.264-7.063a9.534 9.534 0 01-.878-4.345c.08-2.129.79-4.052 2.023-5.773 2.348-3.274 5.594-5.011 9.556-5.487.31-.038.62-.067.92-.1.079-.768.05-5.7-.035-6.03-.065-.007-.136-.027-.204-.023-.981.061-1.97.06-2.939.206-2.936.442-5.632 1.549-8.056 3.246-4.073 2.851-6.723 6.71-7.897 11.555-.344 1.419-.619 2.853-.96 4.274-.33 1.384-.802 2.717-1.537 3.945a3.68 3.68 0 01-.9 1.048c-.837.644-1.845.648-2.688.015a3.134 3.134 0 01-.919-1.084c-.57-1.106-1.17-2.198-1.66-3.336-.99-2.298-1.907-4.625-2.866-6.935-.711-1.713-1.542-3.365-2.607-4.892a8.306 8.306 0 00-1.645-1.779c-1.835-1.454-3.931-2.115-6.26-2.013-2.296.101-4.27.953-5.842 2.658-.363.392-.702.808-1.05 1.215-.176.206-.35.418-.52.62-.053-.024-.085-.032-.101-.052-.055-.067-.104-.139-.154-.21-2.11-3.03-4.865-5.288-8.216-6.815-2.442-1.112-5-1.704-7.7-1.601-.154.005-.306.022-.454.033v5.955c.108.011.192.022.275.03 1.01.088 2.01.23 2.989.504 3.455.972 6.18 2.928 7.953 6.077 1.73 3.076 1.949 6.275.39 9.482-1.298 2.675-3.332 4.668-6.007 5.984-1.638.805-3.39 1.141-5.202 1.188-.123.004-.246.024-.37.036v6.211zM3.61 74.062V70.6c.119-.016.216-.04.312-.04 2.025-.002 4.051-.009 6.076 0 .843.004 1.516.517 1.722 1.265.311 1.134-.503 2.21-1.702 2.23-.869.015-1.735.004-2.604.004H3.61v.002zm-.002 7.034v-3.463c.13-.014.24-.037.35-.037 1.996-.002 3.992-.008 5.987 0 .876.003 1.554.497 1.77 1.26.32 1.13-.494 2.215-1.694 2.237-.866.014-1.735.003-2.603.003H3.604h.004zm10.129 13.641c0-.515-.023-.975.007-1.432.024-.368.315-.623.686-.673.085-.013.174-.013.259-.013.794 0 1.588-.007 2.384.002.614.007.87.3.909.912.063 1.02-.42 1.237-1.19 1.214-.994-.031-1.991-.008-3.053-.008l-.002-.002zm40.279.261c0 .507.007 1.013-.002 1.52-.011.568-.286.861-.854.87-.881.015-1.764.015-2.647 0-.583-.009-.865-.307-.868-.903-.008-.984-.008-1.968 0-2.95.003-.62.287-.909.9-.914.855-.009 1.707-.009 2.56 0 .623.007.902.288.91.903.008.492 0 .984 0 1.476v-.002zm-28.229-.003c0-.492-.006-.984 0-1.477.009-.588.295-.89.875-.897.883-.01 1.764-.012 2.647 0 .541.007.85.291.86.827.02 1.042.02 2.084 0 3.125-.011.513-.317.803-.833.812a72.42 72.42 0 01-2.733 0c-.527-.011-.805-.328-.816-.87-.01-.507-.002-1.014-.002-1.52h.002zm47.307 0c0-.492-.005-.984 0-1.477.009-.59.297-.89.876-.897.883-.01 1.764-.012 2.646 0 .541.007.85.293.86.829a81.77 81.77 0 010 3.124c-.011.512-.317.802-.832.81-.896.017-1.793.017-2.69 0-.562-.008-.85-.312-.86-.873-.01-.507-.002-1.013-.002-1.52l.002.004zm-71.419-.281c0-.486-.025-.946.008-1.402a.722.722 0 01.722-.68c.924-.02 1.85-.022 2.773 0 .438.01.704.325.727.765.01.16.006.319 0 .478-.012.526-.304.828-.828.86-.13.006-.26 0-.391 0H2.128c-.141 0-.28-.012-.458-.02h.005zM68.72 75.853v3.342c0 .398-.064.778-.298 1.113-.356.508-.845.785-1.467.787-2.053.005-4.105.01-6.158 0-.925-.006-1.612-.646-1.73-1.564a3.09 3.09 0 01-.018-.388v-6.638c0-.366.034-.724.226-1.046.365-.612.906-.901 1.621-.898 1.532.008 3.065.002 4.597.002.42 0 .84.022 1.258-.003 1.177-.07 2.011.801 1.975 1.957-.034 1.113-.007 2.227-.007 3.34v-.004zm-37.76.006c0 1.1-.028 2.2.008 3.296.04 1.22-.903 1.972-1.947 1.952-1.964-.038-3.931-.013-5.898-.009-.64 0-1.145-.25-1.521-.767-.22-.306-.306-.657-.308-1.022-.005-2.314-.007-4.628 0-6.942 0-.633.254-1.147.784-1.514.296-.207.628-.29.982-.29 2.04-.002 4.076-.01 6.115.004 1.07.007 1.777.743 1.784 1.823.01 1.156.002 2.314.002 3.47v-.001z" fill="#EDEFF2"/><path d="M12.628 48.08v-6.211c.123-.013.244-.033.37-.037 1.814-.047 3.563-.383 5.2-1.188 2.676-1.314 4.71-3.31 6.009-5.983 1.558-3.206 1.339-6.407-.39-9.482-1.772-3.15-4.498-5.106-7.954-6.077-.979-.276-1.98-.418-2.989-.505-.083-.008-.168-.018-.275-.03v-5.955c.149-.011.3-.026.454-.033 2.7-.103 5.258.489 7.7 1.601 3.35 1.527 6.106 3.785 8.216 6.816.049.07.1.143.154.21.016.02.049.027.101.052.17-.203.344-.412.521-.62.347-.408.686-.824 1.05-1.216 1.573-1.705 3.545-2.559 5.841-2.658 2.329-.103 4.426.559 6.26 2.014a8.348 8.348 0 011.645 1.778c1.065 1.525 1.896 3.177 2.607 4.892.959 2.31 1.878 4.637 2.866 6.935.49 1.14 1.092 2.232 1.66 3.336.221.427.532.792.92 1.084.843.633 1.85.631 2.688-.015.37-.285.66-.646.9-1.047.734-1.229 1.206-2.564 1.537-3.946.34-1.42.615-2.855.959-4.274 1.174-4.845 3.823-8.704 7.897-11.555 2.424-1.697 5.12-2.806 8.056-3.246.968-.144 1.958-.143 2.939-.206.068-.003.139.015.204.024.085.329.116 5.26.034 6.03-.298.032-.61.063-.919.1-3.962.475-7.207 2.21-9.556 5.487-1.234 1.72-1.943 3.643-2.022 5.773a9.535 9.535 0 00.877 4.344c1.654 3.636 4.463 5.934 8.264 7.063.988.293 2.005.434 3.03.508.1.007.202.018.33.031v5.874c-.414.133-.847.158-1.275.172-1.491.047-2.939-.218-4.352-.673-3.748-1.206-6.947-3.256-9.5-6.276-.325-.385-.608-.808-.912-1.214l-.25-.333c-.104.143-.195.25-.27.368-1.462 2.27-3.59 3.453-6.22 3.817-1.58.219-3.145.172-4.685-.275-1.74-.507-3.135-1.518-4.25-2.933-.683-.868-1.219-1.825-1.671-2.833-1.15-2.562-2.112-5.198-3.108-7.82-.344-.904-.695-1.809-1.046-2.711-.317-.81-.695-1.592-1.209-2.298-.537-.735-1.237-1.169-2.176-1.113-.44.026-.847.174-1.229.395-.613.354-1.092.85-1.498 1.424-.863 1.22-1.438 2.576-1.778 4.023-.284 1.209-.494 2.436-.738 3.655-.72 3.602-2.421 6.663-5.075 9.194-2.26 2.155-4.813 3.83-7.812 4.782-1.486.47-3.009.7-4.554.836-.516.045-1.033.094-1.578.145h.002z" fill="#000"/></g><defs><clipPath id="clip0_465_1042"><path fill="#fff" d="M0 0h90.359v99H0z"/></clipPath></defs></svg>