<svg width="133" height="122" viewBox="0 0 133 122" fill="none" xmlns="http://www.w3.org/2000/svg">
<g clip-path="url(#clip0_465_1074)">
<path d="M97.8808 75.8368C98.1726 75.8517 98.3966 75.873 98.6206 75.873C109.82 75.8749 121.02 75.874 132.22 75.8749C132.74 75.8749 133 76.1383 133 76.665C133 85.2936 133 93.9232 133 102.552C133 103.052 132.743 103.303 132.228 103.304C114.662 103.304 97.0954 103.307 79.5289 103.292C78.9852 103.292 78.6682 103.457 78.3587 103.905C74.4643 109.556 70.5486 115.19 66.6375 120.829C66.5445 120.963 66.4358 121.086 66.2936 121.266C66.1458 121.066 66.0324 120.925 65.932 120.776C62.1566 115.138 58.3784 109.502 54.6179 103.855C54.3455 103.445 54.0556 103.294 53.5639 103.294C35.9973 103.307 18.4308 103.305 0.864291 103.305C0.286795 103.305 -0.00195312 103.024 -0.00195312 102.462C-0.00195312 93.8479 -0.00195312 85.2351 -0.00195312 76.6213C-0.00195312 76.1249 0.242181 75.8765 0.73045 75.8758C12.1626 75.8758 23.5948 75.8758 35.027 75.874C35.251 75.874 35.4759 75.8526 35.7947 75.8368C35.6469 75.5896 35.5559 75.4185 35.448 75.2586C33.0584 71.6949 30.6735 68.1275 28.2653 64.5758C27.9855 64.1622 28.0004 63.8666 28.2523 63.453C34.7956 52.6753 41.3259 41.8893 47.8589 31.1051C52.2087 23.9247 56.5474 16.7368 60.9177 9.56841C62.6669 6.69902 64.4886 3.87331 66.2787 1.02809C66.3503 0.914689 66.4386 0.810584 66.5678 0.637695C66.7007 0.812443 66.8085 0.93142 66.8921 1.0662C69.9593 5.9991 73.0246 10.9329 76.0899 15.8668C79.9564 22.0898 83.8229 28.3129 87.6885 34.5369C91.8403 41.221 95.9903 47.906 100.142 54.5901C101.973 57.5376 103.799 60.4878 105.65 63.4223C105.922 63.8536 105.923 64.1436 105.624 64.5712C103.091 68.1869 100.587 71.8223 98.076 75.4538C98.01 75.5486 97.9691 75.6611 97.8799 75.8368H97.8808ZM60.0319 103.304H56.9508C60.1109 108.039 63.2013 112.67 66.3521 117.391C69.6117 112.646 72.7923 108.015 76.0314 103.3C74.9523 103.3 73.9959 103.297 73.0395 103.305C72.9577 103.305 72.8768 103.376 72.7951 103.414C72.572 103.376 72.3489 103.306 72.1258 103.305C68.0948 103.299 64.0629 103.302 60.0319 103.303V103.304ZM131.056 78.0797H93.4501C93.5998 77.8483 93.6871 77.7051 93.7829 77.5666C96.8054 73.1617 99.8261 68.7558 102.859 64.3574C103.05 64.0794 103.028 63.8963 102.859 63.624C98.2963 56.2874 93.7438 48.9443 89.1895 41.6021C85.6874 35.9581 82.1797 30.3169 78.6822 24.6701C74.9077 18.5754 71.1416 12.4741 67.3699 6.37741C67.1226 5.97772 66.854 5.59012 66.5603 5.14395C66.4237 5.3596 66.3326 5.49903 66.2452 5.64217C54.4571 25.0085 42.6698 44.3757 30.8742 63.7374C30.7265 63.98 30.7488 64.1315 30.8975 64.3546C33.8503 68.7688 36.7957 73.1896 39.7402 77.6094C39.8267 77.7395 39.8917 77.8836 40.007 78.0955H39.2597C27.1314 78.0955 15.004 78.0955 2.87561 78.0955C2.41894 78.0955 2.1903 78.3204 2.18968 78.7703C2.18968 86.0354 2.18968 93.3004 2.18968 100.565C2.18968 101.035 2.4239 101.269 2.89234 101.27C45.394 101.27 87.8967 101.27 130.398 101.27C130.836 101.27 131.056 101.055 131.056 100.625C131.056 93.3292 131.056 86.0335 131.056 78.7378C131.056 78.5537 131.056 78.3697 131.056 78.0788L131.056 78.0797Z" fill="#A8A8A8"/>
<path d="M131.056 78.0803C131.056 78.3713 131.056 78.5553 131.056 78.7393C131.056 86.0351 131.056 93.3308 131.056 100.626C131.056 101.056 130.837 101.271 130.399 101.272C87.8969 101.272 45.3943 101.272 2.8926 101.272C2.42478 101.272 2.19056 101.037 2.18994 100.567C2.18994 93.302 2.18994 86.0369 2.18994 78.7719C2.18994 78.3226 2.41859 78.0977 2.87587 78.0971C15.0042 78.0971 27.1316 78.0971 39.26 78.0971H40.0072C39.892 77.8861 39.8269 77.7411 39.7405 77.6109C36.796 73.1911 33.8506 68.7704 30.8977 64.3561C30.749 64.1331 30.7267 63.9815 30.8745 63.7389C42.6701 44.3763 54.4573 25.01 66.2455 5.64372C66.3329 5.50058 66.424 5.36115 66.5606 5.14551C66.8543 5.59167 67.1229 5.97835 67.3701 6.37897C71.1418 12.4756 74.907 18.5769 78.6824 24.6717C82.1799 30.3185 85.6877 35.9596 89.1898 41.6036C93.745 48.9449 98.2974 56.288 102.859 63.6255C103.029 63.8988 103.051 64.0819 102.859 64.3589C99.8264 68.7564 96.8057 73.1632 93.7831 77.5682C93.6883 77.7067 93.6 77.8498 93.4504 78.0813H131.057L131.056 78.0803ZM98.2287 66.4949C98.1097 66.3945 98.0047 66.2626 97.869 66.1984C96.6263 65.6119 95.3771 65.0384 94.1335 64.4547C93.9848 64.3849 93.8547 64.2734 93.7162 64.1814C95.0351 63.4052 96.3484 62.6207 97.6756 61.8595C97.9759 61.6875 98.0428 61.5453 97.8327 61.2516C97.6087 60.9383 97.4349 60.5907 97.2351 60.2598C95.0602 56.6468 92.8862 53.0338 90.7094 49.4226C88.8905 46.4064 87.0632 43.3948 85.2462 40.3767C82.9504 36.5648 80.6612 32.7501 78.3692 28.9354C77.0559 26.7501 75.7463 24.562 74.4302 22.3777C73.01 20.0223 71.5852 17.6697 70.1613 15.3162C69.0255 13.4404 67.8888 11.5647 66.7521 9.68895C66.6201 9.30041 66.5002 9.50119 66.3821 9.69731C65.4583 11.2329 64.5316 12.7675 63.6105 14.3049C61.8557 17.2328 60.1093 20.1654 58.3489 23.0897C56.6685 25.8819 54.9722 28.6649 53.29 31.4562C51.05 35.1724 48.8212 38.895 46.5794 42.6112C45.175 44.9387 43.752 47.255 42.3467 49.5825C41.0696 51.6981 39.8074 53.8229 38.535 55.9413C37.4689 57.7157 36.401 59.4883 35.3265 61.2581C35.1955 61.4747 35.1379 61.6317 35.4102 61.7879C36.7365 62.5482 38.0554 63.3197 39.378 64.0875C39.2432 64.1814 39.1187 64.2957 38.9728 64.3664C37.8203 64.9213 36.6622 65.465 35.5087 66.019C35.3191 66.1101 35.0263 66.1612 35.2215 66.494C35.2606 66.5777 35.2903 66.6669 35.3414 66.7422C37.0981 69.3522 38.8547 71.9623 40.6179 74.5677C41.4033 75.7287 42.2035 76.8803 42.9973 78.0357C43.1925 78.059 43.3876 78.1026 43.5828 78.1026C53.7528 78.1026 63.9228 78.098 74.0937 78.0971C79.3107 78.0971 84.5268 78.1054 89.7438 78.1036C89.9352 78.1036 90.1267 78.045 90.3172 78.0143C90.4037 77.9065 90.4975 77.8033 90.5756 77.689C92.4986 74.8893 94.4226 72.0896 96.3419 69.2862C96.9767 68.3595 97.5985 67.4244 98.2268 66.4931L98.2287 66.4949ZM109.267 93.4284C109.303 93.4544 109.339 93.4804 109.376 93.5065C109.291 93.8485 109.223 94.1952 109.119 94.5308C108.909 95.213 109.02 95.49 109.697 95.7865C110.493 96.136 111.32 96.1156 112.16 95.9808C112.489 95.9278 112.612 95.7903 112.666 95.4519C112.815 94.5215 113.098 93.6282 113.603 92.7563C113.736 92.9869 113.828 93.1644 113.935 93.3326C114.376 94.0242 114.793 94.7325 115.275 95.3934C115.505 95.7094 115.844 95.9566 116.164 96.1937C116.425 96.387 116.681 96.3545 116.95 96.1044C117.698 95.4091 118.478 94.7464 119.246 94.0725C119.38 93.9554 119.519 93.8448 119.697 93.6961C119.661 94.1738 119.642 94.5745 119.598 94.9723C119.563 95.2762 119.697 95.4092 119.975 95.5003C121.134 95.8841 122.325 96.0394 123.54 96.0468C123.643 96.0468 123.767 96.031 123.848 95.9743C124.744 95.3422 125.661 94.7362 126.513 94.0484C127.052 93.6133 127.36 92.985 127.419 92.2702C127.521 91.0284 126.86 90.2402 125.82 89.7429C125.125 89.411 124.38 89.1852 123.66 88.9054C123.373 88.7938 123.08 88.6851 122.815 88.5317C122.704 88.4676 122.656 88.2928 122.579 88.1683C122.705 88.1023 122.827 87.987 122.956 87.9796C123.232 87.9647 123.514 87.9815 123.787 88.0279C124.445 88.1423 125.12 88.2417 125.419 88.9835C125.439 89.0346 125.54 89.0764 125.606 89.082C125.988 89.1173 126.37 89.1405 126.852 89.1759C126.924 88.066 127.003 87.0036 127.049 85.9402C127.053 85.8436 126.852 85.666 126.73 85.6484C125.69 85.5043 124.646 85.3872 123.603 85.2701C123.518 85.2608 123.407 85.2775 123.34 85.3258C122.372 86.0193 121.332 86.6365 120.466 87.4405C119.14 88.6712 119.358 90.3489 120.889 91.311C121.434 91.6539 122.052 91.8817 122.641 92.1512C123.077 92.3501 123.531 92.5119 123.955 92.7331C124.091 92.8047 124.157 93.012 124.256 93.157C124.099 93.2248 123.946 93.3298 123.783 93.3549C122.47 93.5539 121.566 92.4803 120.389 92.2349C120.254 92.207 120.164 91.9597 120.047 91.8082C119.638 92.0388 119.248 92.2591 118.859 92.4793C118.344 92.7703 117.851 92.7154 117.47 92.2786C117.066 91.8166 116.687 91.3212 116.373 90.7951C116.247 90.5841 116.226 90.2095 116.328 89.9864C116.479 89.6536 116.836 89.807 117.12 89.8711C117.846 90.0366 118.282 89.8646 118.637 89.2205C119.097 88.3821 119.177 87.4851 118.954 86.5649C118.926 86.4478 118.781 86.3074 118.663 86.273C118.218 86.142 117.767 86.0072 117.308 85.9616C117.067 85.9375 116.746 86.0239 116.566 86.181C115.343 87.2444 114.296 88.4629 113.449 89.8488C113.381 89.9594 113.302 90.0636 113.229 90.1704C113.134 89.3822 113.147 88.6154 113.128 87.8495C113.12 87.5688 113.233 87.4507 113.473 87.3308C114.247 86.9441 115.054 86.5946 115.752 86.0936C116.419 85.614 117.066 85.0368 117.54 84.3722C118.37 83.2066 118.005 81.9638 116.755 81.276C115.849 80.7778 114.856 80.6411 113.839 80.629C113.738 80.6281 113.619 80.6662 113.54 80.7266C112.668 81.3931 111.765 82.027 110.941 82.7493C109.828 83.7243 109.244 85.0061 109.214 86.4794C109.183 87.9638 109.252 89.4501 109.292 90.9354C109.32 91.9467 109.297 91.9914 108.307 92.2191C107.755 92.3455 107.471 92.194 107.443 91.6363C107.409 90.9447 107.439 90.2457 107.497 89.5542C107.592 88.4155 107.73 87.2806 107.849 86.1568C107.215 85.904 106.662 85.6595 106.093 85.4643C105.103 85.1251 104.348 85.3482 103.704 86.1773C103.421 86.5426 103.192 86.9506 102.952 87.3475C102.724 87.724 102.515 88.1107 102.298 88.4927L102.187 88.462C102.235 87.9638 102.223 87.4498 102.346 86.9701C102.502 86.3567 102.268 85.9635 101.813 85.6261C101.725 85.5619 101.644 85.4894 101.561 85.4207C101.311 85.2143 101.066 85.1873 100.753 85.3333C99.8004 85.7785 98.83 86.1884 97.8671 86.6132C97.5037 86.774 97.1412 86.9376 96.7694 87.1049C96.868 87.5846 96.9572 88.0186 97.0445 88.4434C97.8987 88.4239 98.0781 88.5828 98.1478 89.4194C98.1878 89.8972 98.2073 90.3777 98.2184 90.8583C98.2305 91.3286 98.2212 91.7999 98.2212 92.2702C98.1878 92.2749 98.1534 92.2795 98.1199 92.2851C97.9991 92.114 97.8783 91.943 97.7528 91.7646C97.3327 91.9189 96.9367 92.0927 96.525 92.2098C95.9831 92.3641 95.7331 92.2126 95.6179 91.6632C95.5509 91.3481 95.5268 91.0191 95.523 90.6956C95.5082 89.4882 95.4069 88.2445 95.8874 87.117C96.1885 86.4106 95.9878 85.93 95.5872 85.4374C95.498 85.3277 95.2331 85.2552 95.0983 85.3035C93.903 85.7274 92.7208 86.1894 91.5283 86.6216C91.2718 86.7145 91.2188 86.8419 91.2392 87.1012C91.2997 87.8727 91.401 88.6526 91.3415 89.4175C91.2866 90.1295 91.0599 90.8313 90.8777 91.5294C90.8489 91.6381 90.6444 91.7813 90.5394 91.7673C90.4315 91.7534 90.2838 91.5768 90.2633 91.4532C90.2085 91.1213 90.1722 90.7765 90.1992 90.4419C90.2856 89.3618 90.3451 88.2733 90.5301 87.209C90.6686 86.4106 90.3776 85.9244 89.7633 85.5052C89.4138 85.2673 89.1154 85.1808 88.7028 85.3918C87.9509 85.7776 87.1655 86.0992 86.3773 86.4543C86.3569 86.353 86.3373 86.3074 86.3411 86.2646C86.526 84.2941 84.9302 82.6609 83.2237 82.1497C82.7859 82.0187 82.416 82.0112 82.0163 82.3198C81.31 82.8645 80.5525 83.3432 79.834 83.8368C79.6537 83.3581 79.5403 82.8989 79.3135 82.5048C79.1211 82.1702 78.8358 81.8207 78.3394 82.0103C76.9081 82.5568 75.4786 83.1062 74.0528 83.6657C73.9506 83.7057 73.8056 83.8526 73.8158 83.9325C73.8809 84.4475 73.9841 84.9568 74.0724 85.4541C74.868 85.4671 75.0799 85.6289 75.2769 86.3372C75.3225 86.5007 75.3596 86.6681 75.382 86.8363C75.6571 88.924 75.5669 91.0089 75.3355 93.0919C75.2723 93.6635 75.1598 94.2277 74.7109 94.6544C74.6579 94.7046 74.6319 94.8301 74.6523 94.9054C74.7852 95.3934 74.9349 95.8758 75.0483 96.2578C77.4109 95.7205 79.7197 95.1954 82.047 94.6656C81.9559 94.2101 81.8565 93.7137 81.7552 93.2071C81.5209 93.2313 81.3239 93.2536 81.1259 93.2713C80.7328 93.3066 80.3666 93.2453 80.1658 92.8604C79.8052 92.1717 79.7838 91.4216 79.7466 90.638C80.0608 90.638 80.3192 90.6882 80.5506 90.6296C82.1204 90.2355 83.6392 89.7159 84.9274 88.6842C85.3865 88.317 85.9721 88.4481 86.1589 89.0021C86.276 89.3478 86.3429 89.7289 86.3392 90.0933C86.3271 91.2542 86.3736 92.4301 86.1998 93.5706C86.0539 94.5308 86.4535 95.0559 87.1599 95.5105C87.2119 95.5439 87.2631 95.5793 87.3151 95.6127C88.3338 96.2522 89.1285 96.1964 89.9259 95.3041C90.4483 94.7204 90.8554 94.0335 91.3127 93.3921C91.3926 93.2797 91.4642 93.1597 91.5394 93.0426C91.5831 93.0584 91.6259 93.0742 91.6696 93.0891C91.6696 93.5659 91.6612 94.0437 91.6742 94.5196C91.6779 94.6674 91.6891 94.8626 91.7802 94.9537C92.1631 95.3348 92.5572 95.7094 92.9847 96.0366C93.3193 96.2922 93.6604 96.2736 94.0341 95.9836C95.2451 95.0439 96.4869 94.1441 97.7184 93.2304C97.8429 93.1384 97.974 93.0547 98.1013 92.9673C98.1543 93.0036 98.2082 93.0398 98.2612 93.0761C98.0762 93.5548 98 94.132 97.6784 94.488C97.2546 94.9574 97.3782 95.2911 97.6617 95.6843C97.8234 95.9092 98.0205 96.1081 98.2045 96.3154C98.3736 96.506 98.5493 96.5023 98.7789 96.3861C99.8701 95.8349 100.971 95.3023 102.067 94.7613C102.215 94.6879 102.359 94.6051 102.5 94.5289C102.449 94.2891 102.404 94.093 102.366 93.8969C102.144 92.7601 102.003 91.6205 102.521 90.5265C102.644 90.2662 102.901 90.0701 103.096 89.8442C103.231 90.1017 103.414 90.3471 103.487 90.6203C103.566 90.9131 103.563 91.2347 103.557 91.5433C103.542 92.3018 103.514 93.0603 103.474 93.8178C103.431 94.6544 104.193 95.9306 104.979 96.2197C105.168 96.2894 105.476 96.2522 105.64 96.137C106.586 95.464 107.505 94.752 108.433 94.0539C108.713 93.8429 108.994 93.6329 109.273 93.4228L109.267 93.4284ZM25.4791 92.8586C25.401 93.5771 25.4977 94.2324 24.9456 94.6116C24.4901 94.9249 24.5515 95.2502 24.7392 95.6332C24.8545 95.8674 24.98 96.1091 25.1566 96.2959C25.2495 96.3954 25.4865 96.4576 25.6129 96.4121C26.9634 95.9157 28.3018 95.3868 29.6504 94.8868C29.9153 94.7892 29.9729 94.6553 29.9135 94.4016C29.7973 93.9043 29.6783 93.407 29.5984 92.9032C29.4497 91.9653 29.3642 91.0228 29.7285 90.1091C29.8735 89.7447 30.1086 89.4622 30.5408 89.4482C30.9879 89.4343 31.2268 89.7234 31.3383 90.0989C31.4303 90.4093 31.6069 90.4744 31.8876 90.4372C32.0252 90.4196 32.1683 90.4084 32.3049 90.4251C32.6395 90.467 32.8143 90.3229 32.7994 89.9938C32.7594 89.1238 33.2399 88.7204 34.03 88.5754C34.1359 88.5559 34.2363 88.5094 34.3413 88.4825C35.2466 88.251 36.1277 88.3523 36.9689 88.7316C37.1371 88.8078 37.3369 89.0411 37.3351 89.2C37.3332 89.3478 37.1083 89.5505 36.9364 89.6276C36.6296 89.7652 36.283 89.8135 35.9623 89.9232C35.1741 90.1928 34.3702 90.4288 33.6117 90.7663C32.9091 91.0786 32.4945 91.6735 32.3709 92.4533C32.1367 93.9396 32.9388 95.4082 34.3125 96.0264C34.6118 96.1611 34.846 96.1481 35.1249 95.9585C35.9019 95.4277 36.7003 94.9277 37.5275 94.3904C37.5851 94.5838 37.6241 94.7315 37.6725 94.8747C37.8649 95.4408 38.206 95.8776 38.7525 96.149C39.0174 96.281 39.2256 96.2717 39.4719 96.0821C40.1968 95.5263 40.9413 94.9965 41.6802 94.4592C41.7723 94.3923 41.8773 94.3449 42.013 94.2668C42.013 94.3895 42.0148 94.4508 42.013 94.5122C41.9975 95.1033 42.2664 95.4789 42.8197 95.6387C45.3088 96.3573 46.268 96.1899 48.1929 94.7018C48.2663 94.6451 48.3379 94.5856 48.4104 94.528C48.52 94.4397 48.6288 94.3504 48.784 94.224C48.784 94.4546 48.8072 94.5977 48.7803 94.7306C48.679 95.2242 48.8862 95.4947 49.3658 95.5672C50.4644 95.7326 51.563 95.8925 52.6635 96.044C52.7778 96.0598 52.9265 96.0403 53.0167 95.9762C53.9359 95.3236 54.8737 94.6944 55.7465 93.9852C56.2577 93.5687 56.5356 92.9562 56.5941 92.2776C56.6982 91.06 56.0662 90.2625 55.0438 89.768C54.3096 89.4129 53.5158 89.1814 52.7546 88.8803C52.4553 88.7613 52.1477 88.6358 51.8884 88.4509C51.6736 88.2975 51.6569 88.0744 51.9841 87.9852C52.8159 87.7584 54.1181 88.2426 54.5717 88.9342C54.6153 89.0002 54.7009 89.0727 54.7733 89.0801C55.1544 89.121 55.5383 89.1415 56.0262 89.1768C56.0997 88.0716 56.1787 87.011 56.2242 85.9486C56.2289 85.8501 56.0327 85.6698 55.9119 85.6512C54.9341 85.5071 53.9545 85.3751 52.9702 85.2812C52.7509 85.2608 52.4813 85.3556 52.2927 85.4829C51.3242 86.1327 50.3743 86.8112 49.4569 87.4526C49.4569 87.0612 49.4411 86.6011 49.4625 86.1429C49.4764 85.8538 49.4207 85.6651 49.0944 85.6289C48.0665 85.5127 47.0394 85.3863 46.0115 85.2701C45.9241 85.2599 45.8116 85.2701 45.7447 85.3184C44.7446 86.0453 43.6628 86.6876 42.777 87.5353C41.5548 88.7046 41.7778 90.3257 43.1934 91.2515C43.7566 91.6205 44.4054 91.8612 45.0225 92.1457C45.4436 92.3399 45.8869 92.4877 46.2959 92.7024C46.4492 92.7833 46.5357 92.9924 46.6518 93.1439C46.4827 93.2164 46.3126 93.3512 46.1434 93.3512C44.9119 93.3512 43.8719 92.8958 43.0261 91.9774C42.8644 92.0369 42.6915 92.1029 42.5177 92.1652C41.3847 92.5667 41.038 92.3362 41.0017 91.1427C40.9925 90.8341 41.0092 90.5237 41.0315 90.2151C41.0668 89.7206 41.0557 89.2131 41.1709 88.7371C41.4544 87.565 41.0138 86.8651 39.9626 86.313C38.9077 85.759 37.8779 85.2171 36.664 85.1892C36.4038 85.1836 36.1119 85.2571 35.8824 85.3825C35.1091 85.8064 34.3581 86.2712 33.5959 86.7164C33.4993 86.7731 33.3905 86.8075 33.2715 86.8586C33.2204 85.785 33.1767 85.7339 32.132 85.4588C32.027 85.4309 31.9229 85.403 31.816 85.3825C30.9461 85.2162 30.9424 85.2143 30.5232 85.9904C30.3103 86.3855 30.1124 86.788 29.9144 87.1914C29.762 87.5018 29.6198 87.8179 29.4729 88.1311C29.4041 87.6347 29.379 87.1542 29.4664 86.695C29.5872 86.0602 29.3037 85.7265 28.7832 85.4588C28.3306 85.2264 27.93 85.1241 27.4374 85.403C26.6985 85.8222 25.9178 86.167 25.1538 86.5435C24.386 86.9215 24.0948 87.5303 24.2801 88.37C24.2857 88.3969 24.3163 88.4183 24.3349 88.4416C24.9948 88.4778 25.1696 88.6033 25.2941 89.266C25.3852 89.7503 25.4252 90.2476 25.4503 90.7412C25.4763 91.2533 25.4558 91.7673 25.4558 92.4115C25.2504 92.1178 25.1296 91.9449 25.0088 91.7711C24.5701 91.9291 24.1583 92.1075 23.7299 92.2228C23.2363 92.3557 22.9463 92.1968 22.8794 91.7097C22.6638 90.1481 22.622 88.5689 23.1638 87.0742C23.4018 86.418 23.2317 85.9895 22.9092 85.4997C22.7502 85.2571 22.5904 85.1901 22.2985 85.3045C21.1609 85.7506 20.0149 86.1773 18.8642 86.5891C18.5677 86.695 18.4655 86.8298 18.4878 87.157C18.5473 88.0363 18.616 88.9221 18.5668 89.7986C18.5342 90.3721 18.3205 90.9391 18.1495 91.4969C18.1114 91.6214 17.892 91.7878 17.7879 91.7683C17.6689 91.745 17.5314 91.548 17.4988 91.4048C17.4422 91.152 17.431 90.8806 17.4514 90.6213C17.5453 89.4482 17.5871 88.265 17.787 87.1096C17.9171 86.3576 17.6169 85.9421 17.0815 85.5657C17.0183 85.521 16.9533 85.4792 16.8919 85.4318C16.6215 85.2236 16.3612 85.2069 16.0368 85.3621C15.0182 85.8501 13.9828 86.3028 12.9539 86.7684C12.2215 87.1003 12.2252 87.0993 12.3664 87.8653C12.4315 88.2175 12.451 88.554 12.9678 88.5577C13.1239 88.5587 13.3303 88.8329 13.4186 89.0253C13.5245 89.2567 13.5719 89.5356 13.5691 89.7921C13.5533 91.046 13.611 92.312 13.4483 93.5483C13.3089 94.6098 13.8108 95.1526 14.5869 95.6313C15.5851 96.2466 16.3789 96.1918 17.1642 95.3255C17.6699 94.7678 18.0649 94.1106 18.5054 93.4953C18.6067 93.354 18.6923 93.2016 18.853 92.946C18.8865 93.5799 18.9079 94.0725 18.9404 94.5633C18.9497 94.6972 18.9479 94.8765 19.0287 94.9537C19.4414 95.3469 19.8606 95.7382 20.3151 96.0803C20.606 96.2987 20.9192 96.2717 21.2445 96.0189C22.2716 95.2205 23.3246 94.4564 24.3684 93.6803C24.7002 93.433 25.0329 93.1876 25.4772 92.8586H25.4791ZM71.034 91.7822C70.7487 91.9114 70.5014 92.0332 70.2458 92.1364C69.3201 92.5109 68.7085 92.3762 68.0328 91.6381C67.5105 91.0674 67.161 90.4 66.9974 89.6416C66.8078 88.7613 67.0104 88.5475 67.8981 88.7464C68.531 88.8886 69.1575 89.069 69.7718 89.2781C70.1231 89.398 70.2997 89.3004 70.389 88.9723C70.6093 88.1543 70.8212 87.3336 71.0442 86.5165C71.1297 86.2033 71.0359 85.9923 70.7161 85.9254C69.783 85.7302 68.848 85.5415 67.9101 85.3686C67.7912 85.3463 67.6267 85.3974 67.5254 85.4727C66.582 86.1754 65.6339 86.8735 64.7128 87.6059C63.5185 88.5559 63.0882 89.8247 63.2583 91.3193C63.3428 92.0676 63.2768 92.1494 62.5212 92.2423C61.9951 92.3074 61.7423 92.154 61.6791 91.6316C61.6271 91.2059 61.615 90.7607 61.6791 90.3387C61.852 89.1926 62.0788 88.054 62.274 86.9107C62.2981 86.7666 62.3223 86.55 62.2442 86.4738C61.8353 86.0787 61.4161 85.6837 60.9486 85.3649C60.7794 85.2496 60.4346 85.2729 60.2236 85.3612C59.2235 85.7757 58.2411 86.234 57.2531 86.6774C56.1954 87.1514 56.1852 87.1709 56.5263 88.2696C56.5532 88.356 56.648 88.4852 56.714 88.4871C57.4976 88.5048 57.5775 89.0811 57.6277 89.649C57.7652 91.2031 57.6277 92.7405 57.307 94.2659C57.2689 94.449 57.241 94.6944 57.3303 94.8356C57.7336 95.4779 58.2653 96.0022 59.0098 96.2262C59.2087 96.2866 59.5061 96.2448 59.679 96.1295C60.8017 95.3859 61.9022 94.6079 63.0101 93.842C63.261 93.6691 63.5129 93.4981 63.7797 93.315C63.8931 93.5074 63.9758 93.6552 64.0659 93.7983C64.764 94.9137 65.7008 95.728 66.9816 96.1109C67.2976 96.2057 67.5532 96.1751 67.8274 95.9399C68.873 95.0429 69.9447 94.1748 71.0061 93.2954C71.206 93.13 71.4039 92.9627 71.6196 92.7814C71.4132 92.4282 71.2283 92.1131 71.0349 91.7822H71.034ZM7.2294 99.2229C7.29725 99.195 7.33164 99.1904 7.35115 99.1709C8.90333 97.6576 10.4583 96.1472 11.9993 94.6219C12.1108 94.5113 12.1638 94.2956 12.1648 94.1283C12.1685 93.4163 12.1285 92.7043 12.1294 91.9923C12.1313 89.8563 12.1332 87.7203 12.1582 85.5843C12.1685 84.7003 12.3125 83.8582 13.36 83.5756C13.2206 83.0197 13.0933 82.5141 12.9687 82.0177C10.4936 82.5262 8.05103 83.0281 5.57777 83.5365C5.6354 84.0664 5.69302 84.5971 5.74972 85.1186C7.25356 85.219 7.55563 85.5145 7.70992 86.9897C7.71643 87.051 7.72386 87.1133 7.72479 87.1746C7.75453 88.8924 7.78242 90.6101 7.81216 92.3278C7.84004 93.934 7.45432 95.4212 6.56298 96.7718C6.28508 97.1929 6.05086 97.6428 5.78597 98.1001C6.30088 98.4998 6.7749 98.8679 7.23126 99.2229H7.2294ZM58.3127 84.876C59.9346 84.2058 61.5165 83.5533 63.1328 82.885C62.8567 82.0224 62.55 81.2183 61.9245 80.5854C61.733 80.3911 61.4914 80.2359 61.2497 80.1057C60.9514 79.9449 60.6949 79.984 60.4374 80.2712C59.6418 81.1579 58.8118 82.0131 57.9967 82.8812C57.7987 83.0922 57.6035 83.307 57.4046 83.5226C57.7132 83.9827 57.9967 84.4047 58.3127 84.876Z" fill="black"/>
<path d="M72.795 103.415C72.8767 103.377 72.9576 103.306 73.0394 103.305C73.9958 103.298 74.9522 103.3 76.0313 103.3C72.7931 108.015 69.6116 112.647 66.352 117.392C63.2012 112.671 60.1108 108.039 56.9507 103.304H60.0318C60.0569 103.36 60.0746 103.421 60.108 103.471C61.6797 105.817 63.2533 108.162 64.8268 110.507C65.3213 111.244 65.8176 111.981 66.3409 112.76C66.4664 112.603 66.5556 112.502 66.6318 112.393C67.9005 110.552 69.1701 108.712 70.4342 106.868C71.0337 105.993 71.6238 105.112 72.2178 104.234C72.4102 103.962 72.6026 103.689 72.7959 103.416L72.795 103.415Z" fill="black"/>
<path d="M72.2177 104.234C71.6238 105.112 71.0336 105.993 70.4341 106.867C69.17 108.71 67.9004 110.551 66.6317 112.392C66.5564 112.502 66.4663 112.602 66.3408 112.759C65.8175 111.98 65.3212 111.244 64.8267 110.506C63.2532 108.162 61.6806 105.817 60.108 103.471C60.0745 103.42 60.0568 103.36 60.0317 103.303C64.0627 103.302 68.0947 103.3 72.1257 103.305C72.3488 103.305 72.5718 103.377 72.7949 103.415C72.6025 103.688 72.4101 103.961 72.2168 104.235C72.293 103.976 72.3692 103.718 72.4538 103.432C72.3237 103.419 72.2047 103.398 72.0848 103.397C70.4285 103.395 68.7722 103.407 67.116 103.388C66.6568 103.382 66.5369 103.565 66.5388 103.994C66.5527 106.393 66.5444 108.792 66.5472 111.192C66.5472 111.346 66.576 111.502 66.6057 111.793C66.8297 111.508 66.9673 111.346 67.09 111.173C68.657 108.966 70.2194 106.755 71.7929 104.552C71.8905 104.414 72.0736 104.338 72.2168 104.233L72.2177 104.234Z" fill="#F5F5F5"/>
<path d="M39.3798 64.089C38.0581 63.3212 36.7383 62.5498 35.412 61.7894C35.1397 61.6333 35.1973 61.4762 35.3284 61.2596C36.4019 59.4898 37.4707 57.7172 38.5368 55.9428C39.8092 53.8245 41.0714 51.6996 42.3485 49.584C43.7538 47.2565 45.1768 44.9402 46.5812 42.6127C48.822 38.8975 51.0518 35.1739 53.2918 31.4577C54.9741 28.6664 56.6703 25.8834 58.3507 23.0912C60.1102 20.166 61.8575 17.2343 63.6123 14.3064C64.5334 12.769 65.4601 11.2344 66.3839 9.69882C66.502 9.50269 66.6219 9.30192 66.7539 9.69045C66.7157 9.96187 66.6451 10.2333 66.6451 10.5047C66.6395 32.7144 66.6405 54.9241 66.6367 77.1337C66.6367 77.4237 66.581 77.7137 66.5512 78.0047C65.4991 78.0084 64.447 78.0363 63.3958 78.0019C63.0426 77.9907 62.6541 77.8894 62.3492 77.7119C60.1204 76.4124 57.9111 75.0795 55.6916 73.7652C52.7118 72.0028 49.7245 70.2535 46.7466 68.4884C44.2864 67.03 41.8363 65.5567 39.3807 64.0899L39.3798 64.089Z" fill="#F5F5F5"/>
<path d="M66.5503 78.0037C66.58 77.7137 66.6358 77.4237 66.6358 77.1327C66.6395 54.923 66.6395 32.7134 66.6442 10.5037C66.6442 10.2323 66.7148 9.96087 66.7529 9.68945C67.8896 11.5652 69.0263 13.44 70.1621 15.3167C71.586 17.6702 73.0109 20.0219 74.4311 22.3782C75.7472 24.5616 77.0567 26.7497 78.3701 28.9359C80.6621 32.7496 82.9513 36.5653 85.247 40.3772C87.0641 43.3944 88.8914 46.4069 90.7103 49.4231C92.888 53.0343 95.062 56.6473 97.236 60.2603C97.4349 60.5912 97.6096 60.9388 97.8336 61.2521C98.0436 61.5467 97.9767 61.688 97.6765 61.86C96.3493 62.6212 95.036 63.4058 93.7171 64.1819C91.9688 65.2332 90.2251 66.2937 88.4694 67.3329C86.0872 68.743 83.693 70.1317 81.308 71.5371C78.9761 72.91 76.6487 74.2894 74.3214 75.6715C73.0192 76.4449 71.7227 77.2285 70.4233 78.0074L66.5503 78.0046V78.0037Z" fill="#FEFEFE"/>
<path d="M109.268 93.4276C108.988 93.6376 108.707 93.8477 108.427 94.0587C107.499 94.7568 106.58 95.4688 105.634 96.1417C105.472 96.2579 105.162 96.2942 104.973 96.2245C104.188 95.9344 103.425 94.6592 103.469 93.8226C103.509 93.0651 103.537 92.3066 103.551 91.5481C103.558 91.2395 103.561 90.9188 103.482 90.6251C103.408 90.3509 103.225 90.1064 103.09 89.849C102.895 90.0748 102.638 90.2709 102.515 90.5312C101.997 91.6252 102.139 92.7658 102.36 93.9016C102.398 94.0987 102.444 94.2939 102.495 94.5337C102.352 94.6099 102.209 94.6926 102.062 94.7661C100.965 95.307 99.8643 95.8387 98.7731 96.3908C98.5436 96.507 98.3679 96.5107 98.1987 96.3202C98.0138 96.1129 97.8177 95.9131 97.6559 95.6891C97.3725 95.2959 97.2489 94.9622 97.6727 94.4928C97.9933 94.1368 98.0696 93.5596 98.2554 93.0809C98.2025 93.0446 98.1486 93.0084 98.0956 92.9721C97.9673 93.0595 97.8372 93.1431 97.7127 93.2352C96.4811 94.1489 95.2394 95.0486 94.0283 95.9884C93.6547 96.2784 93.3136 96.2979 92.979 96.0413C92.5514 95.7142 92.1564 95.3396 91.7744 94.9585C91.6833 94.8683 91.6722 94.6731 91.6685 94.5244C91.6554 94.0475 91.6638 93.5707 91.6638 93.0939C91.6201 93.0781 91.5774 93.0623 91.5337 93.0474C91.4584 93.1636 91.3878 93.2835 91.3069 93.3969C90.8496 94.0392 90.4425 94.7252 89.9202 95.3089C89.1227 96.2012 88.328 96.2579 87.3094 95.6175C87.2573 95.585 87.2062 95.5487 87.1541 95.5152C86.4478 95.0607 86.0481 94.5365 86.194 93.5754C86.3678 92.4348 86.3214 91.259 86.3334 90.0981C86.3372 89.7337 86.2702 89.3526 86.1531 89.0068C85.9663 88.4528 85.3798 88.3218 84.9216 88.6889C83.6334 89.7207 82.1147 90.2403 80.5449 90.6344C80.3134 90.6929 80.055 90.6428 79.7409 90.6428C79.7781 91.4263 79.7994 92.1764 80.1601 92.8652C80.3617 93.25 80.727 93.3114 81.1202 93.2761C81.3182 93.2584 81.5152 93.2361 81.7494 93.2119C81.8507 93.7185 81.9502 94.2149 82.0413 94.6703C79.7139 95.1992 77.4052 95.7244 75.0425 96.2626C74.9291 95.8815 74.7804 95.3981 74.6466 94.9101C74.6261 94.8358 74.6512 94.7103 74.7051 94.6592C75.155 94.2316 75.2665 93.6683 75.3297 93.0967C75.5612 91.0136 75.6522 88.9278 75.3762 86.8411C75.3539 86.6728 75.3167 86.5055 75.2712 86.3419C75.0741 85.6336 74.8622 85.4719 74.0666 85.4589C73.9783 84.9616 73.8751 84.4513 73.8101 83.9373C73.7999 83.8573 73.9449 83.7114 74.0471 83.6705C75.4729 83.1109 76.9023 82.5616 78.3337 82.0151C78.8291 81.8254 79.1154 82.1749 79.3078 82.5096C79.5345 82.9037 79.6479 83.3628 79.8282 83.8415C80.5467 83.348 81.3042 82.8693 82.0106 82.3246C82.4102 82.016 82.7802 82.0234 83.2179 82.1545C84.9244 82.6657 86.5203 84.2979 86.3353 86.2694C86.3316 86.3122 86.3511 86.3577 86.3715 86.459C87.1597 86.103 87.9451 85.7824 88.697 85.3966C89.1097 85.1856 89.408 85.272 89.7575 85.51C90.3728 85.9292 90.6628 86.4153 90.5243 87.2138C90.3394 88.279 90.2799 89.3665 90.1934 90.4466C90.1665 90.7813 90.2027 91.1261 90.2576 91.4579C90.278 91.5816 90.4258 91.7582 90.5336 91.7721C90.6386 91.786 90.8431 91.6429 90.8719 91.5341C91.0541 90.8361 91.2818 90.1343 91.3357 89.4223C91.3943 88.6573 91.2939 87.8775 91.2335 87.106C91.213 86.8457 91.266 86.7193 91.5225 86.6263C92.715 86.1941 93.8973 85.7322 95.0925 85.3083C95.2282 85.26 95.4922 85.3325 95.5814 85.4422C95.9829 85.9348 96.1837 86.4153 95.8816 87.1218C95.4011 88.2493 95.5024 89.492 95.5173 90.7004C95.521 91.0239 95.5461 91.3529 95.6121 91.668C95.7283 92.2173 95.9774 92.3698 96.5192 92.2146C96.931 92.0965 97.3279 91.9236 97.747 91.7693C97.8725 91.9478 97.9933 92.1188 98.1142 92.2898C98.1476 92.2852 98.182 92.2805 98.2155 92.275C98.2155 91.8046 98.2248 91.3334 98.2127 90.863C98.2006 90.3834 98.1811 89.9029 98.1421 89.4242C98.0723 88.5876 97.893 88.4287 97.0388 88.4482C96.9514 88.0234 96.8622 87.5893 96.7637 87.1097C97.1364 86.9424 97.4979 86.7788 97.8614 86.618C98.8243 86.1932 99.7937 85.7833 100.747 85.338C101.061 85.1921 101.305 85.2191 101.555 85.4254C101.639 85.4942 101.72 85.5658 101.807 85.6308C102.263 85.9692 102.497 86.3614 102.34 86.9749C102.219 87.4545 102.23 87.9676 102.181 88.4668L102.292 88.4974C102.51 88.1154 102.719 87.7287 102.946 87.3523C103.186 86.9554 103.415 86.5464 103.698 86.182C104.342 85.3529 105.097 85.1298 106.087 85.4691C106.657 85.6643 107.209 85.9097 107.844 86.1616C107.725 87.2863 107.586 88.4212 107.491 89.5589C107.434 90.2505 107.403 90.9495 107.437 91.641C107.465 92.1987 107.749 92.3503 108.301 92.2238C109.292 91.9961 109.314 91.9515 109.286 90.9402C109.245 89.4548 109.177 87.9686 109.208 86.4841C109.238 85.0109 109.822 83.7291 110.935 82.754C111.759 82.0318 112.661 81.3979 113.535 80.7314C113.614 80.671 113.734 80.6329 113.833 80.6338C114.849 80.6468 115.843 80.7825 116.75 81.2807C118 81.9686 118.364 83.2113 117.534 84.3769C117.061 85.0415 116.413 85.6188 115.746 86.0984C115.049 86.5994 114.24 86.948 113.467 87.3356C113.228 87.4555 113.114 87.5735 113.122 87.8542C113.141 88.6201 113.128 89.3861 113.223 90.1752C113.297 90.0683 113.376 89.9642 113.444 89.8536C114.29 88.4677 115.338 87.2491 116.56 86.1858C116.74 86.0287 117.061 85.9422 117.303 85.9664C117.76 86.0119 118.212 86.1467 118.657 86.2778C118.776 86.3131 118.921 86.4525 118.949 86.5696C119.171 87.4899 119.092 88.3878 118.631 89.2253C118.278 89.8694 117.841 90.0414 117.114 89.8759C116.83 89.8118 116.474 89.6584 116.322 89.9912C116.221 90.2142 116.241 90.5888 116.368 90.7998C116.682 91.3259 117.06 91.8204 117.464 92.2833C117.846 92.7202 118.338 92.775 118.853 92.4841C119.242 92.2638 119.633 92.0444 120.042 91.813C120.158 91.9654 120.248 92.2118 120.384 92.2396C121.56 92.485 122.464 93.5577 123.777 93.3597C123.942 93.3346 124.093 93.2296 124.25 93.1617C124.152 93.0167 124.086 92.8094 123.949 92.7379C123.525 92.5166 123.072 92.3549 122.636 92.156C122.046 91.8864 121.427 91.6587 120.883 91.3157C119.352 90.3546 119.135 88.6768 120.46 87.4452C121.326 86.6412 122.366 86.025 123.334 85.3306C123.402 85.2823 123.512 85.2655 123.598 85.2748C124.641 85.3929 125.684 85.51 126.724 85.6532C126.847 85.6699 127.048 85.8484 127.043 85.945C126.998 87.0084 126.919 88.0708 126.846 89.1806C126.365 89.1462 125.983 89.123 125.601 89.0868C125.534 89.0802 125.433 89.0394 125.413 88.9882C125.115 88.2465 124.439 88.1461 123.781 88.0327C123.508 87.9853 123.225 87.9686 122.95 87.9844C122.822 87.9918 122.699 88.1071 122.573 88.173C122.651 88.2976 122.698 88.4723 122.81 88.5365C123.075 88.6889 123.367 88.7986 123.654 88.9101C124.375 89.1899 125.12 89.4158 125.814 89.7476C126.854 90.2449 127.515 91.0331 127.413 92.275C127.355 92.9898 127.046 93.6172 126.507 94.0531C125.656 94.741 124.737 95.347 123.842 95.9791C123.762 96.0358 123.638 96.0525 123.535 96.0516C122.32 96.0441 121.128 95.8889 119.969 95.505C119.692 95.413 119.558 95.2801 119.592 94.9771C119.636 94.5792 119.656 94.1786 119.691 93.7008C119.514 93.8486 119.374 93.9592 119.24 94.0773C118.472 94.7512 117.692 95.4139 116.944 96.1092C116.675 96.3583 116.42 96.3908 116.158 96.1984C115.838 95.9614 115.499 95.7142 115.269 95.3981C114.787 94.7372 114.37 94.029 113.93 93.3374C113.823 93.1692 113.73 92.9925 113.597 92.7611C113.093 93.6339 112.81 94.5272 112.66 95.4567C112.606 95.795 112.483 95.9326 112.154 95.9856C111.314 96.1194 110.487 96.1408 109.691 95.7913C109.015 95.4939 108.903 95.2169 109.113 94.5355C109.216 94.2 109.285 93.8533 109.37 93.5112C109.334 93.4852 109.297 93.4592 109.261 93.4331L109.268 93.4276ZM79.66 88.4324C80.1982 88.4324 80.6582 88.4668 81.1109 88.4222C81.491 88.385 81.7048 88.1219 81.7187 87.7241C81.7475 86.9387 81.3748 86.3614 80.7503 85.9385C80.2679 85.6113 79.8942 85.7424 79.8069 86.3187C79.7046 86.9981 79.7056 87.6934 79.6591 88.4333L79.66 88.4324ZM113.091 85.7628C113.137 85.7963 113.181 85.8288 113.227 85.8623C113.624 85.5593 114.062 85.2944 114.403 84.9374C114.599 84.732 114.8 84.31 114.713 84.1083C114.588 83.8164 114.236 83.5553 113.921 83.427C113.485 83.2485 113.246 83.4381 113.202 83.9178C113.144 84.5312 113.127 85.1475 113.091 85.7628Z" fill="#FEFEFE"/>
<path d="M25.4796 92.8582C25.0353 93.1873 24.7026 93.4327 24.3708 93.6799C23.327 94.457 22.273 95.2201 21.2469 96.0186C20.9207 96.2723 20.6084 96.2993 20.3174 96.0799C19.8629 95.7379 19.4438 95.3465 19.0311 94.9534C18.9502 94.8762 18.9512 94.6968 18.9428 94.563C18.9103 94.0722 18.8889 93.5795 18.8554 92.9456C18.6946 93.2003 18.6091 93.3527 18.5078 93.495C18.0673 94.1103 17.6713 94.7675 17.1666 95.3252C16.3812 96.1915 15.5884 96.2463 14.5893 95.631C13.8132 95.1523 13.3113 94.6104 13.4507 93.5479C13.6134 92.3117 13.5548 91.0457 13.5715 89.7918C13.5752 89.5343 13.5269 89.2564 13.421 89.0249C13.3327 88.8325 13.1263 88.5583 12.9702 88.5574C12.4534 88.5537 12.4339 88.2172 12.3688 87.8649C12.2275 87.0981 12.2238 87.0999 12.9562 86.7681C13.9851 86.3024 15.0205 85.8498 16.0392 85.3618C16.3636 85.2065 16.6238 85.2233 16.8943 85.4315C16.9556 85.4789 17.0207 85.5207 17.0839 85.5653C17.6183 85.9427 17.9195 86.3573 17.7894 87.1092C17.5895 88.2646 17.5477 89.4479 17.4538 90.6209C17.4334 90.8803 17.4445 91.1517 17.5012 91.4045C17.5328 91.5476 17.6713 91.7447 17.7903 91.7679C17.8944 91.7874 18.1137 91.6211 18.1518 91.4965C18.3238 90.9388 18.5376 90.3718 18.5692 89.7983C18.6184 88.9218 18.5496 88.036 18.4902 87.1566C18.4678 86.8295 18.571 86.6947 18.8666 86.5887C20.0172 86.1769 21.1632 85.7503 22.3009 85.3041C22.5927 85.1898 22.7517 85.2567 22.9115 85.4993C23.2331 85.9892 23.4032 86.4177 23.1662 87.0739C22.6253 88.5686 22.6662 90.1478 22.8818 91.7094C22.9496 92.1974 23.2387 92.3563 23.7322 92.2225C24.1607 92.1072 24.5725 91.9278 25.0111 91.7707C25.1329 91.9445 25.2528 92.1174 25.4582 92.4112C25.4582 91.7661 25.4787 91.2521 25.4526 90.7408C25.4275 90.2473 25.3876 89.7509 25.2965 89.2657C25.1719 88.603 24.9972 88.4775 24.3373 88.4412C24.3187 88.418 24.288 88.3966 24.2825 88.3696C24.0972 87.53 24.3884 86.9212 25.1561 86.5432C25.9201 86.1676 26.7009 85.8228 27.4398 85.4027C27.9324 85.1229 28.3321 85.2251 28.7856 85.4584C29.307 85.7261 29.5896 86.0589 29.4688 86.6947C29.3814 87.1539 29.4065 87.6344 29.4753 88.1308C29.6221 87.8175 29.7643 87.5015 29.9168 87.191C30.1147 86.7886 30.3127 86.3851 30.5256 85.9901C30.9438 85.214 30.9485 85.2158 31.8184 85.3822C31.9244 85.4027 32.0294 85.4315 32.1344 85.4584C33.1791 85.7336 33.2228 85.7856 33.2739 86.8583C33.3929 86.8062 33.5026 86.7718 33.5983 86.7161C34.3595 86.2708 35.1105 85.8061 35.8847 85.3822C36.1134 85.2567 36.4052 85.1824 36.6664 85.1889C37.8803 85.2168 38.9101 85.7587 39.965 86.3126C41.0162 86.8648 41.4568 87.5638 41.1733 88.7368C41.058 89.2127 41.0692 89.7212 41.0339 90.2147C41.0116 90.5233 40.9948 90.8338 41.0041 91.1424C41.0404 92.3359 41.3871 92.5664 42.5201 92.1648C42.6948 92.1026 42.8677 92.0366 43.0285 91.9771C43.8733 92.8954 44.9134 93.3518 46.1458 93.3509C46.315 93.3509 46.4851 93.2161 46.6542 93.1436C46.5371 92.993 46.4516 92.783 46.2983 92.7021C45.8893 92.4874 45.445 92.3396 45.0249 92.1453C44.4087 91.86 43.7599 91.6192 43.1958 91.2511C41.7802 90.3253 41.5562 88.7043 42.7794 87.535C43.6651 86.6872 44.747 86.0449 45.7471 85.3181C45.8131 85.2697 45.9265 85.2604 46.0138 85.2697C47.0418 85.3859 48.0688 85.5123 49.0968 85.6285C49.423 85.6657 49.4788 85.8535 49.4649 86.1425C49.4435 86.6008 49.4593 87.0609 49.4593 87.4522C50.3767 86.8109 51.3266 86.1332 52.295 85.4826C52.4846 85.3553 52.7533 85.2604 52.9726 85.2809C53.956 85.3748 54.9365 85.5058 55.9143 85.6508C56.0351 85.6685 56.2312 85.8498 56.2266 85.9483C56.1801 87.0107 56.1011 88.0713 56.0286 89.1765C55.5407 89.1411 55.1568 89.1207 54.7757 89.0798C54.7032 89.0724 54.6168 88.9999 54.574 88.9339C54.1205 88.2423 52.8183 87.758 51.9865 87.9848C51.6593 88.0741 51.676 88.2962 51.8907 88.4505C52.15 88.6355 52.4568 88.7619 52.757 88.8799C53.5182 89.1811 54.3119 89.4126 55.0462 89.7676C56.0695 90.2621 56.7015 91.0596 56.5965 92.2773C56.538 92.9558 56.2601 93.5693 55.7489 93.9848C54.8761 94.695 53.9374 95.3242 53.0191 95.9758C52.9289 96.0399 52.7802 96.0595 52.6659 96.0437C51.5654 95.8922 50.4668 95.7323 49.3682 95.5668C48.8886 95.4943 48.6814 95.2238 48.7827 94.7303C48.8096 94.5974 48.7864 94.4542 48.7864 94.2237C48.6312 94.3492 48.5224 94.4384 48.4127 94.5276C48.3402 94.5862 48.2687 94.6448 48.1953 94.7015C46.2704 96.1905 45.3121 96.3578 42.8221 95.6384C42.2682 95.4785 41.9993 95.103 42.0154 94.5118C42.0172 94.4505 42.0154 94.3891 42.0154 94.2664C41.8797 94.3436 41.7746 94.3919 41.6826 94.4589C40.9437 94.9961 40.1983 95.5259 39.4743 96.0818C39.228 96.2714 39.0188 96.2798 38.7549 96.1487C38.2084 95.8764 37.8672 95.4404 37.6749 94.8744C37.6256 94.7312 37.5875 94.5834 37.5299 94.3901C36.7027 94.9264 35.9043 95.4265 35.1272 95.9582C34.8493 96.1487 34.6151 96.1617 34.3149 96.026C32.9412 95.407 32.1391 93.9393 32.3733 92.453C32.496 91.6731 32.9105 91.0782 33.6141 90.7659C34.3725 90.4285 35.1765 90.1924 35.9647 89.9229C36.2863 89.8132 36.632 89.7648 36.9387 89.6273C37.1107 89.5501 37.3356 89.3475 37.3375 89.1997C37.3393 89.0408 37.1395 88.8074 36.9713 88.7312C36.1301 88.352 35.249 88.2507 34.3437 88.4821C34.2387 88.5091 34.1383 88.5556 34.0324 88.5751C33.2423 88.7201 32.7618 89.1235 32.8018 89.9935C32.8166 90.3225 32.6419 90.4657 32.3073 90.4248C32.1707 90.4081 32.0275 90.4183 31.89 90.4369C31.6102 90.4741 31.4327 90.4081 31.3407 90.0985C31.2291 89.7221 30.9903 89.4339 30.5432 89.4479C30.111 89.4609 29.8759 89.7444 29.7309 90.1088C29.3665 91.0234 29.453 91.965 29.6008 92.9029C29.6807 93.4067 29.7997 93.9049 29.9158 94.4012C29.9753 94.655 29.9168 94.7879 29.6528 94.8864C28.3042 95.3865 26.9658 95.9154 25.6153 96.4118C25.4898 96.4582 25.2528 96.395 25.1589 96.2956C24.9833 96.1087 24.8569 95.8671 24.7416 95.6328C24.5539 95.2499 24.4916 94.9245 24.9479 94.6113C25.5 94.2321 25.4034 93.5768 25.4814 92.8582H25.4796ZM49.7056 91.1145C49.7493 91.4426 49.7772 91.7168 49.8255 91.9882C49.8422 92.084 49.8841 92.2076 49.9556 92.255C50.8237 92.8276 51.7058 93.3806 52.7997 93.3546C53.0098 93.35 53.2161 93.2393 53.4243 93.178C53.2812 92.9986 53.1641 92.7848 52.9865 92.6491C52.8081 92.5125 52.5711 92.452 52.3582 92.3619C51.7058 92.084 51.0496 91.8163 50.4027 91.5253C50.1638 91.4184 49.9482 91.2595 49.7047 91.1145H49.7056ZM48.7529 89.1569C48.2529 89.1207 47.7287 89.1579 47.54 88.5528C47.5326 88.5277 47.4963 88.51 47.4712 88.4923C46.7853 88.0229 46.0083 87.9253 45.2108 87.9941C44.8836 88.022 44.8855 88.2804 45.1011 88.4468C45.3279 88.6215 45.6058 88.7396 45.8763 88.8456C46.8894 89.2434 47.909 89.6263 48.9007 90.0056C48.8654 89.8039 48.8143 89.5064 48.7538 89.1569H48.7529ZM37.3663 90.9974C36.5242 91.1703 36.2054 91.6741 36.4582 92.4288C36.5214 92.6175 36.7705 92.7439 36.9341 92.8982C37.0781 92.7207 37.3189 92.558 37.3468 92.3637C37.409 91.9287 37.3663 91.4789 37.3663 90.9974Z" fill="#FEFEFE"/>
<path d="M66.5502 78.0035C67.8412 78.0035 69.1322 78.0054 70.4232 78.0063C73.2292 78.0082 76.0351 78.0091 78.8402 78.011L90.3198 78.0147C90.1283 78.0453 89.9369 78.1039 89.7463 78.1039C84.5294 78.1048 79.3133 78.0965 74.0963 78.0974C63.9263 78.0974 53.7563 78.103 43.5854 78.103C43.3902 78.103 43.195 78.0593 42.9999 78.0361C43.2471 78.0286 43.4952 78.0147 43.7425 78.0147C47.0411 78.0128 50.3388 78.0137 53.6374 78.0137H54.1179C54.0129 77.8269 53.8892 77.7433 53.7619 77.6652C51.8603 76.5024 49.9577 75.3405 48.0551 74.1795C43.933 71.6633 39.81 69.1472 35.6842 66.6366C35.5513 66.5557 35.3784 66.5399 35.2241 66.4934C35.0289 66.1606 35.3217 66.1095 35.5113 66.0184C36.6647 65.4644 37.8228 64.9207 38.9753 64.3658C39.1213 64.2951 39.2458 64.1808 39.3806 64.0869C41.8353 65.5537 44.2862 67.027 46.7464 68.4853C49.7244 70.2505 52.7116 71.9998 55.6914 73.7622C57.9119 75.0756 60.1202 76.4094 62.3491 77.7089C62.653 77.8864 63.0415 77.9868 63.3956 77.9989C64.4459 78.0333 65.499 78.0054 66.5511 78.0017L66.5502 78.0035Z" fill="#D0D0D0"/>
<path d="M78.8404 78.0108C76.0344 78.009 73.2293 78.008 70.4233 78.0062C71.7227 77.2272 73.0193 76.4437 74.3214 75.6703C76.6478 74.2891 78.9761 72.9097 81.3081 71.5359C83.693 70.1314 86.0873 68.7418 88.4695 67.3317C90.2252 66.2925 91.9679 65.2319 93.7171 64.1807C93.8556 64.2727 93.9848 64.3842 94.1344 64.4539C95.378 65.0377 96.6272 65.6112 97.8699 66.1977C98.0065 66.2618 98.1106 66.3938 98.2296 66.4942C98.0864 66.5314 97.9256 66.5379 97.8039 66.6095C96.591 67.3233 95.3845 68.0474 94.1772 68.7715C89.8664 71.3565 85.5557 73.9405 81.2477 76.5292C80.44 77.0144 79.6425 77.5163 78.8413 78.0108H78.8404Z" fill="#D0D0D0"/>
<path d="M71.0346 91.7825C71.228 92.1125 71.4129 92.4285 71.6193 92.7817C71.4027 92.963 71.2057 93.1303 71.0058 93.2957C69.9444 94.175 68.8727 95.0432 67.8271 95.9402C67.5529 96.1753 67.2973 96.206 66.9813 96.1112C65.7005 95.7282 64.7646 94.914 64.0656 93.7986C63.9755 93.6554 63.8928 93.5076 63.7794 93.3152C63.5126 93.4974 63.2607 93.6694 63.0098 93.8423C61.9019 94.6082 60.8014 95.3852 59.6787 96.1298C59.5058 96.2441 59.2084 96.2859 59.0095 96.2265C58.2659 96.0024 57.7333 95.4773 57.33 94.8359C57.2417 94.6956 57.2686 94.4502 57.3067 94.2661C57.6264 92.7408 57.7649 91.2043 57.6274 89.6493C57.5772 89.0804 57.4973 88.505 56.7137 88.4874C56.6477 88.4855 56.5529 88.3572 56.526 88.2699C56.1849 87.1712 56.1951 87.1517 57.2528 86.6776C58.2408 86.2342 59.2232 85.776 60.2233 85.3614C60.4352 85.2741 60.7801 85.2499 60.9483 85.3651C61.4158 85.684 61.835 86.079 62.2439 86.4741C62.3229 86.5503 62.2988 86.7668 62.2737 86.9109C62.0785 88.0542 61.8517 89.1929 61.6788 90.3389C61.6147 90.7609 61.6277 91.2062 61.6788 91.6319C61.742 92.1552 61.9948 92.3077 62.5209 92.2426C63.2775 92.1496 63.3425 92.0678 63.258 91.3196C63.0888 89.8249 63.5182 88.5562 64.7125 87.6062C65.6327 86.8737 66.5807 86.1757 67.525 85.473C67.6254 85.3977 67.7899 85.3466 67.9098 85.3689C68.8477 85.5418 69.7827 85.7304 70.7158 85.9256C71.0356 85.9926 71.1294 86.2036 71.0439 86.5168C70.8209 87.3338 70.6099 88.1546 70.3887 88.9726C70.3004 89.3007 70.1228 89.3983 69.7715 89.2784C69.1572 89.0692 68.5307 88.888 67.8978 88.7467C67.0092 88.5478 66.8066 88.7616 66.9971 89.6418C67.1607 90.4003 67.5102 91.0677 68.0325 91.6384C68.7082 92.3764 69.3198 92.5103 70.2455 92.1366C70.5011 92.0334 70.7484 91.9108 71.0337 91.7825H71.0346Z" fill="#FEFEFE"/>
<path d="M7.23014 99.2228C6.77286 98.8677 6.29977 98.5006 5.78486 98.0999C6.05068 97.6435 6.28397 97.1927 6.56187 96.7717C7.45321 95.4211 7.83893 93.9339 7.81105 92.3277C7.78131 90.61 7.75342 88.8922 7.72368 87.1745C7.72275 87.1131 7.71532 87.0509 7.70881 86.9895C7.55452 85.5144 7.25338 85.2188 5.74861 85.1184C5.69191 84.597 5.63429 84.0653 5.57666 83.5364C8.04992 83.028 10.4934 82.526 12.9676 82.0176C13.0922 82.5139 13.2195 83.0196 13.3589 83.5754C12.3114 83.8571 12.1683 84.6992 12.1571 85.5841C12.132 87.7201 12.1302 89.8561 12.1283 91.9921C12.1283 92.7041 12.1674 93.4161 12.1636 94.1281C12.1636 94.2955 12.1097 94.5111 11.9982 94.6217C10.4572 96.147 8.90222 97.6575 7.35004 99.1707C7.3296 99.1903 7.29521 99.1949 7.22829 99.2228H7.23014Z" fill="#FEFEFE"/>
<path d="M78.8403 78.0107C79.6424 77.5162 80.4399 77.0143 81.2466 76.5291C85.5546 73.9404 89.8654 71.3564 94.1761 68.7714C95.3835 68.0473 96.5899 67.3242 97.8028 66.6094C97.9255 66.5378 98.0854 66.5313 98.2285 66.4941C97.6002 67.4255 96.9784 68.3606 96.3436 69.2873C94.4243 72.0898 92.5013 74.8895 90.5773 77.6901C90.4993 77.8035 90.4054 77.9066 90.3189 78.0154L78.8394 78.0117L78.8403 78.0107Z" fill="#FEFEFE"/>
<path d="M35.2241 66.4941C35.3784 66.5406 35.5513 66.5564 35.6842 66.6373C39.81 69.1479 43.9321 71.6641 48.0551 74.1802C49.9577 75.3412 51.8603 76.504 53.7619 77.6659C53.8893 77.744 54.0129 77.8276 54.1179 78.0145H53.6374C50.3388 78.0145 47.0411 78.0145 43.7425 78.0154C43.4953 78.0154 43.2471 78.0293 42.9999 78.0368C42.2061 76.8814 41.4059 75.7297 40.6205 74.5688C38.8573 71.9634 37.1016 69.3533 35.344 66.7432C35.2929 66.668 35.2641 66.5778 35.2241 66.4951V66.4941Z" fill="#F5F5F5"/>
<path d="M58.3133 84.8751C57.9973 84.4048 57.7148 83.9828 57.4053 83.5217C57.6042 83.3061 57.7994 83.0914 57.9973 82.8804C58.8134 82.0122 59.6425 81.1561 60.4381 80.2703C60.6955 79.9831 60.952 79.944 61.2504 80.1048C61.492 80.235 61.7337 80.3911 61.9252 80.5845C62.5498 81.2175 62.8574 82.0215 63.1334 82.8841C61.5171 83.5515 59.9352 84.2049 58.3133 84.8751Z" fill="#FEFEFE"/>
<path d="M72.2181 104.234C72.0749 104.339 71.8928 104.416 71.7942 104.553C70.2207 106.755 68.6583 108.967 67.0913 111.174C66.9686 111.347 66.831 111.509 66.607 111.794C66.5773 111.502 66.5485 111.347 66.5485 111.193C66.5457 108.794 66.554 106.394 66.5401 103.995C66.5373 103.566 66.6581 103.383 67.1173 103.389C68.7735 103.408 70.4298 103.395 72.0861 103.398C72.206 103.398 72.325 103.419 72.4551 103.432C72.3705 103.719 72.2943 103.977 72.2181 104.236V104.234Z" fill="#FEFEFE"/>
<path d="M79.6602 88.4321C79.7066 87.6931 79.7057 86.9979 79.8079 86.3175C79.8944 85.7421 80.268 85.6101 80.7513 85.9373C81.3759 86.3602 81.7477 86.9374 81.7198 87.7229C81.7059 88.1207 81.4921 88.3838 81.112 88.4209C80.6593 88.4656 80.1992 88.4312 79.6611 88.4312L79.6602 88.4321Z" fill="black"/>
<path d="M113.091 85.7642C113.127 85.1489 113.144 84.5317 113.202 83.9191C113.247 83.4395 113.485 83.2499 113.921 83.4284C114.236 83.5566 114.588 83.8178 114.713 84.1097C114.8 84.3114 114.599 84.7334 114.403 84.9388C114.062 85.2957 113.624 85.5607 113.227 85.8637C113.181 85.8302 113.137 85.7977 113.091 85.7642Z" fill="#020202"/>
<path d="M49.7056 91.1143C49.9491 91.2602 50.1647 91.4182 50.4036 91.5251C51.0505 91.8151 51.7067 92.0837 52.3591 92.3617C52.572 92.4527 52.809 92.5122 52.9874 92.6489C53.165 92.7846 53.2811 92.9984 53.4252 93.1778C53.217 93.2391 53.0098 93.3488 52.8006 93.3544C51.7067 93.3804 50.8237 92.8273 49.9565 92.2548C49.884 92.2074 49.8431 92.0828 49.8264 91.988C49.7781 91.7175 49.7502 91.4433 49.7065 91.1143H49.7056Z" fill="#010101"/>
<path d="M48.7541 89.1562C48.8146 89.5057 48.8666 89.8032 48.901 90.0049C47.9102 89.6266 46.8906 89.2427 45.8766 88.8449C45.6061 88.7389 45.3282 88.6208 45.1014 88.4461C44.8858 88.2797 44.8839 88.0222 45.2111 87.9934C46.0095 87.9246 46.7856 88.0222 47.4715 88.4916C47.4966 88.5093 47.5328 88.527 47.5403 88.5521C47.729 89.1572 48.2532 89.12 48.7532 89.1562H48.7541Z" fill="#010101"/>
<path d="M37.3675 90.9971C37.3675 91.4786 37.4102 91.9284 37.3479 92.3634C37.3201 92.5577 37.0793 92.7204 36.9353 92.8979C36.7717 92.7427 36.5226 92.6172 36.4594 92.4285C36.2066 91.6738 36.5254 91.17 37.3675 90.9971Z" fill="#010101"/>
</g>
<defs>
<clipPath id="clip0_465_1074">
<rect width="133" height="120.628" fill="white" transform="translate(0 0.636719)"/>
</clipPath>
</defs>
</svg>
