<svg width="133" height="122" viewBox="0 0 133 122" fill="none" xmlns="http://www.w3.org/2000/svg"><g clip-path="url(#clip0_465_1074)"><path d="M97.88 75.837c.293.015.517.036.74.036 11.2.002 22.4.001 33.6.002.52 0 .78.263.78.79v25.887c0 .5-.257.751-.772.752-17.566 0-35.133.003-52.7-.012-.543 0-.86.165-1.17.613-3.894 5.651-7.81 11.285-11.72 16.924-.094.134-.202.257-.344.437-.148-.2-.262-.341-.362-.49-3.775-5.638-7.554-11.274-11.314-16.921-.273-.41-.562-.561-1.054-.561-17.567.013-35.133.011-52.7.011-.577 0-.866-.281-.866-.843v-25.84c0-.497.244-.746.732-.746 11.433 0 22.865 0 34.297-.002.224 0 .449-.021.768-.037-.148-.247-.24-.419-.347-.578-2.39-3.564-4.774-7.132-7.183-10.683-.28-.414-.265-.71-.013-1.123 6.544-10.778 13.074-21.564 19.607-32.348 4.35-7.18 8.688-14.368 13.059-21.537 1.749-2.869 3.57-5.695 5.36-8.54.072-.113.16-.217.29-.39.133.174.24.293.324.428a124620.741 124620.741 0 0120.796 33.47l12.454 20.054c1.831 2.948 3.657 5.898 5.508 8.832.272.432.273.722-.026 1.15-2.533 3.615-5.037 7.25-7.548 10.882-.066.095-.107.207-.196.383zm-37.848 27.467H56.95l9.401 14.087 9.68-14.091c-1.08 0-2.036-.003-2.992.005-.082 0-.163.071-.245.109-.223-.038-.446-.108-.67-.109-4.03-.006-8.062-.003-12.093-.002v.001zm71.024-25.224H93.45c.15-.232.237-.375.333-.513 3.022-4.405 6.043-8.811 9.076-13.21.191-.278.169-.46 0-.733-4.563-7.337-9.115-14.68-13.67-22.022-3.502-5.644-7.01-11.285-10.507-16.932-3.774-6.095-7.54-12.196-11.312-18.293-.247-.4-.516-.787-.81-1.233-.136.216-.227.355-.315.498a160305.87 160305.87 0 01-35.37 58.095c-.148.243-.126.395.023.618 2.952 4.414 5.898 8.835 8.842 13.254.087.13.152.275.267.487H2.876c-.457 0-.686.224-.686.674v21.795c0 .47.234.704.702.705h127.506c.438 0 .658-.215.658-.645V78.078v.002z" fill="#A8A8A8"/><path d="M131.056 78.08v22.546c0 .43-.219.645-.657.646H2.893c-.468 0-.702-.235-.703-.705V78.772c0-.45.229-.674.686-.675h37.131c-.115-.21-.18-.356-.267-.486-2.944-4.42-5.89-8.84-8.842-13.255-.149-.223-.171-.374-.023-.617C42.67 44.376 54.457 25.01 66.245 5.644c.088-.143.179-.283.316-.498.293.446.562.832.81 1.233 3.77 6.097 7.536 12.198 11.311 18.293 3.498 5.646 7.006 11.288 10.508 16.932 4.555 7.34 9.107 14.684 13.669 22.022.17.273.192.456 0 .733-3.033 4.397-6.053 8.804-9.076 13.21-.095.138-.183.28-.333.512h37.607-.001zM98.229 66.495c-.12-.1-.224-.232-.36-.297-1.243-.586-2.492-1.16-3.736-1.743-.148-.07-.278-.182-.417-.274 1.32-.776 2.632-1.56 3.96-2.322.3-.172.367-.314.157-.607-.224-.314-.398-.661-.598-.992-2.175-3.613-4.349-7.226-6.526-10.837-1.819-3.017-3.646-6.028-5.463-9.046-2.296-3.812-4.585-7.627-6.877-11.442-1.313-2.185-2.623-4.373-3.939-6.557-1.42-2.356-2.845-4.708-4.269-7.062L66.752 9.69c-.132-.389-.252-.188-.37.008-.924 1.536-1.85 3.07-2.772 4.608-1.754 2.928-3.5 5.86-5.261 8.785-1.68 2.792-3.377 5.575-5.059 8.366-2.24 3.716-4.469 7.439-6.71 11.155-1.405 2.328-2.828 4.644-4.233 6.972-1.277 2.115-2.54 4.24-3.812 6.358a1343.379 1343.379 0 01-3.208 5.317c-.131.217-.19.374.083.53 1.327.76 2.645 1.532 3.968 2.3-.135.093-.26.208-.405.278-1.153.555-2.31 1.099-3.464 1.653-.19.091-.483.142-.288.475.04.084.07.173.12.248 1.757 2.61 3.514 5.22 5.277 7.826.785 1.16 1.585 2.312 2.38 3.468.195.023.39.067.585.067 10.17 0 20.34-.005 30.51-.006 5.218 0 10.434.008 15.65.007.192 0 .384-.059.574-.09.087-.108.18-.21.259-.325 1.923-2.8 3.847-5.6 5.766-8.403.635-.927 1.257-1.862 1.885-2.793l.002.002zm11.038 26.933l.109.079c-.085.341-.153.688-.257 1.024-.21.682-.099.959.578 1.255.796.35 1.623.33 2.463.195.329-.053.452-.19.506-.53.149-.93.432-1.823.937-2.695.133.23.225.408.332.577.441.691.858 1.4 1.34 2.06.23.316.569.564.889.8.261.194.517.162.786-.089.748-.695 1.528-1.358 2.296-2.031.134-.118.273-.228.451-.377-.036.478-.055.879-.099 1.276-.035.304.099.437.377.528 1.159.384 2.35.54 3.565.547a.565.565 0 00.308-.073c.896-.632 1.813-1.238 2.665-1.926.539-.435.847-1.063.906-1.778.102-1.242-.559-2.03-1.599-2.527-.695-.332-1.44-.558-2.16-.838-.287-.111-.58-.22-.845-.373-.111-.064-.159-.24-.236-.364.126-.066.248-.181.377-.188.276-.015.558.001.831.048.658.114 1.333.214 1.632.956.02.05.121.092.187.098.382.035.764.059 1.246.094.072-1.11.151-2.172.197-3.236.004-.096-.197-.274-.319-.292-1.04-.144-2.084-.26-3.127-.378a.412.412 0 00-.263.056c-.968.693-2.008 1.31-2.874 2.115-1.326 1.23-1.108 2.908.423 3.87.545.343 1.163.57 1.752.84.436.2.89.36 1.314.582.136.072.202.279.301.424-.157.068-.31.173-.473.198-1.313.199-2.217-.875-3.394-1.12-.135-.028-.225-.275-.342-.427l-1.188.671c-.515.291-1.008.236-1.389-.2a10.292 10.292 0 01-1.097-1.484 1 1 0 01-.045-.809c.151-.332.508-.179.792-.115.726.166 1.162-.006 1.517-.65.46-.839.54-1.736.317-2.656a.487.487 0 00-.291-.292c-.445-.131-.896-.266-1.355-.311-.241-.025-.562.062-.742.219a15.683 15.683 0 00-3.117 3.668c-.068.11-.147.215-.22.321-.095-.788-.082-1.555-.101-2.32-.008-.281.105-.4.345-.52.774-.386 1.581-.735 2.279-1.236.667-.48 1.314-1.057 1.788-1.722.83-1.165.465-2.408-.785-3.096-.906-.498-1.899-.635-2.916-.647a.519.519 0 00-.299.098c-.872.666-1.775 1.3-2.599 2.022-1.113.975-1.697 2.257-1.727 3.73-.031 1.485.038 2.971.078 4.456.028 1.012.005 1.056-.985 1.284-.552.127-.836-.025-.864-.583a15.74 15.74 0 01.054-2.082c.095-1.139.233-2.273.352-3.397-.634-.253-1.187-.498-1.756-.693-.99-.339-1.745-.116-2.389.713-.283.366-.512.774-.752 1.17-.228.377-.437.764-.654 1.146l-.111-.031c.048-.498.036-1.012.159-1.492.156-.613-.078-1.007-.533-1.344-.088-.064-.169-.137-.252-.205-.25-.207-.495-.234-.808-.088-.953.445-1.923.855-2.886 1.28-.363.161-.726.325-1.098.492l.275 1.338c.855-.02 1.034.14 1.104.976.04.478.06.959.07 1.44.013.47.003.94.003 1.411l-.101.015-.367-.52c-.42.154-.816.328-1.228.445-.542.154-.792.003-.907-.547a4.957 4.957 0 01-.095-.967c-.015-1.208-.116-2.451.364-3.579.302-.706.1-1.187-.3-1.68-.089-.11-.354-.182-.489-.133-1.195.423-2.377.885-3.57 1.318-.256.093-.31.22-.289.48.06.77.162 1.55.102 2.316-.054.711-.281 1.413-.463 2.111-.03.11-.234.252-.339.238-.108-.014-.255-.19-.276-.314a4.2 4.2 0 01-.064-1.011c.087-1.08.146-2.169.331-3.233.139-.798-.152-1.285-.767-1.704-.35-.238-.648-.324-1.06-.113-.752.386-1.538.707-2.326 1.062-.02-.101-.04-.147-.036-.19.185-1.97-1.41-3.603-3.117-4.114-.438-.131-.808-.139-1.208.17-.706.545-1.464 1.023-2.182 1.517-.18-.479-.294-.938-.52-1.332-.193-.335-.478-.684-.975-.495-1.43.547-2.86 1.096-4.286 1.656-.102.04-.247.187-.237.267.065.514.168 1.024.256 1.521.796.013 1.008.175 1.205.883.046.164.083.331.105.5.275 2.087.185 4.172-.047 6.255-.063.572-.175 1.136-.624 1.562-.053.05-.08.176-.059.251.133.488.283.97.396 1.353l6.999-1.592-.292-1.459c-.234.024-.431.047-.63.064-.392.036-.758-.026-.96-.41-.36-.69-.381-1.44-.418-2.223.314 0 .572.05.804-.008 1.57-.394 3.088-.914 4.376-1.946.46-.367 1.045-.236 1.232.318.117.346.184.727.18 1.091-.012 1.161.035 2.337-.14 3.478-.145.96.255 1.485.96 1.94.053.033.104.068.156.102 1.019.64 1.814.583 2.61-.309.523-.584.93-1.27 1.388-1.912.08-.112.151-.232.226-.35l.13.047c0 .477-.008.955.005 1.43.004.148.015.344.106.435.383.38.777.755 1.205 1.083.334.255.675.237 1.05-.053 1.21-.94 2.452-1.84 3.683-2.754.125-.092.256-.175.383-.263l.16.11c-.185.478-.261 1.055-.583 1.411-.423.47-.3.803-.016 1.196.161.225.358.424.542.631.17.191.345.187.575.071 1.091-.551 2.192-1.084 3.288-1.625.148-.073.292-.156.433-.232-.051-.24-.096-.436-.134-.632-.222-1.137-.363-2.276.155-3.37.123-.26.38-.457.575-.683.135.258.318.503.391.776.079.293.076.615.07.923a69.02 69.02 0 01-.083 2.275c-.043.836.719 2.113 1.505 2.402.189.07.497.032.661-.083.946-.673 1.865-1.385 2.793-2.083l.84-.631-.006.005zm-83.788-.57c-.078.72.019 1.374-.533 1.754-.456.313-.395.638-.207 1.021.116.234.241.476.418.663.093.1.33.162.456.116 1.35-.496 2.689-1.025 4.037-1.525.265-.098.323-.232.264-.485-.117-.498-.236-.995-.316-1.499-.148-.938-.234-1.88.13-2.794.145-.364.38-.647.813-.66.447-.015.686.274.797.65.092.31.269.375.55.338.137-.017.28-.029.417-.012.334.042.51-.102.494-.431-.04-.87.44-1.274 1.231-1.419.106-.02.206-.066.311-.093.906-.231 1.787-.13 2.628.25.168.076.368.31.366.468-.002.148-.227.35-.399.428-.306.137-.653.186-.974.295-.788.27-1.592.506-2.35.843-.703.313-1.117.907-1.241 1.687a3.36 3.36 0 001.941 3.573c.3.135.534.122.813-.067.777-.531 1.575-1.031 2.403-1.569.057.194.096.341.145.485.192.566.533 1.003 1.08 1.274.264.132.473.123.719-.067.725-.556 1.47-1.085 2.208-1.623.092-.067.197-.114.333-.192 0 .123.002.184 0 .245-.015.591.253.967.807 1.127 2.489.718 3.448.55 5.373-.937.073-.057.145-.116.217-.174.11-.088.219-.178.374-.304 0 .23.023.374-.004.507-.101.493.106.764.586.836 1.098.166 2.197.326 3.297.477a.535.535 0 00.354-.068c.919-.652 1.857-1.282 2.73-1.99.51-.417.789-1.03.847-1.708.104-1.218-.528-2.016-1.55-2.51-.734-.355-1.528-.587-2.29-.888-.299-.119-.606-.244-.866-.43-.214-.153-.231-.376.096-.465.832-.227 2.134.258 2.588.95.043.065.129.138.201.145.381.041.765.061 1.253.097.074-1.105.153-2.166.198-3.228.005-.099-.191-.28-.312-.298a57.896 57.896 0 00-2.942-.37c-.22-.02-.489.075-.677.202-.969.65-1.919 1.328-2.836 1.97 0-.392-.016-.852.005-1.31.014-.29-.041-.478-.368-.514-1.028-.116-2.055-.243-3.083-.359-.087-.01-.2 0-.266.048-1 .727-2.082 1.37-2.968 2.217-1.222 1.17-1 2.79.416 3.716.564.37 1.212.61 1.83.895.42.194.864.342 1.273.556.153.081.24.29.356.442-.17.072-.34.207-.509.207-1.231 0-2.271-.455-3.117-1.374-.162.06-.335.126-.508.188-1.133.402-1.48.171-1.516-1.022a8.71 8.71 0 01.03-.928c.035-.494.024-1.002.139-1.478.283-1.172-.157-1.872-1.208-2.424-1.055-.554-2.085-1.096-3.299-1.124a1.631 1.631 0 00-.782.194c-.773.423-1.524.888-2.286 1.333-.097.057-.205.092-.324.143-.052-1.074-.095-1.125-1.14-1.4-.105-.028-.21-.056-.316-.077-.87-.166-.874-.168-1.293.608-.213.395-.41.798-.609 1.201-.152.31-.294.627-.441.94-.069-.496-.094-.977-.007-1.436.121-.635-.162-.968-.683-1.236-.452-.233-.853-.335-1.346-.056-.739.42-1.52.764-2.283 1.14-.768.378-1.06.987-.874 1.827.006.027.036.048.055.072.66.036.835.161.96.824.09.484.13.982.155 1.475.026.512.006 1.026.006 1.67-.206-.293-.326-.466-.447-.64-.439.158-.85.337-1.28.452-.493.133-.783-.026-.85-.513-.215-1.562-.257-3.141.285-4.636.238-.656.068-1.084-.255-1.574-.159-.243-.319-.31-.61-.195-1.138.446-2.284.872-3.435 1.284-.296.106-.399.24-.376.568.06.88.128 1.765.079 2.642-.033.573-.247 1.14-.418 1.698-.038.124-.257.29-.361.271-.12-.023-.257-.22-.29-.363a2.673 2.673 0 01-.047-.784c.094-1.173.136-2.356.336-3.511.13-.752-.17-1.168-.706-1.544-.063-.045-.128-.087-.19-.134-.27-.208-.53-.225-.854-.07-1.019.488-2.054.94-3.083 1.406-.732.332-.729.331-.588 1.097.066.353.085.689.602.693.156 0 .362.275.45.467.107.232.154.51.151.767-.016 1.254.042 2.52-.12 3.756-.14 1.062.362 1.605 1.138 2.083.998.616 1.792.56 2.577-.305.506-.558.9-1.215 1.341-1.83.102-.142.187-.294.348-.55.034.634.055 1.127.087 1.617.01.134.008.313.089.39.412.394.832.785 1.286 1.127.291.219.604.192.93-.061 1.027-.799 2.08-1.563 3.123-2.339.332-.247.665-.492 1.11-.821h.001zm45.555-1.076c-.285.13-.533.251-.788.354-.926.375-1.537.24-2.213-.498a4.24 4.24 0 01-1.036-1.996c-.19-.88.013-1.094.901-.896.633.143 1.26.323 1.874.532.351.12.528.022.617-.306.22-.818.432-1.638.655-2.456.086-.313-.008-.524-.328-.59-.933-.196-1.868-.385-2.806-.557a.554.554 0 00-.385.104c-.943.702-1.891 1.4-2.812 2.133-1.194.95-1.625 2.219-1.455 3.713.085.749.019.83-.737.923-.526.065-.779-.088-.842-.61a4.821 4.821 0 010-1.293c.173-1.146.4-2.285.595-3.428.024-.144.048-.361-.03-.437-.409-.395-.828-.79-1.295-1.11-.17-.114-.514-.091-.725-.003-1 .415-1.983.873-2.97 1.316-1.059.474-1.069.494-.728 1.593.027.086.122.215.188.217.784.018.864.594.914 1.162.137 1.554 0 3.091-.321 4.617-.038.183-.066.428.023.57.404.642.935 1.166 1.68 1.39a.89.89 0 00.669-.097c1.123-.743 2.223-1.521 3.331-2.287l.77-.527c.113.192.196.34.286.483.698 1.116 1.635 1.93 2.916 2.313.316.095.571.064.845-.171 1.046-.897 2.118-1.765 3.18-2.645.199-.165.397-.332.613-.514l-.585-.999h-.001zm-63.805 7.44c.068-.027.103-.032.122-.051 1.552-1.513 3.107-3.024 4.648-4.55.112-.11.165-.325.166-.493.004-.712-.036-1.424-.036-2.136.002-2.136.004-4.272.03-6.408.01-.884.153-1.726 1.201-2.008l-.391-1.558-7.391 1.519.172 1.582c1.504.1 1.806.395 1.96 1.87.006.062.014.124.015.186.03 1.717.057 3.435.087 5.153.028 1.606-.358 3.093-1.249 4.444-.278.42-.512.87-.777 1.328l1.445 1.123H7.23zm51.084-14.346l4.82-1.991c-.276-.863-.583-1.667-1.209-2.3a2.825 2.825 0 00-.674-.48c-.299-.16-.555-.121-.813.166-.795.887-1.625 1.742-2.44 2.61-.198.211-.394.426-.592.642l.908 1.353zm14.482 18.539c.082-.038.163-.109.244-.11.957-.007 1.913-.005 2.992-.005l-9.679 14.092-9.401-14.088h3.08c.026.056.044.117.077.167 1.572 2.346 3.145 4.691 4.719 7.036.494.737.99 1.474 1.514 2.253.125-.157.215-.258.29-.367 1.27-1.841 2.54-3.681 3.803-5.525.6-.875 1.19-1.756 1.784-2.634l.578-.818-.001-.001z" fill="#000"/><path d="M72.218 104.234c-.594.878-1.184 1.759-1.784 2.633-1.264 1.843-2.534 3.684-3.802 5.525-.076.11-.166.21-.291.367-.523-.779-1.02-1.515-1.514-2.253-1.574-2.344-3.146-4.689-4.719-7.035-.033-.051-.051-.111-.076-.168 4.03-.001 8.063-.003 12.094.002.223 0 .446.072.669.11l-.578.82.237-.803c-.13-.013-.25-.034-.37-.035-1.656-.002-3.312.01-4.968-.009-.46-.006-.58.177-.577.606.014 2.399.005 4.798.008 7.198 0 .154.029.31.059.601.224-.285.361-.447.484-.62 1.567-2.207 3.13-4.418 4.703-6.621.097-.138.28-.214.424-.319v.001zM39.38 64.089c-1.322-.768-2.642-1.54-3.968-2.3-.272-.156-.215-.313-.084-.53a1475.37 1475.37 0 003.209-5.316c1.272-2.118 2.534-4.243 3.812-6.359 1.405-2.328 2.828-4.644 4.232-6.971 2.241-3.715 4.47-7.44 6.71-11.155 1.683-2.792 3.38-5.575 5.06-8.367 1.76-2.925 3.507-5.857 5.261-8.785.921-1.537 1.848-3.072 2.772-4.607.118-.196.238-.397.37-.009-.038.272-.109.543-.109.815-.005 22.21-.004 44.42-.008 66.629 0 .29-.056.58-.086.87-1.052.004-2.104.032-3.155-.002a2.303 2.303 0 01-1.047-.29c-2.229-1.3-4.438-2.633-6.657-3.947-2.98-1.762-5.968-3.511-8.945-5.277-2.46-1.458-4.91-2.931-7.366-4.398l-.001-.001z" fill="#F5F5F5"/><path d="M66.55 78.004c.03-.29.086-.58.086-.871.004-22.21.004-44.42.008-66.63 0-.27.07-.542.109-.814l3.41 5.628c1.423 2.353 2.848 4.705 4.268 7.061 1.316 2.184 2.626 4.372 3.94 6.558 2.291 3.814 4.58 7.63 6.876 11.441 1.817 3.017 3.644 6.03 5.463 9.046 2.178 3.611 4.352 7.224 6.526 10.837.199.331.374.679.598.992.21.295.143.436-.157.608-1.328.761-2.641 1.546-3.96 2.322-1.748 1.051-3.492 2.112-5.248 3.15-2.382 1.411-4.776 2.8-7.161 4.205-2.332 1.373-4.66 2.752-6.987 4.134-1.302.774-2.598 1.557-3.898 2.336l-3.873-.002v-.001zm42.718 15.424l-.841.63c-.928.699-1.847 1.41-2.793 2.084-.162.116-.472.152-.661.083-.785-.29-1.548-1.566-1.504-2.402.04-.758.068-1.516.082-2.275.007-.308.01-.63-.069-.923-.074-.274-.257-.519-.392-.776-.195.226-.452.422-.575.682-.518 1.094-.376 2.235-.155 3.37.038.198.084.393.135.633-.143.076-.286.159-.433.232-1.097.541-2.198 1.073-3.289 1.625-.23.116-.405.12-.574-.07-.185-.208-.381-.408-.543-.632-.284-.393-.407-.727.017-1.196.32-.356.397-.933.582-1.412l-.16-.109c-.128.088-.258.171-.382.263-1.232.914-2.474 1.814-3.685 2.753-.373.29-.714.31-1.049.053a12.392 12.392 0 01-1.205-1.082c-.09-.09-.102-.286-.106-.435-.013-.477-.004-.953-.004-1.43l-.13-.047c-.076.117-.146.237-.227.35-.457.642-.865 1.328-1.387 1.912-.797.892-1.592.949-2.61.309-.053-.033-.104-.07-.156-.103-.706-.454-1.106-.978-.96-1.94.174-1.14.127-2.316.14-3.477a3.357 3.357 0 00-.18-1.091c-.188-.554-.774-.685-1.232-.318-1.289 1.032-2.807 1.551-4.377 1.945-.232.059-.49.009-.804.009.037.783.058 1.533.42 2.222.2.385.566.446.96.411.197-.018.394-.04.628-.064l.292 1.458c-2.327.53-4.636 1.054-6.998 1.593-.114-.382-.263-.865-.396-1.353-.02-.074.004-.2.058-.25.45-.428.561-.992.625-1.563.231-2.083.322-4.17.046-6.256a3.669 3.669 0 00-.105-.5c-.197-.707-.409-.87-1.204-.882-.089-.497-.192-1.008-.257-1.522-.01-.08.135-.226.237-.266a494.35 494.35 0 014.287-1.656c.495-.19.781.16.974.495.226.394.34.853.52 1.331.719-.493 1.476-.972 2.183-1.516.4-.309.77-.302 1.207-.17 1.706.51 3.302 2.143 3.117 4.114-.003.043.016.089.037.19.788-.356 1.573-.677 2.325-1.062.413-.211.711-.125 1.06.113.616.42.906.905.767 1.704-.185 1.065-.244 2.153-.33 3.233-.028.334.009.68.064 1.01.02.125.168.301.276.315.105.014.31-.13.338-.238.182-.698.41-1.4.464-2.112.058-.765-.042-1.544-.102-2.316-.021-.26.032-.387.288-.48 1.193-.432 2.375-.894 3.57-1.318.136-.048.4.024.49.134.4.493.602.973.3 1.68-.48 1.127-.38 2.37-.365 3.578.004.324.03.653.095.968.116.55.365.702.907.547.412-.118.809-.291 1.228-.446l.367.52c.034-.004.068-.008.102-.014 0-.47.009-.942-.003-1.412-.012-.48-.032-.96-.07-1.439-.07-.836-.25-.995-1.104-.976l-.275-1.338c.372-.168.734-.331 1.097-.492.963-.425 1.933-.835 2.886-1.28.314-.146.558-.119.808.087.084.07.165.14.252.206.456.338.69.73.533 1.344-.121.48-.11.993-.159 1.492l.111.03c.218-.382.427-.768.654-1.145.24-.397.469-.806.752-1.17.644-.83 1.399-1.052 2.389-.713.57.195 1.122.44 1.757.693-.119 1.124-.258 2.26-.353 3.397-.057.692-.088 1.39-.054 2.082.028.558.312.71.864.583.991-.228 1.013-.273.985-1.284-.041-1.485-.109-2.971-.078-4.456.03-1.473.614-2.755 1.727-3.73.824-.722 1.726-1.356 2.6-2.023a.52.52 0 01.298-.097c1.016.013 2.01.148 2.917.647 1.25.688 1.614 1.93.784 3.096-.473.665-1.121 1.242-1.788 1.721-.697.501-1.506.85-2.279 1.238-.239.12-.353.237-.345.518.019.766.006 1.532.101 2.321.074-.107.153-.21.221-.321a15.677 15.677 0 013.116-3.668c.18-.157.501-.244.743-.22.457.046.909.18 1.354.312.119.035.264.174.292.292.222.92.143 1.818-.318 2.655-.353.644-.79.816-1.517.65-.284-.063-.64-.217-.792.116-.101.223-.081.598.046.809.314.526.692 1.02 1.096 1.483.382.437.874.492 1.389.201l1.189-.671c.116.152.206.399.342.427 1.176.245 2.08 1.318 3.393 1.12.165-.025.316-.13.473-.198-.098-.145-.164-.353-.301-.424-.424-.221-.877-.383-1.313-.582-.59-.27-1.209-.497-1.753-.84-1.531-.961-1.748-2.64-.423-3.87.866-.805 1.906-1.421 2.874-2.115a.415.415 0 01.264-.056c1.043.118 2.086.235 3.126.378.123.017.324.195.319.292-.045 1.063-.124 2.126-.197 3.236-.481-.035-.863-.058-1.245-.094-.067-.007-.168-.048-.188-.099-.298-.742-.974-.842-1.632-.955a3.666 3.666 0 00-.831-.049c-.128.008-.251.123-.377.189.078.125.125.3.237.364.265.152.557.262.844.373.721.28 1.466.506 2.16.838 1.04.497 1.701 1.285 1.599 2.527-.058.715-.367 1.342-.906 1.778-.851.688-1.77 1.294-2.665 1.926a.552.552 0 01-.307.073c-1.215-.008-2.407-.163-3.566-.547-.277-.092-.411-.225-.377-.528.044-.398.064-.798.099-1.276-.177.148-.317.258-.451.376-.768.674-1.548 1.337-2.296 2.032-.269.25-.524.282-.786.09-.32-.238-.659-.485-.889-.8-.482-.662-.899-1.37-1.339-2.062-.107-.168-.2-.344-.333-.576a7.755 7.755 0 00-.937 2.696c-.054.338-.177.476-.506.529-.84.133-1.667.155-2.463-.195-.676-.297-.788-.574-.578-1.255.103-.336.172-.683.257-1.025l-.109-.078.007-.005zM79.66 88.432c.538 0 .998.035 1.45-.01.381-.037.595-.3.609-.698.029-.785-.344-1.363-.969-1.785-.482-.328-.856-.197-.943.38-.102.68-.101 1.374-.148 2.114h.001zm33.431-2.67l.136.1c.397-.303.835-.568 1.176-.925.196-.205.397-.627.31-.829-.125-.292-.477-.553-.792-.681-.436-.178-.675.011-.719.49-.058.614-.075 1.23-.111 1.846zM25.48 92.858l-1.11.822c-1.043.777-2.097 1.54-3.123 2.339-.326.253-.639.28-.93.06-.454-.341-.873-.732-1.286-1.126-.08-.077-.08-.256-.088-.39-.033-.49-.054-.984-.088-1.617-.16.254-.246.407-.347.549-.44.615-.837 1.272-1.341 1.83-.786.867-1.579.921-2.578.306-.776-.479-1.278-1.02-1.138-2.083.162-1.236.104-2.502.12-3.756a1.83 1.83 0 00-.15-.767c-.088-.193-.295-.467-.45-.468-.518-.003-.537-.34-.602-.692-.142-.767-.145-.765.587-1.097 1.03-.466 2.065-.918 3.083-1.406.325-.155.585-.139.855.07.062.047.127.089.19.133.534.378.835.792.705 1.544-.2 1.156-.241 2.339-.335 3.512-.02.26-.01.53.047.784.032.143.17.34.29.363.103.02.323-.147.36-.272.173-.557.387-1.124.418-1.698.05-.876-.02-1.762-.079-2.641-.022-.328.081-.462.377-.568a121.99 121.99 0 003.434-1.285c.292-.114.45-.047.61.195.322.49.492.919.255 1.575-.54 1.495-.5 3.074-.284 4.635.068.488.357.647.85.513.429-.115.84-.294 1.28-.451.12.174.24.346.446.64 0-.645.02-1.159-.005-1.67a11.04 11.04 0 00-.156-1.475c-.125-.663-.3-.788-.96-.825-.018-.023-.049-.044-.055-.071-.185-.84.106-1.449.874-1.827.764-.375 1.545-.72 2.284-1.14.492-.28.892-.178 1.346.055.521.268.804.6.683 1.237-.088.459-.063.94.006 1.436.147-.314.29-.63.442-.94.198-.402.396-.806.609-1.2.418-.777.422-.775 1.292-.609.106.02.211.05.316.076 1.045.276 1.089.328 1.14 1.4.119-.052.229-.086.324-.142.761-.445 1.513-.91 2.287-1.334.228-.125.52-.2.781-.193 1.214.028 2.244.57 3.299 1.124 1.051.552 1.492 1.25 1.208 2.424-.115.476-.104.984-.14 1.478a9.568 9.568 0 00-.029.927c.036 1.194.383 1.424 1.516 1.023.175-.062.348-.128.508-.188.845.918 1.885 1.375 3.118 1.374.169 0 .34-.135.508-.207-.117-.151-.202-.361-.356-.442-.409-.215-.853-.362-1.273-.557-.616-.285-1.265-.526-1.83-.894-1.415-.926-1.639-2.547-.416-3.716.886-.848 1.968-1.49 2.968-2.217.066-.048.18-.058.267-.048 1.028.116 2.055.242 3.083.359.326.037.382.224.368.513-.022.459-.006.919-.006 1.31.918-.641 1.868-1.319 2.836-1.97.19-.127.458-.222.678-.201.983.094 1.964.225 2.941.37.121.017.317.199.313.297-.047 1.063-.126 2.123-.198 3.229-.488-.036-.872-.056-1.253-.097-.073-.008-.16-.08-.202-.146-.453-.692-1.756-1.176-2.587-.95-.328.09-.311.312-.096.467.259.184.566.31.866.429.761.301 1.555.533 2.29.888 1.023.494 1.655 1.292 1.55 2.51-.059.678-.337 1.291-.848 1.707-.873.71-1.812 1.34-2.73 1.99a.535.535 0 01-.353.069c-1.1-.152-2.2-.312-3.298-.477-.48-.073-.687-.343-.585-.837.027-.133.003-.276.003-.506-.155.125-.264.214-.373.304-.073.058-.144.117-.218.173-1.925 1.49-2.883 1.657-5.373.937-.554-.16-.823-.535-.807-1.126.002-.061 0-.123 0-.246-.135.078-.24.126-.332.193-.74.537-1.485 1.067-2.209 1.623-.246.19-.455.198-.72.067-.546-.273-.887-.709-1.08-1.275-.048-.143-.087-.29-.144-.484-.827.536-1.626 1.037-2.403 1.568-.278.19-.512.204-.812.068a3.36 3.36 0 01-1.942-3.573c.123-.78.538-1.375 1.241-1.687.759-.338 1.563-.574 2.35-.843.322-.11.668-.158.975-.296.172-.077.397-.28.398-.427.002-.16-.198-.393-.366-.469-.84-.379-1.722-.48-2.627-.249-.105.027-.206.074-.312.093-.79.145-1.27.549-1.23 1.418.015.33-.16.473-.495.432a1.654 1.654 0 00-.417.012c-.28.037-.457-.029-.55-.338-.11-.377-.35-.665-.797-.651-.432.013-.667.296-.812.66-.365.915-.278 1.857-.13 2.795.08.504.199 1.002.315 1.498.06.254 0 .387-.263.485-1.349.5-2.687 1.03-4.038 1.526-.125.046-.362-.017-.456-.116-.176-.187-.302-.429-.417-.663-.188-.383-.25-.709.206-1.022.552-.379.455-1.034.533-1.753h-.001zm24.226-1.743c.043.328.071.602.12.873.016.096.058.22.13.267.868.573 1.75 1.126 2.844 1.1.21-.005.416-.116.624-.177-.143-.18-.26-.393-.438-.529s-.415-.197-.628-.287c-.652-.278-1.308-.546-1.955-.837-.24-.107-.455-.266-.698-.41zm-.953-1.958c-.5-.036-1.024 0-1.213-.604-.007-.025-.044-.043-.069-.06-.686-.47-1.463-.568-2.26-.499-.327.028-.325.286-.11.453.227.174.505.293.775.399 1.013.397 2.033.78 3.025 1.16-.036-.202-.087-.5-.147-.85h-.001zm-11.387 1.84c-.842.173-1.16.677-.908 1.432.063.189.313.315.476.47.144-.178.385-.341.413-.535.062-.435.02-.885.02-1.367z" fill="#FEFEFE"/><path d="M66.55 78.004l3.873.002 8.417.005 11.48.004c-.192.03-.383.089-.574.089-5.217 0-10.433-.007-15.65-.007-10.17 0-20.34.006-30.51.006-.196 0-.391-.044-.586-.067.247-.007.495-.021.742-.021 3.3-.002 6.597-.001 9.895-.001h.48a.897.897 0 00-.355-.349 10432.824 10432.824 0 00-18.078-11.029c-.133-.08-.306-.096-.46-.143-.195-.332.098-.383.287-.475 1.154-.554 2.312-1.097 3.464-1.652.146-.07.27-.185.406-.28 2.454 1.468 4.905 2.941 7.365 4.4 2.978 1.764 5.966 3.514 8.945 5.276 2.22 1.314 4.43 2.647 6.658 3.947.304.177.693.278 1.047.29 1.05.034 2.103.006 3.155.003v.002z" fill="#D0D0D0"/><path d="M78.84 78.01l-8.417-.004c1.3-.779 2.596-1.562 3.898-2.336a2849.5 2849.5 0 016.987-4.134c2.385-1.405 4.78-2.794 7.161-4.204 1.756-1.04 3.499-2.1 5.248-3.151.139.092.268.203.417.273 1.244.584 2.493 1.157 3.736 1.744.136.064.24.196.36.296-.144.037-.304.044-.426.115a474.78 474.78 0 00-3.627 2.163c-4.31 2.584-8.621 5.168-12.93 7.757-.807.485-1.605.987-2.406 1.482z" fill="#D0D0D0"/><path d="M71.035 91.782l.584 1c-.216.181-.413.348-.613.514-1.062.879-2.133 1.747-3.179 2.644-.274.235-.53.266-.846.171-1.28-.383-2.216-1.197-2.915-2.312-.09-.144-.173-.291-.287-.484l-.77.527c-1.107.766-2.208 1.543-3.33 2.288a.9.9 0 01-.67.097c-.743-.225-1.276-.75-1.679-1.391-.088-.14-.061-.386-.023-.57.32-1.525.458-3.062.32-4.617-.05-.569-.13-1.144-.913-1.162-.066-.001-.161-.13-.188-.217-.341-1.099-.33-1.118.727-1.592.988-.444 1.97-.902 2.97-1.317.212-.087.557-.111.725.004.468.319.887.714 1.296 1.11.079.075.055.292.03.436-.196 1.143-.422 2.282-.595 3.428a4.86 4.86 0 000 1.293c.063.523.316.676.842.61.757-.092.822-.174.737-.922-.17-1.495.26-2.764 1.455-3.714.92-.732 1.868-1.43 2.812-2.133a.552.552 0 01.385-.104c.938.173 1.873.361 2.806.557.32.067.413.278.328.59-.223.818-.434 1.639-.655 2.457-.089.328-.266.425-.617.305a17.994 17.994 0 00-1.874-.531c-.889-.2-1.091.015-.9.895a4.24 4.24 0 001.034 1.996c.676.738 1.288.872 2.214.499.255-.104.502-.226.788-.355zM7.23 99.223L5.785 98.1c.266-.456.499-.907.777-1.328.891-1.35 1.277-2.838 1.249-4.444l-.087-5.154c-.001-.06-.009-.123-.015-.184-.154-1.476-.456-1.771-1.96-1.872l-.172-1.582 7.39-1.518.392 1.557c-1.048.282-1.19 1.124-1.202 2.01-.025 2.135-.027 4.271-.029 6.407 0 .712.04 1.424.036 2.136 0 .168-.054.383-.166.494-1.54 1.525-3.096 3.035-4.648 4.549-.02.02-.055.024-.122.052h.002zM78.84 78.01c.802-.494 1.6-.996 2.407-1.48 4.308-2.59 8.618-5.174 12.93-7.759a549.992 549.992 0 013.626-2.162c.123-.071.282-.078.425-.115-.628.931-1.25 1.867-1.884 2.793-1.92 2.803-3.843 5.602-5.767 8.403-.078.114-.172.217-.258.325l-11.48-.003.001-.001z" fill="#FEFEFE"/><path d="M35.224 66.494c.154.047.327.062.46.143 4.126 2.51 8.248 5.027 12.371 7.543 1.903 1.161 3.805 2.324 5.707 3.486a.896.896 0 01.356.349H43.743c-.248 0-.496.014-.743.022-.794-1.156-1.594-2.307-2.38-3.468-1.763-2.606-3.518-5.216-5.276-7.826-.051-.075-.08-.165-.12-.248z" fill="#F5F5F5"/><path d="M58.313 84.875l-.908-1.353c.2-.216.394-.43.592-.642.816-.868 1.645-1.724 2.441-2.61.258-.287.514-.326.812-.165.242.13.484.286.675.48.625.633.932 1.437 1.208 2.3-1.616.666-3.198 1.32-4.82 1.99zm13.905 19.359c-.143.105-.325.182-.424.319-1.573 2.202-3.136 4.414-4.703 6.621-.122.173-.26.335-.484.62-.03-.292-.058-.447-.058-.601-.003-2.399.005-4.799-.009-7.198-.003-.429.118-.612.577-.606 1.656.019 3.313.006 4.97.009.119 0 .238.021.368.034l-.237.804v-.002z" fill="#FEFEFE"/><path d="M79.66 88.432c.047-.739.046-1.434.148-2.115.086-.575.46-.707.943-.38.625.423.997 1 .969 1.786-.014.398-.228.66-.608.698-.453.045-.913.01-1.45.01l-.002.001z" fill="#000"/><path d="M113.091 85.764c.036-.615.053-1.232.111-1.845.045-.48.283-.67.719-.49.315.128.667.389.792.68.087.202-.114.624-.31.83-.341.357-.779.622-1.176.925l-.136-.1z" fill="#020202"/><path d="M49.706 91.114c.243.146.459.304.698.411.646.29 1.303.559 1.955.837.213.09.45.15.628.287.178.136.294.35.438.529-.208.061-.415.17-.624.176-1.094.026-1.977-.527-2.845-1.1-.072-.047-.113-.171-.13-.266-.048-.27-.076-.545-.12-.874zm-.952-1.958l.147.849c-.99-.378-2.01-.762-3.024-1.16-.27-.106-.549-.224-.776-.399-.215-.166-.217-.424.11-.453.799-.068 1.575.03 2.26.499.026.017.062.035.07.06.188.605.712.568 1.212.604h.001zm-11.387 1.841c0 .482.043.931-.02 1.366-.027.195-.268.357-.412.535-.163-.155-.412-.28-.476-.47-.252-.754.066-1.258.908-1.43z" fill="#010101"/></g><defs><clipPath id="clip0_465_1074"><path fill="#fff" transform="translate(0 .637)" d="M0 0h133v120.628H0z"/></clipPath></defs></svg>