<svg width="91" height="99" viewBox="0 0 91 99" fill="none" xmlns="http://www.w3.org/2000/svg">
<g clip-path="url(#clip0_465_1042)">
<path d="M84.1971 99H77.1665C77.2443 98.9674 77.3184 98.9276 77.398 98.9004C78.4347 98.5476 79.0752 97.6738 79.0824 96.5738C79.0896 95.519 79.0915 94.4624 79.0824 93.4077C79.0697 92.0508 78.0385 91.0195 76.6906 91.0123C75.7517 91.0069 74.8127 91.005 73.8719 91.0123C72.5656 91.0213 71.5272 92.0309 71.5054 93.3389C71.4874 94.4516 71.4892 95.5661 71.5054 96.6787C71.5199 97.6738 72.1405 98.5133 73.0758 98.8624C73.1971 98.9077 73.3165 98.9547 73.4359 99.0018H66.9263C66.9119 98.4861 66.8974 97.9687 66.8793 97.3952C66.6984 97.3952 66.5446 97.3952 66.3908 97.3952C65.4211 97.3952 64.4513 97.4078 63.4834 97.3897C62.5119 97.3717 61.8841 96.7601 61.8388 95.7922C61.8135 95.2585 61.8243 94.7212 61.8388 94.1856C61.8515 93.7152 62.036 93.3172 62.3943 93.0042C62.7163 92.722 63.0962 92.6171 63.516 92.6189C64.4857 92.6207 65.4536 92.6189 66.4234 92.6189C66.5753 92.6189 66.7273 92.6026 66.8648 92.5953V91.0141H66.4849C65.4572 91.0141 64.4314 91.0105 63.4038 91.0141C61.6633 91.0231 60.263 92.409 60.2377 94.1513C60.2286 94.7013 60.2322 95.2513 60.2377 95.8013C60.2503 97.2504 61.1477 98.4518 62.5336 98.8823C62.6403 98.9149 62.7434 98.9619 62.8484 99.0036H53.7336C53.7951 98.9728 53.8548 98.933 53.9199 98.9113C55.0127 98.535 55.6332 97.6738 55.635 96.5159C55.6369 95.4883 55.6405 94.4606 55.635 93.433C55.626 92.058 54.5857 91.0213 53.2143 91.0141C52.3169 91.0105 51.4196 91.0503 50.524 91.0032C49.3987 90.9453 48.0364 91.8499 48.0327 93.4547C48.0291 94.4823 48.0219 95.51 48.0345 96.5376C48.0472 97.6847 48.6569 98.5187 49.7334 98.9059C49.7967 98.9294 49.8546 98.9692 49.9143 99.0018H40.7127V92.6261H43.3939V91.0503C42.6214 90.9616 36.7107 90.996 36.4122 91.0865V92.6333H39.1079C39.1079 92.8577 39.1079 93.0277 39.1079 93.1978C39.1079 94.9618 39.1079 96.7258 39.1097 98.4897C39.1097 98.6616 39.1368 98.8317 39.1513 99.0036H29.8628C29.9406 98.971 30.0148 98.9312 30.0944 98.9041C31.1329 98.5513 31.7697 97.6774 31.777 96.5774C31.7842 95.5226 31.786 94.4661 31.777 93.4113C31.7643 92.0544 30.7313 91.0249 29.3834 91.0159C28.4444 91.0105 27.5054 91.0087 26.5646 91.0159C25.2584 91.0249 24.2199 92.0363 24.1982 93.3425C24.1801 94.4552 24.1819 95.5697 24.1982 96.6824C24.2127 97.6756 24.835 98.5187 25.7686 98.8661C25.8898 98.9113 26.0092 98.9583 26.1286 99.0054H19.4454C19.4038 98.8842 19.373 98.7575 19.3169 98.6435C19.0438 98.07 18.7633 97.4983 18.4865 96.9266C18.3689 96.6823 18.2531 96.4381 18.1283 96.1794C18.2314 96.1179 18.3038 96.0744 18.3762 96.031C19.0926 95.5968 19.5087 94.969 19.5775 94.1314C19.6028 93.8292 19.601 93.5235 19.5775 93.2213C19.4599 91.7794 18.1789 90.9634 17.1242 91.0105C16.2449 91.0485 15.362 91.0195 14.4791 91.0177C13.9364 91.0177 13.4569 91.195 13.039 91.5315C12.4257 92.0236 12.1235 92.6677 12.1271 93.4565C12.1308 95.2205 12.1271 96.9845 12.1289 98.7485C12.1289 98.8353 12.1452 98.9203 12.1525 99.0072H1.65L1.67714 96.3404C1.8852 96.3404 2.04079 96.3404 2.19638 96.3404C3.17878 96.3404 4.16118 96.3531 5.14359 96.3368C6.5023 96.3133 7.50461 95.2892 7.52451 93.9269C7.52632 93.7532 7.52813 93.5796 7.52451 93.4059C7.49918 92.0544 6.46612 91.0249 5.12007 91.0177C4.23898 91.0123 3.3579 91.0141 2.475 91.0177C1.42385 91.0231 0.55 91.6419 0.184539 92.6279C0.135691 92.7618 0.0615132 92.8848 0 93.0133C0 89.7422 0 86.4712 0 83.2001C0.0542763 83.2851 0.123026 83.3629 0.159211 83.4552C0.497533 84.2766 1.11809 84.6384 1.99375 84.6366C4.6551 84.6294 7.31464 84.6366 9.97599 84.6312C10.2781 84.6312 10.5857 84.6203 10.8842 84.5679C14.8066 83.8749 16.5995 79.446 14.3181 76.26C14.2186 76.1207 14.11 75.9868 13.9979 75.8366C14.0521 75.7606 14.0974 75.6883 14.1498 75.6213C14.859 74.7366 15.239 73.7325 15.3095 72.5963C15.4887 69.7052 13.1837 67.1036 10.2962 67.0511C7.46299 67.0004 4.62796 67.033 1.79474 67.0384C1.05477 67.0384 0.548191 67.431 0.213487 68.0715C0.148355 68.1963 0.0723684 68.3175 0.00180921 68.4388C0.00180921 65.8335 0.00180921 63.2282 0.00180921 60.623C0.204441 60.6212 0.407072 60.6157 0.609704 60.6157C30.288 60.6157 59.9645 60.6157 89.6428 60.6157C89.7875 60.6157 89.9323 60.6248 90.077 60.6121C90.1747 60.6031 90.267 60.5633 90.3628 60.5361V97.444C90.191 97.4295 90.0191 97.4024 89.849 97.4024C88.5048 97.3988 87.1623 97.4006 85.8181 97.4006H85.3025C85.3025 96.2988 85.3025 95.2477 85.3025 94.1965C85.3025 93.1472 85.3061 92.0978 85.3007 91.043H83.6869C83.6869 91.2222 83.6869 91.3759 83.6869 91.5315C83.6869 93.6555 83.6995 95.7814 83.6778 97.9054C83.6724 98.3848 83.8081 98.743 84.2007 99.0072L84.1971 99ZM52.4635 67.0276H52.0166C51.0179 67.0276 50.0211 67.0276 49.0224 67.0276C46.6794 67.0276 44.3347 66.9932 41.9918 67.0402C38.3426 67.1144 35.6071 71.1761 37.6008 74.8361C38.5923 76.658 40.2025 77.5807 42.2939 77.5916C44.029 77.6006 45.7658 77.5916 47.5008 77.5934C47.66 77.5934 47.8192 77.5934 47.9767 77.6078C48.6967 77.6838 49.1834 78.0855 49.4294 78.7458C49.6827 79.4315 49.5344 80.0557 49.0188 80.5822C48.6406 80.9694 48.1684 81.096 47.6383 81.096C44.3546 81.0906 41.0709 81.0942 37.7872 81.0942C37.6171 81.0942 37.4489 81.0942 37.2679 81.0942V84.6041C37.4271 84.6131 37.5556 84.624 37.6841 84.624C41.0257 84.624 44.3673 84.6276 47.7089 84.6222C48.04 84.6222 48.3765 84.6077 48.7021 84.5498C51.7633 84.0143 53.7082 80.9332 52.885 77.9353C52.2681 75.6883 50.2345 74.0925 47.9043 74.0636C46.0969 74.0419 44.2877 74.0582 42.4803 74.0582C42.35 74.0582 42.2197 74.0636 42.0895 74.0527C41.241 73.9804 40.5933 73.3508 40.4829 72.4932C40.3834 71.7243 40.8502 70.9337 41.5974 70.6768C41.8633 70.5863 42.1637 70.561 42.4495 70.561C45.6174 70.5537 48.7854 70.5555 51.9533 70.5555C52.1216 70.5555 52.2898 70.5429 52.4617 70.5374V67.0258L52.4635 67.0276ZM72.24 75.8258H72.2346C72.2346 74.581 72.2635 73.3363 72.2291 72.0934C72.1531 69.3271 69.8898 67.0782 67.1199 67.0366C64.9651 67.0041 62.8104 67.0041 60.6574 67.0366C57.8893 67.0764 55.6025 69.3271 55.55 72.0934C55.503 74.5376 55.5355 76.9819 55.5392 79.4261C55.5392 79.6993 55.5627 79.9761 55.6025 80.2457C55.9137 82.3733 57.9128 84.6276 60.7841 84.6276C62.852 84.6276 64.9199 84.6258 66.9878 84.6276C69.9821 84.6312 72.278 82.0802 72.2454 79.4279C72.2309 78.2266 72.2436 77.0271 72.2436 75.8258H72.24ZM34.4872 75.8421H34.4799C34.4799 74.5828 34.5143 73.3236 34.4727 72.0662C34.3804 69.3108 32.1298 67.08 29.3816 67.0366C27.2141 67.0022 25.0431 67.0004 22.8757 67.0366C20.0822 67.08 17.799 69.4157 17.7845 72.2037C17.7719 74.619 17.7845 77.0361 17.7809 79.4514C17.7809 79.9761 17.8696 80.4863 18.0252 80.9856C18.5372 82.6338 20.2939 84.6439 23.0982 84.6294C25.1227 84.6185 27.1472 84.6294 29.1717 84.624C29.5028 84.624 29.8375 84.5968 30.1632 84.5407C32.4753 84.1463 34.5035 82.0169 34.489 79.4008C34.4818 78.2139 34.489 77.0289 34.489 75.8421H34.4872ZM78.2339 84.6004V73.7126C78.4275 73.8085 78.5396 73.9333 78.6482 74.0618C81.4181 77.3075 84.188 80.555 86.9597 83.8008C87.0719 83.9328 87.1859 84.0667 87.3143 84.1807C88.2443 85.0039 89.726 84.6312 90.1258 83.4624C90.2181 83.1947 90.2434 82.8944 90.2434 82.6103C90.2507 77.5753 90.2489 72.5384 90.2471 67.5034C90.2471 67.3623 90.2362 67.2212 90.229 67.0529H86.7155V74.3169C86.7155 74.9248 86.7191 75.5327 86.7155 76.1406C86.7119 76.7376 86.7318 77.3365 86.6992 78.0185C86.5436 77.8521 86.4531 77.7616 86.3717 77.6657C84.6041 75.5978 82.8383 73.5317 81.0707 71.4638C79.9997 70.21 78.9341 68.9508 77.854 67.7042C77.2967 67.0601 76.5568 66.8684 75.8186 67.147C75.2596 67.3587 74.7005 67.9684 74.7041 68.8929C74.7204 73.9858 74.7114 79.0805 74.7132 84.1735C74.7132 84.3128 74.7276 84.4521 74.7349 84.6041H78.2339V84.6004Z" fill="#EDEFF2"/>
<path d="M90.3591 60.5289C90.2632 60.5561 90.1691 60.5959 90.0732 60.6049C89.9303 60.6176 89.7837 60.6086 89.639 60.6086C59.9607 60.6086 30.2842 60.6086 0.605942 60.6086C0.40331 60.6086 0.200678 60.6122 -0.00195312 60.6158V0H90.3591V60.5289ZM6.34476 54.3306H84.0467C84.1372 53.8367 84.1191 6.63437 84.0304 6.3051H6.34476V54.3306Z" fill="black"/>
<path d="M-0.000143914 68.4313C0.0704153 68.3082 0.146402 68.1888 0.211534 68.064C0.546238 67.4235 1.05101 67.0327 1.79278 67.0309C4.62601 67.0255 7.46104 66.9929 10.2943 67.0436C13.1818 67.0961 15.4867 69.6977 15.3076 72.5888C15.237 73.725 14.8571 74.7291 14.1479 75.6138C14.0954 75.6808 14.0484 75.7513 13.9959 75.8291C14.1099 75.9793 14.2166 76.1132 14.3161 76.2525C16.5994 79.4403 14.8064 83.8692 10.8823 84.5604C10.5855 84.6128 10.278 84.6219 9.97403 84.6237C7.31269 84.6291 4.65315 84.6219 1.9918 84.6291C1.11614 84.6309 0.49558 84.2691 0.157257 83.4477C0.119264 83.3554 0.0523232 83.2776 -0.00195312 83.1926C-0.00195312 78.2715 -0.00195312 73.3505 -0.00195312 68.4294L-0.000143914 68.4313ZM3.60923 74.0615H4.11581C5.21581 74.0615 6.314 74.0615 7.414 74.0615C8.28242 74.0615 9.15084 74.0742 10.0175 74.0579C11.217 74.0362 12.0311 72.9597 11.7199 71.8271C11.5155 71.0799 10.8425 70.5679 9.99755 70.5625C7.97305 70.5516 5.94673 70.5589 3.92222 70.5625C3.82453 70.5625 3.72864 70.586 3.60923 70.6023V74.0633V74.0615ZM3.60742 81.0957C3.81005 81.0957 3.96565 81.0957 4.12305 81.0957C5.22305 81.0957 6.32124 81.0957 7.42124 81.0957C8.28966 81.0957 9.15627 81.1084 10.0247 81.0921C11.2224 81.0704 12.0365 79.9849 11.7181 78.8559C11.501 78.0924 10.8244 77.5985 9.94871 77.5949C7.95315 77.5877 5.95759 77.5913 3.96203 77.5949C3.85167 77.5949 3.7413 77.6184 3.61104 77.6329V81.0957H3.60742Z" fill="black"/>
<path d="M12.1523 99.0005C12.1432 98.9136 12.1288 98.8286 12.1288 98.7417C12.1288 96.9778 12.1306 95.2138 12.127 93.4498C12.1252 92.6592 12.4273 92.0169 13.0388 91.5248C13.4567 91.1883 13.9362 91.0092 14.4789 91.011C15.36 91.0128 16.2429 91.0417 17.124 91.0037C18.1788 90.9585 19.4597 91.7727 19.5773 93.2146C19.6026 93.5167 19.6026 93.8225 19.5773 94.1246C19.5085 94.9623 19.0924 95.5901 18.376 96.0243C18.3036 96.0677 18.2312 96.1111 18.1281 96.1727C18.2529 96.4314 18.3687 96.6774 18.4863 96.9199C18.7631 97.4916 19.0436 98.0633 19.3168 98.6368C19.371 98.7526 19.4018 98.8774 19.4452 98.9986H17.7084C17.2724 98.1103 16.8381 97.2202 16.4039 96.3319C15.9335 96.3319 15.5029 96.3319 15.0724 96.3319C14.6327 96.3337 14.1931 96.3391 13.7173 96.3445V98.9968H12.1541L12.1523 99.0005ZM13.7372 94.738C14.7992 94.738 15.796 94.7144 16.7911 94.7452C17.56 94.7687 18.0431 94.5534 17.9798 93.5312C17.9418 92.9197 17.6849 92.6266 17.0715 92.6194C16.2773 92.6103 15.483 92.6158 14.687 92.6176C14.6002 92.6176 14.5133 92.6176 14.4283 92.6302C14.0592 92.6809 13.7679 92.9378 13.7426 93.3033C13.7118 93.761 13.7353 94.2205 13.7353 94.7361L13.7372 94.738Z" fill="black"/>
<path d="M49.9104 99.0002C49.8507 98.9676 49.7928 98.926 49.7295 98.9043C48.653 98.5171 48.0433 97.6831 48.0306 96.536C48.0179 95.5084 48.0252 94.4808 48.0288 93.4531C48.0324 91.8465 49.3966 90.9438 50.5201 91.0016C51.4138 91.0469 52.313 91.0071 53.2104 91.0125C54.5818 91.0197 55.6221 92.0564 55.6311 93.4314C55.6383 94.459 55.6347 95.4867 55.6311 96.5143C55.6275 97.6722 55.0087 98.5334 53.916 98.9097C53.8508 98.9314 53.7911 98.9712 53.7296 99.002H49.9104V99.0002ZM54.0155 94.9982C54.0155 94.5061 54.0209 94.014 54.0155 93.5219C54.0064 92.9067 53.7278 92.6263 53.1054 92.6191C52.2515 92.61 51.3994 92.61 50.5454 92.6191C49.9339 92.6263 49.6498 92.9158 49.6444 93.5327C49.6372 94.5169 49.6372 95.5012 49.6444 96.4836C49.648 97.0788 49.9303 97.3773 50.5128 97.3864C51.3939 97.4008 52.2768 97.4008 53.1597 97.3864C53.726 97.3773 54.0028 97.0842 54.0137 96.5161C54.0227 96.0095 54.0155 95.503 54.0155 94.9964V94.9982Z" fill="black"/>
<path d="M26.1269 99.0001C26.0075 98.9531 25.8863 98.906 25.7669 98.8608C24.8315 98.5134 24.211 97.6703 24.1965 96.6771C24.1802 95.5644 24.1784 94.4499 24.1965 93.3373C24.2182 92.0292 25.2567 91.0197 26.5629 91.0106C27.5019 91.0034 28.4409 91.0052 29.3817 91.0106C30.7295 91.0197 31.7608 92.0491 31.7753 93.406C31.7861 94.4608 31.7825 95.5174 31.7753 96.5721C31.768 97.6721 31.1294 98.546 30.0927 98.8988C30.0131 98.9259 29.9389 98.9639 29.8611 98.9983H26.1287L26.1269 99.0001ZM25.7868 94.9945C25.7868 95.5011 25.7796 96.0077 25.7886 96.5143C25.7995 97.057 26.0781 97.3736 26.6046 97.3845C27.5146 97.4044 28.4264 97.4026 29.3383 97.3845C29.8539 97.3754 30.1596 97.086 30.1705 96.5721C30.1922 95.53 30.1922 94.4879 30.1705 93.4476C30.1596 92.9121 29.8503 92.6281 29.3111 92.6208C28.4282 92.6082 27.5472 92.61 26.6643 92.6208C26.0835 92.6281 25.7976 92.932 25.7886 93.5182C25.7814 94.0103 25.7886 94.5024 25.7886 94.9945H25.7868Z" fill="black"/>
<path d="M73.4323 99.0001C73.3129 98.9531 73.1935 98.906 73.0723 98.8608C72.1369 98.5134 71.5164 97.6721 71.5019 96.6771C71.4856 95.5644 71.482 94.4499 71.5019 93.3373C71.5236 92.031 72.5621 91.0197 73.8683 91.0106C74.8073 91.0034 75.7463 91.0052 76.6871 91.0106C78.0349 91.0197 79.0662 92.0491 79.0789 93.406C79.0897 94.4608 79.0861 95.5174 79.0789 96.5721C79.0716 97.6703 78.433 98.5442 77.3945 98.8988C77.3149 98.9259 77.2407 98.9639 77.1629 98.9983H73.4305L73.4323 99.0001ZM73.0922 94.9945C73.0922 95.5011 73.0849 96.0077 73.094 96.5143C73.1048 97.0733 73.3925 97.3772 73.9534 97.3881C74.8507 97.4026 75.7463 97.4044 76.6437 97.3881C77.1593 97.379 77.465 97.0896 77.4759 96.5776C77.4976 95.5355 77.4976 94.4934 77.4759 93.4531C77.465 92.9175 77.1557 92.6335 76.6165 92.6244C75.7336 92.6118 74.8525 92.6136 73.9696 92.6244C73.3889 92.6317 73.103 92.9338 73.094 93.5218C73.0868 94.0139 73.094 94.506 73.094 94.9981L73.0922 94.9945Z" fill="black"/>
<path d="M0 93.0078C0.0615132 92.8793 0.135691 92.7545 0.184539 92.6224C0.551809 91.6346 1.42385 91.0158 2.475 91.0122C3.35609 91.0086 4.23717 91.0068 5.12007 91.0122C6.46612 91.0195 7.49918 92.0489 7.52451 93.4004C7.52813 93.5741 7.52813 93.7477 7.52451 93.9214C7.50461 95.2838 6.5023 96.3078 5.14359 96.3313C4.16118 96.3476 3.17878 96.3349 2.19638 96.3349C2.04079 96.3349 1.88339 96.3349 1.67714 96.3349L1.65 99.0017H0C0 97.0025 0 95.0051 0 93.0078ZM1.67533 94.7139C1.85082 94.7229 1.99194 94.7356 2.13306 94.7356C2.9852 94.7374 3.83914 94.7356 4.69128 94.7356C4.82155 94.7356 4.95181 94.741 5.08207 94.7338C5.60493 94.703 5.89803 94.4009 5.91069 93.8744C5.91431 93.7152 5.91793 93.556 5.91069 93.3968C5.88717 92.9571 5.62122 92.6423 5.18339 92.6315C4.25888 92.6079 3.33438 92.6097 2.40987 92.6315C2.01546 92.6405 1.71694 92.9227 1.68799 93.3117C1.65362 93.7676 1.68076 94.2272 1.68076 94.7139H1.67533Z" fill="black"/>
<path d="M62.843 98.9997C62.7381 98.9599 62.6349 98.9129 62.5282 98.8785C61.1423 98.4497 60.245 97.2466 60.2323 95.7974C60.2269 95.2474 60.2251 94.6974 60.2323 94.1474C60.2595 92.4051 61.658 91.0175 63.3984 91.0102C64.4261 91.0048 65.4519 91.0102 66.4795 91.0102H66.8594V92.5915C66.7201 92.5987 66.57 92.615 66.418 92.615C65.4483 92.6168 64.4803 92.6186 63.5106 92.615C63.0909 92.615 62.7109 92.7163 62.3889 93.0004C62.0307 93.3152 61.8461 93.7132 61.8335 94.1818C61.819 94.7173 61.8081 95.2528 61.8335 95.7884C61.8787 96.7563 62.5065 97.3678 63.478 97.3859C64.4478 97.404 65.4157 97.3913 66.3854 97.3913C66.5392 97.3913 66.6948 97.3913 66.8739 97.3913C66.8902 97.9648 66.9047 98.4823 66.921 98.9979H62.8412L62.843 98.9997Z" fill="black"/>
<path d="M39.1478 99C39.1334 98.8282 39.1062 98.6581 39.1062 98.4862C39.1026 96.7222 39.1044 94.9582 39.1044 93.1943C39.1044 93.0242 39.1044 92.8541 39.1044 92.6298H36.4087V91.0829C36.7072 90.9925 42.6197 90.9581 43.3904 91.0467V92.6226H40.7092V98.9982H39.146L39.1478 99Z" fill="black"/>
<path d="M84.1968 99.0003C83.8042 98.7361 83.6686 98.3779 83.674 97.8985C83.6957 95.7745 83.683 93.6486 83.683 91.5246C83.683 91.369 83.683 91.2134 83.683 91.0361H85.2968C85.3023 92.0891 85.2987 93.1402 85.2987 94.1896C85.2987 95.2407 85.2987 96.2919 85.2987 97.3937H85.8143C87.1585 97.3937 88.501 97.3937 89.8452 97.3955C90.0171 97.3955 90.189 97.4226 90.359 97.4371V99.0003H84.1968Z" fill="black"/>
<path d="M13.7137 98.9998V96.3475C14.1895 96.342 14.6292 96.3366 15.0688 96.3348C15.4994 96.333 15.9318 96.3348 16.4004 96.3348C16.8346 97.2231 17.2706 98.1114 17.7048 99.0016H13.7119L13.7137 98.9998Z" fill="#EDEFF2"/>
<path d="M52.4632 67.0279V70.5396C52.2913 70.5468 52.123 70.5577 51.9548 70.5577C48.7869 70.5577 45.6189 70.5558 42.451 70.5631C42.167 70.5631 41.8666 70.5884 41.5989 70.6789C40.8517 70.9358 40.3849 71.7264 40.4844 72.4953C40.5948 73.3547 41.2425 73.9843 42.091 74.0549C42.2194 74.0657 42.3515 74.0603 42.4818 74.0603C44.2892 74.0603 46.0984 74.044 47.9058 74.0657C50.236 74.0947 52.2696 75.6904 52.8865 77.9374C53.7097 80.9335 51.7648 84.0164 48.7036 84.5519C48.378 84.608 48.0415 84.6225 47.7104 84.6243C44.3688 84.6297 41.0272 84.6279 37.6855 84.6261C37.5571 84.6261 37.4286 84.6134 37.2694 84.6062V81.0963C37.4485 81.0963 37.6186 81.0963 37.7887 81.0963C41.0724 81.0963 44.3561 81.0945 47.6398 81.0981C48.1699 81.0981 48.6403 80.9715 49.0202 80.5843C49.5359 80.0578 49.6842 79.4318 49.4309 78.748C49.1867 78.0858 48.6982 77.6859 47.9781 77.61C47.8207 77.5937 47.6597 77.5955 47.5023 77.5955C45.7673 77.5955 44.0304 77.6027 42.2954 77.5937C40.2022 77.5828 38.5938 76.6601 37.6023 74.8382C35.6086 71.1782 38.3441 67.1165 41.9933 67.0424C44.3362 66.9953 46.6791 67.0297 49.0239 67.0297C50.0226 67.0297 51.0194 67.0297 52.0181 67.0297H52.465L52.4632 67.0279Z" fill="black"/>
<path d="M72.238 75.8256C72.238 77.0269 72.2254 78.2264 72.2398 79.4277C72.2724 82.08 69.9765 84.631 66.9823 84.6274C64.9143 84.6256 62.8464 84.6274 60.7785 84.6274C57.9073 84.6274 55.9081 82.3731 55.5969 80.2455C55.5571 79.9741 55.5336 79.6991 55.5336 79.4259C55.53 76.9817 55.4992 74.5356 55.5444 72.0932C55.5969 69.3287 57.8837 67.0762 60.6518 67.0364C62.8066 67.0057 64.9614 67.0039 67.1143 67.0364C69.8842 67.0781 72.1476 69.3269 72.2236 72.0932C72.2579 73.3361 72.229 74.5809 72.229 75.8256H72.2344H72.238ZM68.7191 75.8527C68.7191 74.7383 68.692 73.6256 68.7263 72.5129C68.7625 71.3568 67.9285 70.4848 66.7507 70.5554C66.3328 70.5807 65.913 70.559 65.4933 70.559C63.9609 70.559 62.4285 70.5644 60.8961 70.5572C60.1833 70.5535 59.6405 70.843 59.275 71.4545C59.0833 71.7766 59.0471 72.1348 59.0489 72.5003C59.0489 74.7129 59.0489 76.9256 59.0489 79.1383C59.0489 79.2685 59.0507 79.3988 59.067 79.5272C59.1846 80.4445 59.8721 81.085 60.7966 81.0904C62.8482 81.1031 64.9017 81.0976 66.9551 81.0904C67.5775 81.0886 68.066 80.8118 68.4224 80.3034C68.6576 79.9687 68.7191 79.5887 68.7191 79.1907C68.7191 78.0762 68.7191 76.9636 68.7191 75.8491V75.8527Z" fill="black"/>
<path d="M34.4851 75.8439C34.4851 77.0307 34.4797 78.2158 34.4851 79.4026C34.4996 82.0187 32.4714 84.1482 30.1593 84.5426C29.8336 84.5987 29.4989 84.624 29.1678 84.6258C27.1433 84.633 25.1188 84.6204 23.0943 84.6312C20.29 84.6475 18.5333 82.6375 18.0213 80.9875C17.8657 80.4863 17.777 79.9779 17.777 79.4533C17.7788 77.038 17.768 74.6209 17.7806 72.2056C17.7951 69.4176 20.0802 67.0837 22.8718 67.0385C25.0392 67.0041 27.2103 67.0041 29.3777 67.0385C32.1259 67.0837 34.3783 69.3127 34.4688 72.0681C34.5104 73.3255 34.476 74.5847 34.476 75.8439H34.4833H34.4851ZM30.9607 75.8584C30.9607 74.7023 30.968 73.5444 30.9589 72.3883C30.9517 71.3082 30.2443 70.5737 29.1751 70.5646C27.1379 70.5502 25.0989 70.5592 23.0599 70.561C22.7053 70.561 22.3742 70.6442 22.0775 70.8505C21.5474 71.2177 21.2959 71.7334 21.2941 72.3648C21.2887 74.6788 21.2887 76.9928 21.2941 79.3067C21.2941 79.6722 21.3792 80.0232 21.6017 80.3289C21.9762 80.8464 22.4828 81.0978 23.1232 81.096C25.0899 81.0924 27.0547 81.0689 29.0213 81.1051C30.0652 81.125 31.0078 80.3724 30.968 79.1529C30.9318 78.0548 30.9607 76.9548 30.9607 75.8566V75.8584Z" fill="black"/>
<path d="M78.2319 84.6022H74.7329C74.7239 84.4502 74.7112 84.3109 74.7112 84.1716C74.7112 79.0786 74.7184 73.9839 74.7022 68.891C74.6985 67.9665 75.2558 67.3586 75.8166 67.1451C76.5548 66.8665 77.293 67.0564 77.852 67.7023C78.9303 68.9489 79.9959 70.2081 81.0688 71.4619C82.8364 73.5298 84.6022 75.5977 86.3698 77.6638C86.453 77.7615 86.5435 77.8502 86.6972 78.0166C86.7316 77.3346 86.7099 76.7357 86.7135 76.1387C86.7171 75.5308 86.7135 74.9229 86.7135 74.315V67.051H90.227C90.2342 67.2175 90.2451 67.3586 90.2451 67.5015C90.2451 72.5365 90.2469 77.5734 90.2415 82.6084C90.2415 82.8943 90.2162 83.1946 90.1239 83.4606C89.724 84.6293 88.2423 85.0002 87.3124 84.1788C87.1839 84.0648 87.0699 83.9309 86.9578 83.7989C84.1861 80.5531 81.4162 77.3074 78.6462 74.0599C78.5377 73.9314 78.4255 73.8066 78.2319 73.7107V84.5985V84.6022Z" fill="black"/>
<path d="M6.34473 54.3302V6.30469H84.0304C84.1209 6.63396 84.139 53.8363 84.0467 54.3302H6.34473ZM12.6281 48.0794C13.1745 48.0287 13.6901 47.9798 14.2057 47.9346C15.749 47.7989 17.2742 47.5692 18.7595 47.0988C21.7592 46.1471 24.312 44.4718 26.5717 42.317C29.2258 39.7859 30.9265 36.7248 31.6465 33.1226C31.8908 31.9032 32.1006 30.6766 32.3847 29.468C32.7248 28.0206 33.2983 26.6655 34.1632 25.4443C34.5684 24.8708 35.0479 24.3751 35.6612 24.0205C36.0429 23.8016 36.4482 23.6532 36.8896 23.6261C37.8304 23.57 38.5306 24.0042 39.0661 24.7387C39.5817 25.4443 39.9599 26.2259 40.2747 27.0364C40.6257 27.9392 40.9766 28.842 41.3204 29.7484C42.3173 32.37 43.2798 35.006 44.4286 37.5678C44.8809 38.5756 45.4164 39.5326 46.1003 40.4011C47.2148 41.8159 48.6097 42.829 50.3502 43.3338C51.8898 43.7807 53.4548 43.8277 55.0342 43.6088C57.6666 43.2451 59.7924 42.0601 61.2543 39.7914C61.3303 39.6738 61.4207 39.5652 61.5257 39.4241C61.6233 39.5544 61.6993 39.6557 61.7753 39.757C62.0775 40.1622 62.3597 40.5856 62.6872 40.971C65.24 43.9905 68.4386 46.0404 72.1873 47.2471C73.5985 47.7012 75.0477 47.9672 76.5385 47.9201C76.9673 47.9057 77.4015 47.8822 77.814 47.7483V41.8738C77.6837 41.8611 77.5842 41.8502 77.4847 41.843C76.4589 41.767 75.4421 41.6277 74.4543 41.3346C70.6549 40.2057 67.8452 37.9062 66.1898 34.2715C65.5638 32.8965 65.2562 31.4419 65.3123 29.9275C65.3919 27.7981 66.1011 25.8749 67.335 24.1544C69.6834 20.8797 72.9291 19.1428 76.8913 18.667C77.2007 18.629 77.5118 18.6001 77.8103 18.5675C77.89 17.7986 77.861 12.8667 77.776 12.5374C77.7109 12.5302 77.6403 12.5103 77.5715 12.5139C76.591 12.5754 75.6013 12.5736 74.6334 12.7201C71.697 13.1616 69.0013 14.2688 66.577 15.9659C62.5044 18.8172 59.8539 22.6762 58.6798 27.5213C58.336 28.9397 58.061 30.3744 57.7209 31.7947C57.3898 33.1787 56.9176 34.5121 56.1831 35.7405C55.9424 36.1422 55.6548 36.5004 55.2839 36.7881C54.4462 37.4321 53.4385 37.4358 52.5954 36.8025C52.2064 36.5113 51.8952 36.1458 51.6763 35.7188C51.1064 34.6134 50.5057 33.5206 50.0155 32.3826C49.0258 30.085 48.1085 27.7583 47.1497 25.4479C46.4386 23.7346 45.6082 22.0828 44.5426 20.5558C44.0758 19.8864 43.5367 19.284 42.898 18.7774C41.0635 17.3228 38.9666 16.6624 36.6381 16.7637C34.3423 16.865 32.3684 17.7172 30.7962 19.4215C30.4326 19.8141 30.0942 20.2302 29.7469 20.6373C29.5696 20.8435 29.3959 21.0552 29.2258 21.2578C29.1733 21.2325 29.1408 21.2252 29.1245 21.2053C29.0702 21.1384 29.0214 21.066 28.9707 20.9955C26.8612 17.965 24.1057 15.7072 20.7551 14.1802C18.3127 13.0675 15.7544 12.4759 13.0551 12.579C12.9013 12.5845 12.7493 12.6007 12.601 12.6116V18.5675C12.7095 18.5784 12.7928 18.5892 12.876 18.5965C13.8855 18.6851 14.886 18.8262 15.8648 19.1012C19.3204 20.0728 22.0451 22.0285 23.8181 25.1784C25.5477 28.254 25.7666 31.4527 24.2089 34.6604C22.9099 37.3345 20.8763 39.3282 18.2005 40.6435C16.5631 41.4486 14.8118 41.7851 12.999 41.8321C12.876 41.8358 12.753 41.8557 12.6299 41.8683V48.0794H12.6281Z" fill="#EDEFF2"/>
<path d="M3.60938 74.0619V70.6009C3.72878 70.5846 3.82648 70.5611 3.92237 70.5611C5.94687 70.5593 7.97319 70.552 9.9977 70.5611C10.8408 70.5647 11.5138 71.0785 11.7201 71.8257C12.0312 72.9601 11.2171 74.0366 10.0176 74.0565C9.14918 74.071 8.28257 74.0601 7.41414 74.0601C6.31414 74.0601 5.21595 74.0601 4.11595 74.0601H3.60938V74.0619Z" fill="#EDEFF2"/>
<path d="M3.60762 81.0963V77.6334C3.73789 77.619 3.84825 77.5955 3.95861 77.5955C5.95417 77.5936 7.94973 77.5882 9.94529 77.5955C10.8209 77.5991 11.4994 78.093 11.7147 78.8565C12.0349 79.9854 11.2208 81.0709 10.0213 81.0927C9.15466 81.1071 8.28624 81.0963 7.41782 81.0963C6.31782 81.0963 5.21963 81.0963 4.11963 81.0963C3.96223 81.0963 3.80664 81.0963 3.604 81.0963H3.60762Z" fill="#EDEFF2"/>
<path d="M13.7371 94.7375C13.7371 94.2219 13.7136 93.7624 13.7444 93.3046C13.7679 92.9374 14.0592 92.6823 14.43 92.6316C14.5151 92.619 14.6037 92.619 14.6888 92.619C15.483 92.619 16.2772 92.6117 17.0733 92.6208C17.6866 92.628 17.9435 92.9211 17.9815 93.5326C18.0448 94.553 17.5618 94.7701 16.7929 94.7466C15.7978 94.7158 14.8009 94.7394 13.7389 94.7394L13.7371 94.7375Z" fill="#EDEFF2"/>
<path d="M54.0156 94.9983C54.0156 95.5049 54.0229 96.0115 54.0138 96.5181C54.003 97.0862 53.728 97.3793 53.1599 97.3883C52.2788 97.4028 51.3959 97.4028 50.513 97.3883C49.9304 97.3793 49.6482 97.0807 49.6446 96.4855C49.6374 95.5013 49.6374 94.5171 49.6446 93.5347C49.6482 92.9159 49.9323 92.6265 50.5456 92.621C51.3995 92.612 52.2517 92.612 53.1056 92.621C53.728 92.6283 54.0066 92.9087 54.0156 93.5238C54.0229 94.0159 54.0156 94.5081 54.0156 95.0002V94.9983Z" fill="#EDEFF2"/>
<path d="M25.7868 94.9948C25.7868 94.5027 25.7813 94.0106 25.7868 93.5185C25.7958 92.9305 26.0817 92.6284 26.6624 92.6211C27.5453 92.6103 28.4264 92.6085 29.3093 92.6211C29.8503 92.6284 30.1596 92.9124 30.1687 93.4479C30.1886 94.4901 30.1886 95.5322 30.1687 96.5725C30.1578 97.0863 29.8521 97.3757 29.3364 97.3848C28.4264 97.4011 27.5146 97.4029 26.6027 97.3848C26.0762 97.3739 25.7976 97.0573 25.7868 96.5146C25.7777 96.008 25.785 95.5014 25.785 94.9948H25.7868Z" fill="#EDEFF2"/>
<path d="M73.0939 94.9948C73.0939 94.5027 73.0885 94.0106 73.0939 93.5185C73.103 92.9287 73.3906 92.6284 73.9696 92.6211C74.8525 92.6103 75.7335 92.6085 76.6164 92.6211C77.1574 92.6284 77.4668 92.9142 77.4758 93.4498C77.4957 94.4919 77.4957 95.534 77.4758 96.5743C77.465 97.0863 77.1592 97.3757 76.6436 97.3848C75.748 97.4011 74.8506 97.4011 73.9533 97.3848C73.3924 97.3757 73.1048 97.0718 73.0939 96.5109C73.0849 96.0044 73.0921 95.4978 73.0921 94.9912L73.0939 94.9948Z" fill="#EDEFF2"/>
<path d="M1.6754 94.7142C1.6754 94.2275 1.65007 93.768 1.68264 93.3121C1.71158 92.9231 2.01191 92.6409 2.40451 92.6318C3.32902 92.6119 4.25533 92.6101 5.17803 92.6318C5.61586 92.6427 5.88181 92.9575 5.90533 93.3971C5.91438 93.5563 5.91076 93.7155 5.90533 93.8747C5.89267 94.4012 5.60139 94.7034 5.07672 94.7341C4.94645 94.7414 4.81619 94.7359 4.68593 94.7359C3.83379 94.7359 2.97984 94.7359 2.1277 94.7359C1.98658 94.7359 1.84728 94.7233 1.66997 94.7142H1.6754Z" fill="#EDEFF2"/>
<path d="M68.7191 75.8534C68.7191 76.9679 68.7191 78.0806 68.7191 79.195C68.7191 79.5931 68.6557 79.973 68.4223 80.3077C68.0659 80.8161 67.5774 81.0929 66.9551 81.0947C64.9016 81.1001 62.85 81.1056 60.7965 81.0947C59.872 81.0893 59.1845 80.4488 59.0669 79.5315C59.0506 79.4031 59.0488 79.2728 59.0488 79.1426C59.0488 76.9299 59.0488 74.7172 59.0488 72.5046C59.0488 72.1391 59.0832 71.7809 59.275 71.4588C59.6404 70.8473 60.1814 70.5579 60.896 70.5615C62.4284 70.5687 63.9608 70.5633 65.4932 70.5633C65.913 70.5633 66.3327 70.585 66.7506 70.5597C67.9284 70.4891 68.7625 71.3611 68.7263 72.5172C68.6919 73.6299 68.7191 74.7444 68.7191 75.857V75.8534Z" fill="#EDEFF2"/>
<path d="M30.9609 75.8586C30.9609 76.9586 30.932 78.0586 30.9682 79.155C31.008 80.3744 30.0654 81.127 29.0215 81.1071C27.0567 81.0691 25.09 81.0945 23.1234 81.0981C22.483 81.0981 21.9782 80.8484 21.6019 80.331C21.3812 80.0252 21.2961 79.6742 21.2943 79.3088C21.2889 76.9948 21.2871 74.6808 21.2943 72.3668C21.2943 71.7336 21.5476 71.2198 22.0777 70.8525C22.3744 70.6463 22.7055 70.563 23.0601 70.563C25.0991 70.5612 27.1363 70.5522 29.1752 70.5667C30.2445 70.5739 30.9519 71.3102 30.9591 72.3903C30.9682 73.5464 30.9609 74.7043 30.9609 75.8604V75.8586Z" fill="#EDEFF2"/>
<path d="M12.6281 48.0796V41.8686C12.7511 41.8559 12.8723 41.836 12.9971 41.8324C14.8118 41.7854 16.5613 41.4488 18.1986 40.6437C20.8744 39.3303 22.908 37.3347 24.207 34.6607C25.7647 31.4548 25.5458 28.2543 23.8162 25.1786C22.045 22.0288 19.3185 20.073 15.8629 19.1015C14.8842 18.8265 13.8837 18.6836 12.8741 18.5967C12.7909 18.5895 12.7059 18.5786 12.5991 18.5678V12.6118C12.7475 12.601 12.8995 12.5865 13.0532 12.5793C15.7526 12.4762 18.3108 13.0678 20.7532 14.1804C24.1039 15.7074 26.8593 17.9653 28.9689 20.9957C29.0177 21.0663 29.0684 21.1386 29.1226 21.2056C29.1389 21.2255 29.1715 21.2327 29.224 21.2581C29.394 21.0554 29.5677 20.8456 29.745 20.6375C30.0924 20.2304 30.4307 19.8143 30.7944 19.4217C32.3684 17.7174 34.3404 16.8635 36.6363 16.764C38.9647 16.6609 41.0616 17.323 42.8962 18.7776C43.5348 19.2842 44.074 19.8885 44.5407 20.5561C45.6064 22.0812 46.4368 23.7331 47.1478 25.4482C48.1067 27.7586 49.0258 30.0852 50.0136 32.3829C50.5039 33.5227 51.1064 34.6155 51.6744 35.7191C51.8952 36.146 52.2064 36.5115 52.5935 36.8028C53.4366 37.436 54.4444 37.4342 55.282 36.7883C55.6529 36.5025 55.9424 36.1424 56.1812 35.7408C56.9157 34.5123 57.3879 33.1771 57.719 31.7949C58.0592 30.3747 58.3342 28.94 58.6779 27.5215C59.8521 22.6765 62.5008 18.8174 66.5751 15.9661C68.9995 14.2691 71.6952 13.16 74.6315 12.7204C75.5994 12.5757 76.5891 12.5775 77.5697 12.5141C77.6384 12.5105 77.709 12.5286 77.7741 12.5377C77.8592 12.8669 77.8899 17.7988 77.8085 18.5678C77.51 18.6003 77.1988 18.6311 76.8894 18.6673C72.9272 19.1431 69.6815 20.8781 67.3332 24.1546C66.0993 25.8752 65.3901 27.7984 65.3105 29.9278C65.2544 31.4421 65.562 32.8967 66.1879 34.2717C67.8416 37.9082 70.6513 40.2059 74.4524 41.3349C75.4402 41.628 76.457 41.7691 77.4828 41.8433C77.5823 41.8505 77.6837 41.8613 77.8121 41.874V47.7485C77.3978 47.8806 76.9654 47.9059 76.5366 47.9204C75.0458 47.9674 73.5985 47.7015 72.1855 47.2474C68.4368 46.0406 65.2381 43.9908 62.6853 40.9712C62.3596 40.5859 62.0774 40.1625 61.7735 39.7572C61.6975 39.6559 61.6215 39.5546 61.5238 39.4243C61.4189 39.5673 61.3284 39.674 61.2524 39.7916C59.7906 42.0622 57.6629 43.2454 55.0323 43.609C53.4529 43.828 51.8879 43.7809 50.3483 43.334C48.6078 42.8275 47.2129 41.8161 46.0985 40.4013C45.4146 39.5329 44.8791 38.5758 44.4268 37.5681C43.2779 35.0062 42.3154 32.3702 41.3185 29.7487C40.9748 28.8441 40.6238 27.9395 40.2728 27.0367C39.9562 26.2261 39.5781 25.4446 39.0643 24.739C38.5269 24.0044 37.8268 23.5702 36.8878 23.6263C36.4481 23.6516 36.0411 23.8 35.6593 24.0207C35.046 24.3753 34.5666 24.8711 34.1613 25.4446C33.2983 26.6658 32.723 28.0209 32.3828 29.4683C32.0988 30.6768 31.8889 31.9035 31.6447 33.1229C30.9246 36.725 29.224 39.7862 26.5698 42.3173C24.3101 44.472 21.7573 46.1474 18.7577 47.099C17.2723 47.5694 15.749 47.7992 14.2039 47.9349C13.6883 47.9801 13.1708 48.0289 12.6263 48.0796H12.6281Z" fill="black"/>
</g>
<defs>
<clipPath id="clip0_465_1042">
<rect width="90.3592" height="99" fill="white"/>
</clipPath>
</defs>
</svg>
