<svg width="833" height="303" viewBox="0 0 833 303" fill="none" xmlns="http://www.w3.org/2000/svg"><path fill="#fff" d="M0 0h833v303H0z"/><mask id="a" style="mask-type:alpha" maskUnits="userSpaceOnUse" x="0" y="0" width="833" height="303"><path fill="#fff" d="M0 0h833v303H0z"/></mask><g mask="url(#a)" fill="#000"><path d="M50 0h2v303h-2zm10 0h17v303H60zm20 0h2v303h-2zm15 0h2v303h-2zm4 0h2v303h-2zm4 0h7v303h-7zm16 0h2v303h-2zm59 0h2v303h-2zm72 0h33v303h-33zm40 0h12v303h-12zm30 0h6v303h-6zm10 0h6v303h-6zm70 0h6v303h-6zm22 0h27v303h-27zm374 0h27v303h-27zM183 0h6v303h-6zm20 0h17v303h-17zm205 0h7v303h-7z"/></g></svg>