<svg width="8680" height="376" viewBox="0 0 8680 376" fill="none" xmlns="http://www.w3.org/2000/svg"><path d="M4717.95 307h-47.63V3.9h47.63v129.9h54.13V3.9h48.49V307h-48.49V177.1h-54.13V307zm158.37-69.713c0 10.969 2.17 18.763 6.5 23.382 4.62 4.33 10.68 6.495 18.18 6.495 7.51 0 13.43-2.165 17.76-6.495 4.62-4.619 6.93-12.413 6.93-23.382V73.613c0-10.97-2.31-18.619-6.93-22.949-4.33-4.619-10.25-6.928-17.76-6.928-7.5 0-13.56 2.31-18.18 6.928-4.33 4.33-6.5 11.98-6.5 22.949v163.674zm-47.63-160.643c0-24.537 6.21-43.3 18.62-56.29C4859.72 7.075 4877.62.436 4901 .436c23.39 0 41.28 6.64 53.7 19.918 12.41 12.99 18.62 31.753 18.62 56.29v157.612c0 24.537-6.21 43.444-18.62 56.723-12.42 12.99-30.31 19.485-53.7 19.485-23.38 0-41.28-6.495-53.69-19.485-12.41-13.279-18.62-32.186-18.62-56.723V76.644zm258.71 68.847L5070.08 307h-65.38L4970.93 3.9h46.33l25.54 239.016L5065.75 3.9h45.9l23.82 240.748L5160.15 3.9h41.57L5167.94 307h-63.22l-17.32-161.509zm266.19 0L5336.27 307h-65.38L5237.11 3.9h46.33l25.55 239.016L5331.94 3.9h45.9l23.81 240.748L5426.33 3.9h41.57L5434.13 307h-63.22l-17.32-161.509zm163.45-13.856h65.38v43.3h-65.38V263.7h82.27V307h-129.9V3.9h129.9v43.3h-82.27v84.435zM5651.02 3.9h75.35c23.96 0 41.71 6.35 53.26 19.052 11.83 12.701 17.75 31.32 17.75 55.857v153.282c0 24.537-5.92 43.156-17.75 55.857-11.55 12.701-29.3 19.052-53.26 19.052h-75.35V3.9zm47.63 43.3v216.5h26.85c7.51 0 13.42-2.165 17.75-6.495s6.5-11.98 6.5-22.949V76.644c0-10.97-2.17-18.619-6.5-22.949-4.33-4.33-10.24-6.495-17.75-6.495h-26.85zm150.34 190.087c0 10.969 2.17 18.763 6.5 23.382 4.62 4.33 10.68 6.495 18.18 6.495 7.51 0 13.43-2.165 17.76-6.495 4.62-4.619 6.93-12.413 6.93-23.382V73.613c0-10.97-2.31-18.619-6.93-22.949-4.33-4.619-10.25-6.928-17.76-6.928-7.5 0-13.56 2.31-18.18 6.928-4.33 4.33-6.5 11.98-6.5 22.949v163.674zm-47.63-160.643c0-24.537 6.21-43.3 18.62-56.29C5832.4 7.075 5850.29.436 5873.67.436c23.39 0 41.28 6.64 53.7 19.918 12.41 12.99 18.62 31.753 18.62 56.29v157.612c0 24.537-6.21 43.444-18.62 56.723-12.42 12.99-30.31 19.485-53.7 19.485-23.38 0-41.27-6.495-53.69-19.485-12.41-13.279-18.62-32.186-18.62-56.723V76.644zM5999.14 3.9h47.63V307h-47.63V3.9zm46.08 0h147.22v43.3h-49.79V307h-47.63V47.2h-49.8V3.9zM7191.95 307h-47.63V3.9h47.63v129.9h54.13V3.9h48.49V307h-48.49V177.1h-54.13V307zm159.24-69.713c0 10.969 2.16 18.763 6.49 23.382 4.62 4.33 10.68 6.495 18.19 6.495 7.51 0 13.42-2.165 17.75-6.495 4.62-4.619 6.93-12.413 6.93-23.382V73.613c0-10.97-2.31-18.619-6.93-22.949-4.33-4.619-10.24-6.928-17.75-6.928s-13.57 2.31-18.19 6.928c-4.33 4.33-6.49 11.98-6.49 22.949v163.674zm-47.63-160.643c0-24.537 6.21-43.3 18.62-56.29C7334.59 7.075 7352.49.436 7375.87.436s41.28 6.64 53.69 19.918c12.41 12.99 18.62 31.753 18.62 56.29v157.612c0 24.537-6.21 43.444-18.62 56.723-12.41 12.99-30.31 19.485-53.69 19.485s-41.28-6.495-53.69-19.485c-12.41-13.279-18.62-32.186-18.62-56.723V76.644zm259.58 68.847L7545.82 307h-65.39L7446.66 3.9h46.33l25.55 239.016L7541.49 3.9h45.89l23.82 240.748L7635.88 3.9h41.57L7643.67 307h-63.21l-17.32-161.509zm267.91 0L7813.73 307h-65.38L7714.58 3.9h46.33l25.55 239.016L7809.4 3.9h45.9l23.82 240.748L7903.8 3.9h41.57L7911.59 307h-63.22l-17.32-161.509zm164.32-13.856h65.38v43.3h-65.38V263.7h82.27V307h-129.9V3.9h129.9v43.3h-82.27v84.435zM8131.09 3.9h75.34c23.96 0 41.71 6.35 53.26 19.052 11.83 12.701 17.75 31.32 17.75 55.857v153.282c0 24.537-5.92 43.156-17.75 55.857-11.55 12.701-29.3 19.052-53.26 19.052h-75.34V3.9zm47.63 43.3v216.5h26.84c7.51 0 13.43-2.165 17.76-6.495 4.33-4.33 6.49-11.98 6.49-22.949V76.644c0-10.97-2.16-18.619-6.49-22.949-4.33-4.33-10.25-6.495-17.76-6.495h-26.84zm151.2 190.087c0 10.969 2.17 18.763 6.5 23.382 4.62 4.33 10.68 6.495 18.18 6.495 7.51 0 13.43-2.165 17.76-6.495 4.61-4.619 6.92-12.413 6.92-23.382V73.613c0-10.97-2.31-18.619-6.92-22.949-4.33-4.619-10.25-6.928-17.76-6.928-7.5 0-13.56 2.31-18.18 6.928-4.33 4.33-6.5 11.98-6.5 22.949v163.674zm-47.63-160.643c0-24.537 6.21-43.3 18.62-56.29C8313.32 7.075 8331.22.436 8354.6.436s41.28 6.64 53.69 19.918c12.42 12.99 18.62 31.753 18.62 56.29v157.612c0 24.537-6.2 43.444-18.62 56.723-12.41 12.99-30.31 19.485-53.69 19.485s-41.28-6.495-53.69-19.485c-12.41-13.279-18.62-32.186-18.62-56.723V76.644zM8481.8 3.9h47.63V307h-47.63V3.9zm46.95 0h147.22v43.3h-49.8V307h-47.63V47.2h-49.79V3.9zM6283 4h833v303h-833z" fill="#fff"/><mask id="a" style="mask-type:alpha" maskUnits="userSpaceOnUse" x="6283" y="4" width="833" height="303"><path fill="#fff" d="M6283 4h833v303h-833z"/></mask><g mask="url(#a)" fill="#000"><path d="M6333 4h2v303h-2zm10 0h17v303h-17zm20 0h2v303h-2zm15 0h2v303h-2zm4 0h2v303h-2zm4 0h7v303h-7zm16 0h2v303h-2zm59 0h2v303h-2zm72 0h33v303h-33zm40 0h12v303h-12zm30 0h6v303h-6zm10 0h6v303h-6zm70 0h6v303h-6zm22 0h27v303h-27zm374 0h27v303h-27zm-613 0h6v303h-6zm20 0h17v303h-17zm205 0h7v303h-7z"/></g><circle cx="4490" cy="154" r="136.5" stroke="#4F06C6" stroke-width="27"/><path d="M4505.97 149.36c13.67.796 24.61 3.98 32.84 9.552 8.36 5.572 12.54 13.864 12.54 24.875 0 12.073-4.85 21.293-14.53 27.661-9.55 6.368-21.83 9.552-36.82 9.552h-63.48V81.7h62.09c14.46 0 26.14 2.852 35.02 8.557 9.03 5.705 13.54 14.527 13.54 26.467 0 20.165-13.73 31.044-41.2 32.636zm-41.59-45.969v36.417h31.84c7.43 0 13.14-1.658 17.12-4.975 3.98-3.317 5.97-7.827 5.97-13.532 0-5.572-1.99-9.95-5.97-13.134-3.98-3.184-9.82-4.776-17.52-4.776h-31.44zm33.04 95.918c17.38 0 26.07-6.434 26.07-19.303 0-6.103-2.06-10.879-6.17-14.328-4.12-3.449-10.29-5.174-18.51-5.174h-34.43v38.805h33.04z" fill="#4F06C6"/><path d="M377.95 307h-47.63V3.9h47.63v129.9h54.125V3.9h48.496V307h-48.496V177.1H377.95V307zm158.373-69.713c0 10.969 2.165 18.763 6.495 23.382 4.619 4.33 10.681 6.495 18.186 6.495 7.505 0 13.423-2.165 17.753-6.495 4.619-4.619 6.928-12.413 6.928-23.382V73.613c0-10.97-2.309-18.619-6.928-22.949-4.33-4.619-10.248-6.928-17.753-6.928-7.505 0-13.567 2.31-18.186 6.928-4.33 4.33-6.495 11.98-6.495 22.949v163.674zm-47.63-160.643c0-24.537 6.206-43.3 18.619-56.29C519.725 7.075 537.622.436 561.004.436s41.279 6.64 53.692 19.918c12.413 12.99 18.619 31.753 18.619 56.29v157.612c0 24.537-6.206 43.444-18.619 56.723-12.413 12.99-30.31 19.485-53.692 19.485s-41.279-6.495-53.692-19.485c-12.413-13.279-18.619-32.186-18.619-56.723V76.644zm258.711 68.847L730.084 307h-65.383L630.927 3.9h46.331l25.547 239.016L725.754 3.9h45.898l23.815 240.748L820.148 3.9h41.568L827.942 307h-63.218l-17.32-161.509zm266.186 0L996.271 307h-65.383L897.114 3.9h46.331l25.547 239.016L991.941 3.9h45.899l23.81 240.748L1086.33 3.9h41.57L1094.13 307h-63.22l-17.32-161.509zm163.45-13.856h65.38v43.3h-65.38V263.7h82.27V307h-129.9V3.9h129.9v43.3h-82.27v84.435zM1311.02 3.9h75.35c23.96 0 41.71 6.35 53.26 19.052 11.83 12.701 17.75 31.32 17.75 55.857v153.282c0 24.537-5.92 43.156-17.75 55.857-11.55 12.701-29.3 19.052-53.26 19.052h-75.35V3.9zm47.63 43.3v216.5h26.85c7.51 0 13.42-2.165 17.75-6.495s6.5-11.98 6.5-22.949V76.644c0-10.97-2.17-18.619-6.5-22.949-4.33-4.33-10.24-6.495-17.75-6.495h-26.85zm150.34 190.087c0 10.969 2.17 18.763 6.5 23.382 4.62 4.33 10.68 6.495 18.18 6.495 7.51 0 13.43-2.165 17.76-6.495 4.62-4.619 6.93-12.413 6.93-23.382V73.613c0-10.97-2.31-18.619-6.93-22.949-4.33-4.619-10.25-6.928-17.76-6.928-7.5 0-13.56 2.31-18.18 6.928-4.33 4.33-6.5 11.98-6.5 22.949v163.674zm-47.63-160.643c0-24.537 6.21-43.3 18.62-56.29C1492.4 7.075 1510.29.436 1533.67.436c23.39 0 41.28 6.64 53.7 19.918 12.41 12.99 18.62 31.753 18.62 56.29v157.612c0 24.537-6.21 43.444-18.62 56.723-12.42 12.99-30.31 19.485-53.7 19.485-23.38 0-41.27-6.495-53.69-19.485-12.41-13.279-18.62-32.186-18.62-56.723V76.644zM1659.14 3.9h47.63V307h-47.63V3.9zm46.08 0h147.22v43.3h-49.79V307h-47.63V47.2h-49.8V3.9zM2851.95 307h-47.63V3.9h47.63v129.9h54.13V3.9h48.49V307h-48.49V177.1h-54.13V307zm159.24-69.713c0 10.969 2.16 18.763 6.49 23.382 4.62 4.33 10.68 6.495 18.19 6.495 7.51 0 13.42-2.165 17.75-6.495 4.62-4.619 6.93-12.413 6.93-23.382V73.613c0-10.97-2.31-18.619-6.93-22.949-4.33-4.619-10.24-6.928-17.75-6.928s-13.57 2.31-18.19 6.928c-4.33 4.33-6.49 11.98-6.49 22.949v163.674zm-47.63-160.643c0-24.537 6.21-43.3 18.62-56.29C2994.59 7.075 3012.49.436 3035.87.436s41.28 6.64 53.69 19.918c12.41 12.99 18.62 31.753 18.62 56.29v157.612c0 24.537-6.21 43.444-18.62 56.723-12.41 12.99-30.31 19.485-53.69 19.485s-41.28-6.495-53.69-19.485c-12.41-13.279-18.62-32.186-18.62-56.723V76.644zm259.58 68.847L3205.82 307h-65.39L3106.66 3.9h46.33l25.55 239.016L3201.49 3.9h45.89l23.82 240.748L3295.88 3.9h41.57L3303.67 307h-63.21l-17.32-161.509zm267.91 0L3473.73 307h-65.38L3374.58 3.9h46.33l25.55 239.016L3469.4 3.9h45.9l23.82 240.748L3563.8 3.9h41.57L3571.59 307h-63.22l-17.32-161.509zm164.32-13.856h65.38v43.3h-65.38V263.7h82.27V307h-129.9V3.9h129.9v43.3h-82.27v84.435zM3791.09 3.9h75.34c23.96 0 41.71 6.35 53.26 19.052 11.83 12.701 17.75 31.32 17.75 55.857v153.282c0 24.537-5.92 43.156-17.75 55.857-11.55 12.701-29.3 19.052-53.26 19.052h-75.34V3.9zm47.63 43.3v216.5h26.84c7.51 0 13.43-2.165 17.76-6.495 4.33-4.33 6.49-11.98 6.49-22.949V76.644c0-10.97-2.16-18.619-6.49-22.949-4.33-4.33-10.25-6.495-17.76-6.495h-26.84zm151.2 190.087c0 10.969 2.17 18.763 6.5 23.382 4.62 4.33 10.68 6.495 18.18 6.495 7.51 0 13.43-2.165 17.76-6.495 4.61-4.619 6.92-12.413 6.92-23.382V73.613c0-10.97-2.31-18.619-6.92-22.949-4.33-4.619-10.25-6.928-17.76-6.928-7.5 0-13.56 2.31-18.18 6.928-4.33 4.33-6.5 11.98-6.5 22.949v163.674zm-47.63-160.643c0-24.537 6.21-43.3 18.62-56.29C3973.32 7.075 3991.22.436 4014.6.436s41.28 6.64 53.69 19.918c12.42 12.99 18.62 31.753 18.62 56.29v157.612c0 24.537-6.2 43.444-18.62 56.723-12.41 12.99-30.31 19.485-53.69 19.485s-41.28-6.495-53.69-19.485c-12.41-13.279-18.62-32.186-18.62-56.723V76.644zM4141.8 3.9h47.63V307h-47.63V3.9zm46.95 0h147.22v43.3h-49.8V307h-47.63V47.2h-49.79V3.9zM1943 4h833v303h-833z" fill="#fff"/><mask id="b" style="mask-type:alpha" maskUnits="userSpaceOnUse" x="1943" y="4" width="833" height="303"><path fill="#fff" d="M1943 4h833v303h-833z"/></mask><g mask="url(#b)" fill="#000"><path d="M1993 4h2v303h-2zm10 0h17v303h-17zm20 0h2v303h-2zm15 0h2v303h-2zm4 0h2v303h-2zm4 0h7v303h-7zm16 0h2v303h-2zm59 0h2v303h-2zm72 0h33v303h-33zm40 0h12v303h-12zm30 0h6v303h-6zm10 0h6v303h-6zm70 0h6v303h-6zm22 0h27v303h-27zm374 0h27v303h-27zm-613 0h6v303h-6zm20 0h17v303h-17zm205 0h7v303h-7z"/></g><circle cx="150" cy="154" r="136.5" stroke="#4F06C6" stroke-width="27"/><path d="M165.973 149.36c13.665.796 24.61 3.98 32.835 9.552 8.358 5.572 12.537 13.864 12.537 24.875 0 12.073-4.842 21.293-14.527 27.661-9.552 6.368-21.824 9.552-36.815 9.552H96.522V81.7h62.088c14.461 0 26.135 2.852 35.024 8.557 9.021 5.705 13.532 14.527 13.532 26.467 0 20.165-13.731 31.044-41.193 32.636zm-41.591-45.969v36.417h31.84c7.429 0 13.134-1.658 17.114-4.975 3.98-3.317 5.97-7.827 5.97-13.532 0-5.572-1.99-9.95-5.97-13.134-3.98-3.184-9.817-4.776-17.512-4.776h-31.442zm33.034 95.918c17.379 0 26.069-6.434 26.069-19.303 0-6.103-2.056-10.879-6.169-14.328-4.113-3.449-10.282-5.174-18.507-5.174h-34.427v38.805h33.034z" fill="#4F06C6"/></svg>