<svg width="2657" height="254" viewBox="0 0 2657 254" fill="none" xmlns="http://www.w3.org/2000/svg"><g clip-path="url(#clip0_1026_3300)" fill="#000"><path d="M246.85 175.89c0 23.7-10.78 45.24-28.73 57.1-15.06 9.67-31.59 13.28-60.3 13.28H0l14.28-42.74h127.73c16.89 0 22.62-.72 28.73-3.22 8.97-3.95 15.09-14.73 15.09-26.2 0-10.42-4.67-19.39-12.23-24.06-6.45-3.58-14.7-5.03-31.23-5.03H33.84l13.7-40.93h87.67c28.01 0 40.21-8.25 40.21-26.9 0-9.34-4.67-18.31-11.84-22.62-6.11-3.61-13.28-5.03-28.01-5.03h-69.8L80.08 6.81h80.61c24.42 0 40.57 3.95 52.77 13.28 13.64 10.78 22.26 29.09 22.26 48.46 0 24.06-11.11 40.21-35.54 52.07 15.45 4.31 21.9 7.17 28.73 12.92 11.48 8.97 17.95 24.4 17.95 42.35h-.01zM280.16 6.82h140.73c31.59 0 46.67 2.15 58.88 8.26 19.02 10.05 30.51 30.87 30.51 56 0 19.74-7.18 35.54-20.82 47.03-6.82 5.74-13.28 8.97-27.28 14 30.16 6.46 38.77 19.74 41.28 65.69 2.51 33.39 3.23 35.9 9.33 48.46h-60.67c-2.51-10.77-2.51-12.21-5.39-40.21-3.59-39.49-12.92-49.54-45.59-49.54h-66.41v89.75h-54.57V6.82zm125.65 105.54c15.8 0 20.46-.72 26.57-3.23 11.13-4.67 17.59-14.72 17.59-27.64s-6.46-22.98-17.95-26.57c-5.74-2.15-10.77-2.51-26.21-2.51h-71.08v59.95h71.08zm405.77 133.92h-64.96l-25.48-53.85h-.2L664.29 70.36 609.3 192.43h-.17l-24.42 53.85h-59.94L639.64 6.81h54.57l117.37 239.47zM828.57 6.82h60.67l133.18 162.26V6.82h53.13v239.45h-60.31L881.69 84.01v162.26h-53.13V6.82h.01zm292.2 0h123.49c42 0 65.34 5.38 85.08 19.74 30.16 21.9 47.03 57.44 47.03 98.36 0 47.74-22.62 89.03-59.59 108.41-17.23 8.98-40.93 12.92-77.54 12.92h-118.47V6.82zm113.8 193.85c26.2 0 36.62-1.44 47.39-6.46 21.54-10.77 33.38-34.1 33.38-67.13 0-36.26-14.72-61.39-40.56-70-9.33-3.23-20.1-4.31-40.93-4.31h-58.16v147.9h58.88zm244.11 45.6L1368.47 6.82h66.05l76.82 175.55 73.24-175.55h61.39l-105.18 239.45h-62.11zm184.4-239.45h215.75v45.95h-161.19v48.82h141.8v42.72h-141.8v56h161.19v45.95h-215.75V6.82zm252.44 0h140.73c31.59 0 46.67 2.15 58.88 8.26 19.02 10.05 30.51 30.87 30.51 56 0 19.74-7.18 35.54-20.82 47.03-6.82 5.74-13.28 8.97-27.28 14 30.16 6.46 38.77 19.74 41.28 65.69 2.51 33.39 3.23 35.9 9.33 48.46h-60.67c-2.51-10.77-2.51-12.21-5.39-40.21-3.59-39.49-12.92-49.54-45.59-49.54h-66.41v89.75h-54.57V6.82zm125.65 105.54c15.8 0 20.46-.72 26.57-3.23 11.13-4.67 17.59-14.72 17.59-27.64s-6.46-22.98-17.95-26.57c-5.74-2.15-10.77-2.51-26.21-2.51h-71.08v59.95h71.08zm193.12 53.13c2.51 30.16 21.9 43.44 62.46 43.44 33.03 0 52.05-11.13 52.05-30.51 0-17.23-11.85-22.62-71.44-31.95-53.85-8.25-61.75-10.41-77.9-20.1-16.51-10.05-25.85-28-25.85-49.54 0-49.18 41.29-76.82 114.52-76.82 45.23 0 75.75 9.33 94.77 28.72 14.36 14.36 20.46 28 21.54 48.11h-62.82c-3.23-22.98-19.02-32.31-53.85-32.31s-52.41 8.62-52.41 24.77c0 10.05 5.39 16.15 17.23 19.74 10.05 2.87 19.02 4.31 58.87 10.77 47.03 7.54 62.82 11.85 77.54 21.54 15.44 10.05 24.77 28.72 24.77 50.26 0 51.7-45.23 81.49-123.49 81.49-78.26 0-116.67-29.44-120.26-87.59h64.26l.01-.02zm209.85 83.01h211.9v-45.96h-211.9v45.96zm0-239.46v45.95h211.9V9.04h-211.9zm185.13 94.78h-185.13v42.74h185.13v-42.74z"/></g><defs><clipPath id="clip0_1026_3300"><path fill="#fff" d="M0 0h2656.04v253.09H0z"/></clipPath></defs></svg>