<svg width="186" height="48" viewBox="0 0 186 48" fill="none" xmlns="http://www.w3.org/2000/svg"><path d="M10.781 32.359c2.922 2.179 6.013 3.448 9.668 2.309.46-.144.919-.35 1.321-.613 1.267-.825 1.473-2.222.395-3.283-.62-.61-1.403-1.085-2.179-1.498-1.356-.721-1.376-.681-1.14-2.192-1.504-.478-3.019-.97-4.543-1.422-.117-.035-.373.164-.463.314-.478.798-.825.993-1.691.732-.441-.134-.662-.054-.809.371-.108.311-.263.553-.689.381-3.014-1.209-5.858-2.688-8.133-5.075a11.19 11.19 0 01-2.41-3.806c-.165-.44-.192-.783.306-.973.494-.188.53-.526.484-1.01-.357-3.774.197-7.327 2.703-10.354 2.097-2.53 4.908-3.806 8.03-4.529 6.237-1.442 11.88-.04 17.076 3.535.568.39 1.128.791 1.67 1.216.682.535.765 1.11.257 1.794a828.93 828.93 0 01-4.357 5.818c-.579.767-.89.777-1.747.282-1.613-.933-3.227-1.867-4.878-2.732-1.716-.9-3.517-.818-5.31-.226-1.104.363-2.078.947-2.175 2.243-.098 1.31.41 2.452 1.555 3.117.792.46 1.716.71 2.601.984.854.265.977.45.62 1.275-.146.34-.292.68-.47 1.099 1.566.446 3.052.881 4.548 1.276.124.032.41-.168.463-.317.613-1.705 1.009-1.707 2.736-1.11 1.87.644 3.745 1.269 5.394 2.411 2.272 1.573 3.3 3.857 3.846 6.472 1.072 5.13-1.061 8.996-4.733 12.271-3.467 3.093-7.627 3.966-12.133 3.841-4.269-.118-7.85-1.845-11.082-4.476-.69-.561-1.352-1.154-2.02-1.737-.265-.23-.492-.408-.866-.123-.127.096-.508.018-.656-.112-.294-.261-.512-.611-.752-.931-.57-.766-.541-1.088.208-1.667 1.548-1.196 3.107-2.379 4.66-3.568.865-.663 1.723-1.333 2.591-1.99.626-.474.952-.447 1.515.094.193.185.378.377.567.565.425.426.432.874.02 1.344h.002zM157.77 21.86c-.043.42-.028.856-.141 1.256-.295 1.046-.318 1.039.792.826.35.568.738 1.137 1.05 1.745.089.172.029.523-.099.682-.263.323-.218.536.063.786.266.236.499.511.777.73.135.106.374.211.511.163 1.491-.528 2.801-.062 4.043.724 2.441 1.543 4.866 3.112 7.312 4.646a3.34 3.34 0 001.219.453c.654.103 1.128.356 1.34 1.016.114.36.237.721.407 1.056.102.198.272.407.463.505.975.493 1.658 2.245 1.24 3.27-.042.101-.077.248-.155.285-.979.456-.912 1.435-1.143 2.263-.102.363-.148.743-.282 1.093-.279.733-1.051.881-1.581.311-.735-.792-.952-1.792-1.035-2.821-.073-.901-.078-1.808-.111-2.712l-.223-.078c-.595.864-1.204 1.72-1.763 2.607-.073.116.068.413.172.59.602 1.047 1.226 2.08 1.834 3.122.168.289.321.587.449.893.253.605.106 1.151-.433 1.518-.637.433-1.253.984-2.108.818-.263-.052-.601-.222-.718-.44-.546-1.008-1.005-2.062-1.536-3.078-.291-.558-.654-1.083-1.012-1.603-.068-.098-.269-.166-.399-.153-2.277.226-3.88-.938-5.171-2.602-1.322-1.702-2.538-3.486-3.805-5.232-.196-.27-.404-.53-.622-.783-.699-.818-.827-1.719-.306-2.652.236-.424.166-.651-.189-.94a59.64 59.64 0 01-2.521-2.18c-.238-.218-.374-.546-.504-.866-1.004-.423-1.626 0-1.942.918-.445 1.29-1.265 2.245-2.733 2.385.145 1.066.133 1.043-.831 1.53-.551.278-1.047.66-1.587.962-.257.144-.558.285-.843.29-1.667.027-3.335.032-5.001-.002-.321-.006-.656-.184-.952-.344-.849-.462-1.681-.953-2.574-1.465l.284-.929c-1.646-.256-2.431-1.338-2.949-2.773-.158-.438-.676-.742-1.017-1.118-.356-.392-.697-.798-1.165-1.334-.106.393-.166.526-.175.664-.066 1.101-.314 2.237-.118 3.29.133.713-.045 1.374.088 2.04.034.166.238.365.408.422.671.228.977.688 1.095 1.37.203 1.18.431 2.36.706 3.527.17.721.373 1.394 1.288 1.653.865.243 1.202 1.529.769 2.323-.09.165-.127.378-.123.568.006.422.11.85.065 1.263-.029.273-.183.628-.396.758-.163.1-.605-.012-.749-.178-.43-.49-.774-1.055-1.157-1.598-.835.49-.895.936-.348 2.156.308.684.529 1.409.754 2.127.17.54-.268.766-.632.944-.375.182-.794.283-1.205.375-.456.102-.798-.11-.952-.535-.207-.561-.418-1.13-.535-1.712-.326-1.624-.77-2.002-2.669-2.042.308.616.582 1.184.872 1.745.318.617.649 1.228.449 1.96-.188.689-.667.836-1.171.338-.316-.312-.579-.678-.901-.985-.164-.157-.424-.208-.602-.355-.318-.261-.757-.508-.872-.853-.188-.558-.398-1.209.14-1.764.074-.078.056-.304.008-.436-.255-.698-.162-1.333.058-2.052.343-1.118.446-2.307.671-3.462.156-.806.354-1.604.514-2.41.205-1.028.701-1.85 1.728-2.337-1.094-.6-1.37-1.56-.666-2.299-.275-.158-.521-.316-.782-.448-.325-.163-.426-.373-.34-.753.42-1.862.792-3.736 1.217-5.598.14-.613.095-1.081-.421-1.534-1.485-1.308-1.327-1.758.131-2.887.924-.715 1.26-1.657.859-2.698-1.152-2.989.078-5.516 1.441-8.02.353-.649.644-1.255.753-2.018.258-1.812 1.472-2.947 3.142-3.45 1.082-.326 2.263-.383 3.405-.426.627-.023 1.147-.12 1.519-.616.393-.523.894-.628 1.512-.612a89.5 89.5 0 004.335 0c.559-.013 1.005.118 1.337.568.394.535.903.693 1.564.645 1.393-.102 2.751.071 4.009.743 1.403.748 2.299 1.842 2.468 3.48.037.358.19.737.392 1.037 1.141 1.708 1.844 3.578 2.285 5.575.224 1.016-.217 1.868-.411 2.79a6.77 6.77 0 00-.125 1.615c.028.806.689 1.195 1.223 1.65 1.103.935 1.132 1.286.125 2.29-.237.235-.523.419-.786.627l.288.205.013-.008zm-14.527 3.707c1.033-.12 2.08-.168 3.099-.37 3.09-.614 5.4-2.198 6.342-5.371.465-1.564.501-3.159.235-4.754-.451-2.702-1.804-4.75-4.412-5.815-2.813-1.148-5.717-1.116-8.644-.582-2.116.387-3.98 1.25-5.293 3.037-1.052 1.43-1.398 3.093-1.513 4.824-.244 3.721 1.157 6.811 5.065 8.192 1.652.585 3.368.768 5.121.838v.001zM50.812 15.7c-1.495.31-2.93.596-4.356.921-.143.032-.352.317-.327.447.19 1.026-.213 1.527-1.235 1.69-.217.035-.52.503-.52.771.005 1.831.202 1.958 2.034 1.714 1.914-.254 3.833-.47 5.75-.69.683-.08.899.11.922.787.044 1.268.065 2.535.12 3.803.025.595-.206.886-.809.991-2.316.405-4.626.854-6.941 1.27-.543.1-.761.406-.738.927.035.755.062 1.51.112 2.265.058.885.326 1.078 1.195.95 3.16-.465 6.32-.928 9.481-1.381 1.054-.151 1.185-.038 1.218 1.056.044 1.423.049 2.847.092 4.271.017.551-.226.793-.759.888-3.19.566-6.376 1.162-9.568 1.724-.602.107-.875.326-.667.968.108.331.035.631-.383.7-2.24.372-4.42.394-6.41-.962-1.923-1.312-2.978-3.131-3.236-5.423-.145-1.288-.127-1.291 1.261-1.6-.13-1.036-.255-2.085-.393-3.133a190.931 190.931 0 00-.466-3.366c-.075-.503.014-.915.45-1.224.762-.542.902-1.261.744-2.166a76.565 76.565 0 01-.67-4.887c-.09-.825-.557-1.308-1.241-1.58-.55-.22-.71-.587-.757-1.117-.054-.62-.17-1.233-.247-1.85-.055-.444.045-.79.568-.887 3.076-.563 6.148-1.142 9.224-1.697.544-.098.783.255.783.748.002.91.157.821.918.676 1.154-.22 2.306-.455 3.46-.683.386-.077.65-.2.547-.701-.125-.601.21-.901.789-.998a50.193 50.193 0 002.222-.421 1 1 0 00.497-.27c.163-.175.232-.558.397-.593a12.732 12.732 0 012.16-.26c.121-.005.368.393.37.61.043 2.67.05 5.34.068 8.008.003.475-.24.742-.693.84-.434.093-.865.198-1.303.275-.145.025-.401.03-.436-.042-.376-.756-.939-.305-1.438-.246-.176.02-.348.068-.523.105-.78.168-.962.041-1.12-.767-.025-.126-.08-.248-.151-.46l.005-.001zM69.19 37.304h-8.871c-.84 0-1.019-.175-1.04-1-.01-.355.02-.715-.022-1.067-.107-.916-.045-1.697 1.01-2.085.233-.085.443-.563.453-.866.048-1.401.003-2.804.03-4.205.011-.616-.378-.906-.836-1.07-.83-.299-1.045-.869-1.042-1.691.005-1.445-.066-2.89-.136-4.335-.022-.46.11-.763.54-.946.595-.253.85-.681.82-1.364a43.512 43.512 0 010-3.67c.026-.648-.183-1.114-.77-1.32-.743-.262-.901-.76-.875-1.485.032-.84-.078-1.687-.101-2.532-.022-.768.115-.914.877-.914 1.912 0 3.824.002 5.735.055.258.007.644.26.737.491.385.963 1.069 1.203 2.047 1.203 3.156 0 6.313.06 9.469.15.784.023 1.245-.258 1.586-.93.406-.796 1.19-1.099 2.012-.753.198.084.414.507.373.725a338.695 338.695 0 01-1.45 7.043c-.105.493-.524.531-.949.536-3.045.038-6.09.087-9.135.127-1.09.015-1.232.15-1.243 1.23-.015 1.323-.019 1.355 1.336 1.502a223.9 223.9 0 005.77.533c.987.081 1.189.291 1.017 1.244-.213 1.18-.44 2.357-.659 3.534-.1.532-.368.793-.957.785-1.955-.027-3.913.007-5.87-.018-.57-.007-.8.166-.772.763.045.954.01 1.913.035 2.87.02.794.22 1.009.987 1.022 1.889.034 3.778.039 5.668.065.372.005.613-.066.73-.496.053-.193.39-.426.609-.436.865-.035 1.732.005 2.6.028.46.013.691.255.65.73-.165 1.858-.333 3.717-.49 5.578-.053.635-.369.856-1.005.851-2.955-.025-5.911-.012-8.869-.012v.13z" fill="#000"/><path d="M178.626 37.97c-.258-.793-.481-1.546-.754-2.28-.079-.209-.275-.457-.471-.523-.606-.203-.847-.637-1.006-1.206-.273-.981-.818-1.656-1.963-1.63-.23.006-.465-.18-.683-.426.416-.105.839-.186 1.247-.318 1.438-.465 1.699-1.594.591-2.608-1.247-1.143-2.84-1.631-4.378-2.197-2.128-.785-4.252-1.575-6.156-2.837-1.684-1.116-3.062-2.487-3.683-4.491-1.596-5.152 1.709-10.944 7.013-12.263.43-.107.863-.207 1.3-.277.584-.095 1.199-.075 1.267-.934.012-.15.512-.377.785-.372 2.257.03 4.459.454 6.624 1.06.703.196 1.383.478 2.062.748.546.218.739.588.463 1.17-.068.144-.02.462.093.552.689.555 1.412 1.068 2.134 1.603.348-.25.564-.82 1.125-.22 1.075 1.147 1.178 1.326.584 2.028a975.545 975.545 0 01-5.058 5.942c-.581.678-.814.688-1.501.145a34.22 34.22 0 01-.924-.766c-.046-.04-.068-.11-.128-.212l.581-.773c-1.28-1.74-4.415-2.78-6.401-2.118-.601.2-1.191.453-1.318 1.174-.148.844.02 1.642.741 2.149.534.376 1.165.638 1.781.874 2.281.87 4.593 1.668 6.863 2.567 3.302 1.308 5.028 3.68 5.371 7.32.423 4.473-2.658 7.803-6.063 9.106-.077.03-.17.016-.14.013h.002zm-83.478-.516c-.969-1.182.529-1.197.757-1.895l-2.385-3.325-1.148.674c-.443-.57-.85-1.15-1.32-1.674-.198-.218-.6-.49-.789-.42-.25.094-.513.487-.544.777-.198 1.765-.333 3.54-.488 5.31-.008.088-.005.178-.011.267-.087 1.209-.298 1.35-1.503 1.156-1.708-.277-3.422-.513-5.135-.765-.995-.146-1.09-.233-1.028-1.222.076-1.22.188-2.437.293-3.655.035-.41.181-.713.58-.965.288-.181.543-.617.578-.964.301-3.052.553-6.108.814-9.163.2-2.347.384-4.696.597-7.041.052-.576-.06-1.041-.52-1.426-.145-.122-.284-.363-.274-.54.067-1.064.183-2.125.27-3.188.04-.501.256-.751.79-.776 2.352-.108 4.704-.252 7.056-.36.755-.035.923.137.82.913-.253 1.914-.573 3.821-.819 5.737-.041.326.04.846.251.98.219.137.725.006 1.002-.17 2.668-1.683 5.315-3.4 7.967-5.108.169-.108.333-.223.51-.316.561-.299.905-.135.962.503.204 2.28.377 4.562.584 6.842.051.562-.255.848-.656 1.131-2.069 1.465-4.13 2.935-6.19 4.413-.918.66-.938.868-.28 1.762.775 1.058 1.534 2.127 2.321 3.177.238.316.246.548-.086.771-.019.012-.034.03-.05.045-.75.692-.825 1.446-.228 2.264.525.716 1.066 1.422 1.602 2.132.025.033.07.053.158.118l.932-.518.445.673c.66-.518.983-.2 1.283.35.306.565.697 1.084 1.033 1.634.41.67.303 1.033-.412 1.282-2.242.785-4.494 1.538-6.732 2.332-.618.219-.932-.021-1.25-.52-.313-.49-.421-.877.241-1.232h.002zm13.705-26.79c-.022-.831.451-.99 1.13-.943.552.039 1.112.004 1.666.005.691 0 1.134.397 1.328 1.19h4.936c.535 0 1.07.043 1.6-.005.231-.022.441-.237.667-.349.226-.111.459-.278.696-.291.709-.042 1.421-.017 2.133-.023.476-.004.954-.047 1.092.6.02.093.285.177.441.188.443.03.889.008 1.333.028.521.023.791.288.671.828-.478 2.167-.962 4.334-1.446 6.5-.122.544-.466.737-1.017.736-2.69-.009-5.379.008-8.07.018-1.019.003-1.177.11-1.259 1.11-.076.93-.059 1.868-.101 2.801-.018.44.176.595.597.561.31-.025.623-.008.934-.003.36.005.697.037.801-.468.03-.145.359-.288.57-.323.37-.062.761.002 1.129-.069.25-.048.459-.298.709-.353a7.57 7.57 0 011.624-.204c.078 0 .252.56.218.844-.188 1.542-.421 3.08-.654 4.617-.076.51-1.243.912-1.631.494-.398-.429-.792-.295-1.213-.254-.415.042-.747.022-.862-.488-.027-.12-.232-.256-.375-.285-1.597-.31-1.922-.033-1.915 1.584.003.802-.009 1.603-.005 2.404.005.83.191 1.026 1.013 1.043 2.578.048 5.156.088 7.734.128.956.015 1.009.065 1.029 1.033.026 1.312.065 2.623.081 3.936.012.954-.095 1.063-1.075 1.06-3.623-.016-7.246-.044-10.869-.062-1.913-.01-3.823-.005-5.735-.014-.803-.003-.916-.121-.941-.927-.021-.69.013-1.388-.083-2.066-.092-.641.136-1.014.694-1.25.681-.287.907-.777.887-1.528a593.934 593.934 0 01-.153-10.076c-.005-.632-.263-1.043-.826-1.216-.773-.238-.932-.725-.932-1.494 0-2.647-.088-5.294-.143-7.94-.02-.992.059-1.072 1.039-1.072h2.55l.003-.005zm40.416 6.379v.6c-.004 1.037-.275 1.49-1.062 1.77-.874.311-1.901.068-2.437-.575-.482-.58-.442-3.198.059-3.76.521-.584 1.656-.809 2.469-.476.766.313 1.024.923.976 1.71-.015.242-.002.487-.002.73h-.003zm-8.653-.031v.6c-.01 1.297-.604 1.925-1.829 1.928-1.296.005-1.972-.668-1.977-1.967 0-.466-.012-.934.003-1.4.035-1.063.788-1.733 1.944-1.748 1.134-.013 1.821.621 1.854 1.717.009.288 0 .578 0 .867h.005v.003z" fill="#000"/></svg>