<svg width="126" height="34" viewBox="0 0 126 34" fill="none" xmlns="http://www.w3.org/2000/svg"><g clip-path="url(#clip0_465_1151)" fill="#000"><path d="M115.457 19.835c-3.002 0-6.005-.017-9.006.009-1.241.01-1.456.328-.893 1.412 1.658 3.196 5.002 5.25 9.43 4.23 1.917-.443 3.694-1.18 5.338-2.27 1.082-.718 1.28-.62 1.811.638.511 1.208.981 2.432 1.513 3.63.381.854.195 1.484-.523 2.07-1.618 1.321-3.465 2.196-5.46 2.727-4.228 1.126-8.401 1.187-12.492-.68-3.646-1.666-5.963-4.495-7.072-8.22-1.413-4.753-1.289-9.543.478-14.217C100.4 4.35 105.216.96 110.384.796c2.163-.07 4.316-.066 6.413.612 4.17 1.35 6.597 4.345 7.907 8.358.902 2.765 1.234 5.636 1.291 8.534.027 1.39-.133 1.537-1.533 1.546-3.002.018-6.004.005-9.006.005v-.016h.001zm-3.583-7.027c1.63 0 3.261.023 4.891-.008 1.176-.022 1.27-.209.801-1.328a5.875 5.875 0 00-.347-.703c-1.337-2.267-3.499-2.89-5.924-2.824-2.604.07-4.231 1.626-5.329 3.826-.378.759-.202 1.01.703 1.027 1.735.03 3.471.008 5.206.01h-.001zm-26.579 3.217v-1.52c0-3.834-.006-7.67.005-11.504.005-1.63.061-1.668 1.693-1.664 1.528.004 3.055-.01 4.582.01 1.505.02 1.578.091 1.582 1.642.01 3.94 0 7.88 0 11.82 0 5.254.004 10.507 0 15.76 0 1.917-.057 1.888-1.897 2.04-1.465.121-2.462-.434-3.428-1.481-3.992-4.323-8.05-8.584-12.084-12.867-.29-.306-.593-.598-.89-.895-.463-.462-.743-.307-.813.28-.055.467-.037.943-.038 1.416-.001 3.888.006 7.775 0 11.663-.003 1.72-.14 1.851-1.911 1.864-1.527.012-3.055.023-4.582-.015-1.115-.028-1.265-.192-1.38-1.272-.043-.417-.034-.84-.034-1.259-.002-8.72-.004-17.441 0-26.161 0-2.545.012-2.463 2.487-2.573 1.557-.07 2.636.438 3.697 1.585 3.961 4.282 8.029 8.466 12.058 12.686.178.186.379.352.569.527l.38-.08.004-.002zm-22.661.99c.016 4.854-1.425 9.1-5.134 12.4-3.501 3.115-7.662 4.288-12.268 3.875-4.394-.393-8.055-2.273-10.83-5.744-1.777-2.226-2.8-4.765-3.19-7.586-.452-3.28-.254-6.493.852-9.622C34.561 3.284 41.882-.364 48.81.569c7.21.968 12.211 5.893 13.602 13.153.205 1.073.155 2.195.224 3.294h-.001zM46.72 8.124c-2.976-.027-5.98 1.514-7.343 4.321-.754 1.556-.907 3.207-.912 4.908-.013 3.856 2.064 7.287 6.441 8.137 3.206.623 6.123-.034 8.33-2.569 1.636-1.875 2.125-4.214 1.911-6.637-.447-5.09-3.445-8.13-8.429-8.161h.002zM24.59 32.586c-2.811.668-4.54-.622-5.886-2.985-1.01-1.77-2.327-3.37-3.52-5.035-.89-1.242-.985-1.251-1.862-.056-1.648 2.244-3.3 4.487-4.894 6.769-.667.954-1.447 1.409-2.64 1.328-1.416-.095-2.842-.04-4.263-.048-1.43-.01-1.84-.653-1.045-1.872 1.519-2.333 3.127-4.608 4.708-6.9 1.281-1.86 2.555-3.727 3.874-5.561.57-.794.573-1.43-.005-2.266C6.312 11.983 3.629 7.964.942 3.947.519 3.314-.218 2.67.237 1.834c.467-.859 1.42-.445 2.162-.477 1.367-.06 2.743.045 4.106-.054 1.016-.073 1.666.237 2.234 1.09 1.426 2.143 2.938 4.229 4.42 6.335.272.387.522.804.864 1.118.146.135.617.16.74.038.402-.406.727-.892 1.057-1.365 1.415-2.023 2.842-4.039 4.22-6.086.52-.77 1.136-1.145 2.092-1.112 1.683.057 3.371-.011 5.056.032 1.121.029 1.412.498.961 1.517-.23.522-.58.996-.902 1.473-2.41 3.573-4.832 7.136-7.242 10.71-1.096 1.626-1.08 1.628-.016 3.177 2.646 3.856 5.286 7.716 7.926 11.576.208.303.43.602.596.928.593 1.169.23 1.78-1.076 1.848-.105.005-.21.003-.316.003H24.59z"/></g><defs><clipPath id="clip0_465_1151"><path fill="#fff" transform="translate(.08 .424)" d="M0 0h125.92v32.946H0z"/></clipPath></defs></svg>