<svg width="199" height="61" viewBox="0 0 199 61" fill="none" xmlns="http://www.w3.org/2000/svg"><g clip-path="url(#clip0_465_1125)"><path d="M198.817 37.337c-.396-1.812-1.446-3.258-2.695-4.583-1.995-2.117-4.508-3.381-7.219-4.31-3.685-1.249-7.432-1.797-11.224-.624-1.568.487-3.046 1.264-4.614 1.934-.564-.533-1.173-1.203-1.889-1.782-2.969-2.406-6.472-3.411-10.188-3.853-1.005-.122-2.01-.304-3.122-.487.442-.487.792-.853 1.112-1.249 3.106-3.822 3.122-9.898.106-13.751-3.289-4.188-7.645-5.787-12.868-5.254a12.47 12.47 0 00-5.818 2.163c-.579-.457-1.066-.93-1.645-1.295-2.665-1.63-5.589-2.406-8.711-2.528-3.076-.122-5.985.472-8.696 1.95-.426.228-.685.167-1.066-.107-.761-.548-1.553-1.066-2.391-1.447-2.436-1.142-5.041-1.508-7.69-1.462-2.437.046-4.843.38-7.052 1.553-.182.092-.502-.015-.731-.09-1.035-.351-2.04-.93-3.106-1.067-2.498-.335-4.66.655-6.61 2.163-.457.35-.746.396-1.249.076-1.492-.975-3.076-1.767-4.888-1.95-2.208-.213-4.158.381-5.726 1.874-.914-.29-1.752-.58-2.605-.823-2.375-.67-4.781-.457-7.172-.243-1.31.121-2.605.32-3.884.64-1.751.426-3.244 1.354-4.432 2.756-1.416-.884-2.924-1.234-4.508-1.386-3.487-.35-6.822.076-9.898 1.858-3.488 2.025-5.68 5.025-5.94 9.076-.228 3.64 1.188 6.776 4.02 9.182.564.488 1.189.914 1.676 1.28a848.886 848.886 0 01-3.747 3.913c-2.055-2.36-4.63-3.548-7.843-3.076s-5.36 2.437-7.066 5.026c-6.396-4.401-13.036-1.782-14.65 2.893-.32-.168-.625-.32-.945-.472-2.116-.99-4.264-1.828-6.685-1.477-4.508.64-7.432 4.492-7.143 8.985.183 2.771 1.25 5.238 2.742 7.538 2.375 3.67 5.497 6.624 9.03 9.152 2.544 1.827 5.346 2.985 8.59 2.497 2.406-.35 4.447-1.325 5.817-3.441.244-.381.488-.746.716-1.112 5.985 3.061 11.117 2.604 14.97-3.411.229.243.381.426.533.594 2.437 2.634 5.574 3.396 8.91 2.04 2.451-.99 4.157-2.832 5.315-5.177.578-1.142 1.507-1.28 2.39-.335.442.457.899.883 1.371 1.31 2.528 2.253 7.204 2.77 10.112 1.065.853-.502 1.6-1.203 2.391-1.812.366.168.746.366 1.142.548 2.574 1.158 5.33 1.325 8.072 1.493 1.888.122 3.792-.076 5.696-.122 1.782-.046 3.518-.396 5.132-1.188 1.142-.578 2.223-1.294 3.35-1.964.046.045.153.121.244.213 2.178 1.919 4.706 2.543 7.538 2.04 1.828-.335 3.26-1.355 4.569-2.558.488-.441.838-.457 1.264-.03.122.121.274.228.411.335 1.995 1.583 4.28 2.497 6.808 2.68 2.391.167 4.569-.396 6.274-1.965 1.219.533 2.3 1.203 3.488 1.493a70.64 70.64 0 007.112 1.386c2.162.304 4.34.243 6.518-.107 1.812-.29 3.533-.807 5.056-1.858.305.229.579.427.838.625 3.213 2.42 7.188 2.588 10.493.456.365-.228.563-.152.837.107.64.579 1.279 1.172 1.98 1.66 2.406 1.66 5.056 2.467 7.95 1.69 1.264-.335 2.436-1.02 3.533-1.492 1.645.944 3.305 2.01 5.071 2.878 2.163 1.066 4.523 1.645 6.914 1.827 2.406.183 4.797.137 7.067-.974 2.924-1.432 5.132-3.533 6.426-6.518.777-1.797 1.142-3.685.762-5.634-.137-.701-.457-1.371-.686-2.041 2.087-1.523 2.559-3.548 2.056-5.894zM70.359 25.367c-.822 1.813-1.63 3.61-2.421 5.377-1.737-1.6-3.518-3.275-5.346-4.965.731-.533 1.493-1.096 2.284-1.63.107-.06.35-.015.473.062 1.477.959 3.091 1.294 4.843 1.127.076 0 .167.03.167.03zm21.87 9.23c-1.463-.168-2.925-.336-4.54-.518.275-4.143-1.126-7.63-4.705-10.204 1.584-1.02 2.452-2.39 2.878-4.187 2.178 4.08 5.437 5.421 9.869 4.142-2.543 3.183-3.335 6.837-3.503 10.766zm31.447-11.529a8.824 8.824 0 00-5.787-2.101c-1.797 0-3.548.442-5.239 1.355.625-.944 1.158-1.797 1.721-2.62.137-.182.381-.334.61-.41 2.619-.777 4.964-1.934 7.035-3.457.335 2.589.929 5.071 2.711 7.112-.335.457-.624.487-1.051.121z" fill="#000"/><path d="M24.565 49.9c.335.26.64.488.929.701 1.325.96 2.588 2.071 4.02 2.863 2.208 1.218 4.569 1.553 6.884.213 1.462-.837 2.36-2.208 3.106-3.67 2.041-3.99 3.488-8.162 3.67-12.67.046-1.294.046-2.665-.304-3.898-.73-2.65-3.472-4.92-6.823-3.686a6.63 6.63 0 00-3.29 2.605c-.837 1.279-1.537 2.665-2.314 4.05-.168-.167-.366-.396-.563-.594-1.737-1.675-3.655-3.015-6.123-3.426-2.558-.411-5.025.777-5.756 2.893-.503 1.477-.457 2.985-.152 4.508.03.167.03.365.03.533 0 0-5.36-3.99-8.01-4.72-3.29-.9-6.26 1.217-6.473 4.613-.122 1.889.38 3.625 1.28 5.254 2.025 3.685 4.918 6.64 8.254 9.198 1.72 1.325 3.548 2.467 5.817 2.589 3.183.152 5.117-1.28 5.59-4.31.136-.974.136-1.964.228-3.045zm94.07-13.888c.183-.243.366-.487.549-.715.731-.914 1.477-1.813 2.193-2.726.944-1.203 1.675-2.498 1.553-4.097-.183-2.375-2.026-4.02-4.554-4.248-2.193-.198-4.02.67-5.726 1.842-1.447 1.005-2.832 2.102-4.325 3.213-.076-.106-.152-.198-.213-.304-.442-.686-.883-1.356-1.325-2.04-1.904-2.864-6.99-4.097-9.503.334-1.112 1.95-1.614 4.097-1.767 6.32-.258 3.777 0 7.492 1.63 11.01 1.523 3.29 4.675 4.249 7.264 3.107 1.432-.625 2.437-1.782 3.229-3.122.274-.457.579-.868.898-1.325 1.325 1.081 2.559 2.086 3.792 3.107 1.874 1.538 4.036 2.192 6.442 1.949 1.721-.183 2.924-1.066 3.396-2.802a7.473 7.473 0 00.031-4.05c-.564-2.163-1.934-3.823-3.564-5.453zm48.734 4.204c.67-.396 1.264-.807 1.919-1.112 2.193-1.035 2.787-3.944 1.995-5.847-.625-1.493-1.736-2.544-3.061-3.396-2.209-1.432-4.676-2.163-7.28-2.452-2.513-.274-4.995-.853-7.554-.61-2.771.275-4.858 1.539-6.091 4.052-1.813 3.685-2.452 7.599-1.889 11.665.274 1.964.884 3.837 2.224 5.406 1.98 2.314 6.076 2.695 8.026.38.563-.67 1.294-1.218 1.979-1.842.472.64.899 1.279 1.371 1.873 1.386 1.751 3.015 3.152 5.285 3.609 3.274.67 5.908-.822 6.03-4.508.061-1.858-.639-3.517-1.568-5.086-.412-.7-.884-1.386-1.386-2.132zM55.876 26.814c-4.081 0-7.036 1.63-8.833 4.797-1.858 3.26-3.168 6.731-3.822 10.447-.412 2.345-.472 4.69.41 6.96 1.447 3.7 5.331 4.568 8.224 1.873.99-.93 1.66-2.041 2.117-3.29.335-.898.868-1.446 1.828-1.584a28.415 28.415 0 002.756-.533c.884-.213 1.478 0 1.995.777 1.158 1.751 2.68 2.985 4.843 3.366 2.65.456 4.874-.914 5.544-3.503.533-2.071.091-4.02-.762-5.909-2.147-4.75-5.452-8.573-9.564-11.725-1.492-1.127-3.244-1.66-4.736-1.675z" fill="#EDEFF2"/><path d="M136.926 39.363c1.096.015 2.177.152 3.259.167 1.203.016 2.071-.883 2.284-2.3.198-1.248-.35-2.162-1.569-2.481-.685-.183-1.401-.214-2.101-.305-.853-.107-1.721-.137-2.559-.32-.259-.06-.731-.426-.655-.746.061-.32.579-.365.884-.396.335-.03.685.137 1.035.213 2.011.381 4.021.64 5.985-.167 1.462-.594 2.072-1.812 2.163-3.305.076-1.386-.472-2.512-1.736-3.122-.853-.426-1.782-.791-2.711-.944-1.767-.29-3.564-.502-5.361-.578-2.223-.107-4.462-.198-6.67-.016-2.406.214-4.34 1.34-5.102 3.868-1.37 4.569-1.705 9.198-.777 13.889.564 2.847 2.163 4.812 5.072 5.406 2.452.487 4.934.898 7.416 1.157 2.254.229 4.493.046 6.671-.7 3.503-1.203 3.076-5.285 1.02-6.67-.792-.533-1.66-1.066-2.574-1.25-1.431-.273-2.908-.273-4.37-.365-.518-.03-1.676-.121-1.264-.807.213-.38 1.111-.243 1.66-.228zm45.003-8.923c-.198 0-.412-.016-.61 0-3.837.258-7.035 1.598-8.893 5.238-1.386 2.71-.473 6.305 2.116 7.827.975.58 2.178.792 3.275 1.173.837.29 1.705.487 2.513.838.289.121.776.517.67.883-.107.35-.731.457-1.021.38-1.203-.274-2.376-.685-3.563-1.035-.868-.244-1.737-.579-2.635-.7-1.873-.229-2.878.944-2.33 2.756.655 2.178 2.178 3.685 4.112 4.782a19.525 19.525 0 007.158 2.406c3.106.426 6.076.121 8.726-1.752 2.101-1.477 3.259-3.502 2.985-6.106-.259-2.422-1.63-4.158-3.853-5.178-1.036-.472-2.117-.853-3.168-1.31-.533-.228-1.081-.456-1.553-.776-.213-.137-.381-.518-.366-.762.015-.182.366-.456.594-.472.427-.045.914-.06 1.31.107 1.112.472 2.178 1.066 3.305 1.553.67.29 1.385.533 2.101.61 1.767.212 2.848-.656 2.802-2.163-.015-.442-.152-.899-.319-1.325-.594-1.492-1.66-2.62-2.909-3.533-3.107-2.254-6.671-3.228-10.447-3.442zM88.223 48.759a9.287 9.287 0 005.665-2.345c1.843-1.63 2.315-4.051 1.112-5.878-1.035-1.6-2.589-2.452-4.401-2.879-1.797-.426-3.518-.091-5.239.457-.761.244-.99 0-.99-.792.03-1.75.091-3.502 0-5.238-.183-3.29-2.178-5.33-5.01-6.579-1.706-.746-3.412-.472-4.95.685-1.081.823-1.827 1.889-2.39 3.092-1.036 2.208-1.326 4.553-1.295 6.96.046 3.517.944 6.806 2.772 9.837.609 1.005 1.4 1.675 2.573 1.98 2.879.73 5.757.852 8.742.73.837-.06 2.269.046 3.411-.03zM79.68 13.094c.35-.32.715-.7 1.126-1.036.747-.64 1.066-1.447 1.005-2.421-.09-1.721-1.31-3.168-3.228-3.807-3.533-1.158-7.082-.686-10.57.06-1.949.412-3.243 1.782-3.73 3.732-.7 2.817-.61 5.634.41 8.36.519 1.386 1.204 2.665 2.514 3.533 1.72 1.142 4.416.807 5.421-1.02.305-.549.7-1.036 1.066-1.569.503.442.93.838 1.386 1.203 1.401 1.158 2.985 1.782 4.843 1.553 1.69-.213 2.894-1.461 2.757-3.136-.061-.884-.32-1.813-.762-2.574-.579-1.005-1.416-1.873-2.239-2.878zm72.307 10.081c6.473-1.614 7.356-8.223 4.843-12.06-3.061-4.676-9.838-6.016-14.574-2.94-4.295 2.787-4.934 8.574-1.34 12.153 2.315 2.3 5.193 3.396 8.391 3.274.67-.015 1.797-.198 2.68-.427z" fill="#EDEFF2"/><path d="M55.602 24.18c.457-.061 1.188-.107 1.903-.244 2.376-.426 4.417-1.431 5.94-3.365.883-1.127 1.005-2.59.289-3.61-.838-1.202-2.193-1.66-3.625-1.187-.593.198-1.142.578-1.75.73-.945.26-1.904.518-2.864.564-.975.046-1.645-.624-1.751-1.386-.092-.685.472-1.614 1.34-1.797.746-.152 1.553-.137 2.315-.03 1.447.198 2.863.365 4.233-.35 1.478-.777 1.995-2.3 1.112-3.549-.7-.974-1.599-1.796-2.772-2.177-3.441-1.081-6.853-.868-10.02.837-4.904 2.65-6.23 8.163-2.224 12.58 2.026 2.222 4.721 2.908 7.874 2.984zm46.845-9.35c.289 1.858.792 3.609 2.208 4.98 1.797 1.75 4.828 1.461 6.153-.64.457-.716.67-1.569 1.035-2.345.122-.244.381-.518.61-.564 1.324-.304 2.71-.426 3.99-.822 1.629-.518 3.061-1.432 3.685-3.152 1.036-2.833-.259-5.635-3.137-7.051-3.381-1.66-6.884-1.706-10.478-.96-1.964.412-3.335 1.447-3.67 3.533-.259 1.569-.624 3.138-.67 4.386-.015.655.152 1.889.274 2.635zM86.182 4.43c-2.588 0-4.127 1.415-3.974 3.395.06.853.365 1.751.761 2.513.93 1.751 2.33 3.137 4.005 4.203.731.472 1.143 1.035 1.34 1.903.199.853.534 1.69.945 2.467.883 1.66 2.604 2.391 4.508 2.04 1.614-.304 3.045-1.72 3.167-3.456.107-1.508.762-2.574 1.813-3.61 1.507-1.476 2.756-3.197 3.32-5.283.685-2.528-1.417-4.858-3.99-4.493-1.798.26-3.183 1.234-4.417 2.483-1.325 1.355-1.294 1.324-2.741.152-1.523-1.249-3.168-2.224-4.737-2.315z" fill="#EDEFF2"/><path d="M129.296 4.87c-2.117-.015-4.112.457-6.031 1.325-3.03 1.386-2.513 4.234-.792 5.62.64.517 1.34.99 2.071 1.385.442.244.579.488.61.975.076 1.797.289 3.579 1.05 5.254 1.249 2.756 4.508 3.304 6.564 1.081 1.219-1.31 1.828-2.97 1.767-4.66-.061-1.736.761-2.421 2.162-2.909.823-.289 1.417-.868 1.752-1.69.746-1.903.106-3.472-1.843-4.568-2.284-1.264-4.736-1.782-7.31-1.813z" fill="#EDEFF2"/><path d="M101.411 21.043c-.457-.822-.883-1.583-1.279-2.269-.487.99-.99 1.995-1.462 2.94.837-.214 1.767-.442 2.741-.67zm36.748.975c-.533-.716-.914-1.249-1.34-1.828l-.914 1.615c.777.076 1.417.137 2.254.213zm19.844 16.112c-.396-.062-.975-.275-1.508-.534-.243-.122-.502-.487-.502-.746-.016-.183.365-.472.624-.548.959-.305 1.858 0 2.665.533.183.121.274.502.244.73-.031.183-.32.366-.533.442-.244.092-.746.153-.99.122zm-102.538-.32c-.777.03-1.402-.168-1.6-.9-.137-.502.457-1.202 1.158-1.37.365-.091.777-.182 1.096-.091.366.107.884.411.914.67.046.396-.198.914-.487 1.203a1.857 1.857 0 01-1.081.487zm15.762-25.371c.046-.488.884-.533 1.34-.579.381-.03 1.143-.076 1.036.61-.046.273-.822.76-1.173.776-.365.03-1.233-.366-1.203-.807zm78.674 2.451c0 .838-.412 1.6-.701 2.346-.228.594-.685 1.02-1.401.974-.655-.045-.959-.517-1.157-1.05-.64-1.66-.198-3.153.868-4.462.533-.67 1.401-.564 1.812.243.274.579.579 1.25.579 1.95zm-40.22-4.37c-.487-.898 1.492-1.096 2.025-.578.077.06-.03.472-.152.563-.35.29-1.645.427-1.873.015z" fill="#000"/></g><defs><clipPath id="clip0_465_1125"><path fill="#fff" transform="translate(0 .637)" d="M0 0h199v60H0z"/></clipPath></defs></svg>