<svg width="186" height="48" viewBox="0 0 186 48" fill="none" xmlns="http://www.w3.org/2000/svg">
<path d="M10.781 32.359C13.7035 34.5378 16.7941 35.8071 20.4489 34.6677C20.9099 34.5244 21.3676 34.3179 21.7703 34.0547C23.0369 33.2302 23.2433 31.8326 22.1648 30.7716C21.5457 30.1619 20.7618 29.6872 19.9862 29.2741C18.6298 28.5528 18.6098 28.5928 18.8462 27.082C17.3416 26.6039 15.8271 26.1126 14.3026 25.6595C14.1861 25.6245 13.9298 25.8244 13.84 25.9743C13.3623 26.7722 13.0145 26.9671 12.149 26.7056C11.708 26.5723 11.4866 26.6522 11.3402 27.077C11.232 27.3885 11.0772 27.63 10.6512 27.4585C7.63712 26.2491 4.79283 24.77 2.51773 22.383C1.46589 21.2786 0.648722 20.016 0.107824 18.5768C-0.0569416 18.1371 -0.0835704 17.7939 0.414055 17.604C0.908352 17.4158 0.943303 17.0777 0.898367 16.5946C0.540542 12.8201 1.09475 9.26711 3.60119 6.2405C5.69821 3.71027 8.50921 2.43432 11.6314 1.7114C17.8676 0.268886 23.5112 1.67142 28.7072 5.24606C29.2747 5.63584 29.8355 6.03728 30.3764 6.46204C31.0588 6.99673 31.142 7.57141 30.6344 8.25602C29.1898 10.2016 27.7385 12.1421 26.2773 14.0744C25.6981 14.8406 25.3869 14.8506 24.5298 14.3559C22.9171 13.4231 21.3027 12.4886 19.6517 11.6241C17.9358 10.7246 16.135 10.8062 14.3426 11.3976C13.2375 11.7607 12.2639 12.3454 12.1673 13.6413C12.0691 14.9506 12.5768 16.0932 13.7218 16.7579C14.514 17.2176 15.4377 17.4675 16.3231 17.7423C17.1769 18.0072 17.3 18.192 16.9439 19.0166C16.7974 19.3564 16.651 19.6979 16.4729 20.116C18.039 20.5624 19.5252 20.9971 21.0214 21.3919C21.1446 21.4235 21.4308 21.2237 21.4841 21.0754C22.0966 19.3697 22.4927 19.368 24.2202 19.9644C26.0892 20.609 27.9649 21.2337 29.6142 22.3763C31.886 23.9488 32.9145 26.2325 33.4604 28.8477C34.5322 33.9781 32.3986 37.8442 28.7271 41.119C25.2604 44.2123 21.0996 45.0851 16.5944 44.9602C12.3254 44.8419 8.74388 43.1146 5.51181 40.4844C4.82279 39.923 4.16039 39.3301 3.49135 38.747C3.22672 38.5172 3.00038 38.3389 2.62591 38.6238C2.49942 38.7204 2.1183 38.6421 1.97018 38.5122C1.67559 38.2507 1.45757 37.9009 1.21791 37.581C0.647057 36.8148 0.677015 36.4933 1.42595 35.9137C2.97375 34.7177 4.5332 33.535 6.08599 32.3457C6.95142 31.6827 7.80854 31.0131 8.6773 30.3551C9.30308 29.8821 9.62928 29.9087 10.1918 30.4501C10.3849 30.635 10.5696 30.8265 10.7593 31.0148C11.1843 31.4412 11.191 31.8893 10.7793 32.359H10.781Z" fill="black"/>
<path d="M157.77 21.8595C157.727 22.2793 157.742 22.7157 157.629 23.1155C157.334 24.1615 157.311 24.1549 158.421 23.9417C158.771 24.5097 159.159 25.0794 159.471 25.6873C159.56 25.8589 159.5 26.2104 159.372 26.3686C159.109 26.6918 159.154 26.905 159.435 27.1549C159.701 27.3914 159.934 27.6662 160.212 27.8844C160.347 27.991 160.586 28.096 160.723 28.0477C162.214 27.5196 163.524 27.986 164.766 28.7723C167.207 30.3147 169.632 31.8838 172.078 33.418C172.44 33.6445 172.876 33.8044 173.297 33.871C173.951 33.9743 174.425 34.2275 174.637 34.8871C174.751 35.2469 174.874 35.6084 175.044 35.9432C175.146 36.1414 175.316 36.3496 175.507 36.4479C176.482 36.941 177.165 38.6933 176.747 39.7177C176.705 39.8193 176.67 39.9659 176.592 40.0026C175.613 40.459 175.68 41.4384 175.449 42.2663C175.347 42.6294 175.301 43.0092 175.167 43.359C174.888 44.0919 174.116 44.2402 173.586 43.6705C172.851 42.8776 172.634 41.8782 172.551 40.8487C172.478 39.9476 172.473 39.0414 172.44 38.137C172.365 38.1103 172.292 38.0853 172.217 38.0587C171.622 38.9232 171.013 39.7794 170.454 40.6655C170.381 40.7821 170.522 41.0786 170.626 41.2569C171.228 42.3029 171.852 43.3357 172.46 44.3784C172.628 44.6666 172.781 44.9647 172.909 45.2712C173.162 45.8759 173.015 46.4223 172.476 46.7887C171.839 47.2218 171.223 47.7732 170.368 47.6066C170.105 47.5549 169.767 47.385 169.65 47.1668C169.104 46.1591 168.645 45.1047 168.114 44.0886C167.823 43.5306 167.46 43.0059 167.102 42.4862C167.034 42.3879 166.833 42.3196 166.703 42.3329C164.426 42.5594 162.823 41.3951 161.532 39.731C160.21 38.0287 158.994 36.2447 157.727 34.499C157.531 34.2292 157.323 33.9693 157.105 33.7161C156.406 32.8983 156.278 31.9971 156.799 31.0643C157.035 30.6395 156.965 30.413 156.61 30.1232C155.75 29.4202 154.908 28.694 154.089 27.9444C153.851 27.7262 153.715 27.398 153.585 27.0782C152.581 26.6551 151.959 27.0782 151.643 27.996C151.198 29.2853 150.378 30.2414 148.91 30.3814C149.055 31.4474 149.043 31.4241 148.079 31.9105C147.528 32.1887 147.032 32.5718 146.492 32.8733C146.235 33.0165 145.934 33.1581 145.649 33.1631C143.982 33.1898 142.314 33.1948 140.648 33.1614C140.327 33.1548 139.992 32.9765 139.696 32.8166C138.847 32.3552 138.015 31.8638 137.122 31.3525C137.19 31.1309 137.291 30.8011 137.406 30.423C135.76 30.1665 134.975 29.0854 134.457 27.6496C134.299 27.2115 133.781 26.9083 133.44 26.5319C133.084 26.1404 132.743 25.734 132.275 25.1976C132.169 25.5907 132.109 25.724 132.1 25.8623C132.034 26.9633 131.786 28.0993 131.982 29.1521C132.115 29.865 131.937 30.5263 132.07 31.1926C132.104 31.3575 132.308 31.5574 132.478 31.614C133.149 31.8422 133.455 32.3019 133.573 32.9832C133.776 34.1642 134.004 35.3435 134.279 36.5112C134.449 37.2325 134.652 37.9054 135.567 38.1636C136.432 38.4068 136.769 39.6927 136.336 40.4873C136.246 40.6522 136.209 40.8654 136.213 41.0553C136.219 41.4767 136.323 41.9048 136.278 42.3179C136.249 42.5911 136.095 42.9459 135.882 43.0758C135.719 43.1758 135.277 43.0642 135.133 42.8976C134.703 42.4079 134.359 41.8432 133.976 41.3002C133.141 41.7899 133.081 42.2363 133.628 43.4556C133.936 44.1402 134.157 44.8648 134.382 45.5827C134.552 46.1224 134.114 46.349 133.75 46.5272C133.375 46.7088 132.956 46.8104 132.545 46.902C132.089 47.0036 131.747 46.792 131.593 46.3673C131.386 45.8059 131.175 45.2379 131.058 44.6549C130.732 43.0308 130.288 42.6527 128.389 42.6127C128.697 43.2291 128.971 43.7971 129.261 44.3584C129.579 44.9747 129.91 45.5861 129.71 46.3173C129.522 47.0069 129.043 47.1535 128.539 46.6555C128.223 46.344 127.96 45.9775 127.638 45.671C127.474 45.5144 127.214 45.4628 127.036 45.3162C126.718 45.0547 126.279 44.8082 126.164 44.4634C125.976 43.9053 125.766 43.2541 126.304 42.6994C126.378 42.6211 126.36 42.3945 126.312 42.2629C126.057 41.565 126.15 40.9304 126.37 40.2108C126.713 39.0931 126.816 37.9038 127.041 36.7494C127.197 35.9432 127.395 35.1453 127.555 34.3391C127.76 33.3114 128.256 32.4885 129.283 32.0021C128.189 31.4024 127.913 30.4413 128.617 29.7034C128.342 29.5452 128.096 29.3869 127.835 29.2553C127.51 29.0921 127.409 28.8822 127.495 28.5024C127.915 26.6401 128.287 24.7662 128.712 22.9039C128.852 22.2909 128.807 21.8229 128.291 21.3698C126.806 20.0622 126.964 19.6125 128.422 18.4831C129.346 17.7685 129.682 16.8257 129.281 15.7846C128.129 12.7963 129.359 10.2694 130.722 7.76585C131.075 7.11622 131.366 6.5099 131.475 5.747C131.733 3.93469 132.947 2.80034 134.617 2.29729C135.699 1.97081 136.88 1.91417 138.022 1.87086C138.649 1.84754 139.169 1.75093 139.541 1.25455C139.934 0.731511 140.435 0.626571 141.053 0.643228C142.497 0.678208 143.943 0.678208 145.388 0.643228C145.947 0.629902 146.393 0.761494 146.725 1.21124C147.119 1.74594 147.628 1.90418 148.289 1.85587C149.682 1.75426 151.04 1.9275 152.298 2.59878C153.701 3.34669 154.597 4.44107 154.766 6.07848C154.803 6.43661 154.956 6.81639 155.158 7.11622C156.299 8.82359 157.002 10.6942 157.443 12.6914C157.667 13.7075 157.226 14.5587 157.032 15.4815C156.922 16.0062 156.888 16.5592 156.907 17.0956C156.935 17.9018 157.596 18.2915 158.13 18.7463C159.233 19.6808 159.262 20.0322 158.255 21.0367C158.018 21.2715 157.732 21.4548 157.469 21.663C157.566 21.7313 157.661 21.7996 157.757 21.8679L157.77 21.8595ZM143.243 25.5674C144.276 25.4475 145.323 25.3992 146.342 25.1976C149.432 24.583 151.742 22.9989 152.684 19.8257C153.149 18.2616 153.185 16.6675 152.919 15.0717C152.468 12.3699 151.115 10.3211 148.507 9.25667C145.694 8.10899 142.79 8.14064 139.863 8.67534C137.747 9.06178 135.883 9.92463 134.57 11.7119C133.518 13.1428 133.172 14.8052 133.057 16.5359C132.813 20.2571 134.214 23.347 138.122 24.7279C139.774 25.3126 141.49 25.4958 143.243 25.5658V25.5674Z" fill="black"/>
<path d="M50.8119 15.6999C49.3173 16.0097 47.8827 16.2962 46.4564 16.6211C46.3133 16.6527 46.1036 16.9376 46.1286 17.0675C46.3199 18.0936 45.9155 18.5949 44.8936 18.7582C44.6773 18.7932 44.3744 19.2612 44.3744 19.5294C44.3794 21.36 44.5758 21.4866 46.4082 21.2434C48.3221 20.9886 50.241 20.7737 52.1583 20.5522C52.8407 20.4739 53.057 20.6638 53.0803 21.3401C53.1236 22.6077 53.1452 23.8753 53.2002 25.1429C53.2251 25.7376 52.9938 26.0291 52.3913 26.134C50.0746 26.5388 47.7646 26.9885 45.4495 27.4049C44.907 27.5032 44.6889 27.8097 44.7122 28.3311C44.7472 29.0857 44.7738 29.8419 44.8237 30.5965C44.882 31.481 45.1499 31.6742 46.0187 31.5459C49.1792 31.0812 52.3381 30.6181 55.5002 30.165C56.5537 30.0135 56.6852 30.1267 56.7185 31.2211C56.7618 32.6436 56.7668 34.0678 56.81 35.492C56.8267 36.0434 56.5837 36.2849 56.0511 36.3799C52.8606 36.9462 49.6752 37.5425 46.483 38.1039C45.8806 38.2105 45.6076 38.4304 45.8157 39.0717C45.9238 39.4031 45.8506 39.703 45.4329 39.7729C43.1927 40.1444 41.0125 40.166 39.0237 38.8101C37.0997 37.4976 36.0446 35.6786 35.7866 33.3866C35.6418 32.0989 35.6601 32.0956 37.0481 31.7875C36.9183 30.7514 36.7935 29.702 36.6554 28.6542C36.5072 27.5315 36.3574 26.4072 36.1893 25.2878C36.1145 24.7848 36.2027 24.3733 36.6387 24.0635C37.401 23.5222 37.5408 22.8026 37.3827 21.8981C37.0997 20.279 36.8917 18.6449 36.7136 17.0108C36.6237 16.1863 36.1561 15.7033 35.472 15.4301C34.9228 15.2102 34.7614 14.8437 34.7148 14.314C34.6615 13.6944 34.545 13.0814 34.4685 12.4634C34.4135 12.0203 34.5134 11.6739 35.036 11.5773C38.1116 11.0142 41.1839 10.4346 44.2595 9.87989C44.8038 9.78161 45.0434 10.1347 45.0434 10.6278C45.0451 11.5389 45.1999 11.449 45.9605 11.3041C47.1155 11.0842 48.2672 10.8493 49.4205 10.6211C49.8067 10.5445 50.0713 10.4212 49.9681 9.91987C49.8433 9.31854 50.1778 9.01871 50.757 8.9221C51.5009 8.79717 52.2415 8.65892 52.9788 8.50067C53.1585 8.46236 53.3533 8.36242 53.4764 8.23083C53.6395 8.05592 53.7078 7.67281 53.8725 7.63783C54.5815 7.48958 55.3088 7.40296 56.0328 7.37798C56.1543 7.37298 56.4006 7.77109 56.4039 7.98763C56.4455 10.6578 56.4539 13.3279 56.4705 15.9964C56.4738 16.4711 56.2308 16.7377 55.7782 16.8359C55.3438 16.9292 54.9127 17.0342 54.475 17.1108C54.3302 17.1358 54.0739 17.1408 54.039 17.0691C53.6628 16.3129 53.1003 16.7643 52.601 16.8226C52.4246 16.8426 52.2532 16.8909 52.0784 16.9276C51.2979 17.0958 51.1165 16.9692 50.9583 16.1613C50.9334 16.0347 50.8785 15.9131 50.8069 15.7016L50.8119 15.6999Z" fill="black"/>
<path d="M69.1893 37.3044C66.2319 37.3044 63.2761 37.3044 60.3186 37.3044C59.4781 37.3044 59.3001 37.1295 59.2784 36.3049C59.2684 35.9485 59.2984 35.5887 59.2568 35.2372C59.1503 34.3211 59.2119 33.5398 60.267 33.1517C60.5 33.0668 60.7097 32.5887 60.7197 32.2856C60.768 30.8847 60.723 29.4821 60.7497 28.0813C60.7613 27.465 60.3719 27.1751 59.9142 27.0102C59.0837 26.7121 58.869 26.1424 58.8723 25.3195C58.8773 23.8753 58.8058 22.4295 58.7359 20.9853C58.7142 20.5256 58.8457 20.2224 59.2768 20.0392C59.8709 19.786 60.1256 19.3579 60.0956 18.6749C60.0423 17.454 60.0457 16.2263 60.0956 15.0054C60.1222 14.3574 59.9125 13.891 59.3267 13.6844C58.5827 13.4229 58.4246 12.9249 58.4513 12.2003C58.4829 11.3591 58.373 10.5129 58.3497 9.66839C58.3281 8.90049 58.4646 8.75391 59.2268 8.75391C61.1391 8.75391 63.0514 8.75557 64.962 8.80888C65.22 8.81554 65.6061 9.06873 65.6993 9.30026C66.0837 10.263 66.7678 10.5029 67.7464 10.5029C70.9019 10.5029 74.0591 10.5629 77.2146 10.6528C77.9985 10.6761 78.4595 10.3946 78.8007 9.72336C79.2068 8.92714 79.9906 8.62398 80.8128 8.97045C81.0109 9.05374 81.2272 9.47683 81.1856 9.69504C80.7329 12.0487 80.2386 14.394 79.736 16.7377C79.6312 17.2308 79.2117 17.2691 78.7873 17.2741C75.7417 17.3124 72.6977 17.3607 69.652 17.4007C68.5619 17.4157 68.4204 17.5506 68.4088 18.6316C68.3938 19.9542 68.3905 19.9859 69.7452 20.1325C71.6658 20.3407 73.5914 20.5072 75.5153 20.6655C76.5023 20.7471 76.7036 20.957 76.5322 21.9098C76.3192 23.0891 76.0929 24.2668 75.8732 25.4444C75.7733 25.9758 75.5054 26.2373 74.9162 26.229C72.9606 26.2023 71.0034 26.2357 69.0462 26.2107C68.4753 26.204 68.2457 26.3772 68.274 26.9736C68.3189 27.928 68.284 28.8875 68.3089 29.8436C68.3289 30.6382 68.5286 30.853 69.2958 30.8664C71.1848 30.8997 73.0738 30.9047 74.9645 30.9313C75.3356 30.9363 75.5769 30.8647 75.6934 30.4349C75.7467 30.2417 76.0845 30.0085 76.3026 29.9985C77.168 29.9635 78.0351 30.0035 78.9022 30.0268C79.3632 30.0402 79.5945 30.2817 79.5529 30.7564C79.3882 32.6154 79.2201 34.4743 79.0636 36.3349C79.0104 36.9696 78.6941 37.1911 78.0584 37.1861C75.1026 37.1611 72.1468 37.1744 69.1893 37.1744V37.301V37.3044Z" fill="black"/>
<path d="M178.626 37.9701C178.368 37.1772 178.145 36.4243 177.872 35.6897C177.793 35.4815 177.597 35.2333 177.401 35.1667C176.795 34.9635 176.554 34.5304 176.395 33.9607C176.122 32.9796 175.577 32.305 174.432 32.3316C174.202 32.3366 173.967 32.1518 173.749 31.9052C174.165 31.8003 174.588 31.7187 174.996 31.5871C176.434 31.1223 176.695 29.993 175.587 28.9785C174.34 27.8359 172.747 27.3478 171.209 26.7815C169.081 25.9969 166.957 25.2074 165.053 23.9447C163.369 22.8287 161.991 21.4578 161.37 19.454C159.774 14.3019 163.079 8.51017 168.383 7.19091C168.813 7.08431 169.246 6.98437 169.683 6.91441C170.267 6.81946 170.882 6.83945 170.95 5.97994C170.962 5.83002 171.462 5.60348 171.735 5.60848C173.992 5.63846 176.194 6.06156 178.359 6.66788C179.062 6.86443 179.742 7.14594 180.421 7.41579C180.967 7.634 181.16 8.00379 180.884 8.58679C180.816 8.73004 180.864 9.04819 180.977 9.13814C181.666 9.69283 182.389 10.2059 183.111 10.7406C183.459 10.4907 183.675 9.92103 184.236 10.5207C185.311 11.6684 185.414 11.8466 184.82 12.5495C183.141 14.5367 181.457 16.5173 179.762 18.4912C179.181 19.1691 178.948 19.1791 178.261 18.6361C177.948 18.3879 177.642 18.1297 177.337 17.8699C177.291 17.8299 177.269 17.7599 177.209 17.6583C177.399 17.4051 177.595 17.1436 177.79 16.8854C176.51 15.1447 173.375 14.1053 171.389 14.7666C170.788 14.9665 170.198 15.2197 170.071 15.9409C169.923 16.7855 170.091 17.5834 170.812 18.0897C171.346 18.4662 171.977 18.7277 172.593 18.9642C174.874 19.8337 177.186 20.6316 179.456 21.5311C182.758 22.8387 184.484 25.2107 184.827 28.8503C185.25 33.3244 182.169 36.6542 178.764 37.9568C178.687 37.9868 178.594 37.9734 178.624 37.9701H178.626Z" fill="black"/>
<path d="M95.1477 37.4542C94.1791 36.2715 95.677 36.2566 95.905 35.5586C95.1411 34.4926 94.3422 33.3799 93.52 32.2338C93.1156 32.472 92.7778 32.6703 92.3717 32.9085C91.929 32.3388 91.5229 31.7574 91.0519 31.2344C90.8538 31.0162 90.4527 30.7447 90.263 30.8146C90.0133 30.9079 89.7504 31.301 89.7188 31.5909C89.5207 33.3565 89.3859 35.1305 89.2311 36.9012C89.2228 36.9895 89.2261 37.0794 89.2195 37.1677C89.1329 38.377 88.9216 38.5186 87.7166 38.3237C86.009 38.0472 84.2948 37.8107 82.5823 37.5592C81.587 37.4126 81.4921 37.326 81.5537 36.3365C81.6303 35.1172 81.7418 33.8996 81.8466 32.6819C81.8816 32.2722 82.028 31.969 82.4275 31.7175C82.7154 31.5359 82.97 31.0995 83.005 30.753C83.3062 27.7014 83.5575 24.6448 83.8188 21.5899C84.0185 19.2429 84.2033 16.8942 84.4163 14.5489C84.4679 13.9725 84.3564 13.5078 83.8954 13.123C83.7506 13.0014 83.6125 12.7599 83.6224 12.5833C83.689 11.5189 83.8055 10.4579 83.8921 9.39513C83.932 8.89375 84.1484 8.64389 84.6826 8.61891C87.0343 8.51063 89.3859 8.36738 91.7376 8.25911C92.4932 8.22413 92.6613 8.3957 92.5581 9.17193C92.3051 11.0858 91.9855 12.9931 91.7392 14.9087C91.6976 15.2352 91.7792 15.7549 91.9905 15.8881C92.2086 16.0264 92.7145 15.8948 92.9924 15.7199C95.6603 14.0358 98.3066 12.3185 100.959 10.6111C101.128 10.5028 101.292 10.3879 101.469 10.2946C102.03 9.99646 102.374 10.1597 102.431 10.7977C102.635 13.078 102.808 15.3601 103.015 17.6405C103.066 18.2018 102.76 18.4883 102.359 18.7715C100.29 20.2356 98.2283 21.7065 96.1696 23.184C95.2509 23.8436 95.2309 24.0518 95.8883 24.9463C96.6639 26.004 97.4228 27.0734 98.21 28.1228C98.448 28.4393 98.4564 28.6709 98.1235 28.8941C98.1052 28.9057 98.0902 28.9241 98.0736 28.939C97.3246 29.6309 97.2486 30.3854 97.8455 31.2028C98.3715 31.919 98.9124 32.6253 99.4483 33.3349C99.4732 33.3682 99.5182 33.3882 99.6064 33.4531C99.8643 33.3099 100.147 33.1533 100.538 32.9351C100.673 33.1383 100.818 33.3599 100.983 33.6081C101.643 33.09 101.966 33.4082 102.266 33.9579C102.572 34.5225 102.963 35.0422 103.299 35.5919C103.709 36.2616 103.602 36.6247 102.887 36.8745C100.645 37.6591 98.3931 38.412 96.1546 39.2065C95.5372 39.4248 95.2226 39.1849 94.9047 38.6868C94.5918 38.1955 94.4837 37.809 95.1461 37.4542H95.1477Z" fill="black"/>
<path d="M108.853 10.664C108.831 9.83285 109.304 9.67461 109.983 9.72125C110.535 9.75956 111.095 9.72458 111.649 9.72624C112.34 9.72624 112.783 10.1227 112.977 10.9156C114.59 10.9156 116.251 10.9156 117.913 10.9156C118.448 10.9156 118.983 10.9589 119.513 10.9106C119.744 10.8889 119.954 10.674 120.18 10.5624C120.406 10.4508 120.639 10.2843 120.876 10.2709C121.585 10.2293 122.297 10.2543 123.009 10.2476C123.485 10.2443 123.963 10.201 124.101 10.8473C124.121 10.9406 124.386 11.0255 124.542 11.0355C124.985 11.0655 125.431 11.0438 125.875 11.0638C126.396 11.0871 126.666 11.352 126.546 11.8917C126.068 14.0588 125.584 16.2259 125.1 18.3913C124.978 18.936 124.634 19.1292 124.083 19.1276C121.393 19.1192 118.704 19.1359 116.013 19.1459C114.994 19.1492 114.836 19.2558 114.754 20.2569C114.678 21.1864 114.695 22.1242 114.653 23.057C114.635 23.4968 114.829 23.6517 115.25 23.6184C115.56 23.5934 115.873 23.61 116.184 23.615C116.544 23.62 116.881 23.6517 116.985 23.147C117.015 23.002 117.344 22.8588 117.555 22.8238C117.925 22.7622 118.316 22.8255 118.684 22.7555C118.934 22.7072 119.143 22.4574 119.393 22.4024C119.925 22.2841 120.475 22.1975 121.017 22.1975C121.095 22.1975 121.269 22.7588 121.235 23.042C121.047 24.5845 120.814 26.1219 120.581 27.6594C120.505 28.1691 119.338 28.5706 118.95 28.1525C118.552 27.7244 118.158 27.8576 117.737 27.8993C117.322 27.9409 116.99 27.9209 116.875 27.4112C116.848 27.2913 116.643 27.1547 116.5 27.1264C114.903 26.8165 114.578 27.0931 114.585 28.7105C114.588 29.5117 114.576 30.3129 114.58 31.1141C114.585 31.9436 114.771 32.1402 115.593 32.1568C118.171 32.2052 120.749 32.2451 123.327 32.2851C124.283 32.3001 124.336 32.3501 124.356 33.3179C124.382 34.6304 124.421 35.9414 124.437 37.254C124.449 38.2084 124.342 38.3167 123.362 38.3134C119.739 38.2984 116.116 38.2701 112.493 38.2517C110.58 38.2417 108.67 38.2467 106.758 38.2384C105.955 38.2351 105.842 38.1168 105.817 37.3106C105.796 36.621 105.83 35.923 105.734 35.2451C105.642 34.6038 105.87 34.2307 106.428 33.9958C107.109 33.7076 107.335 33.2179 107.315 32.4667C107.23 29.1086 107.19 25.7488 107.162 22.3907C107.157 21.7594 106.899 21.348 106.336 21.1747C105.563 20.9366 105.404 20.4502 105.404 19.6806C105.404 17.0338 105.316 14.3869 105.261 11.7401C105.241 10.749 105.32 10.669 106.3 10.669C107.119 10.669 107.937 10.669 108.85 10.669L108.853 10.664Z" fill="black"/>
<path d="M149.269 17.0425C149.269 17.2423 149.269 17.4422 149.269 17.6421C149.265 18.6799 148.994 19.1329 148.207 19.4128C147.333 19.7243 146.306 19.4811 145.77 18.8381C145.288 18.2584 145.328 15.6399 145.829 15.0786C146.35 14.4939 147.485 14.269 148.298 14.6022C149.064 14.9153 149.322 15.525 149.274 16.3112C149.259 16.5544 149.272 16.7993 149.272 17.0425H149.269Z" fill="black"/>
<path d="M140.616 17.0119C140.616 17.2118 140.616 17.4117 140.616 17.6115C140.606 18.9091 140.012 19.5371 138.787 19.5404C137.491 19.5454 136.815 18.8725 136.81 17.5732C136.81 17.1068 136.798 16.6388 136.813 16.1724C136.848 15.1096 137.601 14.44 138.757 14.425C139.891 14.4117 140.578 15.0463 140.611 16.1424C140.62 16.4305 140.611 16.7204 140.611 17.0085H140.616V17.0119Z" fill="black"/>
</svg>
