<svg width="133" height="38" viewBox="0 0 133 38" fill="none" xmlns="http://www.w3.org/2000/svg"><path d="M18.048 8.025A11.007 11.007 0 117.041 19.032 11.02 11.02 0 0118.048 8.025zm0-7.044a18.05 18.05 0 1018.053 18.051A18.051 18.051 0 0018.048.991m86.098 21.259a18.057 18.057 0 00-8.287-18.496A18.048 18.048 0 0068.495 16.64a18.054 18.054 0 0034.487 9.5h-8.2a11.002 11.002 0 01-18.927-3.9l28.292.007zm-28.504-5.608a11.007 11.007 0 0121.485 0H75.642z" fill="#000"/><path d="M64.95 19.064a20.787 20.787 0 01.765-5.534c-.403.62-.802 1.27-1.197 1.946L56.912 28.72l-7.614-13.243C40.097-.644 28.413 1.04 28.413 1.04c6.608 2.342 14.204 17.564 14.204 17.564l8.596 15.035a6.42 6.42 0 0011.396 0l.76-1.33a706.232 706.232 0 003.103-5.497 20.726 20.726 0 01-1.523-7.745v-.003zm50.731-10.053v28.064h-7.759V17.628s0-7.279-3.492-11.875c0 0 11.731-8.849 28.571-3.274l-3.37 6.198s-8.371-2.538-13.95.333z" fill="#000"/></svg>