<svg width="199" height="61" viewBox="0 0 199 61" fill="none" xmlns="http://www.w3.org/2000/svg">
<g clip-path="url(#clip0_465_1125)">
<path d="M198.817 37.3375C198.421 35.5253 197.371 34.0786 196.122 32.7537C194.127 30.637 191.614 29.373 188.903 28.4441C185.218 27.1953 181.471 26.6471 177.679 27.8197C176.111 28.307 174.633 29.0837 173.065 29.7537C172.501 29.2207 171.892 28.5507 171.176 27.972C168.207 25.5659 164.704 24.5608 160.988 24.1192C159.983 23.9974 158.978 23.8146 157.866 23.6319C158.308 23.1446 158.658 22.7791 158.978 22.3832C162.084 18.5608 162.1 12.4847 159.084 8.63188C155.795 4.44406 151.439 2.84508 146.216 3.37807C144.084 3.6065 142.149 4.33746 140.398 5.54051C139.819 5.08366 139.332 4.61158 138.753 4.24609C136.088 2.61665 133.164 1.84 130.042 1.71817C126.966 1.59635 124.057 2.19026 121.346 3.66741C120.92 3.89584 120.661 3.83493 120.28 3.56081C119.519 3.01259 118.727 2.49482 117.889 2.11411C115.453 0.971981 112.848 0.606499 110.199 0.652184C107.762 0.697869 105.356 1.03289 103.147 2.20548C102.965 2.29685 102.645 2.19026 102.416 2.11411C101.381 1.76386 100.376 1.18518 99.3097 1.04812C96.8121 0.713098 94.6496 1.70295 92.7002 3.21056C92.2434 3.56081 91.954 3.6065 91.4514 3.2867C89.959 2.31208 88.3751 1.5202 86.5629 1.33746C84.3546 1.12427 82.4053 1.71817 80.8367 3.21056C79.9229 2.92122 79.0853 2.63188 78.2325 2.38822C75.8567 1.71817 73.4505 1.93137 71.0595 2.14457C69.7498 2.2664 68.4553 2.46437 67.1761 2.78416C65.4247 3.21056 63.9323 4.13949 62.7444 5.54051C61.3281 4.65726 59.8204 4.30701 58.2365 4.15472C54.7491 3.80447 51.4139 4.23086 48.3376 6.01259C44.8501 8.03797 42.6571 11.038 42.3982 15.0887C42.1697 18.7283 43.586 21.8654 46.4187 24.2715C46.9822 24.7588 47.6066 25.1852 48.0939 25.5507C46.8451 26.8603 45.6115 28.1547 44.3475 29.4644C42.2916 27.104 39.7178 25.9161 36.5045 26.3882C33.2911 26.8603 31.1438 28.8248 29.4381 31.4136C23.0419 27.0126 16.4019 29.6319 14.7876 34.307C14.4678 34.1395 14.1632 33.9872 13.8434 33.8349C11.7266 32.8451 9.57924 32.0075 7.1578 32.3578C2.64995 32.9974 -0.274056 36.8502 0.0152985 41.3425C0.198049 44.1141 1.26409 46.5811 2.75656 48.8806C5.13231 52.5507 8.2543 55.505 11.7875 58.0329C14.3308 59.8603 17.1329 61.0177 20.3767 60.5304C22.783 60.1801 24.8237 59.2055 26.1943 57.0887C26.438 56.708 26.6816 56.3425 26.9101 55.9771C32.8951 59.038 38.0274 58.5811 41.8804 52.5659C42.1088 52.8095 42.2611 52.9923 42.4134 53.1598C44.8501 55.7943 47.9873 56.5557 51.3225 55.2004C53.7744 54.2106 55.4801 52.3679 56.6375 50.0227C57.2162 48.8806 58.1452 48.7436 59.0285 49.6877C59.4701 50.1446 59.927 50.571 60.3991 50.9974C62.9271 53.2512 67.6025 53.7689 70.5113 52.0634C71.3641 51.5608 72.1104 50.8603 72.9023 50.2512C73.2678 50.4187 73.6485 50.6166 74.0445 50.7994C76.6182 51.9567 79.3747 52.1243 82.1159 52.2918C84.0044 52.4136 85.908 52.2156 87.8117 52.1699C89.5935 52.1243 91.3296 51.774 92.9439 50.9821C94.0861 50.4035 95.1674 49.6877 96.2943 49.0177C96.34 49.0634 96.4466 49.1395 96.538 49.2309C98.7158 51.1496 101.244 51.774 104.076 51.2715C105.904 50.9364 107.336 49.9161 108.645 48.7131C109.133 48.2715 109.483 48.2562 109.909 48.6826C110.031 48.8045 110.183 48.9111 110.32 49.0177C112.315 50.6014 114.6 51.5151 117.128 51.6979C119.519 51.8654 121.697 51.3019 123.402 49.7334C124.621 50.2664 125.702 50.9364 126.89 51.2258C129.235 51.8045 131.611 52.2765 134.002 52.6116C136.164 52.9161 138.342 52.8552 140.52 52.505C142.332 52.2156 144.053 51.6979 145.576 50.6471C145.881 50.8755 146.155 51.0735 146.414 51.2715C149.627 53.6928 153.602 53.8603 156.907 51.7283C157.272 51.4999 157.47 51.576 157.744 51.8349C158.384 52.4136 159.023 53.0075 159.724 53.4948C162.13 55.1547 164.78 55.9618 167.674 55.1852C168.938 54.8502 170.11 54.1649 171.207 53.6928C172.852 54.637 174.512 55.7029 176.278 56.571C178.441 57.637 180.801 58.2156 183.192 58.3984C185.598 58.5811 187.989 58.5354 190.259 57.4238C193.183 55.9923 195.391 53.8908 196.685 50.906C197.462 49.109 197.827 47.2207 197.447 45.2715C197.31 44.571 196.99 43.9009 196.761 43.2309C198.848 41.708 199.32 39.6826 198.817 37.3375ZM70.359 25.3679C69.5366 27.1801 68.7295 28.9771 67.9375 30.7436C66.2014 29.1446 64.4196 27.4694 62.5921 25.7791C63.3231 25.2461 64.0846 24.6826 64.8765 24.1496C64.9831 24.0887 65.2268 24.1344 65.3486 24.2106C66.8258 25.17 68.4401 25.505 70.1915 25.3375C70.2676 25.3375 70.359 25.3679 70.359 25.3679ZM92.2281 34.5963C90.7661 34.4288 89.3041 34.2613 87.6898 34.0786C87.964 29.9364 86.5629 26.4491 82.984 23.8755C84.5678 22.8552 85.4359 21.4847 85.8623 19.6877C88.0401 23.7689 91.2991 25.109 95.7308 23.8298C93.1876 27.0126 92.3956 30.6674 92.2281 34.5963ZM123.676 23.0684C122.001 21.6674 120.037 20.9669 117.889 20.9669C116.092 20.9669 114.341 21.4085 112.65 22.3222C113.275 21.3781 113.808 20.5253 114.371 19.7029C114.508 19.5202 114.752 19.3679 114.981 19.2918C117.6 18.5151 119.945 17.3578 122.016 15.8349C122.351 18.4238 122.945 20.906 124.727 22.9466C124.392 23.4035 124.103 23.4339 123.676 23.0684Z" fill="black"/>
<path d="M24.5646 49.9007C24.8996 50.1595 25.2042 50.388 25.4936 50.6012C26.8185 51.5606 28.0825 52.6722 29.5141 53.4641C31.7223 54.6824 34.0828 55.0174 36.3977 53.6773C37.8597 52.8397 38.7582 51.4692 39.5044 50.0073C41.5451 46.0174 42.9919 41.8448 43.1747 37.3372C43.2203 36.0428 43.2203 34.6722 42.8701 33.4387C42.1391 30.789 39.3978 28.5199 36.0474 29.7534C34.6768 30.256 33.5498 31.1545 32.7579 32.3575C31.9203 33.6367 31.2197 35.0225 30.443 36.4083C30.2755 36.2408 30.0775 36.0123 29.8796 35.8144C28.1434 34.1392 26.2246 32.7991 23.7574 32.388C21.1989 31.9768 18.7318 33.1646 18.0008 35.2814C17.4982 36.7585 17.5439 38.2661 17.8485 39.789C17.8789 39.9565 17.8789 40.1545 17.8789 40.322C17.8789 40.322 12.5183 36.3321 9.86839 35.6012C6.57888 34.7027 3.60919 36.8194 3.39598 40.2154C3.27414 42.1037 3.77671 43.8397 4.67523 45.4692C6.70071 49.1545 9.59426 52.1088 12.9295 54.6671C14.6504 55.992 16.4779 57.1342 18.747 57.256C21.9299 57.4083 23.864 55.9768 24.3361 52.9463C24.4732 51.9717 24.4732 50.9819 24.5646 49.9007Z" fill="#EDEFF2"/>
<path d="M118.635 36.0123C118.818 35.7686 119.001 35.525 119.184 35.2965C119.915 34.3828 120.661 33.4844 121.377 32.5707C122.321 31.3676 123.052 30.0732 122.93 28.4742C122.747 26.0986 120.904 24.4539 118.376 24.2255C116.183 24.0275 114.356 24.8955 112.65 26.0681C111.203 27.0732 109.818 28.1696 108.325 29.2813C108.249 29.1747 108.173 29.0834 108.112 28.9768C107.67 28.2915 107.229 27.6214 106.787 26.9361C104.883 24.0732 99.7968 22.8397 97.284 27.2712C96.1722 29.2204 95.6697 31.3676 95.5174 33.591C95.2585 37.3676 95.5174 41.0834 97.1469 44.6011C98.6698 47.8905 101.822 48.8498 104.411 47.7077C105.843 47.0833 106.848 45.926 107.64 44.5859C107.914 44.129 108.219 43.7179 108.538 43.261C109.863 44.3422 111.097 45.3473 112.33 46.3676C114.204 47.9057 116.366 48.5605 118.772 48.3169C120.493 48.1341 121.696 47.2509 122.168 45.5148C122.549 44.1595 122.564 42.8042 122.199 41.4641C121.635 39.3016 120.265 37.6417 118.635 36.0123Z" fill="#EDEFF2"/>
<path d="M167.369 40.216C168.039 39.82 168.633 39.4089 169.288 39.1043C171.481 38.0688 172.075 35.1601 171.283 33.2566C170.658 31.7642 169.547 30.7134 168.222 29.8606C166.013 28.4292 163.546 27.6982 160.942 27.4089C158.429 27.1348 155.947 26.5561 153.388 26.7997C150.617 27.0738 148.53 28.3378 147.297 30.8505C145.484 34.5358 144.845 38.4495 145.408 42.5155C145.682 44.4799 146.292 46.353 147.632 47.9216C149.612 50.2363 153.708 50.617 155.658 48.3023C156.221 47.6322 156.952 47.084 157.637 46.4596C158.109 47.0992 158.536 47.7388 159.008 48.3327C160.394 50.084 162.023 51.485 164.293 51.9419C167.567 52.6119 170.201 51.1195 170.323 47.4342C170.384 45.5764 169.684 43.9165 168.755 42.3479C168.343 41.6474 167.871 40.9622 167.369 40.216Z" fill="#EDEFF2"/>
<path d="M55.876 26.8145C51.7946 26.8145 48.8401 28.4439 47.0431 31.6114C45.1851 34.8703 43.8754 38.3424 43.2206 42.0581C42.8094 44.4033 42.7485 46.7485 43.6317 49.0175C45.0785 52.718 48.962 53.586 51.8555 50.8906C52.8454 49.9617 53.5155 48.85 53.9724 47.6013C54.3074 46.7028 54.8404 46.1546 55.7999 46.0175C56.7289 45.8804 57.6426 45.7129 58.5564 45.4845C59.4397 45.2713 60.0336 45.4845 60.5514 46.2612C61.7088 48.0124 63.2317 49.2459 65.3943 49.6266C68.0442 50.0835 70.2676 48.7129 70.9377 46.1241C71.4707 44.053 71.0291 42.1038 70.1762 40.2155C68.0289 35.4642 64.7242 31.6419 60.6123 28.4896C59.1198 27.3627 57.3685 26.8297 55.876 26.8145Z" fill="#EDEFF2"/>
<path d="M136.926 39.3629C138.022 39.3781 139.103 39.5152 140.185 39.5304C141.388 39.5456 142.256 38.6471 142.469 37.2309C142.667 35.9822 142.119 35.0684 140.9 34.7487C140.215 34.5659 139.499 34.5355 138.799 34.4441C137.946 34.3375 137.078 34.307 136.24 34.1243C135.981 34.0634 135.509 33.6979 135.585 33.3781C135.646 33.0583 136.164 33.0126 136.469 32.9822C136.804 32.9517 137.154 33.1192 137.504 33.1954C139.515 33.5761 141.525 33.8349 143.489 33.0278C144.951 32.4339 145.561 31.2157 145.652 29.7233C145.728 28.3375 145.18 27.2106 143.916 26.6014C143.063 26.175 142.134 25.8096 141.205 25.6573C139.438 25.3679 137.641 25.1547 135.844 25.0786C133.621 24.972 131.382 24.8806 129.174 25.0634C126.768 25.2766 124.834 26.4035 124.072 28.9314C122.702 33.4999 122.367 38.1294 123.295 42.8197C123.859 45.6674 125.458 47.6319 128.367 48.2258C130.819 48.7131 133.301 49.1243 135.783 49.3832C138.037 49.6116 140.276 49.4289 142.454 48.6827C145.957 47.4796 145.53 43.3984 143.474 42.0126C142.682 41.4796 141.814 40.9466 140.9 40.7639C139.469 40.4898 137.992 40.4898 136.53 40.3984C136.012 40.3679 134.854 40.2766 135.266 39.5913C135.479 39.2106 136.377 39.3476 136.926 39.3629Z" fill="#EDEFF2"/>
<path d="M181.929 30.4394C181.731 30.4394 181.517 30.4242 181.319 30.4394C177.482 30.6983 174.284 32.0384 172.426 35.678C171.04 38.3886 171.953 41.9825 174.542 43.5054C175.517 44.0841 176.72 44.2973 177.817 44.678C178.654 44.9673 179.522 45.1653 180.33 45.5155C180.619 45.6374 181.106 46.0333 181 46.3988C180.893 46.749 180.269 46.8556 179.979 46.7795C178.776 46.5054 177.603 46.0942 176.416 45.744C175.548 45.5003 174.679 45.1653 173.781 45.0434C171.908 44.815 170.903 45.9876 171.451 47.7998C172.106 49.9775 173.629 51.4851 175.563 52.5815C177.786 53.8455 180.177 54.6526 182.721 54.9876C185.827 55.414 188.797 55.1094 191.447 53.2363C193.548 51.7592 194.706 49.7338 194.432 47.1297C194.173 44.7084 192.802 42.9724 190.579 41.9521C189.543 41.48 188.462 41.0993 187.411 40.6424C186.878 40.414 186.33 40.1856 185.858 39.8658C185.645 39.7287 185.477 39.348 185.492 39.1044C185.507 38.9216 185.858 38.6475 186.086 38.6323C186.513 38.5866 187 38.5714 187.396 38.7389C188.508 39.211 189.574 39.8049 190.701 40.2922C191.371 40.5815 192.086 40.8252 192.802 40.9013C194.569 41.1145 195.65 40.2465 195.604 38.7389C195.589 38.2973 195.452 37.8404 195.285 37.414C194.691 35.9216 193.625 34.7947 192.376 33.881C189.269 31.6272 185.705 30.6526 181.929 30.4394Z" fill="#EDEFF2"/>
<path d="M88.2231 48.7589C90.3552 48.6219 92.2589 47.8452 93.8884 46.4138C95.7311 44.7843 96.2032 42.363 95.0001 40.5356C93.9646 38.9366 92.4112 38.0838 90.5989 37.6574C88.8019 37.231 87.081 37.566 85.3601 38.1143C84.5986 38.3579 84.3702 38.1143 84.3702 37.3224C84.4006 35.5711 84.4615 33.8198 84.3702 32.0838C84.1874 28.7945 82.1924 26.7539 79.3597 25.5051C77.6541 24.7589 75.9484 25.033 74.4103 26.1904C73.329 27.0127 72.5828 28.0787 72.0193 29.2818C70.9837 31.4899 70.6943 33.8351 70.7248 36.2412C70.7705 39.7589 71.669 43.0483 73.4965 46.0787C74.1057 47.0838 74.8976 47.7539 76.0702 48.0584C78.9486 48.7894 81.8269 48.9112 84.8118 48.7894C85.6494 48.7285 87.081 48.8351 88.2231 48.7589Z" fill="#EDEFF2"/>
<path d="M79.6794 13.0937C80.0297 12.7739 80.3952 12.3932 80.8063 12.0582C81.5526 11.4186 81.8724 10.6115 81.8115 9.63685C81.7201 7.91604 80.5018 6.46934 78.5829 5.82975C75.0497 4.67239 71.5013 5.14447 68.0138 5.89066C66.0645 6.30183 64.77 7.67239 64.2827 9.62162C63.5821 12.4389 63.6735 15.2561 64.6938 17.982C65.2116 19.3678 65.897 20.647 67.2067 21.515C68.9276 22.6572 71.6231 22.3221 72.6283 20.4947C72.9328 19.9465 73.3288 19.4592 73.6943 18.9262C74.1969 19.3678 74.6233 19.7638 75.0802 20.1292C76.4813 21.2866 78.0651 21.911 79.9231 21.6825C81.6135 21.4693 82.8166 20.2206 82.6795 18.5455C82.6186 17.6622 82.3597 16.7333 81.9181 15.9719C81.3394 14.9668 80.5018 14.0988 79.6794 13.0937Z" fill="#EDEFF2"/>
<path d="M151.987 23.1754C158.46 21.5612 159.343 14.9521 156.83 11.1145C153.769 6.43938 146.992 5.09928 142.256 8.17542C137.961 10.9622 137.322 16.749 140.916 20.3277C143.231 22.6272 146.109 23.7236 149.307 23.6018C149.977 23.5866 151.104 23.4039 151.987 23.1754Z" fill="#EDEFF2"/>
<path d="M55.6017 24.1798C56.0585 24.1189 56.7895 24.0732 57.5053 23.9362C59.8811 23.5098 61.9218 22.5047 63.4447 20.5707C64.328 19.4438 64.4498 17.9819 63.734 16.9616C62.8964 15.7585 61.541 15.3017 60.1095 15.7737C59.5156 15.9717 58.9673 16.3524 58.3581 16.5047C57.4139 16.7636 56.4545 17.0225 55.495 17.0682C54.5204 17.1138 53.8503 16.4438 53.7437 15.6824C53.6523 14.9971 54.2158 14.0682 55.0839 13.8854C55.8301 13.7331 56.6372 13.7484 57.3987 13.855C58.8455 14.0529 60.2618 14.2204 61.6324 13.5047C63.1097 12.7281 63.6274 11.2052 62.7442 9.95648C62.0436 8.98186 61.1451 8.15952 59.9724 7.77881C56.5306 6.6976 53.1193 6.91079 49.9516 8.61638C45.0478 11.2661 43.7229 16.7788 47.7282 21.1951C49.7536 23.4184 52.4492 24.1037 55.6017 24.1798Z" fill="#EDEFF2"/>
<path d="M102.447 14.8297C102.736 16.6876 103.239 18.4389 104.655 19.8094C106.452 21.5607 109.483 21.2713 110.808 19.1698C111.265 18.4541 111.478 17.6013 111.843 16.8246C111.965 16.581 112.224 16.3069 112.453 16.2612C113.777 15.9566 115.163 15.8348 116.443 15.4389C118.072 14.9211 119.504 14.0074 120.128 12.2866C121.164 9.45408 119.869 6.65205 116.991 5.23581C113.61 3.57591 110.107 3.53022 106.513 4.27642C104.549 4.68758 103.178 5.72312 102.843 7.80941C102.584 9.37794 102.219 10.9465 102.173 12.1952C102.158 12.85 102.325 14.0835 102.447 14.8297Z" fill="#EDEFF2"/>
<path d="M86.1824 4.42907C83.5935 4.42907 82.0553 5.84531 82.2076 7.82501C82.2685 8.6778 82.5731 9.57628 82.9691 10.3377C83.8981 12.089 85.2991 13.4748 86.9744 14.5407C87.7054 15.0128 88.1166 15.5763 88.3145 16.4443C88.5125 17.2971 88.8475 18.1347 89.2587 18.9113C90.142 20.5712 91.8629 21.3022 93.7666 20.9519C95.3809 20.6473 96.8124 19.2311 96.9343 17.4951C97.0409 15.9874 97.6957 14.9215 98.7465 13.8859C100.254 12.4088 101.503 10.688 102.067 8.60166C102.752 6.07374 100.65 3.74379 98.0764 4.10927C96.2794 4.36816 94.8935 5.34278 93.66 6.59151C92.335 7.94684 92.3655 7.91638 90.9187 6.74379C89.3958 5.49506 87.7511 4.52044 86.1824 4.42907Z" fill="#EDEFF2"/>
<path d="M129.296 4.87047C127.179 4.85525 125.184 5.32733 123.265 6.19535C120.235 7.58113 120.752 10.4289 122.473 11.8146C123.113 12.3324 123.813 12.8045 124.544 13.2004C124.986 13.4441 125.123 13.6877 125.154 14.175C125.23 15.972 125.443 17.7537 126.204 19.4289C127.453 22.1852 130.712 22.7334 132.768 20.5101C133.987 19.2004 134.596 17.5405 134.535 15.8502C134.474 14.1141 135.296 13.4289 136.697 12.9415C137.52 12.6522 138.114 12.0735 138.449 11.2512C139.195 9.34763 138.555 7.7791 136.606 6.68266C134.322 5.4187 131.87 4.90093 129.296 4.87047Z" fill="#EDEFF2"/>
<path d="M101.411 21.0434C100.954 20.2211 100.528 19.4597 100.132 18.7744C99.6446 19.7643 99.142 20.7693 98.6699 21.7135C99.5075 21.5003 100.437 21.2719 101.411 21.0434Z" fill="black"/>
<path d="M138.159 22.0178C137.626 21.3021 137.245 20.7691 136.819 20.1904C136.499 20.7539 136.225 21.2412 135.905 21.8046C136.682 21.8808 137.322 21.9417 138.159 22.0178Z" fill="black"/>
<path d="M158.003 38.1291C157.607 38.0682 157.028 37.855 156.495 37.5961C156.252 37.4742 155.993 37.1088 155.993 36.8499C155.977 36.6671 156.358 36.3778 156.617 36.3017C157.576 35.9971 158.475 36.3017 159.282 36.8347C159.465 36.9565 159.556 37.3372 159.526 37.5656C159.495 37.7484 159.206 37.9311 158.993 38.0072C158.749 38.0986 158.247 38.1595 158.003 38.1291Z" fill="black"/>
<path d="M55.4646 37.8094C54.6879 37.8398 54.0635 37.6419 53.8655 36.9109C53.7285 36.4084 54.3224 35.7079 55.0229 35.5403C55.3884 35.449 55.7996 35.3576 56.1194 35.449C56.4849 35.5556 57.0027 35.8601 57.0332 36.119C57.0789 36.515 56.8352 37.0327 56.5459 37.3221C56.2413 37.6266 55.7539 37.7942 55.4646 37.8094Z" fill="black"/>
<path d="M71.2273 12.4388C71.273 11.9514 72.1106 11.9058 72.5675 11.8601C72.9482 11.8296 73.7097 11.7839 73.6031 12.4692C73.5574 12.7433 72.7807 13.2306 72.4304 13.2459C72.0649 13.2763 71.1969 12.8804 71.2273 12.4388Z" fill="black"/>
<path d="M149.901 14.8906C149.901 15.7281 149.489 16.4896 149.2 17.2358C148.972 17.8297 148.515 18.2561 147.799 18.2104C147.144 18.1647 146.84 17.6926 146.642 17.1596C146.002 15.4997 146.444 14.0073 147.51 12.6977C148.043 12.0276 148.911 12.1342 149.322 12.9413C149.596 13.52 149.901 14.1901 149.901 14.8906Z" fill="black"/>
<path d="M109.681 10.5205C109.194 9.622 111.173 9.42403 111.706 9.9418C111.783 10.0027 111.676 10.4139 111.554 10.5052C111.204 10.7946 109.909 10.9316 109.681 10.5205Z" fill="black"/>
</g>
<defs>
<clipPath id="clip0_465_1125">
<rect width="199" height="60" fill="white" transform="translate(0 0.636719)"/>
</clipPath>
</defs>
</svg>
